<?xml version="1.0" encoding="utf-8"?>
<!-- Svg Vector Icons : http://www.onlinewebfonts.com/icon -->
<!DOCTYPE svg PUBLIC "-//W3C//DTD SVG 1.1//EN" "http://www.w3.org/Graphics/SVG/1.1/DTD/svg11.dtd">
<svg version="1.1" xmlns="http://www.w3.org/2000/svg" xmlns:xlink="http://www.w3.org/1999/xlink" x="0px" y="0px" viewBox="0 0 1000 1000" enable-background="new 0 0 1000 1000" xml:space="preserve">
<metadata> Svg Vector Icons : http://www.onlinewebfonts.com/icon </metadata>
<g><path d="M894.1,208.8c-7.6-10.4-22.2-12.5-32.6-4.9c-10.3,7.7-12.5,22.3-4.9,32.6c56.8,76.7,86.8,167.8,86.8,263.5c0,244.4-198.9,443.3-443.3,443.3C255.6,943.4,56.7,744.4,56.7,500C56.7,255.5,255.6,56.7,500,56.7c68.3,0,133.7,15.1,194.6,44.9c14.4,7,28.4,14.9,41.9,23.4c10.9,6.9,25.4,3.6,32.2-7.3c6.9-10.9,3.7-25.3-7.2-32.2c-14.8-9.4-30.4-18.1-46.3-25.9C647.8,26.7,575.5,10,500,10C229.8,10,10,229.8,10,500C10,770.2,229.8,990,500,990c270.2,0,490-219.8,490-489.9C990,394.2,956.8,293.5,894.1,208.8"/><path d="M539.7,313v47.8H404.4v353.8h-54.9V360.8H214.1V313H539.7z"/><path d="M678.1,537.4c11.3-1.5,18.8-6.2,22.7-14.2c2.2-4.4,3.3-10.7,3.3-18.9c0-16.8-6-29-17.8-36.6c-11.9-7.6-29-11.4-51.2-11.4c-25.7,0-43.8,6.9-54.5,20.9c-6,7.7-9.9,19.1-11.8,34.3h-45.9c0.9-36.1,12.6-61.3,35.1-75.5c22.5-14.2,48.6-21.3,78.2-21.3c34.4,0,62.4,6.6,83.9,19.7c21.3,13.2,31.9,33.6,31.9,61.2v168.7c0,5.2,1,9.3,3.2,12.4c2.1,3,6.5,4.6,13.3,4.6c2.2,0,4.6-0.1,7.4-0.4c2.8-0.3,5.7-0.7,8.8-1.3V716c-7.7,2.2-13.5,3.5-17.5,4.1c-4,0.5-9.5,0.9-16.4,0.9c-17,0-29.2-6.1-36.9-18.1c-4-6.4-6.8-15.4-8.4-27c-10,13.2-24.4,24.5-43.2,34.1c-18.8,9.7-39.4,14.5-62,14.5c-27.2,0-49.4-8.2-66.6-24.7c-17.2-16.4-25.8-37.1-25.8-61.9c0-27.1,8.5-48.1,25.4-63.1c17-14.9,39.2-24.1,66.7-27.6L678.1,537.4z M574.4,670.4c10.4,8.2,22.7,12.3,36.9,12.3c17.3,0,34.1-4,50.3-12c27.3-13.3,41-35.1,41-65.3v-39.6c-6,3.9-13.7,7.1-23.2,9.6c-9.4,2.6-18.7,4.4-27.8,5.6l-29.7,3.8c-17.8,2.3-31.3,6.1-40.2,11.2c-15.2,8.5-22.8,22.2-22.8,41C558.9,651,564,662.2,574.4,670.4"/></g>
</svg>