<svg id="svg" version="1.1" width="400" height="400" viewBox="0 0 400 400" xmlns="http://www.w3.org/2000/svg" xmlns:xlink="http://www.w3.org/1999/xlink" ><g id="svgg"><path id="path0" d="M108.800 147.910 C 108.800 148.791,107.064 149.135,102.155 149.226 C 99.423 149.277,97.161 149.503,96.839 149.757 C 96.530 150.001,96.170 150.155,96.039 150.100 C 95.907 150.045,95.800 150.225,95.800 150.500 C 95.800 150.806,94.945 151.108,93.600 151.278 C 90.218 151.707,89.800 151.834,89.800 152.433 C 89.800 152.739,89.440 153.047,89.000 153.118 C 88.560 153.189,87.930 153.338,87.600 153.449 C 87.270 153.561,86.910 153.675,86.800 153.703 C 86.344 153.822,85.696 154.620,85.850 154.874 C 85.941 155.025,85.427 155.205,84.708 155.274 C 83.704 155.371,83.370 155.609,83.272 156.300 C 83.180 156.951,82.876 157.200,82.172 157.200 C 81.409 157.200,81.200 157.409,81.200 158.172 C 81.200 158.876,80.951 159.180,80.300 159.272 C 79.722 159.354,79.354 159.722,79.272 160.300 C 79.152 161.145,78.802 161.364,77.765 161.245 C 77.515 161.216,77.300 161.992,77.259 163.070 C 77.185 165.034,77.030 165.400,76.276 165.400 C 75.777 165.400,75.357 166.554,74.986 168.944 C 74.827 169.970,74.503 170.552,74.021 170.679 C 73.384 170.845,73.286 171.378,73.228 175.025 C 73.147 180.115,73.432 180.783,75.714 180.847 C 77.207 180.889,77.265 180.924,76.223 181.147 C 75.575 181.286,75.080 181.535,75.123 181.700 C 75.373 182.669,75.106 183.200,74.369 183.200 C 73.912 183.200,73.022 183.716,72.391 184.347 C 71.665 185.074,70.901 185.457,70.308 185.392 C 69.416 185.294,69.368 185.418,69.269 188.066 L 69.165 190.843 71.963 190.762 C 73.501 190.717,74.748 190.572,74.733 190.440 C 74.609 189.355,74.906 188.800,75.610 188.800 C 76.106 188.800,76.567 188.412,76.800 187.800 L 77.180 186.800 84.361 186.800 L 91.542 186.800 92.329 185.800 C 92.986 184.964,93.454 184.800,95.177 184.800 C 96.862 184.800,97.407 184.617,98.165 183.800 C 98.675 183.250,99.484 182.800,99.963 182.800 C 100.443 182.800,100.806 182.575,100.770 182.300 C 100.621 181.148,100.853 180.800,101.772 180.800 C 102.476 180.800,102.780 180.551,102.872 179.900 C 102.953 179.330,103.321 178.954,103.875 178.875 C 104.421 178.798,104.798 178.421,104.875 177.875 C 104.954 177.321,105.330 176.953,105.900 176.872 C 106.551 176.780,106.800 176.476,106.800 175.772 C 106.800 175.002,107.008 174.800,107.800 174.800 C 108.746 174.800,109.123 173.873,108.833 172.258 C 108.724 171.651,109.712 170.757,110.259 170.967 C 110.551 171.079,110.771 171.043,110.748 170.886 C 110.498 169.212,110.891 167.141,111.500 166.917 C 112.584 166.517,112.787 165.979,112.794 163.491 C 112.799 161.420,112.903 161.136,113.800 160.727 C 114.716 160.310,114.800 160.055,114.800 157.693 C 114.800 155.420,114.918 155.022,115.800 154.329 C 117.250 153.188,117.297 148.744,115.869 147.809 C 114.676 147.027,108.801 147.111,108.800 147.910 M67.200 194.000 C 67.200 196.720,67.229 196.800,68.200 196.800 C 69.000 196.800,69.200 197.000,69.200 197.800 C 69.200 198.600,69.400 198.800,70.200 198.800 C 70.993 198.800,71.200 199.002,71.200 199.773 C 71.200 200.528,71.447 200.784,72.300 200.913 L 73.400 201.080 72.300 201.140 L 71.200 201.200 71.200 207.000 L 71.200 212.800 72.200 212.800 C 73.178 212.800,73.200 212.867,73.200 215.800 C 73.200 218.715,73.228 218.800,74.178 218.800 C 75.061 218.800,75.168 218.985,75.278 220.700 C 75.382 222.321,75.532 222.619,76.300 222.728 C 76.951 222.820,77.200 223.124,77.200 223.828 C 77.200 224.598,77.408 224.800,78.200 224.800 C 79.000 224.800,79.200 225.000,79.200 225.800 C 79.200 226.592,79.402 226.800,80.172 226.800 C 80.876 226.800,81.180 227.049,81.272 227.700 C 81.381 228.468,81.679 228.618,83.300 228.722 C 85.015 228.832,85.200 228.939,85.200 229.822 C 85.200 230.729,85.345 230.800,87.200 230.800 C 89.067 230.800,89.200 230.867,89.200 231.800 L 89.200 232.800 93.200 232.800 L 97.200 232.800 97.200 233.800 L 97.200 234.800 104.700 234.794 C 108.825 234.791,112.460 234.623,112.778 234.422 C 113.657 233.866,114.165 227.948,113.385 227.356 C 112.968 227.039,112.800 226.093,112.800 224.056 C 112.800 221.276,112.773 221.200,111.800 221.200 C 110.822 221.200,110.800 221.133,110.800 218.200 C 110.800 215.267,110.778 215.200,109.800 215.200 C 108.867 215.200,108.800 215.067,108.800 213.200 C 108.800 211.333,108.733 211.200,107.800 211.200 C 106.867 211.200,106.800 211.067,106.800 209.200 C 106.800 207.333,106.733 207.200,105.800 207.200 C 105.000 207.200,104.800 207.000,104.800 206.200 C 104.800 205.400,104.600 205.200,103.800 205.200 C 103.000 205.200,102.800 205.000,102.800 204.200 C 102.800 203.400,102.600 203.200,101.800 203.200 C 101.000 203.200,100.800 203.000,100.800 202.200 C 100.800 201.408,100.598 201.200,99.828 201.200 C 99.124 201.200,98.820 200.951,98.728 200.300 C 98.621 199.551,98.313 199.379,96.895 199.277 C 95.734 199.193,94.878 198.842,94.213 198.177 C 93.241 197.204,93.199 197.200,85.018 197.200 L 76.800 197.200 76.800 196.200 C 76.800 195.400,76.600 195.200,75.800 195.200 C 75.000 195.200,74.800 195.000,74.800 194.200 C 74.800 193.474,74.585 193.200,74.018 193.200 C 73.588 193.200,72.786 192.750,72.236 192.200 C 71.434 191.398,70.838 191.200,69.218 191.200 L 67.200 191.200 67.200 194.000 " stroke="none" fill="#c4d030" fill-rule="evenodd"></path><path id="path1" d="M107.829 147.829 C 107.317 148.341,107.241 148.614,107.581 148.727 C 107.850 148.817,108.255 148.706,108.480 148.480 C 108.706 148.255,108.817 147.850,108.727 147.581 C 108.614 147.241,108.341 147.317,107.829 147.829 M115.233 147.313 C 115.325 147.375,115.715 147.667,116.100 147.962 C 116.699 148.421,116.800 148.404,116.800 147.849 C 116.800 147.450,116.466 147.200,115.933 147.200 C 115.457 147.200,115.142 147.251,115.233 147.313 M95.680 149.680 C 95.416 149.944,95.200 150.424,95.200 150.747 C 95.200 151.069,95.335 151.198,95.500 151.033 C 95.665 150.868,95.800 150.523,95.800 150.267 C 95.800 150.010,96.010 149.800,96.267 149.800 C 96.523 149.800,96.868 149.665,97.033 149.500 C 97.198 149.335,97.069 149.200,96.747 149.200 C 96.424 149.200,95.944 149.416,95.680 149.680 M89.680 151.680 C 89.416 151.944,89.200 152.424,89.200 152.747 C 89.200 153.069,89.335 153.198,89.500 153.033 C 89.665 152.868,89.800 152.541,89.800 152.307 C 89.800 152.072,90.239 151.813,90.776 151.731 C 92.118 151.526,92.346 151.200,91.147 151.200 C 90.604 151.200,89.944 151.416,89.680 151.680 M85.680 153.680 C 85.086 154.274,85.052 155.200,85.624 155.200 C 85.857 155.200,85.965 155.065,85.866 154.900 C 85.647 154.540,86.628 153.561,86.917 153.851 C 87.029 153.962,87.239 153.861,87.384 153.627 C 87.748 153.037,86.277 153.083,85.680 153.680 M113.433 160.926 C 113.037 161.216,112.780 161.799,112.861 162.222 C 113.002 162.955,113.051 162.949,113.905 162.095 C 115.325 160.675,114.972 159.801,113.433 160.926 M112.400 166.287 C 112.400 166.518,112.040 166.801,111.600 166.916 C 111.116 167.042,110.800 167.462,110.800 167.977 C 110.800 168.694,110.922 168.763,111.573 168.414 C 112.375 167.985,113.050 166.517,112.637 166.103 C 112.506 165.973,112.400 166.056,112.400 166.287 M73.829 169.829 C 73.317 170.341,73.241 170.614,73.581 170.727 C 74.212 170.937,74.937 170.212,74.727 169.581 C 74.614 169.241,74.341 169.317,73.829 169.829 M109.544 171.172 C 108.906 171.694,108.730 172.076,109.003 172.355 C 109.547 172.910,110.381 172.340,110.586 171.271 C 110.791 170.208,110.731 170.202,109.544 171.172 M105.067 177.067 C 104.920 177.213,104.800 177.663,104.800 178.067 C 104.800 178.537,104.509 178.800,103.987 178.800 C 103.147 178.800,102.605 179.614,102.885 180.454 C 103.023 180.868,106.800 177.526,106.800 176.989 C 106.800 176.700,105.369 176.764,105.067 177.067 M74.400 182.000 C 74.400 183.130,75.165 183.774,75.231 182.700 C 75.247 182.425,75.322 181.885,75.395 181.500 C 75.472 181.101,75.287 180.800,74.965 180.800 C 74.604 180.800,74.400 181.233,74.400 182.000 M72.351 183.704 C 71.621 184.318,70.634 185.600,70.893 185.600 C 71.245 185.600,73.291 183.558,73.115 183.382 C 73.020 183.286,72.676 183.431,72.351 183.704 M97.784 184.027 C 97.639 184.261,97.616 184.549,97.733 184.667 C 98.020 184.953,98.800 184.448,98.800 183.976 C 98.800 183.465,98.109 183.499,97.784 184.027 M76.834 187.700 C 76.423 188.786,76.488 188.894,77.354 188.562 C 78.501 188.122,78.986 186.800,78.001 186.800 C 77.511 186.800,77.035 187.167,76.834 187.700 M64.419 192.388 C 64.100 192.586,63.707 192.666,63.547 192.567 C 63.386 192.468,63.142 192.570,63.004 192.793 C 62.866 193.017,62.472 193.200,62.129 193.200 C 61.571 193.200,60.142 194.222,57.801 196.293 C 57.125 196.892,55.873 197.039,49.601 197.256 C 41.974 197.519,41.061 197.594,41.397 197.930 C 41.839 198.372,40.623 199.200,39.532 199.200 C 38.798 199.200,38.017 199.572,37.435 200.200 C 36.925 200.750,36.215 201.200,35.858 201.200 C 35.500 201.200,34.710 201.709,34.103 202.332 C 33.497 202.954,32.685 203.578,32.300 203.719 C 31.915 203.860,31.600 204.238,31.600 204.560 C 31.600 204.883,31.238 205.261,30.796 205.401 C 30.353 205.542,29.742 206.139,29.437 206.729 C 29.132 207.319,28.503 208.144,28.041 208.563 C 27.578 208.982,27.200 209.660,27.200 210.071 C 27.200 210.481,26.795 211.002,26.300 211.228 C 25.652 211.524,25.371 212.034,25.298 213.050 C 25.175 214.744,24.562 216.000,23.857 216.000 C 23.514 216.000,23.314 216.700,23.256 218.100 C 23.156 220.543,22.870 221.691,22.431 221.419 C 21.972 221.136,21.200 224.024,21.200 226.021 C 21.200 227.262,20.947 228.018,20.300 228.706 C 19.572 229.481,19.390 230.161,19.350 232.269 L 19.300 234.875 26.750 234.657 C 35.335 234.405,36.360 234.338,36.328 234.027 C 36.220 232.964,36.555 232.800,38.838 232.800 C 41.146 232.800,43.600 231.931,43.600 231.114 C 43.600 230.941,44.218 230.800,44.974 230.800 C 46.772 230.800,48.400 230.163,48.400 229.460 C 48.400 229.152,48.917 228.797,49.548 228.670 C 50.214 228.537,50.780 228.121,50.895 227.681 C 51.068 227.019,53.108 226.169,54.100 226.346 C 54.265 226.376,54.364 226.265,54.321 226.100 C 54.061 225.116,55.500 222.800,56.371 222.800 C 56.607 222.800,56.800 222.434,56.800 221.987 C 56.800 221.541,57.115 221.059,57.500 220.917 C 58.439 220.570,58.787 220.000,58.794 218.795 C 58.798 218.195,59.203 217.487,59.800 217.039 C 60.610 216.431,60.800 215.942,60.800 214.470 C 60.800 213.135,61.039 212.397,61.700 211.693 C 63.695 209.566,62.504 200.500,60.400 201.800 C 60.226 201.907,59.981 201.726,59.854 201.398 C 59.703 201.003,59.871 200.800,60.351 200.800 C 60.750 200.800,61.419 200.419,61.838 199.954 C 62.257 199.489,63.022 198.947,63.539 198.749 C 64.055 198.552,64.561 198.070,64.663 197.679 C 64.766 197.288,65.243 196.796,65.725 196.584 C 66.953 196.045,67.044 194.409,65.918 193.098 C 65.263 192.336,64.833 192.132,64.419 192.388 M113.761 228.100 C 113.728 232.145,113.538 233.605,112.971 234.171 C 112.626 234.517,112.526 234.800,112.749 234.800 C 113.753 234.800,114.400 232.963,114.400 230.111 C 114.400 228.510,114.258 227.200,114.084 227.200 C 113.911 227.200,113.765 227.605,113.761 228.100 " stroke="none" fill="#5c7c24" fill-rule="evenodd"></path><path id="path2" d="M19.467 147.467 C 18.536 148.398,19.341 152.800,20.443 152.800 C 21.118 152.800,21.200 153.123,21.200 155.800 C 21.200 158.733,21.222 158.800,22.200 158.800 C 23.178 158.800,23.200 158.867,23.200 161.800 C 23.200 164.733,23.222 164.800,24.200 164.800 C 25.178 164.800,25.200 164.867,25.200 167.800 C 25.200 170.715,25.228 170.800,26.178 170.800 C 27.061 170.800,27.168 170.985,27.278 172.700 C 27.382 174.321,27.532 174.619,28.300 174.728 C 28.951 174.820,29.200 175.124,29.200 175.828 C 29.200 176.598,29.408 176.800,30.200 176.800 C 31.000 176.800,31.200 177.000,31.200 177.800 C 31.200 178.600,31.400 178.800,32.200 178.800 C 33.000 178.800,33.200 179.000,33.200 179.800 C 33.200 180.600,33.400 180.800,34.200 180.800 C 35.000 180.800,35.200 181.000,35.200 181.800 C 35.200 182.644,35.387 182.800,36.400 182.800 C 37.187 182.800,37.600 183.002,37.600 183.386 C 37.600 184.276,38.925 184.800,41.174 184.800 C 43.068 184.800,43.200 184.865,43.200 185.800 L 43.200 186.800 51.200 186.800 L 59.200 186.800 59.200 187.800 C 59.200 188.592,59.402 188.800,60.172 188.800 C 60.876 188.800,61.180 189.049,61.272 189.700 C 61.393 190.549,61.608 190.606,65.100 190.715 L 68.800 190.830 68.800 189.015 C 68.800 187.346,68.720 187.200,67.800 187.200 C 67.000 187.200,66.800 187.000,66.800 186.200 C 66.800 185.400,66.600 185.200,65.800 185.200 C 65.000 185.200,64.800 185.000,64.800 184.200 C 64.800 183.400,64.600 183.200,63.800 183.200 C 62.855 183.200,62.800 183.080,62.800 181.000 C 62.800 178.920,62.855 178.800,63.800 178.800 C 64.721 178.800,64.800 178.655,64.800 176.974 C 64.800 174.908,64.252 173.600,63.386 173.600 C 62.920 173.600,62.800 172.940,62.800 170.374 C 62.800 167.014,62.381 165.600,61.386 165.600 C 61.002 165.600,60.800 165.187,60.800 164.400 C 60.800 163.387,60.644 163.200,59.800 163.200 C 58.867 163.200,58.800 163.067,58.800 161.200 C 58.800 159.333,58.733 159.200,57.800 159.200 C 57.000 159.200,56.800 159.000,56.800 158.200 C 56.800 157.400,56.600 157.200,55.800 157.200 C 55.000 157.200,54.800 157.000,54.800 156.200 C 54.800 155.267,54.667 155.200,52.800 155.200 C 50.933 155.200,50.800 155.133,50.800 154.200 C 50.800 153.414,50.597 153.200,49.849 153.200 C 49.316 153.200,48.644 152.818,48.320 152.331 C 47.859 151.636,47.247 151.426,45.272 151.283 C 43.239 151.136,42.800 150.978,42.800 150.395 C 42.800 149.317,42.053 149.200,35.167 149.200 L 28.800 149.200 28.800 148.200 L 28.800 147.200 24.267 147.200 C 21.773 147.200,19.613 147.320,19.467 147.467 " stroke="none" fill="#8cccfc" fill-rule="evenodd"></path><path id="path3" d="M143.200 152.000 L 143.200 154.800 149.196 154.800 L 155.192 154.800 155.296 172.700 L 155.400 190.600 159.100 190.715 L 162.800 190.830 162.800 172.815 L 162.800 154.800 169.800 154.800 L 176.800 154.800 176.800 152.000 L 176.800 149.200 160.000 149.200 L 143.200 149.200 143.200 152.000 M315.200 152.200 C 315.200 153.000,315.000 153.200,314.200 153.200 C 313.267 153.200,313.200 153.333,313.200 155.200 C 313.200 157.067,313.133 157.200,312.200 157.200 C 311.400 157.200,311.200 157.400,311.200 158.200 C 311.200 159.000,311.000 159.200,310.200 159.200 C 309.229 159.200,309.200 159.280,309.200 162.000 L 309.200 164.800 311.200 164.800 L 313.200 164.800 313.200 175.800 L 313.200 186.800 314.200 186.800 C 315.000 186.800,315.200 187.000,315.200 187.800 C 315.200 188.600,315.400 188.800,316.200 188.800 C 317.000 188.800,317.200 189.000,317.200 189.800 L 317.200 190.800 323.000 190.800 L 328.800 190.800 328.800 187.000 L 328.800 183.200 324.800 183.200 L 320.800 183.200 320.800 174.000 L 320.800 164.800 324.800 164.800 L 328.800 164.800 328.800 161.000 L 328.800 157.200 324.800 157.200 L 320.800 157.200 320.800 154.200 L 320.800 151.200 318.000 151.200 C 315.280 151.200,315.200 151.229,315.200 152.200 M177.383 157.701 C 177.277 157.976,177.238 165.491,177.295 174.401 L 177.400 190.600 181.100 190.715 L 184.800 190.830 184.800 181.815 L 184.800 172.800 185.800 172.800 C 186.730 172.800,186.800 172.664,186.800 170.847 C 186.800 169.206,186.933 168.859,187.630 168.676 C 188.086 168.557,188.557 168.086,188.676 167.630 C 188.819 167.083,189.218 166.800,189.847 166.800 C 190.597 166.800,190.800 166.587,190.800 165.800 C 190.800 164.822,190.867 164.800,193.800 164.800 L 196.800 164.800 196.800 161.000 L 196.800 157.200 192.781 157.200 C 189.008 157.200,188.705 157.261,187.835 158.200 C 187.325 158.750,186.536 159.200,186.081 159.200 C 185.485 159.200,185.206 159.508,185.087 160.300 C 184.995 160.905,184.893 160.455,184.860 159.300 L 184.800 157.200 181.187 157.200 C 178.664 157.200,177.517 157.351,177.383 157.701 M207.200 158.200 C 207.200 159.178,207.134 159.200,204.185 159.200 L 201.170 159.200 201.285 162.900 L 201.400 166.600 204.800 166.600 C 207.942 166.600,208.230 166.532,208.595 165.700 C 209.238 164.233,215.200 164.324,215.200 165.800 C 215.200 166.600,215.400 166.800,216.200 166.800 C 217.042 166.800,217.200 166.988,217.200 167.986 L 217.200 169.171 213.300 169.286 C 209.619 169.394,209.393 169.450,209.274 170.286 C 209.155 171.121,208.928 171.178,205.274 171.286 C 201.635 171.393,201.392 171.453,201.275 172.275 C 201.198 172.821,200.821 173.198,200.275 173.275 C 199.538 173.380,199.381 173.696,199.279 175.275 C 199.177 176.856,199.021 177.169,198.279 177.275 C 196.898 177.471,196.918 184.532,198.300 184.728 C 199.094 184.841,199.200 185.087,199.200 186.828 L 199.200 188.800 201.200 188.800 C 203.067 188.800,203.200 188.867,203.200 189.800 L 203.200 190.800 209.000 190.800 L 214.800 190.800 214.800 189.800 C 214.800 188.396,217.074 188.304,217.272 189.700 C 217.393 190.549,217.608 190.606,221.100 190.715 L 224.800 190.830 224.800 177.015 L 224.800 163.200 223.822 163.200 C 222.939 163.200,222.832 163.015,222.722 161.300 L 222.600 159.400 219.700 159.282 C 216.919 159.170,216.800 159.125,216.800 158.182 L 216.800 157.200 212.000 157.200 L 207.200 157.200 207.200 158.200 M239.200 158.182 C 239.200 159.125,239.081 159.170,236.300 159.282 C 233.639 159.390,233.389 159.474,233.272 160.300 C 233.180 160.951,232.876 161.200,232.172 161.200 C 231.272 161.200,231.200 161.349,231.200 163.200 C 231.200 165.067,231.133 165.200,230.200 165.200 L 229.200 165.200 229.200 174.000 L 229.200 182.800 230.200 182.800 C 231.133 182.800,231.200 182.933,231.200 184.800 C 231.200 186.667,231.267 186.800,232.200 186.800 C 233.000 186.800,233.200 187.000,233.200 187.800 C 233.200 188.600,233.400 188.800,234.200 188.800 C 234.750 188.800,235.200 188.967,235.200 189.171 C 235.200 190.570,236.388 190.800,243.629 190.800 L 250.800 190.800 250.800 189.800 C 250.800 189.000,251.000 188.800,251.800 188.800 C 252.771 188.800,252.800 188.720,252.800 186.000 L 252.800 183.200 246.828 183.200 C 240.939 183.200,240.854 183.187,240.728 182.300 C 240.646 181.722,240.278 181.354,239.700 181.272 C 239.049 181.180,238.800 180.876,238.800 180.172 C 238.800 179.402,238.592 179.200,237.800 179.200 L 236.800 179.200 236.800 174.000 L 236.800 168.800 237.800 168.800 C 238.600 168.800,238.800 168.600,238.800 167.800 C 238.800 167.000,239.000 166.800,239.800 166.800 C 240.600 166.800,240.800 166.600,240.800 165.800 C 240.800 164.315,247.062 164.218,247.272 165.700 C 247.380 166.462,247.645 166.600,249.000 166.600 C 250.355 166.600,250.620 166.462,250.728 165.700 C 250.820 165.049,251.124 164.800,251.828 164.800 C 252.765 164.800,252.800 164.699,252.800 162.000 C 252.800 159.280,252.771 159.200,251.800 159.200 C 251.250 159.200,250.800 159.033,250.800 158.829 C 250.800 157.524,249.521 157.200,244.371 157.200 L 239.200 157.200 239.200 158.182 M263.467 157.467 C 263.320 157.613,263.200 158.053,263.200 158.445 C 263.200 159.010,262.809 159.181,261.300 159.278 C 259.679 159.382,259.381 159.532,259.272 160.300 C 259.180 160.951,258.876 161.200,258.172 161.200 C 257.272 161.200,257.200 161.349,257.200 163.200 C 257.200 165.067,257.133 165.200,256.200 165.200 L 255.200 165.200 255.200 174.000 L 255.200 182.800 256.200 182.800 C 257.133 182.800,257.200 182.933,257.200 184.800 C 257.200 186.667,257.267 186.800,258.200 186.800 C 259.000 186.800,259.200 187.000,259.200 187.800 C 259.200 188.733,259.333 188.800,261.200 188.800 C 263.067 188.800,263.200 188.867,263.200 189.800 L 263.200 190.800 270.957 190.800 L 278.713 190.800 278.964 189.800 C 279.148 189.069,279.483 188.800,280.208 188.800 C 281.235 188.800,281.672 184.804,280.943 182.080 C 280.584 180.740,277.467 180.927,277.272 182.300 C 277.079 183.662,266.800 183.723,266.800 182.363 C 266.800 181.860,266.478 181.441,265.996 181.315 C 265.553 181.199,265.084 180.676,264.952 180.152 C 264.806 179.569,264.420 179.200,263.957 179.200 C 263.383 179.200,263.200 178.910,263.200 178.000 L 263.200 176.800 272.957 176.800 C 284.110 176.800,283.200 177.156,283.200 172.793 C 283.200 169.906,282.743 168.152,281.803 167.433 C 281.492 167.195,281.184 166.190,281.119 165.200 C 281.019 163.681,280.859 163.380,280.100 163.272 C 279.449 163.180,279.200 162.876,279.200 162.172 C 279.200 161.402,278.992 161.200,278.200 161.200 C 277.400 161.200,277.200 161.000,277.200 160.200 C 277.200 159.356,277.013 159.200,276.000 159.200 C 275.340 159.200,274.800 159.033,274.800 158.829 C 274.800 157.434,264.712 156.221,263.467 157.467 M291.200 158.189 C 291.200 159.135,291.072 159.200,289.200 159.200 C 287.333 159.200,287.200 159.267,287.200 160.200 C 287.200 161.000,287.000 161.200,286.200 161.200 L 285.200 161.200 285.200 167.000 L 285.200 172.800 286.200 172.800 C 287.000 172.800,287.200 173.000,287.200 173.800 C 287.200 174.733,287.333 174.800,289.200 174.800 C 291.067 174.800,291.200 174.867,291.200 175.800 C 291.200 176.733,291.333 176.800,293.200 176.800 C 295.067 176.800,295.200 176.867,295.200 177.800 C 295.200 178.733,295.333 178.800,297.200 178.800 C 299.052 178.800,299.200 178.872,299.200 179.773 C 299.200 180.528,299.447 180.784,300.300 180.913 L 301.400 181.080 300.300 181.140 C 299.409 181.189,299.200 181.390,299.200 182.200 L 299.200 183.200 294.243 183.200 C 289.290 183.200,289.287 183.199,289.036 182.200 C 288.815 181.319,288.571 181.200,286.992 181.200 L 285.200 181.200 285.200 185.000 C 285.200 188.787,285.204 188.800,286.200 188.800 C 287.002 188.800,287.200 188.999,287.200 189.808 L 287.200 190.817 295.100 190.708 C 302.892 190.601,303.002 190.588,303.125 189.722 C 303.227 189.001,303.551 188.822,304.925 188.722 L 306.600 188.600 306.722 186.700 C 306.832 184.985,306.939 184.800,307.822 184.800 C 308.791 184.800,308.800 184.764,308.800 181.000 C 308.800 177.236,308.791 177.200,307.822 177.200 C 306.939 177.200,306.832 177.015,306.722 175.300 L 306.600 173.400 304.925 173.278 C 303.551 173.178,303.227 172.999,303.125 172.278 C 303.019 171.536,302.706 171.381,301.102 171.278 C 299.470 171.173,299.170 171.019,298.959 170.178 C 298.740 169.307,298.498 169.200,296.757 169.200 C 295.038 169.200,294.800 169.098,294.800 168.363 C 294.800 167.862,294.479 167.441,294.000 167.316 C 293.433 167.168,293.200 166.770,293.200 165.953 L 293.200 164.800 297.200 164.800 L 301.200 164.800 301.200 165.800 C 301.200 166.771,301.280 166.800,304.000 166.800 L 306.800 166.800 306.800 163.000 L 306.800 159.200 305.028 159.200 C 303.495 159.200,303.238 159.079,303.128 158.300 C 303.003 157.419,302.876 157.398,297.100 157.289 L 291.200 157.179 291.200 158.189 M339.200 158.200 C 339.200 159.133,339.067 159.200,337.200 159.200 C 335.333 159.200,335.200 159.267,335.200 160.200 C 335.200 161.000,335.000 161.200,334.200 161.200 C 333.408 161.200,333.200 161.402,333.200 162.172 C 333.200 162.876,332.951 163.180,332.300 163.272 C 331.475 163.389,331.390 163.640,331.283 166.274 C 331.176 168.892,331.087 169.160,330.283 169.274 C 329.437 169.395,329.395 169.597,329.287 174.100 L 329.175 178.800 330.187 178.800 C 331.181 178.800,331.200 178.857,331.200 181.800 C 331.200 184.733,331.222 184.800,332.200 184.800 C 333.000 184.800,333.200 185.000,333.200 185.800 C 333.200 186.600,333.400 186.800,334.200 186.800 C 335.000 186.800,335.200 187.000,335.200 187.800 C 335.200 188.592,335.402 188.800,336.172 188.800 C 336.876 188.800,337.180 189.049,337.272 189.700 L 337.400 190.600 345.800 190.600 C 354.127 190.600,354.203 190.592,354.595 189.700 C 354.837 189.148,355.340 188.800,355.895 188.800 C 356.772 188.800,356.800 188.681,356.800 184.977 L 356.800 181.154 355.100 181.277 C 353.687 181.379,353.378 181.552,353.272 182.300 C 353.146 183.189,353.068 183.200,346.972 183.200 L 340.800 183.200 340.800 182.200 C 340.800 181.400,340.600 181.200,339.800 181.200 C 338.855 181.200,338.800 181.080,338.800 179.000 L 338.800 176.800 347.800 176.800 L 356.800 176.800 356.800 170.000 L 356.800 163.200 355.800 163.200 C 355.000 163.200,354.800 163.000,354.800 162.200 C 354.800 161.400,354.600 161.200,353.800 161.200 C 353.000 161.200,352.800 161.000,352.800 160.200 C 352.800 159.267,352.667 159.200,350.800 159.200 C 348.933 159.200,348.800 159.133,348.800 158.200 L 348.800 157.200 344.000 157.200 L 339.200 157.200 339.200 158.200 M361.383 157.701 C 361.277 157.976,361.238 165.491,361.295 174.401 L 361.400 190.600 365.100 190.715 L 368.800 190.830 368.800 181.815 L 368.800 172.800 369.800 172.800 C 370.730 172.800,370.800 172.664,370.800 170.847 C 370.800 169.206,370.933 168.859,371.630 168.676 C 372.086 168.557,372.557 168.086,372.676 167.630 C 372.819 167.083,373.218 166.800,373.847 166.800 C 374.597 166.800,374.800 166.587,374.800 165.800 C 374.800 164.822,374.867 164.800,377.800 164.800 L 380.800 164.800 380.800 161.000 L 380.800 157.200 376.781 157.200 C 373.008 157.200,372.705 157.261,371.835 158.200 C 371.325 158.750,370.536 159.200,370.081 159.200 C 369.485 159.200,369.206 159.508,369.087 160.300 C 368.995 160.905,368.893 160.455,368.860 159.300 L 368.800 157.200 365.187 157.200 C 362.664 157.200,361.517 157.351,361.383 157.701 M271.200 165.800 C 271.200 166.600,271.400 166.800,272.200 166.800 C 273.044 166.800,273.200 166.987,273.200 168.000 L 273.200 169.200 268.100 169.146 C 265.295 169.116,263.388 169.015,263.862 168.923 C 264.350 168.827,264.826 168.351,264.958 167.825 C 265.086 167.314,265.553 166.801,265.996 166.685 C 266.478 166.559,266.800 166.140,266.800 165.637 C 266.800 164.889,267.034 164.800,269.000 164.800 C 271.080 164.800,271.200 164.855,271.200 165.800 M347.200 165.800 C 347.200 166.600,347.400 166.800,348.200 166.800 C 349.044 166.800,349.200 166.987,349.200 168.000 L 349.200 169.200 344.000 169.200 L 338.800 169.200 338.800 168.000 C 338.800 166.987,338.956 166.800,339.800 166.800 C 340.600 166.800,340.800 166.600,340.800 165.800 C 340.800 164.817,340.853 164.800,344.000 164.800 C 347.147 164.800,347.200 164.817,347.200 165.800 M217.200 178.000 C 217.200 179.013,217.044 179.200,216.200 179.200 C 215.408 179.200,215.200 179.402,215.200 180.172 C 215.200 180.876,214.951 181.180,214.300 181.272 C 213.722 181.354,213.354 181.722,213.272 182.300 C 213.152 183.147,212.957 183.200,209.972 183.200 L 206.800 183.200 206.800 181.047 C 206.800 179.204,206.920 178.862,207.630 178.676 C 208.086 178.557,208.557 178.086,208.676 177.630 C 208.878 176.857,209.180 176.800,213.047 176.800 L 217.200 176.800 217.200 178.000 M73.293 182.000 C 73.293 182.770,73.375 183.085,73.476 182.700 C 73.576 182.315,73.576 181.685,73.476 181.300 C 73.375 180.915,73.293 181.230,73.293 182.000 M61.338 191.817 C 60.989 192.726,61.470 192.988,62.181 192.276 C 62.962 191.495,62.964 191.200,62.187 191.200 C 61.851 191.200,61.468 191.478,61.338 191.817 M213.200 218.000 L 213.200 240.800 217.000 240.800 L 220.800 240.800 220.800 218.000 L 220.800 195.200 217.000 195.200 L 213.200 195.200 213.200 218.000 M40.495 197.466 C 39.687 197.792,39.084 199.146,39.794 199.042 C 40.535 198.933,40.933 198.534,41.043 197.788 C 41.090 197.465,41.100 197.214,41.065 197.232 C 41.029 197.249,40.773 197.355,40.495 197.466 M125.467 197.467 C 125.320 197.613,125.200 198.448,125.200 199.321 C 125.200 200.500,124.943 201.146,124.200 201.835 C 123.365 202.609,123.200 203.128,123.200 204.981 C 123.200 207.081,123.146 207.200,122.200 207.200 C 121.222 207.200,121.200 207.267,121.200 210.200 C 121.200 213.133,121.178 213.200,120.200 213.200 C 119.269 213.200,119.200 213.335,119.200 215.172 C 119.200 216.913,119.094 217.159,118.300 217.272 C 117.474 217.389,117.390 217.639,117.282 220.300 C 117.170 223.081,117.125 223.200,116.182 223.200 C 115.270 223.200,115.200 223.343,115.200 225.200 C 115.200 226.300,115.065 227.200,114.900 227.200 C 114.735 227.200,114.554 228.667,114.499 230.461 C 114.386 234.089,114.034 234.800,112.351 234.800 L 111.200 234.800 111.200 237.800 L 111.200 240.800 115.000 240.800 L 118.800 240.800 118.800 238.828 C 118.800 237.087,118.906 236.841,119.700 236.728 C 120.526 236.611,120.610 236.361,120.718 233.700 C 120.830 230.919,120.875 230.800,121.818 230.800 C 122.730 230.800,122.800 230.657,122.800 228.800 L 122.800 226.800 129.000 226.800 L 135.200 226.800 135.200 228.171 C 135.200 229.473,136.022 230.800,136.829 230.800 C 137.033 230.800,137.200 231.700,137.200 232.800 C 137.200 234.657,137.270 234.800,138.182 234.800 C 139.125 234.800,139.170 234.919,139.282 237.700 L 139.400 240.600 143.542 240.714 C 146.252 240.789,147.876 240.669,148.242 240.365 C 149.479 239.339,148.621 235.200,147.171 235.200 C 146.967 235.200,146.800 234.300,146.800 233.200 C 146.800 231.333,146.733 231.200,145.800 231.200 C 144.846 231.200,144.800 231.091,144.800 228.829 C 144.800 226.551,144.194 225.200,143.171 225.200 C 142.967 225.200,142.800 224.300,142.800 223.200 C 142.800 221.333,142.733 221.200,141.800 221.200 C 140.846 221.200,140.800 221.091,140.800 218.829 C 140.800 216.551,140.194 215.200,139.171 215.200 C 138.967 215.200,138.800 214.300,138.800 213.200 C 138.800 211.333,138.733 211.200,137.800 211.200 C 136.822 211.200,136.800 211.133,136.800 208.200 C 136.800 205.267,136.778 205.200,135.800 205.200 C 134.867 205.200,134.800 205.067,134.800 203.200 C 134.800 201.333,134.733 201.200,133.800 201.200 C 132.867 201.200,132.800 201.067,132.800 199.200 L 132.800 197.200 129.267 197.200 C 127.323 197.200,125.613 197.320,125.467 197.467 M273.200 201.000 C 273.200 204.787,273.204 204.800,274.200 204.800 C 275.006 204.800,275.200 204.999,275.200 205.822 C 275.200 207.288,278.919 207.173,279.128 205.700 C 279.220 205.049,279.524 204.800,280.228 204.800 C 281.176 204.800,281.200 204.720,281.200 201.633 C 281.200 197.037,281.356 197.200,276.957 197.200 L 273.200 197.200 273.200 201.000 M35.338 199.817 C 34.989 200.726,35.470 200.988,36.181 200.276 C 36.962 199.495,36.964 199.200,36.187 199.200 C 35.851 199.200,35.468 199.478,35.338 199.817 M255.467 201.467 C 255.320 201.613,255.200 202.963,255.200 204.467 C 255.200 207.096,255.163 207.200,254.227 207.200 C 253.472 207.200,253.216 207.447,253.087 208.300 L 252.920 209.400 252.860 208.300 L 252.800 207.200 249.000 207.200 C 245.213 207.200,245.200 207.204,245.200 208.200 C 245.200 209.000,245.000 209.200,244.200 209.200 C 243.277 209.200,243.200 209.343,243.200 211.054 C 243.200 212.518,242.990 213.103,242.200 213.835 C 241.381 214.594,241.200 215.137,241.200 216.835 C 241.200 218.533,241.019 219.076,240.200 219.835 C 239.368 220.606,239.200 221.130,239.200 222.953 C 239.200 224.921,239.108 225.157,238.300 225.272 C 237.543 225.380,237.362 225.717,237.163 227.400 C 236.949 229.199,236.919 229.089,236.863 226.300 C 236.802 223.277,236.775 223.200,235.800 223.200 C 234.846 223.200,234.800 223.091,234.800 220.829 C 234.800 218.551,234.194 217.200,233.171 217.200 C 232.967 217.200,232.800 216.300,232.800 215.200 C 232.800 213.343,232.730 213.200,231.818 213.200 C 230.875 213.200,230.830 213.081,230.718 210.300 L 230.600 207.400 227.200 207.282 C 225.330 207.217,223.400 207.264,222.912 207.387 C 221.155 207.827,220.821 210.099,222.437 210.612 C 223.098 210.821,223.200 211.253,223.200 213.827 C 223.200 216.732,223.223 216.800,224.200 216.800 C 225.133 216.800,225.200 216.933,225.200 218.800 C 225.200 220.667,225.267 220.800,226.200 220.800 C 227.178 220.800,227.200 220.867,227.200 223.800 C 227.200 226.733,227.222 226.800,228.200 226.800 C 229.133 226.800,229.200 226.933,229.200 228.800 C 229.200 230.667,229.267 230.800,230.200 230.800 C 231.178 230.800,231.200 230.867,231.200 233.800 C 231.200 236.733,231.222 236.800,232.200 236.800 C 233.145 236.800,233.200 236.920,233.200 239.000 C 233.200 241.080,233.145 241.200,232.200 241.200 C 231.267 241.200,231.200 241.333,231.200 243.200 L 231.200 245.200 229.227 245.200 C 227.381 245.200,227.242 245.271,227.087 246.300 L 226.920 247.400 226.860 246.300 C 226.804 245.272,226.682 245.200,225.000 245.200 L 223.200 245.200 223.200 249.000 L 223.200 252.800 229.000 252.800 L 234.800 252.800 234.800 251.800 C 234.800 251.000,235.000 250.800,235.800 250.800 C 236.600 250.800,236.800 250.600,236.800 249.800 C 236.800 249.000,237.000 248.800,237.800 248.800 C 238.733 248.800,238.800 248.667,238.800 246.800 C 238.800 244.933,238.867 244.800,239.800 244.800 C 240.778 244.800,240.800 244.733,240.800 241.800 C 240.800 238.867,240.822 238.800,241.800 238.800 C 242.727 238.800,242.800 238.660,242.800 236.895 C 242.800 235.303,242.948 234.925,243.700 234.595 C 244.486 234.250,244.615 233.857,244.718 231.500 C 244.831 228.932,244.885 228.800,245.818 228.800 C 246.773 228.800,246.800 228.718,246.800 225.800 C 246.800 222.867,246.822 222.800,247.800 222.800 C 248.731 222.800,248.800 222.665,248.800 220.828 C 248.800 219.087,248.906 218.841,249.700 218.728 C 250.468 218.619,250.618 218.321,250.722 216.700 C 250.838 214.891,250.900 214.800,252.022 214.800 L 253.200 214.800 253.200 223.171 C 253.200 231.674,253.391 232.800,254.829 232.800 C 255.033 232.800,255.200 233.867,255.200 235.171 C 255.200 237.962,255.807 238.800,257.829 238.800 C 259.025 238.800,259.200 238.928,259.200 239.800 L 259.200 240.800 264.992 240.800 C 271.707 240.800,271.331 241.083,271.120 236.192 L 271.000 233.400 267.100 233.286 L 263.200 233.171 263.200 224.000 L 263.200 214.829 267.100 214.714 L 271.000 214.600 271.124 212.200 C 271.193 210.880,271.140 209.215,271.006 208.500 L 270.764 207.200 267.037 207.200 L 263.310 207.200 263.104 204.642 C 262.991 203.235,262.776 201.885,262.626 201.642 C 262.331 201.165,255.925 201.008,255.467 201.467 M149.200 224.000 L 149.200 240.800 153.000 240.800 L 156.800 240.800 156.800 229.800 L 156.800 218.800 157.800 218.800 C 158.600 218.800,158.800 218.600,158.800 217.800 C 158.800 217.000,159.000 216.800,159.800 216.800 C 160.600 216.800,160.800 216.600,160.800 215.800 C 160.800 214.817,160.853 214.800,164.000 214.800 C 167.147 214.800,167.200 214.817,167.200 215.800 C 167.200 216.600,167.400 216.800,168.200 216.800 L 169.200 216.800 169.200 228.800 L 169.200 240.800 173.000 240.800 L 176.800 240.800 176.800 227.000 L 176.800 213.200 175.800 213.200 C 174.867 213.200,174.800 213.067,174.800 211.200 L 174.800 209.200 172.800 209.200 C 170.928 209.200,170.800 209.136,170.800 208.189 L 170.800 207.178 165.100 207.289 C 159.532 207.397,159.397 207.421,159.272 208.300 C 159.074 209.696,156.800 209.604,156.800 208.200 C 156.800 207.204,156.787 207.200,153.000 207.200 L 149.200 207.200 149.200 224.000 M189.200 208.182 C 189.200 209.125,189.081 209.170,186.300 209.282 L 183.400 209.400 183.272 210.962 C 183.095 213.124,183.460 214.302,184.401 214.600 C 184.917 214.764,185.200 215.206,185.200 215.845 C 185.200 217.310,190.519 217.170,190.728 215.700 C 190.848 214.854,191.044 214.800,194.000 214.800 C 196.956 214.800,197.152 214.854,197.272 215.700 C 197.354 216.278,197.722 216.646,198.300 216.728 C 198.997 216.827,199.200 217.117,199.200 218.013 L 199.200 219.171 195.300 219.286 C 191.600 219.394,191.393 219.446,191.272 220.300 C 191.153 221.141,190.950 221.200,188.172 221.200 C 185.269 221.200,185.200 221.223,185.200 222.200 C 185.200 223.000,185.000 223.200,184.200 223.200 C 183.400 223.200,183.200 223.400,183.200 224.200 C 183.200 225.000,183.000 225.200,182.200 225.200 L 181.200 225.200 181.200 231.000 L 181.200 236.800 182.200 236.800 C 183.000 236.800,183.200 237.000,183.200 237.800 C 183.200 238.600,183.400 238.800,184.200 238.800 C 185.003 238.800,185.200 238.999,185.200 239.810 L 185.200 240.820 191.700 240.710 C 198.007 240.603,198.212 240.573,198.595 239.700 C 199.187 238.351,201.200 238.428,201.200 239.800 C 201.200 240.771,201.280 240.800,204.000 240.800 L 206.800 240.800 206.800 226.000 L 206.800 211.200 205.800 211.200 C 205.000 211.200,204.800 211.000,204.800 210.200 C 204.800 209.267,204.667 209.200,202.800 209.200 C 200.933 209.200,200.800 209.133,200.800 208.200 L 200.800 207.200 195.000 207.200 L 189.200 207.200 189.200 208.182 M273.200 224.000 L 273.200 240.800 276.957 240.800 C 281.657 240.800,281.200 242.610,281.200 224.000 C 281.200 205.390,281.657 207.200,276.957 207.200 L 273.200 207.200 273.200 224.000 M295.200 208.200 C 295.200 209.133,295.067 209.200,293.200 209.200 C 291.333 209.200,291.200 209.267,291.200 210.200 C 291.200 211.000,291.000 211.200,290.200 211.200 C 289.400 211.200,289.200 211.400,289.200 212.200 C 289.200 213.000,289.000 213.200,288.200 213.200 C 287.446 213.200,287.200 213.410,287.200 214.054 C 287.200 214.524,286.750 215.325,286.200 215.835 C 284.234 217.657,284.796 232.800,286.829 232.800 C 287.033 232.800,287.200 233.417,287.200 234.171 C 287.200 234.926,287.464 235.781,287.786 236.071 C 288.978 237.147,289.412 237.576,289.916 238.181 C 290.199 238.521,291.054 238.800,291.816 238.800 C 293.026 238.800,293.200 238.926,293.200 239.800 L 293.200 240.800 300.000 240.800 L 306.800 240.800 306.800 239.800 C 306.800 239.000,307.000 238.800,307.800 238.800 C 308.771 238.800,308.800 238.720,308.800 236.000 L 308.800 233.200 303.028 233.200 C 297.346 233.200,297.254 233.186,297.128 232.300 C 297.046 231.722,296.678 231.354,296.100 231.272 C 295.424 231.176,295.199 230.877,295.195 230.072 C 295.185 228.215,294.747 227.200,293.953 227.200 C 292.787 227.200,292.825 221.227,293.995 220.496 C 294.473 220.198,294.893 219.360,295.046 218.400 C 295.261 217.055,295.453 216.800,296.251 216.800 C 296.997 216.800,297.200 216.586,297.200 215.800 L 297.200 214.800 303.000 214.800 L 308.800 214.800 308.800 212.000 C 308.800 209.280,308.771 209.200,307.800 209.200 C 307.000 209.200,306.800 209.000,306.800 208.200 L 306.800 207.200 301.000 207.200 L 295.200 207.200 295.200 208.200 M317.200 208.200 C 317.200 209.133,317.067 209.200,315.200 209.200 C 313.333 209.200,313.200 209.267,313.200 210.200 C 313.200 211.000,313.000 211.200,312.200 211.200 L 311.200 211.200 311.200 217.000 L 311.200 222.800 312.200 222.800 C 313.000 222.800,313.200 223.000,313.200 223.800 C 313.200 224.733,313.333 224.800,315.200 224.800 C 317.067 224.800,317.200 224.867,317.200 225.800 C 317.200 226.733,317.333 226.800,319.200 226.800 C 320.300 226.800,321.200 226.967,321.200 227.171 C 321.200 227.978,322.527 228.800,323.829 228.800 C 325.025 228.800,325.200 228.928,325.200 229.800 C 325.200 230.615,325.404 230.807,326.300 230.840 L 327.400 230.880 326.400 231.156 C 325.786 231.326,325.351 231.774,325.272 232.316 C 325.148 233.176,325.002 233.200,319.972 233.200 L 314.800 233.200 314.800 232.200 C 314.800 231.281,314.653 231.200,313.000 231.200 L 311.200 231.200 311.200 235.000 C 311.200 238.787,311.204 238.800,312.200 238.800 C 313.000 238.800,313.200 239.000,313.200 239.800 L 313.200 240.800 321.000 240.800 L 328.800 240.800 328.800 239.822 C 328.800 238.939,328.985 238.832,330.700 238.722 C 332.256 238.622,332.621 238.453,332.716 237.788 C 332.780 237.341,333.230 236.801,333.716 236.588 C 335.337 235.877,335.233 225.918,333.599 225.400 C 333.089 225.238,332.800 224.794,332.800 224.173 C 332.800 223.272,332.652 223.200,330.800 223.200 C 328.933 223.200,328.800 223.133,328.800 222.200 C 328.800 221.267,328.667 221.200,326.800 221.200 C 324.933 221.200,324.800 221.133,324.800 220.200 C 324.800 219.267,324.667 219.200,322.800 219.200 C 320.933 219.200,320.800 219.133,320.800 218.200 C 320.800 217.400,320.600 217.200,319.800 217.200 C 318.956 217.200,318.800 217.013,318.800 216.000 L 318.800 214.800 324.000 214.800 L 329.200 214.800 329.200 215.800 C 329.200 216.719,329.347 216.800,331.000 216.800 L 332.800 216.800 332.800 214.895 C 332.800 213.303,332.948 212.925,333.700 212.595 C 335.749 211.696,334.625 209.200,332.171 209.200 C 330.975 209.200,330.800 209.072,330.800 208.200 L 330.800 207.200 324.000 207.200 L 317.200 207.200 317.200 208.200 M26.495 209.466 C 25.687 209.792,25.084 211.146,25.794 211.042 C 26.535 210.933,26.933 210.534,27.043 209.788 C 27.090 209.465,27.100 209.214,27.065 209.232 C 27.029 209.249,26.773 209.355,26.495 209.466 M129.413 213.473 C 129.517 213.954,129.961 214.461,130.401 214.600 C 131.057 214.809,131.200 215.206,131.200 216.827 C 131.200 218.665,131.268 218.800,132.200 218.800 C 133.044 218.800,133.200 218.987,133.200 220.000 L 133.200 221.200 128.900 221.140 C 126.535 221.107,125.095 221.005,125.700 220.913 C 126.786 220.749,126.800 220.710,126.800 217.773 C 126.800 214.868,126.823 214.800,127.800 214.800 C 128.733 214.800,128.804 214.659,128.854 212.700 C 128.884 211.545,128.980 211.050,129.066 211.600 C 129.153 212.150,129.309 212.993,129.413 213.473 M24.000 214.000 C 23.560 214.440,23.203 215.025,23.206 215.300 C 23.210 215.633,23.342 215.600,23.600 215.200 C 23.813 214.870,23.991 214.771,23.994 214.980 C 24.003 215.551,24.938 214.500,25.041 213.804 C 25.158 213.004,24.958 213.042,24.000 214.000 M22.000 220.000 C 21.560 220.440,21.203 221.025,21.206 221.300 C 21.210 221.633,21.342 221.600,21.600 221.200 C 21.813 220.870,21.991 220.771,21.994 220.980 C 22.003 221.551,22.938 220.500,23.041 219.804 C 23.158 219.004,22.958 219.042,22.000 220.000 M57.280 221.280 C 56.644 221.916,56.668 222.800,57.320 222.800 C 57.989 222.800,58.800 221.989,58.800 221.320 C 58.800 220.668,57.916 220.644,57.280 221.280 M51.720 227.837 L 50.840 228.789 51.685 228.660 C 52.191 228.583,52.584 228.183,52.663 227.665 C 52.820 226.634,52.833 226.632,51.720 227.837 M199.200 227.854 C 199.200 228.465,198.779 229.298,198.200 229.835 C 197.555 230.433,197.200 231.194,197.200 231.981 L 197.200 233.200 193.000 233.200 L 188.800 233.200 188.800 231.000 C 188.800 228.920,188.855 228.800,189.800 228.800 C 190.600 228.800,190.800 228.600,190.800 227.800 L 190.800 226.800 195.000 226.800 L 199.200 226.800 199.200 227.854 " stroke="none" fill="#040404" fill-rule="evenodd"></path><path id="path4" d="M114.400 161.704 C 114.400 162.055,114.085 162.424,113.700 162.524 C 113.044 162.696,113.045 162.710,113.713 162.754 C 114.436 162.801,115.106 161.773,114.649 161.316 C 114.512 161.179,114.400 161.353,114.400 161.704 M75.738 164.217 C 75.608 164.557,75.609 164.942,75.741 165.074 C 76.026 165.359,77.200 164.455,77.200 163.951 C 77.200 163.347,75.987 163.568,75.738 164.217 M112.400 167.704 C 112.400 168.055,112.085 168.424,111.700 168.524 C 111.044 168.696,111.045 168.710,111.713 168.754 C 112.436 168.801,113.106 167.773,112.649 167.316 C 112.512 167.179,112.400 167.353,112.400 167.704 M106.400 177.704 C 106.400 178.055,106.085 178.424,105.700 178.524 C 105.044 178.696,105.045 178.710,105.713 178.754 C 106.436 178.801,107.106 177.773,106.649 177.316 C 106.512 177.179,106.400 177.353,106.400 177.704 M104.400 179.704 C 104.400 180.055,104.085 180.424,103.700 180.524 C 103.044 180.696,103.045 180.710,103.713 180.754 C 104.436 180.801,105.106 179.773,104.649 179.316 C 104.512 179.179,104.400 179.353,104.400 179.704 M73.600 182.000 C 73.600 182.660,73.780 183.200,74.000 183.200 C 74.220 183.200,74.400 182.660,74.400 182.000 C 74.400 181.340,74.220 180.800,74.000 180.800 C 73.780 180.800,73.600 181.340,73.600 182.000 M101.280 181.280 C 100.728 181.832,100.638 182.800,101.138 182.800 C 101.525 182.800,102.800 181.472,102.800 181.069 C 102.800 180.625,101.795 180.765,101.280 181.280 M71.338 183.817 C 70.991 184.721,71.302 184.769,72.100 183.933 C 72.692 183.313,72.706 183.200,72.187 183.200 C 71.851 183.200,71.468 183.478,71.338 183.817 M78.400 187.704 C 78.400 188.055,78.085 188.424,77.700 188.524 C 77.044 188.696,77.045 188.710,77.713 188.754 C 78.436 188.801,79.106 187.773,78.649 187.316 C 78.512 187.179,78.400 187.353,78.400 187.704 M62.355 192.014 C 62.050 192.380,61.262 192.932,60.605 193.242 C 59.948 193.552,59.344 194.165,59.264 194.603 C 59.136 195.300,59.264 195.261,60.281 194.300 C 60.920 193.695,61.738 193.200,62.098 193.200 C 62.458 193.200,62.866 193.017,63.004 192.793 C 63.142 192.570,63.386 192.468,63.547 192.567 C 63.707 192.666,64.100 192.586,64.419 192.388 C 64.834 192.132,65.266 192.339,65.933 193.115 L 66.865 194.200 66.733 192.800 C 66.577 191.162,63.523 190.613,62.355 192.014 M57.206 196.100 C 57.211 196.763,57.304 196.856,57.559 196.453 C 57.750 196.152,58.152 195.750,58.453 195.559 C 58.856 195.304,58.763 195.211,58.100 195.206 C 57.430 195.202,57.202 195.430,57.206 196.100 M40.427 198.171 C 39.282 199.390,40.195 199.334,41.780 198.087 C 42.752 197.323,42.799 197.200,42.124 197.200 C 41.692 197.200,40.929 197.637,40.427 198.171 M36.086 200.224 C 35.583 200.761,34.728 201.200,34.186 201.200 C 33.408 201.200,33.200 201.406,33.200 202.172 C 33.200 202.876,32.951 203.180,32.300 203.272 C 31.674 203.361,31.371 203.705,31.304 204.400 C 31.209 205.385,31.214 205.387,31.591 204.500 C 31.802 204.005,32.186 203.600,32.444 203.600 C 32.702 203.600,33.429 203.060,34.060 202.400 C 34.691 201.740,35.500 201.200,35.858 201.200 C 36.215 201.200,36.925 200.750,37.435 200.200 C 38.212 199.361,38.252 199.204,37.681 199.224 C 37.306 199.238,36.589 199.688,36.086 200.224 M61.802 199.998 C 61.140 200.730,61.135 200.800,61.751 200.800 C 62.122 200.800,62.532 200.522,62.662 200.183 C 63.034 199.212,62.598 199.118,61.802 199.998 M59.837 201.353 C 59.973 201.706,60.216 201.914,60.377 201.814 C 60.891 201.497,62.339 202.774,62.518 203.704 C 62.647 204.374,62.705 204.285,62.746 203.349 C 62.806 201.954,62.322 201.396,60.693 200.988 C 59.785 200.760,59.634 200.824,59.837 201.353 M29.206 206.100 C 29.211 206.763,29.304 206.856,29.559 206.453 C 29.750 206.152,30.152 205.750,30.453 205.559 C 30.856 205.304,30.763 205.211,30.100 205.206 C 29.430 205.202,29.202 205.430,29.206 206.100 M27.611 207.787 C 26.714 208.867,27.404 209.261,28.378 208.224 C 29.109 207.445,29.191 207.200,28.719 207.200 C 28.377 207.200,27.879 207.464,27.611 207.787 M26.000 210.600 C 25.483 211.150,25.272 211.600,25.530 211.600 C 25.789 211.600,26.000 211.420,26.000 211.200 C 26.000 210.980,26.201 210.845,26.447 210.900 C 26.693 210.955,26.947 210.685,27.011 210.300 C 27.163 209.397,27.118 209.410,26.000 210.600 M62.400 210.474 C 62.400 210.735,62.009 211.365,61.530 211.874 L 60.661 212.800 61.730 212.800 C 62.686 212.800,62.800 212.651,62.800 211.400 C 62.800 210.630,62.710 210.000,62.600 210.000 C 62.490 210.000,62.400 210.213,62.400 210.474 M24.000 214.690 C 23.444 215.398,23.306 215.835,23.606 215.935 C 24.219 216.140,24.779 215.545,24.986 214.471 C 25.205 213.335,25.037 213.372,24.000 214.690 M59.700 217.111 C 58.688 217.991,58.521 218.800,59.351 218.800 C 60.113 218.800,60.894 217.774,60.733 216.983 C 60.615 216.402,60.498 216.417,59.700 217.111 M22.029 220.654 C 21.573 221.234,21.219 222.179,21.242 222.754 C 21.278 223.642,21.363 223.559,21.811 222.200 C 22.101 221.320,22.352 220.855,22.369 221.167 C 22.411 221.936,22.787 221.504,22.990 220.454 C 23.204 219.342,23.034 219.377,22.029 220.654 M55.349 223.346 C 54.825 223.945,54.201 225.650,54.331 226.130 C 54.380 226.311,54.272 226.368,54.091 226.256 C 53.910 226.144,53.500 226.218,53.181 226.420 C 52.745 226.696,52.875 226.789,53.700 226.794 C 54.578 226.799,54.800 226.617,54.800 225.895 C 54.800 225.341,55.148 224.837,55.698 224.595 C 56.686 224.160,57.172 222.791,56.329 222.815 C 56.038 222.824,55.597 223.062,55.349 223.346 M50.917 227.500 C 50.775 227.885,50.467 228.327,50.233 228.483 C 49.677 228.853,51.692 228.638,52.299 228.262 C 52.901 227.890,52.487 226.800,51.745 226.800 C 51.431 226.800,51.059 227.115,50.917 227.500 M19.467 227.467 C 19.320 227.613,19.211 228.378,19.225 229.167 C 19.246 230.323,19.314 230.443,19.581 229.786 C 19.762 229.338,20.201 228.731,20.555 228.437 C 20.910 228.143,21.200 227.744,21.200 227.551 C 21.200 227.141,19.857 227.076,19.467 227.467 M48.432 229.313 C 48.414 229.705,47.995 230.189,47.500 230.388 L 46.600 230.749 47.513 230.775 C 48.463 230.801,49.024 229.996,48.669 229.113 C 48.542 228.796,48.451 228.872,48.432 229.313 M43.600 231.107 C 43.600 231.276,43.105 231.722,42.500 232.097 L 41.400 232.779 42.620 232.789 C 43.902 232.801,44.800 232.195,44.800 231.320 C 44.800 231.034,44.530 230.800,44.200 230.800 C 43.870 230.800,43.600 230.938,43.600 231.107 M36.353 233.300 C 36.327 233.575,36.313 233.894,36.322 234.008 C 36.331 234.122,35.517 234.253,34.513 234.297 C 31.858 234.415,31.873 234.800,34.533 234.800 C 36.684 234.800,36.800 234.749,36.800 233.800 C 36.800 232.786,36.440 232.383,36.353 233.300 " stroke="none" fill="#407810" fill-rule="evenodd"></path></g></svg>