<svg id="svg" version="1.1" width="400" height="400" viewBox="0 0 400 400" xmlns="http://www.w3.org/2000/svg" xmlns:xlink="http://www.w3.org/1999/xlink" ><g id="svgg"><path id="path0" d="M259.067 183.467 C 258.920 183.613,258.800 184.039,258.800 184.412 C 258.800 185.048,257.226 187.365,255.769 188.872 C 255.412 189.241,254.414 189.662,253.552 189.808 C 252.690 189.954,251.731 190.327,251.421 190.636 C 251.111 190.946,250.484 191.200,250.029 191.200 C 249.411 191.200,249.200 191.455,249.200 192.200 C 249.200 193.000,249.000 193.200,248.200 193.200 C 247.400 193.200,247.200 193.400,247.200 194.200 C 247.200 195.000,247.000 195.200,246.200 195.200 C 245.400 195.200,245.200 195.400,245.200 196.200 C 245.200 197.000,245.000 197.200,244.200 197.200 C 243.400 197.200,243.200 197.400,243.200 198.200 C 243.200 199.000,243.000 199.200,242.200 199.200 C 241.408 199.200,241.200 199.402,241.200 200.172 C 241.200 200.876,240.951 201.180,240.300 201.272 C 239.718 201.355,239.354 201.722,239.271 202.311 C 239.200 202.812,238.705 203.659,238.171 204.193 C 237.637 204.727,237.200 205.622,237.200 206.182 C 237.200 207.001,237.005 207.200,236.200 207.200 C 235.400 207.200,235.200 207.400,235.200 208.200 C 235.200 209.000,235.000 209.200,234.200 209.200 C 233.405 209.200,233.200 209.401,233.200 210.182 C 233.200 210.722,232.750 211.614,232.200 212.164 C 231.650 212.714,231.200 213.622,231.200 214.182 C 231.200 215.001,231.005 215.200,230.200 215.200 C 229.428 215.200,229.200 215.406,229.200 216.105 C 229.200 216.660,228.852 217.163,228.300 217.405 C 227.605 217.710,227.372 218.187,227.277 219.500 C 227.168 221.002,227.040 221.200,226.177 221.200 C 225.406 221.200,225.200 221.407,225.200 222.182 C 225.200 222.722,224.750 223.614,224.200 224.164 C 223.650 224.714,223.200 225.579,223.200 226.087 C 223.200 226.661,222.859 227.160,222.300 227.405 C 221.604 227.710,221.372 228.187,221.277 229.505 C 221.193 230.666,220.842 231.522,220.177 232.187 C 219.640 232.724,219.200 233.614,219.200 234.164 C 219.200 234.714,218.750 235.614,218.200 236.164 C 217.398 236.966,217.200 237.562,217.200 239.182 C 217.200 240.292,217.020 241.222,216.800 241.250 C 216.580 241.278,216.175 241.322,215.900 241.350 C 215.564 241.384,215.357 242.355,215.268 244.314 C 215.157 246.761,214.981 247.383,214.168 248.196 C 212.985 249.379,212.747 256.467,213.790 259.459 C 214.183 260.587,214.256 261.483,214.020 262.259 C 213.446 264.140,212.010 266.800,211.569 266.800 C 210.634 266.800,211.340 270.591,212.300 270.728 C 213.161 270.850,213.200 271.020,213.200 274.628 C 213.200 278.213,213.242 278.400,214.054 278.400 C 215.159 278.400,216.800 280.176,216.800 281.372 C 216.800 281.883,217.069 282.525,217.398 282.798 C 217.727 283.072,218.208 284.039,218.467 284.947 C 218.726 285.856,219.170 286.877,219.454 287.215 C 219.737 287.553,220.249 288.498,220.590 289.315 C 220.931 290.132,221.381 290.800,221.589 290.800 C 221.798 290.800,222.184 291.522,222.449 292.405 C 222.713 293.287,223.170 294.209,223.465 294.454 C 224.122 295.000,224.147 295.776,223.537 296.752 C 222.926 297.731,223.370 298.800,224.387 298.800 C 224.988 298.800,225.200 299.062,225.200 299.800 C 225.200 300.600,225.400 300.800,226.200 300.800 C 227.133 300.800,227.200 300.933,227.200 302.800 C 227.200 304.700,227.255 304.803,228.300 304.861 C 228.905 304.894,229.580 304.964,229.800 305.015 C 230.020 305.066,230.431 305.128,230.714 305.154 C 231.103 305.189,231.124 305.395,230.800 306.000 C 230.409 306.730,230.496 306.800,231.786 306.800 C 233.022 306.800,233.200 306.924,233.200 307.786 C 233.200 308.762,233.240 308.773,237.300 308.886 C 239.716 308.953,241.388 309.164,241.371 309.400 C 241.302 310.372,242.491 310.774,245.758 310.884 C 247.654 310.948,249.236 311.180,249.274 311.400 C 249.506 312.748,250.170 312.798,267.562 312.775 C 278.676 312.760,284.871 312.609,285.032 312.349 C 285.169 312.127,285.524 312.039,285.820 312.152 C 286.149 312.279,286.280 312.154,286.157 311.831 C 285.856 311.047,286.757 310.848,290.972 310.770 C 293.069 310.730,294.714 310.584,294.628 310.445 C 294.159 309.687,295.600 308.840,297.507 308.753 C 298.636 308.701,299.495 308.554,299.415 308.425 C 299.336 308.296,299.525 307.844,299.835 307.419 C 300.214 306.901,300.400 306.830,300.400 307.204 C 300.400 307.636,300.507 307.653,300.880 307.280 C 301.144 307.016,302.134 306.800,303.080 306.800 C 304.648 306.800,304.800 306.712,304.800 305.800 C 304.800 304.867,304.933 304.800,306.800 304.800 C 308.667 304.800,308.800 304.733,308.800 303.800 C 308.800 302.867,308.933 302.800,310.800 302.800 C 312.654 302.800,312.800 302.729,312.800 301.823 C 312.800 300.960,312.998 300.832,314.500 300.723 C 315.813 300.628,316.290 300.395,316.595 299.700 C 316.935 298.926,317.784 298.576,318.900 298.753 C 319.065 298.779,319.200 298.601,319.200 298.357 C 319.200 298.114,319.461 298.014,319.780 298.137 C 320.148 298.278,320.285 298.167,320.157 297.831 C 319.954 297.303,320.869 296.712,322.000 296.639 C 322.330 296.617,322.600 296.240,322.600 295.800 C 322.600 295.229,322.908 294.964,323.675 294.876 C 324.428 294.789,324.788 294.489,324.875 293.876 C 324.971 293.201,325.315 292.970,326.374 292.869 C 327.129 292.797,327.569 292.617,327.352 292.469 C 327.114 292.308,327.245 291.920,327.678 291.500 C 328.151 291.041,328.402 290.972,328.406 291.300 C 328.410 291.634,328.538 291.602,328.789 291.203 C 328.997 290.875,329.489 290.605,329.883 290.603 C 330.332 290.601,330.600 290.301,330.600 289.800 C 330.600 289.225,330.909 288.964,331.700 288.873 C 332.564 288.774,332.800 288.538,332.800 287.773 C 332.800 287.002,333.007 286.800,333.800 286.800 C 334.600 286.800,334.800 286.600,334.800 285.800 C 334.800 285.000,335.000 284.800,335.800 284.800 C 336.600 284.800,336.800 284.600,336.800 283.800 C 336.800 283.000,337.000 282.800,337.800 282.800 C 338.537 282.800,338.800 282.587,338.800 281.990 C 338.800 281.507,339.181 281.035,339.745 280.821 C 340.265 280.623,340.788 280.088,340.908 279.631 C 341.041 279.123,341.451 278.800,341.963 278.800 C 342.589 278.800,342.800 278.548,342.800 277.800 C 342.800 277.000,343.000 276.800,343.800 276.800 C 344.600 276.800,344.800 276.600,344.800 275.800 C 344.800 275.000,345.000 274.800,345.800 274.800 C 346.600 274.800,346.800 274.600,346.800 273.800 C 346.800 273.000,347.000 272.800,347.800 272.800 C 348.600 272.800,348.800 272.600,348.800 271.800 C 348.800 271.000,349.000 270.800,349.800 270.800 C 350.600 270.800,350.800 270.600,350.800 269.800 C 350.800 269.250,351.025 268.797,351.300 268.794 C 351.630 268.790,351.656 268.688,351.378 268.494 C 351.102 268.302,351.206 267.957,351.678 267.500 C 352.169 267.024,352.417 266.960,352.453 267.300 C 352.482 267.575,352.617 267.170,352.753 266.400 C 352.939 265.346,353.223 264.968,353.900 264.872 C 354.551 264.780,354.800 264.476,354.800 263.772 C 354.800 263.002,355.008 262.800,355.800 262.800 C 356.600 262.800,356.800 262.600,356.800 261.800 C 356.800 260.901,357.239 260.611,358.423 260.727 C 358.546 260.739,358.690 260.008,358.744 259.103 C 358.862 257.099,359.028 256.800,360.024 256.800 C 360.563 256.800,360.800 256.524,360.800 255.895 C 360.800 255.340,361.148 254.837,361.700 254.595 C 362.365 254.303,362.633 253.803,362.725 252.680 C 362.823 251.499,363.067 251.079,363.825 250.790 C 364.415 250.566,364.800 250.100,364.800 249.610 C 364.800 248.892,365.415 248.581,366.500 248.753 C 366.665 248.779,366.779 248.665,366.753 248.500 C 366.416 246.367,366.859 244.800,367.800 244.800 C 368.717 244.800,368.800 244.652,368.800 243.014 C 368.800 241.374,369.805 239.939,370.481 240.614 C 370.583 240.716,370.685 240.575,370.708 240.300 C 370.919 237.754,371.367 236.736,372.146 237.035 C 372.432 237.145,372.680 237.002,372.696 236.717 C 372.851 233.983,373.346 232.727,374.146 233.035 C 374.432 233.145,374.680 233.002,374.696 232.717 C 374.851 229.983,375.346 228.727,376.146 229.035 C 376.432 229.145,376.680 229.002,376.696 228.717 C 376.851 225.993,377.346 224.728,378.137 225.031 C 378.502 225.171,378.677 224.676,378.747 223.314 C 378.846 221.382,379.241 220.601,380.120 220.599 C 380.413 220.598,380.600 219.975,380.600 218.999 C 380.600 217.593,380.491 217.406,379.700 217.448 C 379.205 217.474,378.779 217.294,378.754 217.048 C 378.728 216.802,378.683 216.330,378.654 216.000 C 378.610 215.511,377.710 215.375,373.802 215.264 C 369.201 215.135,368.089 214.827,368.692 213.851 C 368.830 213.628,368.649 213.572,368.266 213.719 C 367.900 213.860,367.600 213.824,367.600 213.639 C 367.600 213.455,364.315 213.273,360.300 213.235 C 356.119 213.195,352.943 213.004,352.868 212.786 C 352.785 212.548,352.463 212.552,352.008 212.796 C 351.466 213.086,351.220 213.029,351.045 212.572 C 350.912 212.226,350.979 212.064,351.200 212.200 C 351.415 212.333,351.495 212.192,351.378 211.887 C 351.261 211.583,350.911 211.333,350.600 211.333 C 350.290 211.333,350.144 211.528,350.276 211.767 C 350.409 212.005,350.275 211.975,349.979 211.700 C 349.215 210.992,314.788 210.972,314.080 211.680 C 313.707 212.053,313.600 212.048,313.600 211.658 C 313.600 210.688,309.861 211.260,309.405 212.300 C 309.021 213.175,308.837 213.201,302.705 213.250 C 294.546 213.315,295.015 213.259,293.906 214.300 C 293.059 215.096,292.532 215.200,289.341 215.200 C 285.470 215.200,284.936 215.370,285.690 216.363 C 285.956 216.713,286.036 216.887,285.869 216.749 C 285.701 216.611,285.049 216.971,284.420 217.549 C 280.054 221.560,276.075 222.055,275.396 218.672 C 275.255 217.973,274.887 216.840,274.578 216.156 C 274.269 215.472,273.822 213.942,273.585 212.756 C 273.348 211.570,272.805 209.945,272.377 209.146 C 271.950 208.346,271.600 207.354,271.600 206.942 C 271.600 206.531,271.150 205.348,270.600 204.315 C 270.050 203.282,269.600 202.201,269.600 201.912 C 269.600 201.624,269.237 200.710,268.792 199.881 C 268.348 199.053,267.732 197.345,267.423 196.087 C 267.114 194.829,266.488 192.497,266.031 190.905 C 265.574 189.313,265.200 187.459,265.200 186.785 C 265.200 184.162,264.249 183.200,261.656 183.200 C 260.379 183.200,259.213 183.320,259.067 183.467 M377.440 225.535 C 377.313 225.741,377.461 226.118,377.769 226.374 C 378.100 226.649,378.423 226.686,378.560 226.465 C 378.687 226.259,378.539 225.882,378.231 225.626 C 377.900 225.351,377.577 225.314,377.440 225.535 M375.440 229.535 C 375.313 229.741,375.461 230.118,375.769 230.374 C 376.100 230.649,376.423 230.686,376.560 230.465 C 376.687 230.259,376.539 229.882,376.231 229.626 C 375.900 229.351,375.577 229.314,375.440 229.535 M373.440 233.535 C 373.313 233.741,373.461 234.118,373.769 234.374 C 374.100 234.649,374.423 234.686,374.560 234.465 C 374.687 234.259,374.539 233.882,374.231 233.626 C 373.900 233.351,373.577 233.314,373.440 233.535 M371.440 237.535 C 371.313 237.741,371.461 238.118,371.769 238.374 C 372.100 238.649,372.423 238.686,372.560 238.465 C 372.687 238.259,372.539 237.882,372.231 237.626 C 371.900 237.351,371.577 237.314,371.440 237.535 M312.700 241.076 C 312.315 241.176,311.685 241.176,311.300 241.076 C 310.915 240.975,311.230 240.893,312.000 240.893 C 312.770 240.893,313.085 240.975,312.700 241.076 M306.700 243.076 C 306.315 243.176,305.685 243.176,305.300 243.076 C 304.915 242.975,305.230 242.893,306.000 242.893 C 306.770 242.893,307.085 242.975,306.700 243.076 M302.400 245.093 C 301.850 245.194,301.175 245.461,300.900 245.687 C 300.553 245.972,300.400 245.961,300.400 245.649 C 300.400 245.402,300.209 245.200,299.976 245.200 C 299.743 245.200,299.663 245.378,299.797 245.595 C 299.937 245.822,299.777 245.889,299.423 245.754 C 298.226 245.294,299.270 244.801,301.324 244.854 C 302.466 244.884,302.950 244.992,302.400 245.093 M299.916 246.617 C 299.536 246.997,296.457 247.831,296.662 247.499 C 296.799 247.277,296.661 247.176,296.356 247.274 C 296.050 247.372,295.622 247.845,295.405 248.326 C 295.188 248.807,294.729 249.200,294.385 249.200 C 294.041 249.200,293.564 249.396,293.325 249.635 C 293.015 249.945,292.814 249.946,292.624 249.639 C 292.263 249.055,291.233 250.019,291.493 250.698 C 291.617 251.022,291.315 251.200,290.643 251.200 C 290.069 251.200,289.600 251.380,289.600 251.600 C 289.600 251.820,289.341 252.000,289.024 252.000 C 288.707 252.000,288.337 252.178,288.203 252.395 C 288.063 252.622,288.223 252.689,288.579 252.553 C 288.921 252.422,289.200 252.488,289.200 252.700 C 289.200 252.913,288.795 253.082,288.300 253.078 C 285.551 253.051,285.200 253.178,285.200 254.200 C 285.200 255.133,285.067 255.200,283.200 255.200 C 280.157 255.200,280.065 252.917,283.100 252.722 C 284.693 252.620,285.000 252.471,285.000 251.800 C 285.000 251.178,285.311 250.971,286.398 250.867 C 287.168 250.794,288.015 250.554,288.281 250.333 C 288.547 250.112,288.932 250.035,289.137 250.161 C 289.342 250.288,289.755 250.089,290.055 249.721 C 290.531 249.135,290.511 249.083,289.900 249.313 C 289.515 249.457,289.200 249.401,289.200 249.187 C 289.200 248.863,291.110 248.620,293.096 248.692 C 293.368 248.702,293.519 248.593,293.431 248.450 C 293.343 248.308,293.525 247.844,293.835 247.419 C 294.214 246.901,294.400 246.830,294.400 247.204 C 294.400 247.636,294.507 247.653,294.880 247.280 C 295.144 247.016,296.033 246.800,296.856 246.800 C 297.679 246.800,298.459 246.628,298.589 246.417 C 298.719 246.207,299.098 246.139,299.430 246.267 C 299.763 246.394,299.981 246.552,299.916 246.617 M240.064 280.100 C 240.870 281.575,240.643 285.075,239.655 286.411 C 239.185 287.047,238.800 287.832,238.800 288.156 C 238.800 289.382,237.039 289.050,235.865 287.602 C 234.409 285.806,234.984 281.200,236.664 281.200 C 236.959 281.200,237.200 280.855,237.200 280.433 C 237.200 279.016,239.336 278.768,240.064 280.100 " stroke="none" fill="#94df31" fill-rule="evenodd"></path><path id="path1" d="M115.471 139.462 C 115.322 139.611,115.200 140.482,115.200 141.397 C 115.200 142.654,114.956 143.290,114.200 144.000 C 113.299 144.847,113.200 145.248,113.200 148.070 C 113.200 149.791,113.033 151.200,112.829 151.200 C 111.693 151.200,111.200 152.541,111.200 155.629 L 111.200 158.800 127.221 158.800 L 143.242 158.800 143.160 161.601 C 143.102 163.620,142.900 164.542,142.439 164.901 C 141.899 165.323,141.862 165.304,142.200 164.781 C 142.420 164.441,142.285 164.506,141.900 164.925 C 141.376 165.496,141.200 166.376,141.200 168.417 C 141.200 170.771,141.093 171.180,140.420 171.394 C 139.438 171.705,139.249 172.346,139.152 175.703 C 139.096 177.631,138.891 178.549,138.437 178.903 C 137.900 179.322,137.863 179.303,138.200 178.781 C 138.420 178.441,138.285 178.506,137.900 178.925 C 137.376 179.496,137.200 180.376,137.200 182.417 C 137.200 184.771,137.093 185.180,136.420 185.394 C 135.438 185.705,135.249 186.346,135.152 189.703 C 135.096 191.631,134.891 192.549,134.437 192.903 C 133.900 193.322,133.863 193.303,134.200 192.781 C 134.420 192.441,134.285 192.506,133.900 192.925 C 133.375 193.498,133.200 194.377,133.200 196.444 C 133.200 197.960,133.033 199.200,132.829 199.200 C 131.674 199.200,131.200 200.538,131.200 203.801 C 131.200 206.964,131.151 207.151,130.300 207.272 C 129.476 207.389,129.390 207.641,129.284 210.246 C 129.185 212.667,129.020 213.229,128.184 214.015 C 127.301 214.844,127.200 215.262,127.200 218.070 C 127.200 221.142,127.181 221.200,126.200 221.200 C 125.224 221.200,125.200 221.271,125.200 224.130 C 125.200 226.701,125.083 227.170,124.246 227.957 C 123.482 228.674,123.303 229.227,123.346 230.727 L 123.400 232.600 138.467 232.705 C 156.198 232.828,154.800 233.216,154.800 228.171 C 154.800 224.842,154.812 224.800,155.800 224.800 C 156.779 224.800,156.800 224.736,156.800 221.763 C 156.800 219.111,156.897 218.700,157.563 218.526 C 158.538 218.271,158.788 217.292,158.795 213.700 C 158.800 210.775,158.954 210.509,160.500 210.753 C 160.665 210.779,160.779 210.665,160.753 210.500 C 160.401 208.272,160.885 204.703,161.563 204.526 C 162.538 204.271,162.788 203.292,162.795 199.700 C 162.800 196.775,162.954 196.509,164.500 196.753 C 164.665 196.779,164.779 196.665,164.753 196.500 C 164.401 194.272,164.885 190.703,165.563 190.526 C 166.538 190.271,166.788 189.292,166.795 185.700 C 166.800 182.887,166.829 182.800,167.785 182.800 C 168.752 182.800,168.772 182.734,168.885 179.100 C 168.991 175.702,169.073 175.368,169.900 175.005 C 170.714 174.648,170.800 174.334,170.800 171.705 C 170.800 168.785,170.928 168.553,172.446 168.735 C 172.581 168.751,172.726 167.203,172.768 165.296 C 172.844 161.853,173.191 160.800,174.249 160.800 C 174.570 160.800,174.800 160.383,174.800 159.800 L 174.800 158.800 191.800 158.800 L 208.800 158.800 208.800 155.800 C 208.800 152.778,208.921 152.553,210.446 152.735 C 210.581 152.751,210.726 151.203,210.768 149.296 C 210.845 145.836,211.190 144.800,212.267 144.800 C 212.715 144.800,212.811 144.224,212.718 142.100 L 212.600 139.400 164.171 139.295 C 137.535 139.238,115.620 139.313,115.471 139.462 " stroke="none" fill="#640c8b" fill-rule="evenodd"></path><path id="path2" d="M258.352 184.100 C 257.401 185.897,255.086 188.400,254.375 188.400 C 253.975 188.400,253.536 188.580,253.400 188.800 C 253.264 189.020,252.713 189.200,252.176 189.200 C 251.546 189.200,251.200 189.428,251.200 189.843 C 251.200 190.236,251.422 190.400,251.772 190.266 C 252.086 190.146,252.973 189.929,253.743 189.784 C 254.513 189.640,255.424 189.224,255.769 188.861 C 257.328 187.217,258.476 185.531,258.796 184.414 C 259.208 182.978,259.017 182.844,258.352 184.100 M265.200 187.781 C 265.200 187.907,265.574 189.313,266.031 190.905 C 266.488 192.497,267.114 194.829,267.423 196.087 C 267.732 197.345,268.348 199.053,268.792 199.881 C 269.237 200.710,269.600 201.624,269.600 201.912 C 269.600 202.201,270.050 203.282,270.600 204.315 C 271.150 205.348,271.600 206.531,271.600 206.942 C 271.600 207.354,271.950 208.346,272.377 209.146 C 272.805 209.945,273.348 211.570,273.585 212.756 C 273.822 213.942,274.269 215.472,274.578 216.156 C 274.887 216.840,275.255 217.973,275.396 218.672 C 276.075 222.055,280.054 221.560,284.420 217.549 C 285.049 216.971,285.649 216.582,285.752 216.685 C 285.855 216.789,285.899 216.592,285.848 216.248 C 285.798 215.904,285.602 215.483,285.414 215.312 C 285.226 215.140,285.201 215.225,285.359 215.500 C 285.518 215.775,285.457 216.000,285.224 216.000 C 284.991 216.000,284.800 216.270,284.800 216.600 C 284.800 216.930,284.536 217.200,284.214 217.200 C 283.652 217.200,282.671 217.577,278.874 219.253 C 276.714 220.206,276.560 220.102,275.984 217.293 C 275.725 216.032,275.358 214.808,275.168 214.572 C 274.978 214.337,274.539 212.923,274.192 211.430 C 273.846 209.937,273.319 208.329,273.021 207.858 C 272.723 207.386,272.349 206.370,272.191 205.600 C 272.033 204.830,271.475 203.464,270.952 202.565 C 270.428 201.666,270.000 200.607,270.000 200.212 C 270.000 199.817,269.656 198.933,269.236 198.247 C 268.816 197.561,268.087 195.650,267.617 194.000 C 266.078 188.606,265.863 187.962,265.529 187.756 C 265.348 187.644,265.200 187.656,265.200 187.781 M231.704 211.821 C 231.431 212.116,231.341 212.438,231.504 212.537 C 231.667 212.635,232.023 212.474,232.296 212.179 C 232.569 211.884,232.659 211.562,232.496 211.463 C 232.333 211.365,231.977 211.526,231.704 211.821 M351.308 211.670 C 350.567 212.563,351.329 213.414,352.142 212.601 C 352.855 211.888,353.023 211.415,352.434 211.779 C 352.233 211.903,352.001 211.804,351.920 211.559 C 351.820 211.261,351.617 211.297,351.308 211.670 M293.301 214.122 C 293.246 214.853,293.276 214.855,294.022 214.180 C 294.980 213.314,294.985 213.236,294.079 213.304 C 293.679 213.334,293.333 213.698,293.301 214.122 M379.213 220.947 C 378.699 221.461,378.669 222.800,379.171 222.800 C 379.714 222.800,380.800 221.625,380.800 221.038 C 380.800 220.429,379.789 220.371,379.213 220.947 M377.252 225.337 C 376.753 225.938,377.181 226.681,378.020 226.673 C 378.792 226.665,378.941 225.340,378.202 225.056 C 377.903 224.941,377.476 225.068,377.252 225.337 M375.252 229.337 C 374.753 229.938,375.181 230.681,376.020 230.673 C 376.792 230.665,376.941 229.340,376.202 229.056 C 375.903 228.941,375.476 229.068,375.252 229.337 M373.252 233.337 C 372.753 233.938,373.181 234.681,374.020 234.673 C 374.792 234.665,374.941 233.340,374.202 233.056 C 373.903 232.941,373.476 233.068,373.252 233.337 M371.252 237.337 C 370.753 237.938,371.181 238.681,372.020 238.673 C 372.792 238.665,372.941 237.340,372.202 237.056 C 371.903 236.941,371.476 237.068,371.252 237.337 M369.700 240.670 C 368.291 241.652,368.530 243.339,369.950 242.439 C 370.360 242.180,371.033 239.902,370.665 240.021 C 370.629 240.033,370.195 240.324,369.700 240.670 M299.026 245.158 C 298.904 245.355,299.083 245.623,299.423 245.754 C 299.777 245.889,299.937 245.822,299.797 245.595 C 299.663 245.378,299.743 245.200,299.976 245.200 C 300.209 245.200,300.400 245.391,300.400 245.624 C 300.400 245.857,300.583 245.934,300.807 245.796 C 301.030 245.658,301.109 245.377,300.983 245.172 C 300.689 244.697,299.317 244.687,299.026 245.158 M293.365 247.850 L 292.530 248.700 293.497 248.700 C 294.028 248.700,294.558 248.454,294.674 248.152 C 294.789 247.851,295.033 247.696,295.214 247.809 C 295.396 247.921,295.675 247.802,295.835 247.544 C 296.035 247.220,295.863 247.143,295.282 247.295 C 294.818 247.416,294.385 247.399,294.319 247.258 C 294.254 247.116,293.824 247.382,293.365 247.850 M289.200 249.187 C 289.200 249.401,289.515 249.457,289.900 249.313 C 290.504 249.086,290.527 249.140,290.071 249.701 C 289.780 250.059,289.303 250.261,289.011 250.149 C 288.720 250.037,288.362 250.138,288.217 250.373 C 287.799 251.048,289.466 250.877,290.171 250.171 C 291.026 249.317,290.961 248.800,290.000 248.800 C 289.560 248.800,289.200 248.974,289.200 249.187 M363.700 250.812 C 362.829 251.163,362.394 252.800,363.171 252.800 C 363.742 252.800,364.800 251.612,364.800 250.971 C 364.800 250.657,364.755 250.411,364.700 250.425 C 364.645 250.439,364.195 250.613,363.700 250.812 M287.669 251.865 C 287.320 252.237,287.329 252.433,287.704 252.668 C 288.470 253.146,289.200 253.173,289.200 252.722 C 289.200 252.498,288.921 252.422,288.579 252.553 C 288.223 252.689,288.063 252.622,288.203 252.395 C 288.337 252.178,288.707 252.000,289.024 252.000 C 289.341 252.000,289.600 251.859,289.600 251.686 C 289.600 251.189,288.177 251.320,287.669 251.865 M361.839 253.938 C 361.700 254.161,361.782 254.465,362.020 254.612 C 362.635 254.993,363.032 254.472,362.518 253.958 C 362.231 253.671,362.007 253.664,361.839 253.938 M359.067 257.067 C 358.666 257.468,358.746 258.800,359.171 258.800 C 359.376 258.800,359.826 258.517,360.171 258.171 C 360.517 257.826,360.800 257.376,360.800 257.171 C 360.800 256.746,359.468 256.666,359.067 257.067 M213.212 259.864 C 213.205 260.780,212.847 262.662,212.416 264.047 C 211.427 267.227,211.625 267.456,213.009 264.730 C 214.149 262.485,214.406 260.235,213.667 258.962 C 213.292 258.316,213.222 258.453,213.212 259.864 M353.067 265.067 C 352.666 265.468,352.746 266.800,353.171 266.800 C 353.376 266.800,353.826 266.517,354.171 266.171 C 354.517 265.826,354.800 265.376,354.800 265.171 C 354.800 264.746,353.468 264.666,353.067 265.067 M351.531 267.646 C 350.925 268.272,350.922 268.361,351.498 268.582 C 352.330 268.902,352.980 268.237,352.541 267.515 C 352.256 267.046,352.090 267.067,351.531 267.646 M213.200 278.800 C 213.200 279.020,213.621 279.200,214.136 279.200 C 215.017 279.200,216.000 280.504,216.000 281.674 C 216.000 282.369,220.324 291.106,220.819 291.412 C 221.408 291.776,222.800 295.047,222.800 296.066 C 222.800 296.529,223.011 296.796,223.300 296.700 C 224.048 296.451,224.149 295.231,223.486 294.470 C 223.164 294.102,222.684 293.125,222.420 292.300 C 222.155 291.475,221.774 290.800,221.574 290.800 C 221.374 290.800,220.931 290.132,220.590 289.315 C 220.249 288.498,219.737 287.553,219.454 287.215 C 219.170 286.877,218.726 285.856,218.467 284.947 C 218.208 284.039,217.727 283.072,217.398 282.798 C 217.069 282.525,216.800 281.883,216.800 281.372 C 216.800 280.176,215.159 278.400,214.054 278.400 C 213.584 278.400,213.200 278.580,213.200 278.800 M340.821 279.745 C 340.623 280.265,340.088 280.788,339.631 280.908 C 339.123 281.041,338.800 281.451,338.800 281.963 C 338.800 282.940,339.323 283.044,340.071 282.214 C 341.147 281.022,341.576 280.588,342.181 280.084 C 343.039 279.369,342.955 278.800,341.990 278.800 C 341.507 278.800,341.035 279.181,340.821 279.745 M237.700 279.458 C 237.425 279.573,237.200 280.012,237.200 280.433 C 237.200 280.855,236.959 281.200,236.664 281.200 C 235.068 281.200,234.380 285.876,235.747 287.431 C 236.872 288.710,237.089 288.256,236.341 286.189 C 235.726 284.486,236.144 283.080,237.696 281.630 C 239.553 279.894,240.422 281.926,239.480 285.800 C 239.218 286.875,239.246 286.926,239.744 286.292 C 241.812 283.659,240.237 278.396,237.700 279.458 M238.000 288.200 C 237.592 288.691,237.620 288.800,238.151 288.800 C 238.508 288.800,238.800 288.530,238.800 288.200 C 238.800 287.870,238.732 287.600,238.649 287.600 C 238.566 287.600,238.274 287.870,238.000 288.200 M327.531 291.646 C 326.925 292.272,326.922 292.361,327.498 292.582 C 328.330 292.902,328.980 292.237,328.541 291.515 C 328.256 291.046,328.090 291.067,327.531 291.646 M325.067 293.067 C 324.666 293.468,324.746 294.800,325.171 294.800 C 325.376 294.800,325.826 294.517,326.171 294.171 C 326.517 293.826,326.800 293.376,326.800 293.171 C 326.800 292.746,325.468 292.666,325.067 293.067 M319.700 297.798 C 319.032 298.558,319.070 298.748,319.867 298.631 C 320.233 298.578,320.578 298.233,320.631 297.867 C 320.750 297.059,320.375 297.031,319.700 297.798 M315.839 299.938 C 315.700 300.161,315.782 300.465,316.020 300.612 C 316.635 300.993,317.032 300.472,316.518 299.958 C 316.231 299.671,316.007 299.664,315.839 299.938 M229.580 305.424 C 229.215 305.864,229.214 306.000,229.575 306.000 C 229.835 306.000,229.937 306.178,229.803 306.395 C 229.665 306.618,229.817 306.692,230.148 306.564 C 230.473 306.440,230.831 306.097,230.944 305.802 C 231.237 305.037,230.151 304.736,229.580 305.424 M299.543 307.755 C 298.925 308.584,298.931 308.640,299.642 308.693 C 300.058 308.725,300.597 308.380,300.839 307.927 C 301.107 307.426,301.121 307.202,300.874 307.354 C 300.651 307.492,300.408 307.441,300.334 307.240 C 300.260 307.039,299.904 307.271,299.543 307.755 M285.420 312.034 C 284.646 312.813,284.647 312.818,285.587 312.675 C 286.108 312.595,286.578 312.231,286.632 311.865 C 286.758 311.005,286.390 311.056,285.420 312.034 " stroke="none" fill="#74ac3c" fill-rule="evenodd"></path><path id="path3" d="M131.840 52.195 C 130.927 53.180,130.793 53.200,125.054 53.200 L 119.200 53.200 119.200 54.186 C 119.200 55.158,119.147 55.173,115.300 55.286 C 111.600 55.394,111.393 55.446,111.272 56.300 C 111.153 57.141,110.950 57.200,108.172 57.200 C 105.269 57.200,105.200 57.223,105.200 58.200 C 105.200 59.178,105.133 59.200,102.200 59.200 C 99.267 59.200,99.200 59.222,99.200 60.200 C 99.200 61.146,99.081 61.200,96.981 61.200 C 95.144 61.200,94.606 61.368,93.860 62.173 C 93.220 62.864,92.442 63.183,91.179 63.273 C 89.699 63.379,89.379 63.548,89.275 64.279 C 89.169 65.021,88.856 65.177,87.275 65.279 C 85.679 65.382,85.381 65.534,85.272 66.300 C 85.172 67.003,84.884 67.200,83.953 67.200 C 83.196 67.200,82.424 67.565,81.835 68.200 C 81.325 68.750,80.524 69.200,80.054 69.200 C 79.415 69.200,79.200 69.446,79.200 70.178 C 79.200 71.061,79.015 71.168,77.300 71.278 C 75.679 71.382,75.381 71.532,75.272 72.300 C 75.180 72.951,74.876 73.200,74.172 73.200 C 73.408 73.200,73.200 73.409,73.200 74.178 C 73.200 75.061,73.015 75.168,71.300 75.278 C 69.679 75.382,69.381 75.532,69.272 76.300 C 69.180 76.951,68.876 77.200,68.172 77.200 C 67.402 77.200,67.200 77.408,67.200 78.200 C 67.200 79.000,67.000 79.200,66.200 79.200 C 65.400 79.200,65.200 79.400,65.200 80.200 C 65.200 81.048,65.015 81.200,63.981 81.200 C 63.211 81.200,62.437 81.551,61.880 82.152 C 61.395 82.675,60.638 83.172,60.199 83.256 C 59.738 83.344,59.346 83.787,59.272 84.304 C 59.180 84.951,58.874 85.200,58.172 85.200 C 57.402 85.200,57.200 85.408,57.200 86.200 C 57.200 87.000,57.000 87.200,56.200 87.200 C 55.400 87.200,55.200 87.400,55.200 88.200 C 55.200 89.000,55.000 89.200,54.200 89.200 C 53.400 89.200,53.200 89.400,53.200 90.200 C 53.200 91.000,53.000 91.200,52.200 91.200 C 51.408 91.200,51.200 91.402,51.200 92.172 C 51.200 92.876,50.951 93.180,50.300 93.272 C 49.730 93.353,49.354 93.721,49.275 94.275 C 49.198 94.821,48.821 95.198,48.275 95.275 C 47.536 95.381,47.381 95.696,47.278 97.300 C 47.168 99.015,47.061 99.200,46.178 99.200 C 45.401 99.200,45.200 99.406,45.200 100.200 C 45.200 101.000,45.000 101.200,44.200 101.200 C 43.408 101.200,43.200 101.402,43.200 102.172 C 43.200 102.874,42.951 103.180,42.304 103.272 C 41.787 103.346,41.344 103.738,41.256 104.199 C 41.172 104.638,40.675 105.395,40.152 105.880 C 39.551 106.437,39.200 107.211,39.200 107.981 C 39.200 109.015,39.048 109.200,38.200 109.200 C 37.267 109.200,37.200 109.333,37.200 111.200 C 37.200 113.067,37.133 113.200,36.200 113.200 C 35.446 113.200,35.200 113.410,35.200 114.054 C 35.200 114.524,34.750 115.325,34.200 115.835 C 33.612 116.380,33.200 117.204,33.200 117.835 C 33.200 118.466,32.788 119.290,32.200 119.835 C 31.612 120.380,31.200 121.204,31.200 121.835 C 31.200 122.466,30.788 123.290,30.200 123.835 C 29.612 124.380,29.200 125.204,29.200 125.835 C 29.200 126.466,28.788 127.290,28.200 127.835 C 27.368 128.606,27.200 129.130,27.200 130.953 C 27.200 132.921,27.108 133.157,26.300 133.272 C 25.474 133.389,25.390 133.639,25.282 136.300 C 25.170 139.081,25.125 139.200,24.182 139.200 C 23.205 139.200,23.200 139.219,23.200 143.200 L 23.200 147.200 22.200 147.200 C 21.203 147.200,21.200 147.210,21.200 151.054 C 21.200 154.651,21.133 154.970,20.200 155.835 L 19.200 156.762 19.200 177.152 C 19.200 198.404,19.230 198.800,20.829 198.800 C 21.034 198.800,21.200 200.748,21.200 203.171 C 21.200 207.491,21.579 208.800,22.829 208.800 C 23.033 208.800,23.200 210.150,23.200 211.800 C 23.200 214.733,23.222 214.800,24.200 214.800 C 25.178 214.800,25.200 214.867,25.200 217.800 C 25.200 220.733,25.222 220.800,26.200 220.800 C 27.133 220.800,27.200 220.933,27.200 222.800 C 27.200 224.667,27.267 224.800,28.200 224.800 C 29.178 224.800,29.200 224.867,29.200 227.800 C 29.200 230.733,29.222 230.800,30.200 230.800 C 31.072 230.800,31.200 230.975,31.200 232.171 C 31.200 233.473,32.022 234.800,32.829 234.800 C 33.033 234.800,33.200 235.250,33.200 235.800 C 33.200 236.600,33.400 236.800,34.200 236.800 C 35.133 236.800,35.200 236.933,35.200 238.800 C 35.200 240.667,35.267 240.800,36.200 240.800 C 37.133 240.800,37.200 240.933,37.200 242.800 C 37.200 244.667,37.267 244.800,38.200 244.800 C 39.000 244.800,39.200 245.000,39.200 245.800 C 39.200 246.600,39.400 246.800,40.200 246.800 C 41.133 246.800,41.200 246.933,41.200 248.800 C 41.200 250.667,41.267 250.800,42.200 250.800 C 43.000 250.800,43.200 251.000,43.200 251.800 C 43.200 252.600,43.400 252.800,44.200 252.800 C 45.000 252.800,45.200 253.000,45.200 253.800 C 45.200 254.600,45.400 254.800,46.200 254.800 C 47.000 254.800,47.200 255.000,47.200 255.800 C 47.200 256.600,47.400 256.800,48.200 256.800 C 49.072 256.800,49.200 256.975,49.200 258.171 C 49.200 259.473,50.022 260.800,50.829 260.800 C 51.033 260.800,51.200 261.250,51.200 261.800 C 51.200 262.600,51.400 262.800,52.200 262.800 C 53.000 262.800,53.200 263.000,53.200 263.800 C 53.200 264.592,53.402 264.800,54.172 264.800 C 54.876 264.800,55.180 265.049,55.272 265.700 C 55.353 266.270,55.721 266.646,56.275 266.725 C 56.821 266.802,57.198 267.179,57.275 267.725 C 57.353 268.272,57.730 268.647,58.281 268.725 C 58.766 268.794,59.270 269.190,59.402 269.605 C 59.533 270.020,59.983 270.467,60.400 270.600 C 60.817 270.733,61.267 271.183,61.400 271.600 C 61.533 272.017,61.983 272.467,62.400 272.600 C 62.817 272.733,63.267 273.183,63.400 273.600 C 63.533 274.017,63.983 274.467,64.400 274.600 C 64.817 274.733,65.267 275.183,65.400 275.600 C 65.533 276.017,65.983 276.467,66.400 276.600 C 66.817 276.733,67.267 277.183,67.400 277.600 C 67.533 278.017,67.983 278.467,68.400 278.600 C 68.817 278.733,69.267 279.183,69.400 279.600 C 69.533 280.017,69.992 280.470,70.420 280.606 C 70.849 280.743,71.200 281.009,71.200 281.198 C 71.200 281.980,72.546 282.800,73.829 282.800 C 75.025 282.800,75.200 282.928,75.200 283.800 C 75.200 284.600,75.400 284.800,76.200 284.800 C 77.000 284.800,77.200 285.000,77.200 285.800 C 77.200 286.600,77.400 286.800,78.200 286.800 C 79.000 286.800,79.200 287.000,79.200 287.800 C 79.200 288.733,79.333 288.800,81.200 288.800 C 83.067 288.800,83.200 288.867,83.200 289.800 C 83.200 290.600,83.400 290.800,84.200 290.800 C 85.000 290.800,85.200 291.000,85.200 291.800 C 85.200 292.733,85.333 292.800,87.200 292.800 C 89.067 292.800,89.200 292.867,89.200 293.800 C 89.200 294.600,89.400 294.800,90.200 294.800 C 91.000 294.800,91.200 295.000,91.200 295.800 C 91.200 296.733,91.333 296.800,93.200 296.800 C 95.067 296.800,95.200 296.867,95.200 297.800 C 95.200 298.733,95.333 298.800,97.200 298.800 C 99.067 298.800,99.200 298.867,99.200 299.800 C 99.200 300.733,99.333 300.800,101.200 300.800 C 103.067 300.800,103.200 300.867,103.200 301.800 C 103.200 302.733,103.333 302.800,105.200 302.800 C 107.067 302.800,107.200 302.867,107.200 303.800 C 107.200 304.778,107.267 304.800,110.200 304.800 C 113.133 304.800,113.200 304.822,113.200 305.800 C 113.200 306.733,113.333 306.800,115.200 306.800 C 116.300 306.800,117.200 306.967,117.200 307.171 C 117.200 308.330,118.537 308.800,121.829 308.800 C 125.158 308.800,125.200 308.812,125.200 309.800 L 125.200 310.800 130.200 310.800 L 135.200 310.800 135.200 311.800 L 135.200 312.800 159.000 312.800 L 182.800 312.800 182.800 311.800 L 182.800 310.800 187.800 310.800 L 192.800 310.800 192.800 309.800 L 192.800 308.800 196.800 308.800 C 200.780 308.800,200.800 308.795,200.800 307.818 C 200.800 306.885,200.932 306.831,203.500 306.718 C 205.857 306.615,206.250 306.486,206.595 305.700 C 206.925 304.948,207.303 304.800,208.895 304.800 C 210.660 304.800,210.800 304.727,210.800 303.800 C 210.800 302.867,210.933 302.800,212.800 302.800 C 214.657 302.800,214.800 302.730,214.800 301.818 C 214.800 300.885,214.932 300.831,217.500 300.718 C 219.857 300.615,220.250 300.486,220.595 299.700 C 220.837 299.148,221.340 298.800,221.895 298.800 C 223.477 298.800,222.438 294.187,220.279 291.621 C 219.686 290.916,219.200 290.104,219.200 289.818 C 219.200 289.532,218.931 289.075,218.602 288.802 C 218.273 288.528,217.785 287.561,217.518 286.653 C 217.250 285.744,216.801 284.820,216.519 284.600 C 216.237 284.380,215.845 283.329,215.648 282.265 C 215.172 279.691,214.799 279.407,211.883 279.403 C 209.629 279.400,209.388 279.481,209.275 280.279 C 209.169 281.021,208.856 281.177,207.275 281.279 C 205.679 281.382,205.381 281.534,205.272 282.300 C 205.159 283.094,204.913 283.200,203.172 283.200 C 201.335 283.200,201.200 283.269,201.200 284.200 C 201.200 285.133,201.067 285.200,199.200 285.200 C 197.333 285.200,197.200 285.267,197.200 286.200 C 197.200 287.178,197.133 287.200,194.200 287.200 C 191.278 287.200,191.200 287.226,191.200 288.186 C 191.200 289.158,191.147 289.173,187.300 289.286 C 183.600 289.394,183.393 289.446,183.272 290.300 C 183.147 291.178,183.024 291.200,178.172 291.200 L 173.200 291.200 173.200 292.200 L 173.200 293.200 159.000 293.200 L 144.800 293.200 144.800 292.200 L 144.800 291.200 139.800 291.200 C 136.990 291.200,134.800 291.037,134.800 290.829 C 134.800 289.670,133.463 289.200,130.171 289.200 C 126.842 289.200,126.800 289.188,126.800 288.200 C 126.800 287.222,126.733 287.200,123.800 287.200 C 120.867 287.200,120.800 287.178,120.800 286.200 C 120.800 285.267,120.667 285.200,118.800 285.200 C 117.700 285.200,116.800 285.033,116.800 284.829 C 116.800 283.806,115.449 283.200,113.171 283.200 C 110.909 283.200,110.800 283.154,110.800 282.200 C 110.800 281.267,110.667 281.200,108.800 281.200 C 106.948 281.200,106.800 281.128,106.800 280.227 C 106.800 279.472,106.553 279.216,105.700 279.087 C 104.676 278.931,104.690 278.916,105.900 278.860 C 107.036 278.808,107.200 278.926,107.200 279.800 C 107.200 280.777,107.269 280.800,110.172 280.800 C 112.950 280.800,113.153 280.859,113.272 281.700 C 113.396 282.570,113.562 282.604,118.300 282.712 L 123.200 282.825 123.200 283.812 L 123.200 284.800 130.200 284.800 L 137.200 284.800 137.200 285.800 L 137.200 286.800 149.000 286.800 L 160.800 286.800 160.800 285.800 L 160.800 284.800 166.800 284.800 L 172.800 284.800 172.800 283.800 L 172.800 282.800 176.800 282.800 L 180.800 282.800 180.800 281.800 C 180.800 280.822,180.867 280.800,183.800 280.800 C 186.718 280.800,186.800 280.773,186.800 279.818 C 186.800 278.885,186.932 278.831,189.500 278.718 C 191.840 278.616,192.252 278.482,192.587 277.718 C 192.890 277.027,193.366 276.811,194.787 276.718 C 196.319 276.618,196.620 276.461,196.728 275.700 C 196.841 274.906,197.087 274.800,198.828 274.800 C 200.652 274.800,200.800 274.727,200.800 273.823 C 200.800 272.960,200.998 272.832,202.500 272.723 C 203.813 272.628,204.290 272.395,204.595 271.700 C 204.837 271.148,205.340 270.800,205.895 270.800 C 206.594 270.800,206.800 270.572,206.800 269.800 C 206.800 268.867,206.933 268.800,208.800 268.800 C 210.490 268.800,210.800 268.684,210.800 268.049 C 210.800 267.636,211.078 266.632,211.418 265.818 C 212.585 263.025,212.080 259.427,210.500 259.275 C 209.346 259.163,209.200 259.262,209.200 260.153 C 209.200 261.066,209.029 261.167,207.300 261.278 C 205.679 261.382,205.381 261.532,205.272 262.300 C 205.180 262.951,204.876 263.200,204.172 263.200 C 203.402 263.200,203.200 263.408,203.200 264.200 C 203.200 265.133,203.067 265.200,201.200 265.200 C 199.333 265.200,199.200 265.267,199.200 266.200 C 199.200 267.133,199.067 267.200,197.200 267.200 C 195.333 267.200,195.200 267.267,195.200 268.200 C 195.200 269.133,195.067 269.200,193.200 269.200 C 191.333 269.200,191.200 269.267,191.200 270.200 C 191.200 271.133,191.067 271.200,189.200 271.200 C 187.333 271.200,187.200 271.267,187.200 272.200 C 187.200 273.178,187.133 273.200,184.200 273.200 C 181.267 273.200,181.200 273.222,181.200 274.200 C 181.200 275.178,181.133 275.200,178.200 275.200 C 175.267 275.200,175.200 275.222,175.200 276.200 L 175.200 277.200 171.200 277.200 L 167.200 277.200 167.200 278.200 L 167.200 279.200 159.200 279.200 L 151.200 279.200 151.200 280.200 C 151.200 281.685,144.938 281.782,144.728 280.300 C 144.600 279.401,144.588 279.400,135.700 279.292 L 126.800 279.185 126.800 278.192 C 126.800 277.202,126.792 277.200,122.800 277.200 L 118.800 277.200 118.800 276.200 C 118.800 275.222,118.733 275.200,115.800 275.200 C 112.867 275.200,112.800 275.178,112.800 274.200 C 112.800 273.222,112.733 273.200,109.800 273.200 C 106.867 273.200,106.800 273.178,106.800 272.200 C 106.800 271.267,106.667 271.200,104.800 271.200 C 102.933 271.200,102.800 271.133,102.800 270.200 C 102.800 269.267,102.667 269.200,100.800 269.200 C 98.933 269.200,98.800 269.133,98.800 268.200 C 98.800 267.267,98.667 267.200,96.800 267.200 C 94.933 267.200,94.800 267.133,94.800 266.200 C 94.800 265.267,94.667 265.200,92.800 265.200 C 90.933 265.200,90.800 265.133,90.800 264.200 C 90.800 263.408,90.598 263.200,89.828 263.200 C 89.124 263.200,88.820 262.951,88.728 262.300 C 88.619 261.532,88.321 261.382,86.700 261.278 C 84.985 261.168,84.800 261.061,84.800 260.178 C 84.800 259.401,84.594 259.200,83.800 259.200 C 83.000 259.200,82.800 259.000,82.800 258.200 C 82.800 257.408,82.598 257.200,81.828 257.200 C 81.124 257.200,80.820 256.951,80.728 256.300 C 80.619 255.532,80.321 255.382,78.700 255.278 C 76.985 255.168,76.800 255.061,76.800 254.178 C 76.800 253.401,76.594 253.200,75.800 253.200 C 75.000 253.200,74.800 253.000,74.800 252.200 C 74.800 251.400,74.600 251.200,73.800 251.200 C 73.000 251.200,72.800 251.000,72.800 250.200 C 72.800 249.400,72.600 249.200,71.800 249.200 C 70.928 249.200,70.800 249.025,70.800 247.829 C 70.800 246.527,69.978 245.200,69.171 245.200 C 68.967 245.200,68.800 244.750,68.800 244.200 C 68.800 243.400,68.600 243.200,67.800 243.200 C 66.867 243.200,66.800 243.067,66.800 241.200 C 66.800 239.333,66.733 239.200,65.800 239.200 C 64.928 239.200,64.800 239.025,64.800 237.829 C 64.800 236.527,63.978 235.200,63.171 235.200 C 62.967 235.200,62.800 234.583,62.800 233.829 C 62.800 232.527,61.978 231.200,61.171 231.200 C 60.967 231.200,60.800 230.300,60.800 229.200 C 60.800 227.333,60.733 227.200,59.800 227.200 C 58.867 227.200,58.800 227.067,58.800 225.200 C 58.800 223.333,58.733 223.200,57.800 223.200 C 56.812 223.200,56.800 223.158,56.800 219.829 C 56.800 216.537,56.330 215.200,55.171 215.200 C 54.967 215.200,54.800 213.850,54.800 212.200 C 54.800 209.273,54.776 209.200,53.808 209.200 L 52.817 209.200 52.708 201.300 C 52.601 193.449,52.594 193.399,51.700 193.272 C 50.821 193.147,50.800 193.028,50.800 188.067 C 50.800 183.185,50.835 182.974,51.700 182.595 C 52.575 182.211,52.603 182.014,52.710 175.527 C 52.817 168.970,52.835 168.851,53.710 168.727 C 54.551 168.607,54.606 168.387,54.714 164.700 C 54.827 160.853,54.842 160.800,55.814 160.800 C 56.774 160.800,56.800 160.722,56.800 157.800 C 56.800 154.867,56.822 154.800,57.800 154.800 C 58.727 154.800,58.800 154.660,58.800 152.895 C 58.800 151.303,58.948 150.925,59.700 150.595 C 60.383 150.295,60.629 149.811,60.719 148.587 C 60.808 147.374,61.056 146.878,61.719 146.587 C 62.381 146.296,62.629 145.800,62.719 144.587 C 62.808 143.374,63.056 142.878,63.719 142.587 C 64.381 142.296,64.629 141.800,64.719 140.587 C 64.808 139.374,65.056 138.878,65.719 138.587 C 66.393 138.291,66.629 137.801,66.723 136.500 C 66.832 134.998,66.960 134.800,67.823 134.800 C 68.729 134.800,68.800 134.654,68.800 132.800 C 68.800 130.933,68.867 130.800,69.800 130.800 C 70.600 130.800,70.800 130.600,70.800 129.800 C 70.800 129.000,71.000 128.800,71.800 128.800 C 72.600 128.800,72.800 128.600,72.800 127.800 C 72.800 127.000,73.000 126.800,73.800 126.800 C 74.572 126.800,74.800 126.594,74.800 125.895 C 74.800 125.340,75.148 124.837,75.700 124.595 C 76.395 124.290,76.628 123.813,76.723 122.500 C 76.832 120.998,76.960 120.800,77.823 120.800 C 78.598 120.800,78.800 120.594,78.800 119.800 C 78.800 119.000,79.000 118.800,79.800 118.800 C 80.600 118.800,80.800 118.600,80.800 117.800 C 80.800 117.000,81.000 116.800,81.800 116.800 C 82.600 116.800,82.800 116.600,82.800 115.800 C 82.800 115.000,83.000 114.800,83.800 114.800 C 84.600 114.800,84.800 114.600,84.800 113.800 C 84.800 113.000,85.000 112.800,85.800 112.800 C 86.600 112.800,86.800 112.600,86.800 111.800 C 86.800 111.000,87.000 110.800,87.800 110.800 C 88.594 110.800,88.800 110.599,88.800 109.822 C 88.800 108.939,88.985 108.832,90.700 108.722 C 92.321 108.618,92.619 108.468,92.728 107.700 C 92.820 107.049,93.124 106.800,93.828 106.800 C 94.598 106.800,94.800 106.592,94.800 105.800 C 94.800 105.000,95.000 104.800,95.800 104.800 C 96.600 104.800,96.800 104.600,96.800 103.800 C 96.800 102.867,96.933 102.800,98.800 102.800 C 100.667 102.800,100.800 102.733,100.800 101.800 C 100.800 101.000,101.000 100.800,101.800 100.800 C 102.600 100.800,102.800 100.600,102.800 99.800 C 102.800 98.867,102.933 98.800,104.800 98.800 C 106.667 98.800,106.800 98.733,106.800 97.800 C 106.800 96.867,106.933 96.800,108.800 96.800 C 110.667 96.800,110.800 96.733,110.800 95.800 C 110.800 94.867,110.933 94.800,112.800 94.800 C 114.667 94.800,114.800 94.733,114.800 93.800 C 114.800 92.867,114.933 92.800,116.800 92.800 C 118.667 92.800,118.800 92.733,118.800 91.800 C 118.800 90.822,118.867 90.800,121.800 90.800 C 124.733 90.800,124.800 90.778,124.800 89.800 C 124.800 88.822,124.867 88.800,127.800 88.800 C 130.733 88.800,130.800 88.778,130.800 87.800 L 130.800 86.800 134.800 86.800 L 138.800 86.800 138.800 85.800 L 138.800 84.800 147.800 84.800 L 156.800 84.800 156.800 83.800 C 156.800 82.855,156.920 82.800,159.000 82.800 C 161.080 82.800,161.200 82.855,161.200 83.800 L 161.200 84.800 170.200 84.800 L 179.200 84.800 179.200 85.800 L 179.200 86.800 183.200 86.800 L 187.200 86.800 187.200 87.800 C 187.200 88.778,187.267 88.800,190.200 88.800 C 193.133 88.800,193.200 88.822,193.200 89.800 C 193.200 90.778,193.267 90.800,196.200 90.800 C 199.133 90.800,199.200 90.822,199.200 91.800 C 199.200 92.733,199.333 92.800,201.200 92.800 C 203.067 92.800,203.200 92.867,203.200 93.800 C 203.200 94.733,203.333 94.800,205.200 94.800 C 207.067 94.800,207.200 94.867,207.200 95.800 C 207.200 96.733,207.333 96.800,209.200 96.800 C 211.067 96.800,211.200 96.867,211.200 97.800 C 211.200 98.733,211.333 98.800,213.200 98.800 C 215.067 98.800,215.200 98.867,215.200 99.800 C 215.200 100.592,215.402 100.800,216.172 100.800 C 216.876 100.800,217.180 101.049,217.272 101.700 C 217.381 102.468,217.679 102.618,219.300 102.722 C 221.015 102.832,221.200 102.939,221.200 103.822 C 221.200 104.599,221.406 104.800,222.200 104.800 C 223.000 104.800,223.200 105.000,223.200 105.800 C 223.200 106.600,223.400 106.800,224.200 106.800 C 225.000 106.800,225.200 107.000,225.200 107.800 C 225.200 108.600,225.400 108.800,226.200 108.800 C 227.072 108.800,227.200 108.975,227.200 110.171 C 227.200 111.473,228.022 112.800,228.829 112.800 C 229.033 112.800,229.200 113.250,229.200 113.800 C 229.200 114.600,229.400 114.800,230.200 114.800 C 231.000 114.800,231.200 115.000,231.200 115.800 C 231.200 116.600,231.400 116.800,232.200 116.800 C 233.000 116.800,233.200 117.000,233.200 117.800 C 233.200 118.600,233.400 118.800,234.200 118.800 C 235.133 118.800,235.200 118.933,235.200 120.800 C 235.200 122.667,235.267 122.800,236.200 122.800 C 237.072 122.800,237.200 122.975,237.200 124.171 C 237.200 125.473,238.022 126.800,238.829 126.800 C 239.033 126.800,239.200 127.250,239.200 127.800 C 239.200 128.600,239.400 128.800,240.200 128.800 C 241.133 128.800,241.200 128.933,241.200 130.800 C 241.200 132.667,241.267 132.800,242.200 132.800 C 243.133 132.800,243.200 132.933,243.200 134.800 C 243.200 136.667,243.267 136.800,244.200 136.800 C 245.178 136.800,245.200 136.867,245.200 139.800 C 245.200 142.733,245.222 142.800,246.200 142.800 C 247.154 142.800,247.200 142.909,247.200 145.171 C 247.200 147.449,247.806 148.800,248.829 148.800 C 249.033 148.800,249.200 150.150,249.200 151.800 C 249.200 154.733,249.222 154.800,250.200 154.800 L 251.200 154.800 251.200 160.800 L 251.200 166.800 252.200 166.800 L 253.200 166.800 253.200 176.972 L 253.200 187.144 252.300 187.272 C 250.955 187.463,250.797 189.200,252.126 189.200 C 252.770 189.200,253.178 188.926,253.316 188.400 C 253.431 187.960,253.858 187.600,254.266 187.600 C 254.673 187.600,255.635 186.867,256.403 185.972 C 257.172 185.077,258.115 183.997,258.500 183.572 C 259.132 182.876,259.200 181.707,259.200 171.633 C 259.200 159.806,259.140 159.200,257.972 159.200 C 257.307 159.200,257.217 158.792,257.114 155.300 C 257.006 151.600,256.954 151.393,256.100 151.272 C 255.265 151.154,255.200 150.944,255.200 148.344 C 255.200 145.797,255.257 145.600,255.829 146.171 C 256.174 146.517,256.614 146.800,256.807 146.800 C 256.999 146.800,257.211 147.655,257.278 148.700 C 257.382 150.321,257.532 150.619,258.300 150.728 C 259.094 150.841,259.200 151.087,259.200 152.828 C 259.200 154.665,259.269 154.800,260.200 154.800 C 261.188 154.800,261.200 154.842,261.200 158.171 C 261.200 161.450,261.671 162.800,262.814 162.800 C 263.010 162.800,263.223 164.555,263.286 166.700 C 263.394 170.400,263.446 170.607,264.300 170.728 C 265.200 170.856,265.200 170.856,265.200 179.065 C 265.200 186.501,265.271 187.364,265.954 188.232 C 266.369 188.759,266.829 189.999,266.977 190.986 C 267.125 191.973,267.411 192.883,267.612 193.008 C 267.814 193.132,268.182 193.990,268.430 194.913 C 268.679 195.837,269.224 197.072,269.641 197.658 C 270.059 198.244,270.400 199.156,270.400 199.684 C 270.400 200.212,270.828 201.224,271.351 201.933 C 271.873 202.642,272.420 203.963,272.565 204.869 C 272.709 205.775,273.156 206.985,273.558 207.558 C 273.959 208.131,274.411 209.564,274.563 210.742 C 274.715 211.921,275.172 213.361,275.579 213.942 C 275.986 214.524,276.428 215.886,276.561 216.968 C 276.861 219.408,276.965 219.511,278.313 218.715 C 278.911 218.362,280.512 217.843,281.870 217.563 C 284.886 216.940,285.200 216.417,285.200 212.028 C 285.200 209.315,285.300 208.867,285.939 208.700 C 287.109 208.394,287.200 206.974,287.200 189.000 C 287.200 171.068,287.107 169.605,285.951 169.303 C 285.307 169.135,285.211 168.561,285.112 164.256 C 285.004 159.564,284.970 159.396,284.100 159.272 C 283.265 159.154,283.200 158.943,283.200 156.346 C 283.200 153.548,282.761 152.082,281.742 151.480 C 281.436 151.300,281.200 150.493,281.200 149.630 C 281.200 147.119,280.738 145.509,279.960 145.305 C 279.422 145.165,279.210 144.648,279.120 143.259 C 279.018 141.680,278.865 141.381,278.100 141.272 C 277.319 141.161,277.200 140.906,277.200 139.346 C 277.200 137.462,276.656 136.020,275.742 135.480 C 275.444 135.304,275.200 134.797,275.200 134.354 C 275.200 133.428,274.501 131.985,273.768 131.400 C 273.493 131.180,273.205 130.640,273.130 130.200 C 273.050 129.739,272.621 129.347,272.117 129.275 C 271.380 129.170,271.223 128.853,271.121 127.275 C 271.018 125.679,270.866 125.381,270.100 125.272 C 269.424 125.176,269.199 124.877,269.195 124.072 C 269.185 122.215,268.747 121.200,267.953 121.200 C 267.416 121.200,267.200 120.913,267.200 120.200 C 267.200 119.413,266.997 119.200,266.245 119.200 C 265.417 119.200,265.254 118.956,265.014 117.354 C 264.816 116.033,264.525 115.453,263.991 115.314 C 263.581 115.206,263.190 114.732,263.122 114.259 C 263.046 113.721,262.663 113.352,262.100 113.272 C 261.449 113.180,261.200 112.876,261.200 112.172 C 261.200 111.402,260.992 111.200,260.200 111.200 C 259.475 111.200,259.200 110.985,259.200 110.419 C 259.200 109.192,258.350 107.638,257.539 107.381 C 257.133 107.252,256.800 106.781,256.800 106.336 C 256.800 105.873,256.471 105.439,256.034 105.325 C 255.613 105.215,255.159 104.691,255.026 104.162 C 254.852 103.469,254.507 103.200,253.792 103.200 C 253.001 103.200,252.800 102.998,252.800 102.200 C 252.800 101.400,252.600 101.200,251.800 101.200 C 251.000 101.200,250.800 101.000,250.800 100.200 C 250.800 99.408,250.598 99.200,249.828 99.200 C 249.124 99.200,248.820 98.951,248.728 98.300 C 248.647 97.730,248.279 97.354,247.725 97.275 C 247.179 97.198,246.802 96.821,246.725 96.275 C 246.647 95.730,246.270 95.353,245.725 95.275 C 245.179 95.198,244.802 94.821,244.725 94.275 C 244.647 93.728,244.270 93.353,243.719 93.275 C 243.234 93.206,242.730 92.810,242.598 92.395 C 242.467 91.980,242.017 91.533,241.600 91.400 C 241.183 91.267,240.733 90.817,240.600 90.400 C 240.467 89.983,240.017 89.533,239.600 89.400 C 239.183 89.267,238.733 88.817,238.600 88.400 C 238.467 87.983,238.017 87.533,237.600 87.400 C 237.183 87.267,236.733 86.817,236.600 86.400 C 236.467 85.983,236.008 85.530,235.580 85.394 C 235.151 85.257,234.800 84.991,234.800 84.802 C 234.800 84.020,233.454 83.200,232.171 83.200 C 230.975 83.200,230.800 83.072,230.800 82.200 C 230.800 81.400,230.600 81.200,229.800 81.200 C 229.000 81.200,228.800 81.000,228.800 80.200 C 228.800 79.400,228.600 79.200,227.800 79.200 C 227.000 79.200,226.800 79.000,226.800 78.200 C 226.800 77.408,226.598 77.200,225.828 77.200 C 225.124 77.200,224.820 76.951,224.728 76.300 C 224.619 75.532,224.321 75.382,222.700 75.278 C 220.985 75.168,220.800 75.061,220.800 74.178 C 220.800 73.409,220.592 73.200,219.828 73.200 C 219.124 73.200,218.820 72.951,218.728 72.300 C 218.619 71.532,218.321 71.382,216.700 71.278 C 214.985 71.168,214.800 71.061,214.800 70.178 C 214.800 69.271,214.655 69.200,212.800 69.200 C 210.933 69.200,210.800 69.133,210.800 68.200 C 210.800 67.267,210.667 67.200,208.800 67.200 C 206.933 67.200,206.800 67.133,206.800 66.200 C 206.800 65.400,206.600 65.200,205.800 65.200 C 205.250 65.200,204.800 65.033,204.800 64.829 C 204.800 63.806,203.449 63.200,201.171 63.200 C 198.909 63.200,198.800 63.154,198.800 62.200 C 198.800 61.267,198.667 61.200,196.800 61.200 C 194.933 61.200,194.800 61.133,194.800 60.200 C 194.800 59.222,194.733 59.200,191.800 59.200 C 188.867 59.200,188.800 59.178,188.800 58.200 C 188.800 57.223,188.731 57.200,185.828 57.200 C 183.050 57.200,182.847 57.141,182.728 56.300 C 182.607 55.446,182.400 55.394,178.700 55.286 C 176.555 55.223,174.800 55.010,174.800 54.814 C 174.800 53.464,173.555 53.200,167.199 53.200 C 160.925 53.200,160.854 53.190,160.728 52.300 L 160.600 51.400 146.686 51.295 L 132.771 51.190 131.840 52.195 M151.200 57.800 L 151.200 58.800 160.200 58.800 L 169.200 58.800 169.200 59.800 L 169.200 60.800 173.200 60.800 L 177.200 60.800 177.200 61.800 L 177.200 62.800 181.200 62.800 L 185.200 62.800 185.200 63.800 C 185.200 64.731,185.335 64.800,187.172 64.800 C 188.913 64.800,189.159 64.906,189.272 65.700 C 189.389 66.526,189.639 66.610,192.300 66.718 C 195.063 66.830,195.200 66.880,195.200 67.797 C 195.200 68.671,195.390 68.771,197.300 68.905 L 199.400 69.052 197.100 69.126 C 194.894 69.197,194.800 69.159,194.800 68.200 L 194.800 67.200 190.800 67.200 L 186.800 67.200 186.800 66.200 L 186.800 65.200 181.827 65.200 C 177.207 65.200,176.836 65.143,176.600 64.401 C 176.217 63.193,175.828 63.169,158.000 63.289 L 141.400 63.400 141.274 64.289 C 141.150 65.157,141.001 65.182,135.274 65.289 C 129.554 65.397,129.397 65.423,129.274 66.286 C 129.155 67.121,128.928 67.178,125.274 67.286 C 121.624 67.393,121.393 67.451,121.274 68.283 C 121.160 69.087,120.892 69.176,118.274 69.283 C 115.657 69.390,115.389 69.479,115.274 70.283 C 115.160 71.087,114.892 71.176,112.274 71.283 C 109.640 71.390,109.389 71.475,109.272 72.300 C 109.159 73.094,108.913 73.200,107.172 73.200 C 105.335 73.200,105.200 73.269,105.200 74.200 C 105.200 75.133,105.067 75.200,103.200 75.200 C 101.333 75.200,101.200 75.267,101.200 76.200 C 101.200 77.133,101.067 77.200,99.200 77.200 C 97.333 77.200,97.200 77.267,97.200 78.200 C 97.200 79.133,97.067 79.200,95.200 79.200 C 93.345 79.200,93.200 79.271,93.200 80.178 C 93.200 81.061,93.015 81.168,91.300 81.278 C 89.679 81.382,89.381 81.532,89.272 82.300 C 89.180 82.951,88.876 83.200,88.172 83.200 C 87.408 83.200,87.200 83.409,87.200 84.178 C 87.200 85.061,87.015 85.168,85.300 85.278 C 83.679 85.382,83.381 85.532,83.272 86.300 C 83.180 86.951,82.876 87.200,82.172 87.200 C 81.402 87.200,81.200 87.408,81.200 88.200 C 81.200 89.048,81.015 89.200,79.981 89.200 C 79.194 89.200,78.433 89.555,77.835 90.200 C 77.325 90.750,76.524 91.200,76.054 91.200 C 75.410 91.200,75.200 91.446,75.200 92.200 C 75.200 93.000,75.000 93.200,74.200 93.200 C 73.400 93.200,73.200 93.400,73.200 94.200 C 73.200 95.000,73.000 95.200,72.200 95.200 C 71.400 95.200,71.200 95.400,71.200 96.200 C 71.200 97.000,71.000 97.200,70.200 97.200 C 69.400 97.200,69.200 97.400,69.200 98.200 C 69.200 99.000,69.000 99.200,68.200 99.200 C 67.400 99.200,67.200 99.400,67.200 100.200 C 67.200 101.000,67.000 101.200,66.200 101.200 C 65.400 101.200,65.200 101.400,65.200 102.200 C 65.200 103.000,65.000 103.200,64.200 103.200 C 63.400 103.200,63.200 103.400,63.200 104.200 C 63.200 105.000,63.000 105.200,62.200 105.200 C 61.400 105.200,61.200 105.400,61.200 106.200 C 61.200 107.000,61.000 107.200,60.200 107.200 C 59.408 107.200,59.200 107.402,59.200 108.172 C 59.200 108.876,58.951 109.180,58.300 109.272 C 57.532 109.381,57.382 109.679,57.278 111.300 C 57.168 113.015,57.061 113.200,56.178 113.200 C 55.401 113.200,55.200 113.406,55.200 114.200 C 55.200 115.000,55.000 115.200,54.200 115.200 C 53.408 115.200,53.200 115.402,53.200 116.172 C 53.200 116.876,52.951 117.180,52.300 117.272 C 51.532 117.381,51.382 117.679,51.278 119.300 C 51.168 121.015,51.061 121.200,50.178 121.200 C 49.446 121.200,49.200 121.415,49.200 122.054 C 49.200 122.524,48.750 123.325,48.200 123.835 C 47.555 124.433,47.200 125.194,47.200 125.981 C 47.200 127.015,47.048 127.200,46.200 127.200 C 45.267 127.200,45.200 127.333,45.200 129.200 C 45.200 131.067,45.133 131.200,44.200 131.200 C 43.267 131.200,43.200 131.333,43.200 133.200 C 43.200 135.067,43.133 135.200,42.200 135.200 C 41.267 135.200,41.200 135.333,41.200 137.200 C 41.200 139.067,41.133 139.200,40.200 139.200 C 39.222 139.200,39.200 139.267,39.200 142.200 C 39.200 145.133,39.178 145.200,38.200 145.200 C 37.277 145.200,37.200 145.343,37.200 147.054 C 37.200 148.518,36.990 149.103,36.200 149.835 C 35.294 150.674,35.200 151.063,35.200 153.953 C 35.200 156.958,35.147 157.152,34.300 157.272 C 33.430 157.396,33.396 157.562,33.288 162.300 L 33.175 167.200 32.188 167.200 L 31.200 167.200 31.200 188.371 C 31.200 210.455,31.225 210.800,32.829 210.800 C 33.033 210.800,33.200 212.600,33.200 214.800 L 33.200 218.800 34.200 218.800 C 35.192 218.800,35.199 218.827,35.126 222.100 C 35.071 224.547,35.014 224.857,34.905 223.300 C 34.771 221.390,34.671 221.200,33.797 221.200 C 32.880 221.200,32.830 221.063,32.718 218.300 C 32.610 215.639,32.526 215.389,31.700 215.272 C 30.859 215.153,30.800 214.950,30.800 212.172 C 30.800 209.280,30.773 209.200,29.814 209.200 C 28.842 209.200,28.827 209.147,28.714 205.300 C 28.606 201.614,28.551 201.393,27.711 201.274 C 26.843 201.150,26.818 201.001,26.711 195.274 C 26.602 189.525,26.581 189.397,25.700 189.272 L 24.800 189.144 24.800 175.972 L 24.800 162.800 25.800 162.800 L 26.800 162.800 26.800 157.828 C 26.800 152.976,26.822 152.853,27.700 152.728 C 28.554 152.607,28.606 152.400,28.714 148.700 C 28.827 144.853,28.842 144.800,29.814 144.800 C 30.774 144.800,30.800 144.722,30.800 141.800 C 30.800 138.867,30.822 138.800,31.800 138.800 C 32.778 138.800,32.800 138.733,32.800 135.800 C 32.800 132.867,32.822 132.800,33.800 132.800 C 34.733 132.800,34.800 132.667,34.800 130.800 C 34.800 128.933,34.867 128.800,35.800 128.800 C 36.733 128.800,36.800 128.667,36.800 126.800 C 36.800 124.933,36.867 124.800,37.800 124.800 C 38.733 124.800,38.800 124.667,38.800 122.800 C 38.800 120.933,38.867 120.800,39.800 120.800 C 40.733 120.800,40.800 120.667,40.800 118.800 C 40.800 116.933,40.867 116.800,41.800 116.800 C 42.600 116.800,42.800 116.600,42.800 115.800 C 42.800 115.000,43.000 114.800,43.800 114.800 C 44.733 114.800,44.800 114.667,44.800 112.800 C 44.800 110.933,44.867 110.800,45.800 110.800 C 46.600 110.800,46.800 110.600,46.800 109.800 C 46.800 109.000,47.000 108.800,47.800 108.800 C 48.572 108.800,48.800 108.594,48.800 107.895 C 48.800 107.340,49.148 106.837,49.700 106.595 C 50.395 106.290,50.628 105.813,50.723 104.500 C 50.832 102.998,50.960 102.800,51.823 102.800 C 52.598 102.800,52.800 102.594,52.800 101.800 C 52.800 101.000,53.000 100.800,53.800 100.800 C 54.600 100.800,54.800 100.600,54.800 99.800 C 54.800 99.000,55.000 98.800,55.800 98.800 C 56.600 98.800,56.800 98.600,56.800 97.800 C 56.800 97.000,57.000 96.800,57.800 96.800 C 58.600 96.800,58.800 96.600,58.800 95.800 C 58.800 95.000,59.000 94.800,59.800 94.800 C 60.600 94.800,60.800 94.600,60.800 93.800 C 60.800 93.000,61.000 92.800,61.800 92.800 C 62.600 92.800,62.800 92.600,62.800 91.800 C 62.800 91.000,63.000 90.800,63.800 90.800 C 64.600 90.800,64.800 90.600,64.800 89.800 C 64.800 89.000,65.000 88.800,65.800 88.800 C 66.600 88.800,66.800 88.600,66.800 87.800 C 66.800 87.000,67.000 86.800,67.800 86.800 C 68.600 86.800,68.800 86.600,68.800 85.800 C 68.800 85.000,69.000 84.800,69.800 84.800 C 70.600 84.800,70.800 84.600,70.800 83.800 C 70.800 82.867,70.933 82.800,72.800 82.800 C 74.667 82.800,74.800 82.733,74.800 81.800 C 74.800 81.000,75.000 80.800,75.800 80.800 C 76.594 80.800,76.800 80.599,76.800 79.822 C 76.800 78.939,76.985 78.832,78.700 78.722 C 80.321 78.618,80.619 78.468,80.728 77.700 C 80.820 77.049,81.124 76.800,81.828 76.800 C 82.598 76.800,82.800 76.592,82.800 75.800 C 82.800 74.867,82.933 74.800,84.800 74.800 C 86.667 74.800,86.800 74.733,86.800 73.800 C 86.800 72.867,86.933 72.800,88.800 72.800 C 90.667 72.800,90.800 72.733,90.800 71.800 C 90.800 70.867,90.933 70.800,92.800 70.800 C 94.667 70.800,94.800 70.733,94.800 69.800 C 94.800 68.867,94.933 68.800,96.800 68.800 C 98.657 68.800,98.800 68.730,98.800 67.818 C 98.800 66.885,98.932 66.831,101.500 66.718 C 103.857 66.615,104.250 66.486,104.595 65.700 C 104.925 64.948,105.303 64.800,106.895 64.800 C 108.660 64.800,108.800 64.727,108.800 63.800 L 108.800 62.800 112.800 62.800 L 116.800 62.800 116.800 61.800 L 116.800 60.800 120.800 60.800 L 124.800 60.800 124.800 59.800 L 124.800 58.800 133.800 58.800 L 142.800 58.800 142.800 57.800 L 142.800 56.800 147.000 56.800 L 151.200 56.800 151.200 57.800 M202.700 71.076 C 202.315 71.176,201.685 71.176,201.300 71.076 C 200.915 70.975,201.230 70.893,202.000 70.893 C 202.770 70.893,203.085 70.975,202.700 71.076 M249.076 132.700 C 248.975 133.085,248.893 132.770,248.893 132.000 C 248.893 131.230,248.975 130.915,249.076 131.300 C 249.176 131.685,249.176 132.315,249.076 132.700 M251.076 136.700 C 250.975 137.085,250.893 136.770,250.893 136.000 C 250.893 135.230,250.975 134.915,251.076 135.300 C 251.176 135.685,251.176 136.315,251.076 136.700 M253.413 141.473 C 253.517 141.954,253.961 142.461,254.401 142.600 C 255.634 142.992,255.346 143.483,254.000 143.285 C 252.821 143.112,252.801 143.069,252.854 140.855 C 252.884 139.615,252.980 139.050,253.066 139.600 C 253.153 140.150,253.309 140.993,253.413 141.473 M113.338 143.817 C 112.966 144.788,113.402 144.882,114.198 144.002 C 114.860 143.270,114.865 143.200,114.249 143.200 C 113.878 143.200,113.468 143.478,113.338 143.817 M211.280 145.280 C 210.644 145.916,210.668 146.800,211.320 146.800 C 211.989 146.800,212.800 145.989,212.800 145.320 C 212.800 144.668,211.916 144.644,211.280 145.280 M173.280 161.280 C 173.016 161.544,172.800 161.994,172.800 162.280 C 172.800 162.932,173.684 162.956,174.320 162.320 C 174.956 161.684,174.932 160.800,174.280 160.800 C 173.994 160.800,173.544 161.016,173.280 161.280 M142.000 164.000 C 141.560 164.440,141.203 165.025,141.206 165.300 C 141.210 165.633,141.342 165.600,141.600 165.200 C 141.813 164.870,141.991 164.771,141.994 164.980 C 142.003 165.551,142.938 164.500,143.041 163.804 C 143.158 163.004,142.958 163.042,142.000 164.000 M169.280 175.280 C 169.016 175.544,168.800 175.994,168.800 176.280 C 168.800 176.932,169.684 176.956,170.320 176.320 C 170.956 175.684,170.932 174.800,170.280 174.800 C 169.994 174.800,169.544 175.016,169.280 175.280 M138.000 178.000 C 137.560 178.440,137.203 179.025,137.206 179.300 C 137.210 179.633,137.342 179.600,137.600 179.200 C 137.813 178.870,137.991 178.771,137.994 178.980 C 138.003 179.551,138.938 178.500,139.041 177.804 C 139.158 177.004,138.958 177.042,138.000 178.000 M166.400 189.704 C 166.400 190.055,166.085 190.424,165.700 190.524 C 165.044 190.696,165.045 190.710,165.713 190.754 C 166.436 190.801,167.106 189.773,166.649 189.316 C 166.512 189.179,166.400 189.353,166.400 189.704 M134.000 192.000 C 133.560 192.440,133.203 193.025,133.206 193.300 C 133.210 193.633,133.342 193.600,133.600 193.200 C 133.813 192.870,133.991 192.771,133.994 192.980 C 134.003 193.551,134.938 192.500,135.041 191.804 C 135.158 191.004,134.958 191.042,134.000 192.000 M162.400 203.704 C 162.400 204.055,162.085 204.424,161.700 204.524 C 161.044 204.696,161.045 204.710,161.713 204.754 C 162.436 204.801,163.106 203.773,162.649 203.316 C 162.512 203.179,162.400 203.353,162.400 203.704 M127.338 213.817 C 126.966 214.788,127.402 214.882,128.198 214.002 C 128.860 213.270,128.865 213.200,128.249 213.200 C 127.878 213.200,127.468 213.478,127.338 213.817 M158.400 217.704 C 158.400 218.055,158.085 218.424,157.700 218.524 C 157.044 218.696,157.045 218.710,157.713 218.754 C 158.436 218.801,159.106 217.773,158.649 217.316 C 158.512 217.179,158.400 217.353,158.400 217.704 M37.076 228.700 C 36.975 229.085,36.893 228.770,36.893 228.000 C 36.893 227.230,36.975 226.915,37.076 227.300 C 37.176 227.685,37.176 228.315,37.076 228.700 M123.338 227.817 C 122.966 228.788,123.402 228.882,124.198 228.002 C 124.860 227.270,124.865 227.200,124.249 227.200 C 123.878 227.200,123.468 227.478,123.338 227.817 M211.206 258.100 C 211.211 258.763,211.304 258.856,211.559 258.453 C 211.750 258.152,212.152 257.750,212.453 257.559 C 212.856 257.304,212.763 257.211,212.100 257.206 C 211.430 257.202,211.202 257.430,211.206 258.100 M102.700 277.076 C 102.315 277.176,101.685 277.176,101.300 277.076 C 100.915 276.975,101.230 276.893,102.000 276.893 C 102.770 276.893,103.085 276.975,102.700 277.076 M237.898 282.127 C 236.774 283.277,236.598 284.038,236.727 287.175 L 236.800 288.950 237.952 287.846 C 239.203 286.647,239.846 283.853,239.296 282.000 L 239.000 281.000 237.898 282.127 " stroke="none" fill="#3c3c3c" fill-rule="evenodd"></path><path id="path4" d="M257.959 184.076 C 257.236 185.428,255.087 187.491,254.233 187.654 C 253.811 187.734,253.399 188.001,253.317 188.248 C 252.956 189.332,255.287 188.176,256.526 186.656 C 257.916 184.950,258.981 183.200,258.628 183.200 C 258.518 183.200,258.217 183.594,257.959 184.076 M267.200 192.914 C 267.200 193.490,268.870 197.765,269.380 198.492 C 269.721 198.979,270.000 199.727,270.000 200.154 C 270.000 200.581,270.428 201.666,270.952 202.565 C 271.475 203.464,272.033 204.830,272.191 205.600 C 272.349 206.370,272.723 207.386,273.021 207.858 C 273.319 208.329,273.846 209.937,274.192 211.430 C 274.539 212.923,274.978 214.337,275.168 214.572 C 275.358 214.808,275.725 216.032,275.984 217.293 C 276.560 220.105,276.716 220.209,278.874 219.239 C 279.823 218.811,281.191 218.244,281.913 217.977 C 282.635 217.711,283.167 217.433,283.094 217.361 C 282.863 217.130,279.014 218.260,278.109 218.825 C 276.994 219.521,276.855 219.354,276.561 216.968 C 276.428 215.886,275.986 214.524,275.579 213.942 C 275.172 213.361,274.715 211.921,274.563 210.742 C 274.411 209.564,273.959 208.131,273.558 207.558 C 273.156 206.985,272.709 205.775,272.565 204.869 C 272.420 203.963,271.873 202.642,271.351 201.933 C 270.828 201.224,270.400 200.212,270.400 199.684 C 270.400 199.156,270.059 198.244,269.641 197.658 C 269.224 197.072,268.679 195.837,268.430 194.913 C 268.072 193.581,267.200 192.164,267.200 192.914 M212.060 257.940 C 211.376 258.624,211.240 259.000,211.560 259.320 C 212.115 259.875,212.135 263.994,211.589 265.429 C 211.363 266.024,211.262 266.595,211.364 266.698 C 211.837 267.170,213.237 261.160,213.123 259.153 L 213.000 257.000 212.060 257.940 M214.265 279.599 C 215.163 279.961,215.360 280.389,215.781 282.889 C 215.919 283.708,216.259 284.518,216.536 284.689 C 216.813 284.860,217.257 285.744,217.522 286.653 C 217.787 287.561,218.273 288.528,218.602 288.802 C 218.931 289.075,219.200 289.540,219.200 289.835 C 219.200 290.130,219.706 290.963,220.325 291.686 C 220.943 292.409,221.688 293.810,221.981 294.800 C 222.273 295.790,222.594 296.369,222.694 296.086 C 222.933 295.410,221.730 292.415,220.812 291.400 C 220.029 290.534,216.000 282.393,216.000 281.675 C 216.000 280.562,215.020 279.202,214.236 279.225 C 213.408 279.250,213.408 279.254,214.265 279.599 M237.945 281.370 C 236.158 282.919,235.490 284.976,236.339 286.316 C 236.538 286.629,236.667 286.158,236.667 285.113 C 236.667 283.729,236.905 283.156,237.892 282.170 L 239.117 280.945 239.541 282.572 L 239.966 284.200 239.752 282.600 C 239.467 280.472,239.195 280.286,237.945 281.370 " stroke="none" fill="#74685c" fill-rule="evenodd"></path></g></svg>