<svg id="svg" version="1.1" width="400" height="400" viewBox="0 0 400 400" xmlns="http://www.w3.org/2000/svg" xmlns:xlink="http://www.w3.org/1999/xlink" ><g id="svgg"><path id="path0" d="M115.467 139.467 C 115.320 139.613,115.200 140.963,115.200 142.467 C 115.200 145.116,115.169 145.200,114.200 145.200 L 113.200 145.200 113.200 149.200 L 113.200 153.200 112.200 153.200 C 111.229 153.200,111.200 153.280,111.200 156.000 L 111.200 158.800 127.200 158.800 L 143.200 158.800 143.200 161.972 C 143.200 164.957,143.147 165.152,142.300 165.272 C 141.446 165.393,141.394 165.600,141.286 169.300 C 141.173 173.147,141.158 173.200,140.186 173.200 C 139.227 173.200,139.200 173.280,139.200 176.172 C 139.200 178.950,139.141 179.153,138.300 179.272 C 137.446 179.393,137.394 179.600,137.286 183.300 C 137.173 187.147,137.158 187.200,136.186 187.200 C 135.230 187.200,135.200 187.288,135.200 190.054 C 135.200 192.585,135.087 193.013,134.200 193.835 C 133.293 194.676,133.200 195.061,133.200 197.981 C 133.200 201.148,133.184 201.200,132.200 201.200 C 131.227 201.200,131.200 201.276,131.200 204.054 C 131.200 206.585,131.087 207.013,130.200 207.835 C 129.294 208.674,129.200 209.063,129.200 211.953 C 129.200 214.958,129.147 215.152,128.300 215.272 C 127.446 215.393,127.394 215.600,127.286 219.300 C 127.173 223.147,127.158 223.200,126.186 223.200 C 125.230 223.200,125.200 223.288,125.200 226.054 C 125.200 228.585,125.087 229.013,124.200 229.835 C 121.237 232.581,122.375 232.800,139.629 232.800 L 154.800 232.800 154.800 229.800 C 154.800 226.867,154.822 226.800,155.800 226.800 C 156.777 226.800,156.800 226.731,156.800 223.828 C 156.800 221.050,156.859 220.847,157.700 220.728 C 158.554 220.607,158.606 220.400,158.714 216.700 C 158.827 212.853,158.842 212.800,159.814 212.800 C 160.773 212.800,160.800 212.720,160.800 209.828 C 160.800 207.050,160.859 206.847,161.700 206.728 C 162.554 206.607,162.606 206.400,162.714 202.700 C 162.827 198.853,162.842 198.800,163.814 198.800 C 164.771 198.800,164.800 198.716,164.800 195.895 C 164.800 193.266,164.886 192.952,165.700 192.595 C 166.527 192.232,166.609 191.898,166.715 188.500 C 166.828 184.866,166.848 184.800,167.815 184.800 C 168.796 184.800,168.800 184.784,168.800 180.800 L 168.800 176.800 169.800 176.800 C 170.777 176.800,170.800 176.731,170.800 173.828 C 170.800 171.050,170.859 170.847,171.700 170.728 C 172.554 170.607,172.606 170.400,172.714 166.700 C 172.827 162.853,172.842 162.800,173.814 162.800 C 174.730 162.800,174.800 162.659,174.800 160.800 L 174.800 158.800 191.800 158.800 L 208.800 158.800 208.800 156.800 C 208.800 154.933,208.867 154.800,209.800 154.800 C 210.775 154.800,210.800 154.727,210.800 151.895 C 210.800 149.266,210.886 148.952,211.700 148.595 C 212.546 148.224,212.607 147.930,212.713 143.700 L 212.826 139.200 164.280 139.200 C 137.579 139.200,115.613 139.320,115.467 139.467 " stroke="none" fill="#fcfcfc" fill-rule="evenodd"></path><path id="path1" d="M261.800 181.600 C 261.664 181.820,261.754 182.000,262.000 182.000 C 262.246 182.000,262.355 182.150,262.241 182.333 C 262.128 182.517,262.297 182.667,262.618 182.667 C 263.285 182.667,263.281 182.676,262.957 181.833 C 262.681 181.113,262.165 181.010,261.800 181.600 M258.367 184.066 C 257.321 186.032,255.391 187.986,254.487 187.993 C 253.986 187.997,253.471 188.270,253.345 188.600 C 253.218 188.930,252.684 189.200,252.157 189.200 C 251.450 189.200,251.200 189.421,251.200 190.043 C 251.200 190.696,251.357 190.816,251.900 190.577 C 252.285 190.407,253.260 190.301,254.068 190.342 C 255.506 190.413,257.200 188.959,257.200 187.652 C 257.200 187.419,257.539 187.047,257.953 186.825 C 258.370 186.602,258.829 185.772,258.979 184.970 C 259.310 183.204,259.039 182.804,258.367 184.066 M263.800 183.600 C 263.664 183.820,263.754 184.000,264.000 184.000 C 264.246 184.000,264.355 184.150,264.241 184.333 C 264.128 184.517,264.297 184.667,264.618 184.667 C 265.285 184.667,265.281 184.676,264.957 183.833 C 264.681 183.113,264.165 183.010,263.800 183.600 M265.200 187.953 C 265.200 189.092,266.353 193.648,266.782 194.200 C 266.952 194.420,267.197 195.680,267.327 197.000 C 267.491 198.673,267.793 199.587,268.323 200.017 C 268.761 200.372,269.201 201.414,269.360 202.471 C 269.514 203.499,269.980 204.620,270.418 205.016 C 270.849 205.406,271.200 206.241,271.200 206.875 C 271.200 208.229,272.199 210.800,272.725 210.800 C 272.926 210.800,273.186 211.990,273.303 213.444 C 273.448 215.252,273.782 216.449,274.357 217.228 C 274.821 217.855,275.200 218.814,275.200 219.360 C 275.200 219.906,275.375 220.461,275.589 220.593 C 276.001 220.848,276.986 222.856,277.358 224.200 C 277.480 224.640,277.765 226.661,277.993 228.692 C 278.220 230.723,278.684 233.423,279.024 234.692 C 279.394 236.070,279.723 239.500,279.841 243.200 C 280.093 251.061,280.215 251.796,281.461 252.951 C 282.216 253.652,282.352 253.982,281.980 254.212 C 281.665 254.407,281.577 254.362,281.745 254.089 C 281.892 253.851,281.867 253.565,281.690 253.455 C 281.512 253.345,281.340 253.603,281.308 254.028 C 281.276 254.452,281.396 254.800,281.576 254.800 C 282.134 254.800,282.882 253.657,282.611 253.218 C 282.450 252.957,282.897 252.800,283.800 252.800 C 284.596 252.800,285.146 252.636,285.022 252.436 C 284.422 251.464,285.324 250.800,287.243 250.800 C 289.064 250.800,289.200 250.730,289.200 249.800 C 289.200 248.829,291.473 248.380,294.354 248.783 C 294.689 248.829,294.820 248.629,294.686 248.279 C 294.309 247.299,295.264 246.797,297.380 246.863 L 299.400 246.926 297.400 247.163 C 295.717 247.362,295.380 247.543,295.272 248.300 C 295.169 249.029,294.890 249.200,293.801 249.200 C 292.554 249.200,291.459 249.847,291.136 250.775 C 291.061 250.990,290.337 251.209,289.527 251.262 C 288.716 251.316,288.086 251.549,288.127 251.780 C 288.167 252.011,287.975 252.155,287.700 252.100 C 287.425 252.045,287.245 252.209,287.300 252.465 C 287.355 252.720,286.950 253.042,286.400 253.181 C 285.776 253.338,285.352 253.765,285.272 254.316 C 285.160 255.091,284.901 255.200,283.172 255.200 C 281.415 255.200,281.200 255.295,281.200 256.069 C 281.200 256.546,280.953 257.221,280.652 257.569 C 279.917 258.415,278.129 264.119,277.836 266.552 C 277.707 267.625,277.264 269.065,276.851 269.752 C 276.439 270.438,275.991 271.741,275.855 272.646 C 275.610 274.277,271.740 282.340,270.595 283.606 C 270.268 283.967,270.000 284.405,270.000 284.579 C 270.000 284.752,269.505 285.485,268.900 286.206 C 268.295 286.927,267.370 288.239,266.844 289.120 C 264.491 293.064,250.353 306.000,248.395 306.000 C 248.178 306.000,247.654 306.346,247.230 306.770 C 245.966 308.034,244.940 308.456,244.502 307.892 C 243.439 306.524,242.762 304.331,242.386 301.040 C 242.158 299.038,241.722 296.680,241.418 295.800 C 241.114 294.920,240.779 293.179,240.674 291.932 C 240.569 290.685,240.157 289.112,239.758 288.437 L 239.033 287.210 237.910 288.286 C 235.677 290.425,235.334 295.605,236.988 302.200 C 237.539 304.400,237.993 306.785,237.995 307.500 C 238.000 308.749,238.063 308.800,239.600 308.800 C 241.040 308.800,241.200 308.900,241.200 309.800 L 241.200 310.800 245.200 310.800 C 249.229 310.800,249.418 310.871,249.227 312.314 C 249.172 312.728,252.810 312.806,267.879 312.714 L 286.600 312.600 286.475 311.700 C 286.352 310.816,286.423 310.800,290.575 310.800 C 293.092 310.800,294.820 310.638,294.850 310.400 C 294.877 310.180,294.923 309.775,294.950 309.500 C 294.982 309.177,295.846 308.957,297.394 308.877 C 299.718 308.758,301.446 307.921,300.967 307.147 C 300.849 306.956,301.663 306.800,302.776 306.800 C 304.668 306.800,304.800 306.735,304.800 305.800 C 304.800 304.867,304.933 304.800,306.800 304.800 C 308.667 304.800,308.800 304.733,308.800 303.800 C 308.800 302.867,308.933 302.800,310.800 302.800 C 312.655 302.800,312.800 302.729,312.800 301.822 C 312.800 300.939,312.985 300.832,314.700 300.722 C 316.321 300.618,316.619 300.468,316.728 299.700 C 316.854 298.808,316.951 298.774,319.800 298.620 C 320.388 298.588,320.567 298.341,320.475 297.688 C 320.369 296.937,320.538 296.800,321.575 296.800 C 322.615 296.800,322.800 296.649,322.800 295.800 C 322.800 294.928,322.975 294.800,324.171 294.800 C 325.441 294.800,326.800 293.982,326.800 293.218 C 326.800 293.039,327.173 292.796,327.630 292.676 C 328.086 292.557,328.554 292.096,328.670 291.652 C 328.787 291.208,329.268 290.790,329.741 290.722 C 330.279 290.646,330.648 290.263,330.728 289.700 C 330.820 289.049,331.124 288.800,331.828 288.800 C 332.598 288.800,332.800 288.592,332.800 287.800 C 332.800 287.000,333.000 286.800,333.800 286.800 C 334.600 286.800,334.800 286.600,334.800 285.800 C 334.800 285.000,335.000 284.800,335.800 284.800 C 336.600 284.800,336.800 284.600,336.800 283.800 C 336.800 282.928,336.975 282.800,338.171 282.800 C 338.926 282.800,339.781 282.536,340.071 282.214 C 341.147 281.022,341.576 280.588,342.181 280.084 C 342.521 279.801,342.800 278.946,342.800 278.184 C 342.800 276.974,342.926 276.800,343.800 276.800 C 344.600 276.800,344.800 276.600,344.800 275.800 C 344.800 275.000,345.000 274.800,345.800 274.800 C 346.600 274.800,346.800 274.600,346.800 273.800 C 346.800 273.000,347.000 272.800,347.800 272.800 C 348.592 272.800,348.800 272.598,348.800 271.828 C 348.800 271.124,349.049 270.820,349.700 270.728 C 350.263 270.648,350.646 270.279,350.722 269.741 C 350.790 269.268,351.208 268.787,351.652 268.670 C 352.096 268.554,352.557 268.086,352.676 267.630 C 352.796 267.173,353.039 266.800,353.218 266.800 C 353.982 266.800,354.800 265.441,354.800 264.171 C 354.800 262.975,354.928 262.800,355.800 262.800 C 356.572 262.800,356.800 262.594,356.800 261.895 C 356.800 261.340,357.148 260.837,357.700 260.595 C 358.395 260.290,358.628 259.813,358.723 258.500 C 358.832 256.998,358.960 256.800,359.823 256.800 C 360.598 256.800,360.800 256.594,360.800 255.800 C 360.800 255.000,361.000 254.800,361.800 254.800 C 362.600 254.800,362.800 254.600,362.800 253.800 C 362.800 253.250,362.967 252.800,363.171 252.800 C 363.978 252.800,364.800 251.473,364.800 250.171 C 364.800 248.975,364.928 248.800,365.800 248.800 C 366.733 248.800,366.800 248.667,366.800 246.800 C 366.800 244.933,366.867 244.800,367.800 244.800 C 368.600 244.800,368.800 244.600,368.800 243.800 C 368.800 243.250,368.967 242.800,369.171 242.800 C 369.978 242.800,370.800 241.473,370.800 240.171 C 370.800 238.884,371.066 238.621,372.235 238.755 C 372.485 238.784,372.700 238.005,372.741 236.922 C 372.812 235.055,373.292 234.307,374.198 234.655 C 374.513 234.775,374.693 234.206,374.741 232.937 C 374.812 231.056,375.291 230.306,376.198 230.655 C 376.513 230.775,376.693 230.206,376.741 228.937 C 376.812 227.056,377.291 226.306,378.198 226.655 C 378.513 226.776,378.693 226.201,378.741 224.918 C 378.780 223.863,378.993 222.939,379.214 222.864 C 380.831 222.316,381.575 217.141,380.200 216.000 C 379.785 215.656,379.600 215.641,379.600 215.951 C 379.600 216.198,379.780 216.400,380.000 216.400 C 380.220 216.400,380.400 216.602,380.400 216.849 C 380.400 217.159,380.215 217.144,379.800 216.800 C 379.470 216.526,379.200 216.054,379.200 215.751 C 379.200 215.311,378.150 215.200,374.000 215.200 L 368.800 215.200 368.800 214.200 L 368.800 213.200 360.800 213.200 C 353.217 213.200,352.800 213.160,352.800 212.443 C 352.800 211.216,352.498 211.200,329.367 211.200 L 307.200 211.200 307.200 212.190 L 307.200 213.181 300.500 213.290 C 293.985 213.397,293.789 213.425,293.405 214.300 C 293.034 215.145,292.772 215.200,289.095 215.200 C 285.404 215.200,285.160 215.251,284.836 216.100 C 284.454 217.097,278.059 219.862,277.039 219.470 C 276.732 219.352,276.354 218.478,276.200 217.528 C 276.046 216.578,275.576 215.007,275.155 214.037 C 274.734 213.068,274.279 211.587,274.145 210.747 C 274.011 209.906,273.473 208.374,272.950 207.342 C 272.428 206.309,272.000 205.144,272.000 204.753 C 272.000 204.362,271.550 203.196,271.000 202.162 C 270.450 201.127,270.000 200.030,270.000 199.724 C 270.000 199.418,269.641 198.464,269.202 197.604 C 268.302 195.840,267.513 193.528,266.824 190.637 C 266.241 188.190,265.200 186.469,265.200 187.953 M237.354 203.777 C 236.837 205.123,237.414 205.454,238.330 204.335 C 239.254 203.208,239.255 203.200,238.418 203.200 C 237.954 203.200,237.475 203.459,237.354 203.777 M231.354 211.777 C 230.837 213.123,231.414 213.454,232.330 212.335 C 233.254 211.208,233.255 211.200,232.418 211.200 C 231.954 211.200,231.475 211.459,231.354 211.777 M224.800 223.533 C 224.800 223.790,224.665 223.955,224.500 223.900 C 224.335 223.845,224.170 223.960,224.134 224.155 C 224.098 224.351,223.828 224.663,223.534 224.849 C 223.236 225.038,223.194 225.190,223.438 225.194 C 224.041 225.202,225.390 223.657,225.064 223.331 C 224.919 223.186,224.800 223.277,224.800 223.533 M221.350 227.787 C 220.891 228.981,221.445 229.217,222.378 228.224 L 223.339 227.200 222.457 227.200 C 221.972 227.200,221.474 227.464,221.350 227.787 M219.350 231.787 C 218.891 232.981,219.445 233.217,220.378 232.224 L 221.339 231.200 220.457 231.200 C 219.972 231.200,219.474 231.464,219.350 231.787 M218.800 235.533 C 218.800 235.790,218.665 235.955,218.500 235.900 C 218.335 235.845,218.170 235.960,218.134 236.155 C 218.098 236.351,217.828 236.663,217.534 236.849 C 217.236 237.038,217.194 237.190,217.438 237.194 C 218.041 237.202,219.390 235.657,219.064 235.331 C 218.919 235.186,218.800 235.277,218.800 235.533 M242.832 238.168 C 242.814 238.590,242.275 239.866,241.633 241.004 C 240.991 242.142,240.264 243.866,240.018 244.836 C 239.771 245.806,239.310 247.230,238.992 248.000 C 238.675 248.770,238.144 251.136,237.813 253.258 C 237.483 255.380,237.016 257.630,236.776 258.258 C 236.303 259.500,235.847 264.143,235.192 274.400 C 234.960 278.030,234.507 281.888,234.185 282.973 C 233.128 286.537,233.782 288.800,235.869 288.800 C 236.748 288.800,236.853 288.672,236.613 287.900 C 235.625 284.724,235.866 283.064,237.551 281.434 L 239.169 279.867 239.585 280.960 C 240.101 282.318,240.113 283.811,239.621 285.528 C 239.293 286.672,239.333 286.833,239.921 286.720 C 240.539 286.601,240.604 285.599,240.644 275.595 C 240.673 268.573,240.849 264.205,241.132 263.506 C 241.376 262.904,241.862 259.524,242.213 255.995 C 242.563 252.467,243.096 248.989,243.398 248.268 C 244.297 246.115,244.637 240.130,243.908 239.293 C 243.576 238.912,243.205 238.330,243.084 238.000 C 242.921 237.557,242.855 237.601,242.832 238.168 M312.700 241.076 C 312.315 241.176,311.685 241.176,311.300 241.076 C 310.915 240.975,311.230 240.893,312.000 240.893 C 312.770 240.893,313.085 240.975,312.700 241.076 M306.700 243.076 C 306.315 243.176,305.685 243.176,305.300 243.076 C 304.915 242.975,305.230 242.893,306.000 242.893 C 306.770 242.893,307.085 242.975,306.700 243.076 M302.300 245.087 C 301.695 245.178,300.705 245.178,300.100 245.087 C 299.495 244.995,299.990 244.920,301.200 244.920 C 302.410 244.920,302.905 244.995,302.300 245.087 M214.800 247.533 C 214.800 247.790,214.665 247.955,214.500 247.900 C 214.335 247.845,214.170 247.960,214.134 248.155 C 214.098 248.351,213.828 248.663,213.534 248.849 C 213.236 249.038,213.194 249.190,213.438 249.194 C 214.041 249.202,215.390 247.657,215.064 247.331 C 214.919 247.186,214.800 247.277,214.800 247.533 M211.915 258.085 L 211.029 258.971 212.015 259.211 C 213.215 259.504,213.332 262.487,212.249 265.195 C 211.687 266.598,211.682 266.800,212.203 266.800 C 212.573 266.800,212.800 266.420,212.800 265.800 C 212.800 265.188,213.028 264.800,213.386 264.800 C 214.852 264.800,215.232 261.660,214.100 258.906 C 213.294 256.946,213.119 256.881,211.915 258.085 M211.305 269.133 C 211.335 269.537,211.591 269.867,211.874 269.867 C 212.222 269.867,212.262 269.715,211.997 269.397 C 211.783 269.138,211.725 268.808,211.870 268.663 C 212.015 268.518,211.935 268.400,211.692 268.400 C 211.449 268.400,211.275 268.730,211.305 269.133 M213.200 278.173 C 213.200 278.994,213.395 279.200,214.171 279.200 C 214.985 279.200,215.279 279.566,215.985 281.452 C 216.449 282.691,217.092 284.081,217.414 284.541 C 217.736 285.001,218.000 285.624,218.000 285.924 C 218.000 286.466,219.800 289.744,221.994 293.200 C 222.822 294.505,223.146 295.531,223.169 296.929 C 223.194 298.515,223.320 298.836,223.875 298.729 C 225.036 298.505,224.885 293.925,223.700 293.405 C 223.074 293.131,222.800 292.668,222.800 291.887 C 222.800 291.222,222.392 290.356,221.800 289.764 C 221.250 289.214,220.800 288.404,220.800 287.964 C 220.800 287.524,220.350 286.714,219.800 286.164 C 219.250 285.614,218.798 284.767,218.795 284.282 C 218.785 282.699,218.328 281.631,217.557 281.386 C 217.141 281.254,216.800 280.807,216.800 280.394 C 216.800 279.455,215.297 277.804,214.100 277.429 C 213.327 277.186,213.200 277.291,213.200 278.173 M227.700 301.894 C 226.612 302.270,227.109 304.736,228.300 304.873 C 228.957 304.949,229.356 305.213,229.290 305.530 C 229.230 305.821,229.354 305.952,229.566 305.821 C 229.777 305.690,230.120 305.886,230.327 306.256 C 230.664 306.858,230.754 306.833,231.189 306.021 C 231.540 305.365,231.553 304.993,231.237 304.677 C 230.997 304.437,230.800 303.949,230.800 303.594 C 230.800 302.883,228.495 301.620,227.700 301.894 " stroke="none" fill="#8cd42c" fill-rule="evenodd"></path><path id="path2" d="M259.660 181.874 C 259.398 182.155,259.207 182.481,259.236 182.599 C 259.483 183.603,258.627 186.464,257.976 186.813 C 257.549 187.041,257.200 187.419,257.200 187.652 C 257.200 188.947,255.465 190.483,254.229 190.282 C 253.531 190.169,252.536 190.321,251.987 190.625 C 251.444 190.926,250.595 191.178,250.100 191.186 C 249.410 191.197,249.200 191.434,249.200 192.200 C 249.200 193.000,249.000 193.200,248.200 193.200 C 247.408 193.200,247.200 193.402,247.200 194.172 C 247.200 194.876,246.951 195.180,246.300 195.272 C 245.722 195.354,245.354 195.722,245.272 196.300 C 245.180 196.951,244.876 197.200,244.172 197.200 C 243.409 197.200,243.200 197.409,243.200 198.172 C 243.200 198.876,242.951 199.180,242.300 199.272 C 241.722 199.354,241.354 199.722,241.272 200.300 C 241.180 200.951,240.876 201.200,240.172 201.200 C 239.391 201.200,239.200 201.405,239.200 202.242 C 239.200 202.815,238.750 203.819,238.200 204.473 C 237.650 205.127,237.200 205.995,237.200 206.403 C 237.200 206.867,236.864 207.192,236.300 207.272 C 235.756 207.349,235.354 207.721,235.284 208.212 C 235.220 208.659,234.771 209.199,234.286 209.412 C 233.801 209.625,233.337 210.160,233.254 210.600 C 233.171 211.040,232.675 211.909,232.151 212.531 C 231.628 213.153,231.200 213.995,231.200 214.403 C 231.200 214.863,230.864 215.193,230.316 215.272 C 229.781 215.350,229.347 215.764,229.216 216.324 C 229.097 216.832,228.906 217.192,228.790 217.124 C 228.266 216.815,227.345 218.279,227.259 219.558 C 227.150 221.175,227.120 221.224,226.166 221.364 C 225.722 221.429,225.401 221.898,225.303 222.624 C 225.118 224.008,224.467 224.889,223.893 224.534 C 223.651 224.384,223.596 224.470,223.762 224.738 C 223.919 224.992,223.896 225.200,223.711 225.200 C 223.526 225.200,223.334 225.686,223.285 226.280 C 223.236 226.875,222.747 227.829,222.198 228.402 C 221.649 228.975,221.200 229.898,221.200 230.452 C 221.200 231.012,220.753 231.880,220.196 232.404 C 219.449 233.105,219.321 233.430,219.696 233.668 C 220.096 233.922,220.097 233.989,219.700 233.994 C 219.425 233.997,219.200 234.428,219.200 234.951 C 219.200 235.994,218.318 236.967,217.799 236.497 C 217.619 236.333,217.601 236.425,217.759 236.700 C 217.918 236.975,217.849 237.200,217.606 237.200 C 217.363 237.200,217.194 237.425,217.230 237.700 C 217.529 240.002,217.176 241.200,216.200 241.200 C 215.213 241.200,215.200 241.243,215.200 244.551 C 215.200 247.797,214.671 249.287,213.799 248.497 C 213.619 248.333,213.601 248.425,213.759 248.700 C 213.918 248.975,213.879 249.200,213.674 249.200 C 212.868 249.200,213.110 256.682,213.980 258.648 C 215.239 261.495,214.920 264.800,213.386 264.800 C 213.028 264.800,212.800 265.188,212.800 265.800 C 212.800 266.493,212.581 266.800,212.086 266.800 C 211.638 266.800,211.371 267.099,211.371 267.600 C 211.371 268.040,211.523 268.400,211.709 268.400 C 211.895 268.400,211.907 268.625,211.735 268.900 C 211.068 269.968,211.243 270.485,212.210 270.300 C 212.733 270.200,213.148 270.227,213.133 270.359 C 212.778 273.451,213.287 277.174,214.100 277.429 C 215.297 277.804,216.800 279.455,216.800 280.394 C 216.800 280.807,217.141 281.254,217.557 281.386 C 218.328 281.631,218.785 282.699,218.795 284.282 C 218.798 284.767,219.250 285.614,219.800 286.164 C 220.350 286.714,220.800 287.524,220.800 287.964 C 220.800 288.404,221.250 289.214,221.800 289.764 C 222.392 290.356,222.800 291.222,222.800 291.887 C 222.800 292.668,223.074 293.131,223.700 293.405 C 224.503 293.757,224.595 294.070,224.557 296.300 C 224.534 297.675,224.669 298.800,224.857 298.800 C 225.046 298.800,225.200 299.250,225.200 299.800 C 225.200 300.642,225.388 300.800,226.387 300.800 C 227.304 300.800,227.520 300.944,227.333 301.430 C 227.176 301.839,227.286 302.017,227.646 301.936 C 228.602 301.723,230.800 302.860,230.800 303.569 C 230.800 303.938,230.997 304.437,231.237 304.677 C 231.553 304.993,231.549 305.347,231.223 305.957 C 230.810 306.728,230.875 306.800,231.986 306.800 C 233.123 306.800,233.447 307.236,233.247 308.500 C 233.221 308.665,234.280 308.800,235.600 308.800 L 238.000 308.800 237.995 307.500 C 237.993 306.785,237.539 304.400,236.986 302.200 C 235.913 297.928,235.667 293.239,236.387 290.803 C 236.955 288.882,236.932 288.800,235.823 288.800 C 233.785 288.800,233.139 286.501,234.185 282.973 C 234.507 281.888,234.960 278.030,235.192 274.400 C 235.847 264.143,236.303 259.500,236.776 258.258 C 237.016 257.630,237.483 255.380,237.813 253.258 C 238.144 251.136,238.675 248.770,238.992 248.000 C 239.310 247.230,239.771 245.806,240.018 244.836 C 240.264 243.866,240.991 242.142,241.633 241.004 C 242.275 239.866,242.814 238.590,242.832 238.168 C 242.855 237.601,242.921 237.557,243.084 238.000 C 243.205 238.330,243.576 238.912,243.908 239.293 C 244.637 240.130,244.297 246.115,243.398 248.268 C 243.096 248.989,242.563 252.467,242.213 255.995 C 241.862 259.524,241.376 262.904,241.132 263.506 C 240.849 264.205,240.673 268.573,240.644 275.595 C 240.603 285.727,240.545 286.600,239.900 286.724 C 239.033 286.891,239.017 287.349,239.837 288.601 C 240.188 289.135,240.562 290.614,240.670 291.887 C 240.777 293.159,241.114 294.920,241.418 295.800 C 241.722 296.680,242.158 299.038,242.386 301.040 C 242.762 304.331,243.439 306.524,244.502 307.892 C 244.940 308.456,245.966 308.034,247.230 306.770 C 247.654 306.346,248.178 306.000,248.395 306.000 C 250.353 306.000,264.491 293.064,266.844 289.120 C 267.370 288.239,268.295 286.927,268.900 286.206 C 269.505 285.485,270.000 284.752,270.000 284.579 C 270.000 284.405,270.268 283.967,270.595 283.606 C 271.740 282.340,275.610 274.277,275.855 272.646 C 275.991 271.741,276.439 270.438,276.851 269.752 C 277.264 269.065,277.707 267.625,277.836 266.552 C 278.129 264.119,279.917 258.415,280.652 257.569 C 280.953 257.221,281.200 256.266,281.200 255.445 C 281.200 254.624,281.368 254.056,281.572 254.183 C 282.429 254.712,282.295 253.653,281.409 252.882 C 280.227 251.855,280.091 251.018,279.841 243.200 C 279.723 239.500,279.394 236.070,279.024 234.692 C 278.684 233.423,278.220 230.723,277.993 228.692 C 277.765 226.661,277.480 224.640,277.358 224.200 C 276.986 222.856,276.001 220.848,275.589 220.593 C 275.375 220.461,275.200 219.906,275.200 219.360 C 275.200 218.814,274.821 217.855,274.357 217.228 C 273.782 216.449,273.448 215.252,273.303 213.444 C 273.186 211.990,272.926 210.800,272.725 210.800 C 272.199 210.800,271.200 208.229,271.200 206.875 C 271.200 206.241,270.849 205.406,270.418 205.016 C 269.980 204.620,269.514 203.499,269.360 202.471 C 269.201 201.414,268.761 200.372,268.323 200.017 C 267.793 199.587,267.491 198.673,267.327 197.000 C 267.197 195.680,266.952 194.420,266.782 194.200 C 266.248 193.512,265.249 189.099,265.106 186.800 C 265.011 185.270,264.813 184.633,264.455 184.710 C 264.172 184.770,264.055 184.635,264.194 184.410 C 264.333 184.184,264.246 184.000,264.000 184.000 C 263.754 184.000,263.652 183.839,263.774 183.642 C 263.998 183.279,262.877 182.611,262.270 182.746 C 262.089 182.787,262.055 182.635,262.194 182.410 C 262.333 182.184,262.246 182.000,262.000 182.000 C 261.754 182.000,261.663 181.821,261.798 181.603 C 262.157 181.022,260.227 181.267,259.660 181.874 " stroke="none" fill="#a4f33c" fill-rule="evenodd"></path><path id="path3" d="M135.200 52.192 L 135.200 53.183 127.300 53.292 C 119.449 53.399,119.399 53.406,119.272 54.300 C 119.152 55.147,118.958 55.200,115.953 55.200 C 113.063 55.200,112.674 55.294,111.835 56.200 C 111.013 57.087,110.585 57.200,108.054 57.200 C 105.290 57.200,105.200 57.231,105.200 58.182 C 105.200 59.125,105.081 59.170,102.300 59.282 C 99.639 59.390,99.389 59.474,99.272 60.300 C 99.159 61.094,98.913 61.200,97.172 61.200 C 95.335 61.200,95.200 61.269,95.200 62.200 C 95.200 63.133,95.067 63.200,93.200 63.200 C 91.333 63.200,91.200 63.267,91.200 64.200 C 91.200 65.146,91.081 65.200,88.981 65.200 C 87.128 65.200,86.609 65.365,85.835 66.200 C 85.325 66.750,84.524 67.200,84.054 67.200 C 83.410 67.200,83.200 67.446,83.200 68.200 C 83.200 69.133,83.067 69.200,81.200 69.200 C 79.345 69.200,79.200 69.271,79.200 70.178 C 79.200 71.061,79.015 71.168,77.300 71.278 C 75.679 71.382,75.381 71.532,75.272 72.300 C 75.180 72.951,74.876 73.200,74.172 73.200 C 73.408 73.200,73.200 73.409,73.200 74.178 C 73.200 75.061,73.015 75.168,71.300 75.278 C 69.679 75.382,69.381 75.532,69.272 76.300 C 69.180 76.951,68.876 77.200,68.172 77.200 C 67.402 77.200,67.200 77.408,67.200 78.200 C 67.200 79.000,67.000 79.200,66.200 79.200 C 65.400 79.200,65.200 79.400,65.200 80.200 C 65.200 81.048,65.015 81.200,63.981 81.200 C 63.211 81.200,62.437 81.551,61.880 82.152 C 61.395 82.675,60.638 83.172,60.199 83.256 C 59.746 83.342,59.346 83.786,59.275 84.279 C 59.198 84.821,58.819 85.198,58.275 85.275 C 57.721 85.354,57.353 85.730,57.272 86.300 C 57.180 86.951,56.876 87.200,56.172 87.200 C 55.402 87.200,55.200 87.408,55.200 88.200 C 55.200 89.000,55.000 89.200,54.200 89.200 C 53.408 89.200,53.200 89.402,53.200 90.172 C 53.200 90.874,52.951 91.180,52.304 91.272 C 51.794 91.345,51.344 91.738,51.259 92.184 C 51.176 92.616,50.229 93.830,49.154 94.882 C 47.673 96.333,47.200 97.087,47.200 97.998 C 47.200 99.013,47.045 99.200,46.200 99.200 C 45.400 99.200,45.200 99.400,45.200 100.200 C 45.200 101.000,45.000 101.200,44.200 101.200 C 43.408 101.200,43.200 101.402,43.200 102.172 C 43.200 102.876,42.951 103.180,42.300 103.272 C 41.532 103.381,41.382 103.679,41.278 105.300 C 41.168 107.015,41.061 107.200,40.178 107.200 C 39.409 107.200,39.200 107.408,39.200 108.172 C 39.200 108.876,38.951 109.180,38.300 109.272 C 37.532 109.381,37.382 109.679,37.278 111.300 C 37.168 113.015,37.061 113.200,36.178 113.200 C 35.446 113.200,35.200 113.415,35.200 114.054 C 35.200 114.524,34.750 115.325,34.200 115.835 C 33.612 116.380,33.200 117.204,33.200 117.835 C 33.200 118.466,32.788 119.290,32.200 119.835 C 31.612 120.380,31.200 121.204,31.200 121.835 C 31.200 122.466,30.788 123.290,30.200 123.835 C 29.365 124.609,29.200 125.128,29.200 126.981 C 29.200 129.081,29.146 129.200,28.200 129.200 C 27.269 129.200,27.200 129.335,27.200 131.172 C 27.200 132.913,27.094 133.159,26.300 133.272 C 25.474 133.389,25.390 133.639,25.282 136.300 C 25.170 139.081,25.125 139.200,24.182 139.200 C 23.205 139.200,23.200 139.219,23.200 143.200 L 23.200 147.200 22.200 147.200 L 21.200 147.200 21.200 152.172 C 21.200 157.024,21.178 157.147,20.300 157.272 L 19.400 157.400 19.296 177.100 L 19.192 196.800 20.196 196.800 L 21.200 196.800 21.200 201.800 L 21.200 206.800 22.186 206.800 C 23.158 206.800,23.173 206.853,23.286 210.700 C 23.394 214.400,23.446 214.607,24.300 214.728 C 25.141 214.847,25.200 215.050,25.200 217.828 C 25.200 220.731,25.223 220.800,26.200 220.800 C 27.133 220.800,27.200 220.933,27.200 222.800 C 27.200 224.667,27.267 224.800,28.200 224.800 C 29.154 224.800,29.200 224.909,29.200 227.171 C 29.200 229.449,29.806 230.800,30.829 230.800 C 31.033 230.800,31.200 231.417,31.200 232.171 C 31.200 233.473,32.022 234.800,32.829 234.800 C 33.033 234.800,33.200 235.417,33.200 236.171 C 33.200 237.473,34.022 238.800,34.829 238.800 C 35.033 238.800,35.200 239.250,35.200 239.800 C 35.200 240.600,35.400 240.800,36.200 240.800 C 37.133 240.800,37.200 240.933,37.200 242.800 C 37.200 244.667,37.267 244.800,38.200 244.800 C 39.000 244.800,39.200 245.000,39.200 245.800 C 39.200 246.594,39.401 246.800,40.178 246.800 C 41.061 246.800,41.168 246.985,41.278 248.700 C 41.382 250.321,41.532 250.619,42.300 250.728 C 42.951 250.820,43.200 251.124,43.200 251.828 C 43.200 252.598,43.408 252.800,44.200 252.800 C 45.000 252.800,45.200 253.000,45.200 253.800 C 45.200 254.600,45.400 254.800,46.200 254.800 C 47.072 254.800,47.200 254.975,47.200 256.171 C 47.200 257.454,48.020 258.800,48.801 258.800 C 48.990 258.800,49.202 259.205,49.272 259.700 C 49.354 260.278,49.722 260.646,50.300 260.728 C 50.951 260.820,51.200 261.124,51.200 261.828 C 51.200 262.598,51.408 262.800,52.200 262.800 C 53.000 262.800,53.200 263.000,53.200 263.800 C 53.200 264.600,53.400 264.800,54.200 264.800 C 55.000 264.800,55.200 265.000,55.200 265.800 C 55.200 266.592,55.402 266.800,56.172 266.800 C 56.876 266.800,57.180 267.049,57.272 267.700 C 57.353 268.270,57.721 268.646,58.275 268.725 C 58.821 268.802,59.198 269.179,59.275 269.725 C 59.353 270.270,59.730 270.647,60.275 270.725 C 60.821 270.802,61.198 271.179,61.275 271.725 C 61.353 272.270,61.730 272.647,62.275 272.725 C 62.821 272.802,63.198 273.179,63.275 273.725 C 63.353 274.270,63.730 274.647,64.275 274.725 C 64.821 274.802,65.198 275.179,65.275 275.725 C 65.353 276.270,65.730 276.647,66.275 276.725 C 66.821 276.802,67.198 277.179,67.275 277.725 C 67.353 278.270,67.730 278.647,68.275 278.725 C 68.821 278.802,69.198 279.179,69.275 279.725 C 69.354 280.279,69.730 280.647,70.300 280.728 C 70.795 280.798,71.200 281.010,71.200 281.199 C 71.200 281.980,72.546 282.800,73.829 282.800 C 75.025 282.800,75.200 282.928,75.200 283.800 C 75.200 284.600,75.400 284.800,76.200 284.800 C 77.000 284.800,77.200 285.000,77.200 285.800 C 77.200 286.600,77.400 286.800,78.200 286.800 C 79.000 286.800,79.200 287.000,79.200 287.800 C 79.200 288.600,79.400 288.800,80.200 288.800 C 80.750 288.800,81.200 288.967,81.200 289.171 C 81.200 289.978,82.527 290.800,83.829 290.800 C 85.025 290.800,85.200 290.928,85.200 291.800 C 85.200 292.733,85.333 292.800,87.200 292.800 C 89.067 292.800,89.200 292.867,89.200 293.800 C 89.200 294.600,89.400 294.800,90.200 294.800 C 91.000 294.800,91.200 295.000,91.200 295.800 C 91.200 296.733,91.333 296.800,93.200 296.800 C 95.067 296.800,95.200 296.867,95.200 297.800 C 95.200 298.733,95.333 298.800,97.200 298.800 C 99.067 298.800,99.200 298.867,99.200 299.800 C 99.200 300.733,99.333 300.800,101.200 300.800 C 103.067 300.800,103.200 300.867,103.200 301.800 C 103.200 302.733,103.333 302.800,105.200 302.800 C 107.067 302.800,107.200 302.867,107.200 303.800 C 107.200 304.778,107.267 304.800,110.200 304.800 C 113.133 304.800,113.200 304.822,113.200 305.800 C 113.200 306.731,113.335 306.800,115.172 306.800 C 116.913 306.800,117.159 306.906,117.272 307.700 C 117.393 308.554,117.600 308.606,121.300 308.714 C 125.147 308.827,125.200 308.842,125.200 309.814 C 125.200 310.796,125.216 310.800,129.200 310.800 C 131.400 310.800,133.200 310.967,133.200 311.171 C 133.200 312.636,134.272 312.800,143.829 312.800 L 153.200 312.800 153.200 313.800 L 153.200 314.800 160.000 314.800 L 166.800 314.800 166.800 313.800 L 166.800 312.800 175.800 312.800 L 184.800 312.800 184.800 311.812 L 184.800 310.825 189.700 310.712 C 194.438 310.604,194.604 310.570,194.728 309.700 C 194.847 308.859,195.050 308.800,197.828 308.800 C 200.731 308.800,200.800 308.777,200.800 307.800 C 200.800 306.822,200.867 306.800,203.800 306.800 C 206.718 306.800,206.800 306.773,206.800 305.818 C 206.800 304.885,206.932 304.831,209.500 304.718 C 211.857 304.615,212.250 304.486,212.595 303.700 C 212.925 302.948,213.303 302.800,214.895 302.800 C 216.660 302.800,216.800 302.727,216.800 301.800 C 216.800 300.867,216.933 300.800,218.800 300.800 C 220.667 300.800,220.800 300.733,220.800 299.800 C 220.800 298.956,220.987 298.800,222.000 298.800 C 223.702 298.800,223.699 295.885,221.994 293.200 C 219.800 289.744,218.000 286.466,218.000 285.924 C 218.000 285.624,217.736 285.001,217.414 284.541 C 217.092 284.081,216.446 282.684,215.979 281.435 L 215.130 279.166 212.265 279.283 C 209.661 279.389,209.389 279.480,209.275 280.279 C 209.169 281.021,208.856 281.177,207.275 281.279 C 205.693 281.381,205.380 281.538,205.275 282.279 C 205.169 283.021,204.856 283.177,203.275 283.279 C 201.679 283.382,201.381 283.534,201.272 284.300 C 201.159 285.094,200.913 285.200,199.172 285.200 C 197.335 285.200,197.200 285.269,197.200 286.200 C 197.200 287.178,197.133 287.200,194.200 287.200 C 191.267 287.200,191.200 287.222,191.200 288.200 C 191.200 289.184,191.148 289.200,187.981 289.200 C 185.061 289.200,184.676 289.293,183.835 290.200 C 182.963 291.141,182.666 291.200,178.835 291.200 C 175.004 291.200,174.707 291.259,173.835 292.200 L 172.908 293.200 157.854 293.200 L 142.800 293.200 142.800 292.200 L 142.800 291.200 137.800 291.200 L 132.800 291.200 132.800 290.200 C 132.800 289.222,132.733 289.200,129.800 289.200 C 126.867 289.200,126.800 289.178,126.800 288.200 C 126.800 287.222,126.733 287.200,123.800 287.200 C 120.867 287.200,120.800 287.178,120.800 286.200 C 120.800 285.267,120.667 285.200,118.800 285.200 C 117.700 285.200,116.800 285.033,116.800 284.829 C 116.800 283.806,115.449 283.200,113.171 283.200 C 110.909 283.200,110.800 283.154,110.800 282.200 C 110.800 281.267,110.667 281.200,108.800 281.200 C 106.948 281.200,106.800 281.128,106.800 280.227 C 106.800 279.472,106.553 279.216,105.700 279.087 C 104.676 278.931,104.690 278.916,105.900 278.860 C 107.036 278.808,107.200 278.926,107.200 279.800 C 107.200 280.778,107.267 280.800,110.200 280.800 C 113.133 280.800,113.200 280.822,113.200 281.800 L 113.200 282.800 117.200 282.800 L 121.200 282.800 121.200 283.800 L 121.200 284.800 127.173 284.800 C 132.792 284.800,133.161 284.847,133.400 285.599 C 133.779 286.795,134.301 286.832,149.000 286.712 L 162.600 286.600 162.728 285.700 C 162.853 284.822,162.976 284.800,167.828 284.800 L 172.800 284.800 172.800 283.800 L 172.800 282.800 176.800 282.800 L 180.800 282.800 180.800 281.800 C 180.800 280.822,180.867 280.800,183.800 280.800 C 186.733 280.800,186.800 280.778,186.800 279.800 C 186.800 278.822,186.867 278.800,189.800 278.800 C 192.733 278.800,192.800 278.778,192.800 277.800 C 192.800 276.867,192.933 276.800,194.800 276.800 C 196.667 276.800,196.800 276.733,196.800 275.800 C 196.800 274.867,196.933 274.800,198.800 274.800 C 200.655 274.800,200.800 274.729,200.800 273.822 C 200.800 272.939,200.985 272.832,202.700 272.722 C 204.321 272.618,204.619 272.468,204.728 271.700 C 204.820 271.049,205.124 270.800,205.828 270.800 C 206.598 270.800,206.800 270.592,206.800 269.800 C 206.800 268.867,206.933 268.800,208.800 268.800 C 210.667 268.800,210.800 268.733,210.800 267.800 C 210.800 267.250,210.978 266.800,211.195 266.800 C 211.879 266.800,212.849 263.887,212.926 261.600 L 213.000 259.400 211.100 259.278 C 209.297 259.162,209.200 259.209,209.200 260.178 C 209.200 261.050,209.022 261.200,207.981 261.200 C 207.194 261.200,206.433 261.555,205.835 262.200 C 205.325 262.750,204.524 263.200,204.054 263.200 C 203.415 263.200,203.200 263.446,203.200 264.178 C 203.200 265.061,203.015 265.168,201.300 265.278 C 199.679 265.382,199.381 265.532,199.272 266.300 C 199.172 267.003,198.884 267.200,197.953 267.200 C 197.205 267.200,196.426 267.562,195.860 268.173 C 195.220 268.864,194.442 269.183,193.179 269.273 C 191.699 269.379,191.379 269.548,191.275 270.279 C 191.169 271.021,190.856 271.177,189.275 271.279 C 187.679 271.382,187.381 271.534,187.272 272.300 C 187.159 273.094,186.913 273.200,185.172 273.200 C 183.335 273.200,183.200 273.269,183.200 274.200 C 183.200 275.178,183.133 275.200,180.200 275.200 C 177.267 275.200,177.200 275.222,177.200 276.200 L 177.200 277.200 173.200 277.200 L 169.200 277.200 169.200 278.200 L 169.200 279.200 163.200 279.200 L 157.200 279.200 157.200 280.200 L 157.200 281.200 148.000 281.200 L 138.800 281.200 138.800 280.200 L 138.800 279.200 131.800 279.200 L 124.800 279.200 124.800 278.200 C 124.800 277.223,124.731 277.200,121.828 277.200 C 119.050 277.200,118.847 277.141,118.728 276.300 C 118.611 275.474,118.361 275.390,115.700 275.282 C 114.105 275.218,112.800 275.006,112.800 274.811 C 112.800 273.806,111.435 273.200,109.171 273.200 C 106.909 273.200,106.800 273.154,106.800 272.200 C 106.800 271.269,106.665 271.200,104.828 271.200 C 103.087 271.200,102.841 271.094,102.728 270.300 C 102.619 269.534,102.321 269.382,100.725 269.279 C 99.144 269.177,98.831 269.021,98.725 268.279 C 98.619 267.536,98.307 267.381,96.700 267.278 C 94.985 267.168,94.800 267.061,94.800 266.178 C 94.800 265.271,94.655 265.200,92.800 265.200 C 90.933 265.200,90.800 265.133,90.800 264.200 C 90.800 263.400,90.600 263.200,89.800 263.200 C 89.250 263.200,88.800 263.033,88.800 262.829 C 88.800 262.022,87.473 261.200,86.171 261.200 C 84.975 261.200,84.800 261.072,84.800 260.200 C 84.800 259.400,84.600 259.200,83.800 259.200 C 83.000 259.200,82.800 259.000,82.800 258.200 C 82.800 257.400,82.600 257.200,81.800 257.200 C 81.250 257.200,80.800 257.033,80.800 256.829 C 80.800 256.022,79.473 255.200,78.171 255.200 C 76.975 255.200,76.800 255.072,76.800 254.200 C 76.800 253.400,76.600 253.200,75.800 253.200 C 75.000 253.200,74.800 253.000,74.800 252.200 C 74.800 251.400,74.600 251.200,73.800 251.200 C 73.000 251.200,72.800 251.000,72.800 250.200 C 72.800 249.406,72.599 249.200,71.822 249.200 C 70.939 249.200,70.832 249.015,70.722 247.300 C 70.618 245.679,70.468 245.381,69.700 245.272 C 69.049 245.180,68.800 244.876,68.800 244.172 C 68.800 243.402,68.592 243.200,67.800 243.200 C 66.867 243.200,66.800 243.067,66.800 241.200 C 66.800 239.333,66.733 239.200,65.800 239.200 C 64.928 239.200,64.800 239.025,64.800 237.829 C 64.800 236.527,63.978 235.200,63.171 235.200 C 62.967 235.200,62.800 234.583,62.800 233.829 C 62.800 232.527,61.978 231.200,61.171 231.200 C 60.967 231.200,60.800 230.300,60.800 229.200 C 60.800 227.333,60.733 227.200,59.800 227.200 C 58.867 227.200,58.800 227.067,58.800 225.200 C 58.800 223.333,58.733 223.200,57.800 223.200 C 56.822 223.200,56.800 223.133,56.800 220.200 C 56.800 217.267,56.778 217.200,55.800 217.200 L 54.800 217.200 54.800 213.200 L 54.800 209.200 53.800 209.200 L 52.800 209.200 52.800 201.200 L 52.800 193.200 51.800 193.200 L 50.800 193.200 50.800 189.028 C 50.800 185.006,50.832 184.851,51.700 184.728 C 52.594 184.601,52.601 184.551,52.708 176.700 L 52.817 168.800 53.808 168.800 C 54.773 168.800,54.800 168.720,54.800 165.895 C 54.800 163.266,54.886 162.952,55.700 162.595 C 56.527 162.232,56.609 161.898,56.715 158.500 C 56.828 154.866,56.848 154.800,57.815 154.800 C 58.728 154.800,58.800 154.657,58.800 152.828 C 58.800 151.087,58.906 150.841,59.700 150.728 C 60.461 150.620,60.618 150.319,60.718 148.787 C 60.811 147.366,61.027 146.890,61.718 146.587 C 62.381 146.296,62.629 145.800,62.719 144.587 C 62.808 143.374,63.056 142.878,63.719 142.587 C 64.393 142.291,64.629 141.801,64.723 140.500 C 64.832 138.998,64.960 138.800,65.823 138.800 C 66.729 138.800,66.800 138.654,66.800 136.800 C 66.800 134.933,66.867 134.800,67.800 134.800 C 68.572 134.800,68.800 134.594,68.800 133.895 C 68.800 133.340,69.148 132.837,69.700 132.595 C 70.395 132.290,70.628 131.813,70.723 130.500 C 70.832 128.998,70.960 128.800,71.823 128.800 C 72.598 128.800,72.800 128.594,72.800 127.800 C 72.800 127.000,73.000 126.800,73.800 126.800 C 74.572 126.800,74.800 126.594,74.800 125.895 C 74.800 125.340,75.148 124.837,75.700 124.595 C 76.395 124.290,76.628 123.813,76.723 122.500 C 76.832 120.998,76.960 120.800,77.823 120.800 C 78.598 120.800,78.800 120.594,78.800 119.800 C 78.800 119.000,79.000 118.800,79.800 118.800 C 80.600 118.800,80.800 118.600,80.800 117.800 C 80.800 117.000,81.000 116.800,81.800 116.800 C 82.600 116.800,82.800 116.600,82.800 115.800 C 82.800 115.000,83.000 114.800,83.800 114.800 C 84.600 114.800,84.800 114.600,84.800 113.800 C 84.800 113.000,85.000 112.800,85.800 112.800 C 86.594 112.800,86.800 112.598,86.800 111.823 C 86.800 110.960,86.998 110.832,88.500 110.723 C 89.802 110.629,90.291 110.393,90.588 109.716 C 90.801 109.230,91.341 108.780,91.788 108.716 C 92.279 108.646,92.651 108.244,92.728 107.700 C 92.820 107.049,93.124 106.800,93.828 106.800 C 94.598 106.800,94.800 106.592,94.800 105.800 C 94.800 105.000,95.000 104.800,95.800 104.800 C 96.600 104.800,96.800 104.600,96.800 103.800 C 96.800 102.867,96.933 102.800,98.800 102.800 C 100.667 102.800,100.800 102.733,100.800 101.800 C 100.800 101.000,101.000 100.800,101.800 100.800 C 102.600 100.800,102.800 100.600,102.800 99.800 C 102.800 98.867,102.933 98.800,104.800 98.800 C 106.667 98.800,106.800 98.733,106.800 97.800 C 106.800 96.867,106.933 96.800,108.800 96.800 C 110.667 96.800,110.800 96.733,110.800 95.800 C 110.800 94.867,110.933 94.800,112.800 94.800 C 114.667 94.800,114.800 94.733,114.800 93.800 C 114.800 92.867,114.933 92.800,116.800 92.800 C 118.667 92.800,118.800 92.733,118.800 91.800 C 118.800 90.822,118.867 90.800,121.800 90.800 C 124.733 90.800,124.800 90.778,124.800 89.800 C 124.800 88.822,124.867 88.800,127.800 88.800 C 130.733 88.800,130.800 88.778,130.800 87.800 L 130.800 86.800 134.800 86.800 L 138.800 86.800 138.800 85.800 L 138.800 84.800 147.800 84.800 L 156.800 84.800 156.800 83.800 C 156.800 82.855,156.920 82.800,159.000 82.800 C 161.080 82.800,161.200 82.855,161.200 83.800 L 161.200 84.800 170.200 84.800 L 179.200 84.800 179.200 85.800 L 179.200 86.800 183.200 86.800 L 187.200 86.800 187.200 87.800 C 187.200 88.778,187.267 88.800,190.200 88.800 C 193.133 88.800,193.200 88.822,193.200 89.800 C 193.200 90.778,193.267 90.800,196.200 90.800 C 199.133 90.800,199.200 90.822,199.200 91.800 C 199.200 92.733,199.333 92.800,201.200 92.800 C 203.067 92.800,203.200 92.867,203.200 93.800 C 203.200 94.733,203.333 94.800,205.200 94.800 C 207.067 94.800,207.200 94.867,207.200 95.800 C 207.200 96.733,207.333 96.800,209.200 96.800 C 211.067 96.800,211.200 96.867,211.200 97.800 C 211.200 98.733,211.333 98.800,213.200 98.800 C 215.067 98.800,215.200 98.867,215.200 99.800 C 215.200 100.592,215.402 100.800,216.172 100.800 C 216.876 100.800,217.180 101.049,217.272 101.700 C 217.381 102.468,217.679 102.618,219.300 102.722 C 221.015 102.832,221.200 102.939,221.200 103.822 C 221.200 104.599,221.406 104.800,222.200 104.800 C 223.000 104.800,223.200 105.000,223.200 105.800 C 223.200 106.600,223.400 106.800,224.200 106.800 C 225.000 106.800,225.200 107.000,225.200 107.800 C 225.200 108.600,225.400 108.800,226.200 108.800 C 227.000 108.800,227.200 109.000,227.200 109.800 C 227.200 110.600,227.400 110.800,228.200 110.800 C 229.133 110.800,229.200 110.933,229.200 112.800 C 229.200 114.667,229.267 114.800,230.200 114.800 C 231.000 114.800,231.200 115.000,231.200 115.800 C 231.200 116.600,231.400 116.800,232.200 116.800 C 233.000 116.800,233.200 117.000,233.200 117.800 C 233.200 118.600,233.400 118.800,234.200 118.800 C 235.133 118.800,235.200 118.933,235.200 120.800 C 235.200 122.667,235.267 122.800,236.200 122.800 C 237.072 122.800,237.200 122.975,237.200 124.171 C 237.200 125.473,238.022 126.800,238.829 126.800 C 239.033 126.800,239.200 127.250,239.200 127.800 C 239.200 128.600,239.400 128.800,240.200 128.800 C 241.133 128.800,241.200 128.933,241.200 130.800 C 241.200 132.667,241.267 132.800,242.200 132.800 C 243.133 132.800,243.200 132.933,243.200 134.800 C 243.200 136.667,243.267 136.800,244.200 136.800 C 245.178 136.800,245.200 136.867,245.200 139.800 C 245.200 142.733,245.222 142.800,246.200 142.800 C 247.154 142.800,247.200 142.909,247.200 145.171 C 247.200 147.449,247.806 148.800,248.829 148.800 C 249.033 148.800,249.200 150.150,249.200 151.800 C 249.200 154.733,249.222 154.800,250.200 154.800 L 251.200 154.800 251.200 160.800 L 251.200 166.800 252.200 166.800 L 253.200 166.800 253.200 176.854 L 253.200 186.908 252.100 187.951 L 251.000 188.994 251.964 189.133 C 252.544 189.217,253.069 189.019,253.284 188.636 C 253.480 188.286,254.036 188.000,254.520 188.000 C 255.379 188.000,256.968 186.365,258.500 183.905 C 260.038 181.434,259.395 158.068,257.772 157.445 C 257.350 157.283,257.200 156.479,257.200 154.386 C 257.200 151.551,256.764 150.084,255.742 149.480 C 255.413 149.286,255.200 148.448,255.200 147.352 C 255.200 145.707,255.257 145.600,255.829 146.171 C 256.174 146.517,256.624 146.800,256.829 146.800 C 257.033 146.800,257.200 147.417,257.200 148.171 C 257.200 149.473,258.022 150.800,258.829 150.800 C 259.033 150.800,259.200 151.700,259.200 152.800 C 259.200 154.667,259.267 154.800,260.200 154.800 C 261.178 154.800,261.200 154.867,261.200 157.800 C 261.200 160.733,261.222 160.800,262.200 160.800 L 263.200 160.800 263.200 164.800 L 263.200 168.800 264.200 168.800 L 265.200 168.800 265.200 177.911 C 265.200 185.210,265.315 187.186,265.778 187.848 C 266.096 188.302,266.567 189.557,266.824 190.637 C 267.513 193.528,268.302 195.840,269.202 197.604 C 269.641 198.464,270.000 199.418,270.000 199.724 C 270.000 200.030,270.450 201.127,271.000 202.162 C 271.550 203.196,272.000 204.362,272.000 204.753 C 272.000 205.144,272.428 206.309,272.950 207.342 C 273.473 208.374,274.011 209.906,274.145 210.747 C 274.279 211.587,274.734 213.068,275.155 214.037 C 275.576 215.007,276.046 216.578,276.200 217.528 C 276.574 219.837,277.018 219.911,281.045 218.343 C 285.064 216.777,285.200 216.569,285.200 212.002 C 285.200 209.044,285.254 208.848,286.100 208.728 L 287.000 208.600 287.115 190.200 C 287.239 170.274,287.182 169.200,285.994 169.200 C 285.283 169.200,285.216 168.830,285.112 164.300 C 285.004 159.562,284.970 159.396,284.100 159.272 C 283.275 159.155,283.200 158.933,283.200 156.622 C 283.200 153.117,282.824 151.531,281.939 151.300 C 281.342 151.144,281.199 150.711,281.195 149.053 C 281.187 146.260,280.852 145.200,279.975 145.200 C 279.386 145.200,279.220 144.830,279.122 143.300 C 279.018 141.679,278.868 141.381,278.100 141.272 C 277.347 141.165,277.200 140.896,277.200 139.622 C 277.200 137.090,276.739 135.509,275.939 135.300 C 275.533 135.194,275.200 134.756,275.200 134.327 C 275.200 133.353,274.457 131.903,273.742 131.480 C 273.444 131.304,273.200 130.797,273.200 130.354 C 273.200 129.428,272.501 127.985,271.768 127.400 C 271.493 127.180,271.205 126.640,271.130 126.200 C 271.049 125.732,270.620 125.347,270.096 125.272 C 269.372 125.169,269.200 124.887,269.200 123.805 C 269.200 121.947,268.843 121.200,267.957 121.200 C 267.416 121.200,267.200 120.914,267.200 120.200 C 267.200 119.400,267.000 119.200,266.200 119.200 C 265.377 119.200,265.199 119.005,265.195 118.100 C 265.185 116.216,264.751 115.200,263.953 115.200 C 263.416 115.200,263.200 114.913,263.200 114.200 C 263.200 113.400,263.000 113.200,262.200 113.200 C 261.400 113.200,261.200 113.000,261.200 112.200 C 261.200 111.400,261.000 111.200,260.200 111.200 C 259.475 111.200,259.200 110.985,259.200 110.419 C 259.200 109.192,258.350 107.638,257.539 107.381 C 257.133 107.252,256.800 106.781,256.800 106.336 C 256.800 105.873,256.471 105.439,256.034 105.325 C 255.613 105.215,255.159 104.691,255.026 104.162 C 254.852 103.469,254.507 103.200,253.792 103.200 C 253.001 103.200,252.800 102.998,252.800 102.200 C 252.800 101.400,252.600 101.200,251.800 101.200 C 251.000 101.200,250.800 101.000,250.800 100.200 C 250.800 99.400,250.600 99.200,249.800 99.200 C 249.000 99.200,248.800 99.000,248.800 98.200 C 248.800 97.408,248.598 97.200,247.828 97.200 C 247.124 97.200,246.820 96.951,246.728 96.300 C 246.647 95.730,246.279 95.354,245.725 95.275 C 245.179 95.198,244.802 94.821,244.725 94.275 C 244.647 93.730,244.270 93.353,243.725 93.275 C 243.179 93.198,242.802 92.821,242.725 92.275 C 242.647 91.730,242.270 91.353,241.725 91.275 C 241.179 91.198,240.802 90.821,240.725 90.275 C 240.647 89.730,240.270 89.353,239.725 89.275 C 239.179 89.198,238.802 88.821,238.725 88.275 C 238.647 87.730,238.270 87.353,237.725 87.275 C 237.179 87.198,236.802 86.821,236.725 86.275 C 236.647 85.730,236.270 85.353,235.725 85.275 C 235.179 85.198,234.802 84.821,234.725 84.275 C 234.619 83.536,234.304 83.381,232.700 83.278 C 230.985 83.168,230.800 83.061,230.800 82.178 C 230.800 81.401,230.594 81.200,229.800 81.200 C 229.000 81.200,228.800 81.000,228.800 80.200 C 228.800 79.400,228.600 79.200,227.800 79.200 C 227.000 79.200,226.800 79.000,226.800 78.200 C 226.800 77.408,226.598 77.200,225.828 77.200 C 225.124 77.200,224.820 76.951,224.728 76.300 C 224.619 75.532,224.321 75.382,222.700 75.278 C 220.985 75.168,220.800 75.061,220.800 74.178 C 220.800 73.409,220.592 73.200,219.828 73.200 C 219.124 73.200,218.820 72.951,218.728 72.300 C 218.619 71.532,218.321 71.382,216.700 71.278 C 214.985 71.168,214.800 71.061,214.800 70.178 C 214.800 69.271,214.655 69.200,212.800 69.200 C 210.933 69.200,210.800 69.133,210.800 68.200 C 210.800 67.267,210.667 67.200,208.800 67.200 C 206.933 67.200,206.800 67.133,206.800 66.200 C 206.800 65.400,206.600 65.200,205.800 65.200 C 205.250 65.200,204.800 65.033,204.800 64.829 C 204.800 63.806,203.449 63.200,201.171 63.200 C 198.909 63.200,198.800 63.154,198.800 62.200 C 198.800 61.267,198.667 61.200,196.800 61.200 C 194.933 61.200,194.800 61.133,194.800 60.200 C 194.800 59.222,194.733 59.200,191.800 59.200 C 188.867 59.200,188.800 59.178,188.800 58.200 C 188.800 57.222,188.733 57.200,185.800 57.200 C 184.150 57.200,182.800 57.033,182.800 56.829 C 182.800 55.579,181.491 55.200,177.171 55.200 L 172.800 55.200 172.800 54.200 L 172.800 53.200 165.800 53.200 C 161.759 53.200,158.800 53.043,158.800 52.829 C 158.800 51.327,157.831 51.200,146.371 51.200 L 135.200 51.200 135.200 52.192 M148.166 58.494 C 148.405 58.656,153.235 58.791,158.900 58.794 L 169.200 58.800 169.200 59.800 L 169.200 60.800 173.200 60.800 L 177.200 60.800 177.200 61.800 C 177.200 62.777,177.269 62.800,180.172 62.800 C 182.950 62.800,183.153 62.859,183.272 63.700 C 183.389 64.526,183.639 64.610,186.300 64.718 C 189.067 64.830,189.200 64.879,189.200 65.801 C 189.200 66.727,189.327 66.772,192.300 66.903 C 195.032 67.023,194.889 67.049,191.100 67.120 L 186.800 67.200 186.800 66.200 L 186.800 65.200 180.800 65.200 L 174.800 65.200 174.800 64.196 L 174.800 63.191 158.100 63.296 L 141.400 63.400 141.274 64.289 C 141.150 65.157,141.001 65.182,135.274 65.289 C 129.554 65.397,129.397 65.423,129.274 66.286 C 129.155 67.121,128.928 67.178,125.274 67.286 C 121.624 67.393,121.393 67.451,121.274 68.283 C 121.160 69.087,120.892 69.176,118.274 69.283 C 115.657 69.390,115.389 69.479,115.274 70.283 C 115.160 71.087,114.892 71.176,112.274 71.283 C 109.640 71.390,109.389 71.475,109.272 72.300 C 109.159 73.094,108.913 73.200,107.172 73.200 C 105.335 73.200,105.200 73.269,105.200 74.200 C 105.200 75.133,105.067 75.200,103.200 75.200 C 101.333 75.200,101.200 75.267,101.200 76.200 C 101.200 77.133,101.067 77.200,99.200 77.200 C 97.333 77.200,97.200 77.267,97.200 78.200 C 97.200 79.133,97.067 79.200,95.200 79.200 C 93.345 79.200,93.200 79.271,93.200 80.178 C 93.200 81.061,93.015 81.168,91.300 81.278 C 89.679 81.382,89.381 81.532,89.272 82.300 C 89.180 82.951,88.876 83.200,88.172 83.200 C 87.408 83.200,87.200 83.409,87.200 84.178 C 87.200 85.061,87.015 85.168,85.300 85.278 C 83.679 85.382,83.381 85.532,83.272 86.300 C 83.180 86.951,82.876 87.200,82.172 87.200 C 81.402 87.200,81.200 87.408,81.200 88.200 C 81.200 89.048,81.015 89.200,79.981 89.200 C 79.194 89.200,78.433 89.555,77.835 90.200 C 77.325 90.750,76.524 91.200,76.054 91.200 C 75.410 91.200,75.200 91.446,75.200 92.200 C 75.200 93.000,75.000 93.200,74.200 93.200 C 73.400 93.200,73.200 93.400,73.200 94.200 C 73.200 95.000,73.000 95.200,72.200 95.200 C 71.400 95.200,71.200 95.400,71.200 96.200 C 71.200 97.000,71.000 97.200,70.200 97.200 C 69.400 97.200,69.200 97.400,69.200 98.200 C 69.200 99.000,69.000 99.200,68.200 99.200 C 67.400 99.200,67.200 99.400,67.200 100.200 C 67.200 101.000,67.000 101.200,66.200 101.200 C 65.400 101.200,65.200 101.400,65.200 102.200 C 65.200 103.000,65.000 103.200,64.200 103.200 C 63.400 103.200,63.200 103.400,63.200 104.200 C 63.200 105.000,63.000 105.200,62.200 105.200 C 61.400 105.200,61.200 105.400,61.200 106.200 C 61.200 107.000,61.000 107.200,60.200 107.200 C 59.408 107.200,59.200 107.402,59.200 108.172 C 59.200 108.876,58.951 109.180,58.300 109.272 C 57.532 109.381,57.382 109.679,57.278 111.300 C 57.168 113.015,57.061 113.200,56.178 113.200 C 55.401 113.200,55.200 113.406,55.200 114.200 C 55.200 115.000,55.000 115.200,54.200 115.200 C 53.408 115.200,53.200 115.402,53.200 116.172 C 53.200 116.876,52.951 117.180,52.300 117.272 C 51.532 117.381,51.382 117.679,51.278 119.300 C 51.168 121.015,51.061 121.200,50.178 121.200 C 49.446 121.200,49.200 121.415,49.200 122.054 C 49.200 122.524,48.750 123.325,48.200 123.835 C 47.555 124.433,47.200 125.194,47.200 125.981 C 47.200 127.015,47.048 127.200,46.200 127.200 C 45.267 127.200,45.200 127.333,45.200 129.200 C 45.200 131.067,45.133 131.200,44.200 131.200 C 43.267 131.200,43.200 131.333,43.200 133.200 C 43.200 135.067,43.133 135.200,42.200 135.200 C 41.267 135.200,41.200 135.333,41.200 137.200 C 41.200 139.067,41.133 139.200,40.200 139.200 C 39.222 139.200,39.200 139.267,39.200 142.200 C 39.200 145.133,39.178 145.200,38.200 145.200 C 37.277 145.200,37.200 145.343,37.200 147.054 C 37.200 148.518,36.990 149.103,36.200 149.835 C 35.294 150.674,35.200 151.063,35.200 153.953 C 35.200 156.958,35.147 157.152,34.300 157.272 C 33.430 157.396,33.396 157.563,33.288 162.274 C 33.180 166.964,33.142 167.152,32.288 167.274 L 31.400 167.400 31.289 188.000 C 31.171 210.001,31.181 210.213,32.401 210.600 C 33.129 210.831,33.200 211.207,33.200 214.827 C 33.200 218.798,33.200 218.800,34.200 218.800 C 35.192 218.800,35.199 218.827,35.126 222.100 C 35.071 224.547,35.014 224.857,34.905 223.300 C 34.771 221.390,34.671 221.200,33.797 221.200 C 32.880 221.200,32.830 221.063,32.718 218.300 C 32.610 215.639,32.526 215.389,31.700 215.272 C 30.859 215.153,30.800 214.950,30.800 212.172 C 30.800 209.280,30.773 209.200,29.814 209.200 C 28.842 209.200,28.827 209.147,28.714 205.300 C 28.606 201.600,28.554 201.393,27.700 201.272 C 26.818 201.147,26.800 201.038,26.800 195.801 C 26.800 190.472,26.486 189.200,25.171 189.200 C 24.951 189.200,24.800 184.278,24.800 177.095 L 24.800 164.990 25.700 164.595 C 26.564 164.216,26.604 163.976,26.711 158.526 C 26.819 153.007,26.846 152.849,27.711 152.726 C 28.551 152.607,28.606 152.385,28.714 148.700 C 28.827 144.853,28.842 144.800,29.814 144.800 C 30.774 144.800,30.800 144.722,30.800 141.800 C 30.800 138.867,30.822 138.800,31.800 138.800 C 32.778 138.800,32.800 138.733,32.800 135.800 C 32.800 132.867,32.822 132.800,33.800 132.800 C 34.733 132.800,34.800 132.667,34.800 130.800 C 34.800 128.933,34.867 128.800,35.800 128.800 C 36.733 128.800,36.800 128.667,36.800 126.800 C 36.800 124.933,36.867 124.800,37.800 124.800 C 38.733 124.800,38.800 124.667,38.800 122.800 C 38.800 120.933,38.867 120.800,39.800 120.800 C 40.572 120.800,40.800 120.594,40.800 119.895 C 40.800 119.340,41.148 118.837,41.700 118.595 C 42.395 118.290,42.628 117.813,42.723 116.500 C 42.832 114.998,42.960 114.800,43.823 114.800 C 44.729 114.800,44.800 114.654,44.800 112.800 C 44.800 110.933,44.867 110.800,45.800 110.800 C 46.600 110.800,46.800 110.600,46.800 109.800 C 46.800 109.000,47.000 108.800,47.800 108.800 C 48.592 108.800,48.800 108.598,48.800 107.828 C 48.800 107.124,49.049 106.820,49.700 106.728 C 50.468 106.619,50.618 106.321,50.722 104.700 C 50.832 102.985,50.939 102.800,51.822 102.800 C 52.599 102.800,52.800 102.594,52.800 101.800 C 52.800 101.000,53.000 100.800,53.800 100.800 C 54.600 100.800,54.800 100.600,54.800 99.800 C 54.800 99.000,55.000 98.800,55.800 98.800 C 56.600 98.800,56.800 98.600,56.800 97.800 C 56.800 97.000,57.000 96.800,57.800 96.800 C 58.600 96.800,58.800 96.600,58.800 95.800 C 58.800 95.000,59.000 94.800,59.800 94.800 C 60.600 94.800,60.800 94.600,60.800 93.800 C 60.800 93.000,61.000 92.800,61.800 92.800 C 62.600 92.800,62.800 92.600,62.800 91.800 C 62.800 91.000,63.000 90.800,63.800 90.800 C 64.600 90.800,64.800 90.600,64.800 89.800 C 64.800 89.000,65.000 88.800,65.800 88.800 C 66.600 88.800,66.800 88.600,66.800 87.800 C 66.800 87.000,67.000 86.800,67.800 86.800 C 68.594 86.800,68.800 86.598,68.800 85.823 C 68.800 84.960,68.998 84.832,70.500 84.723 C 71.813 84.628,72.290 84.395,72.595 83.700 C 72.837 83.148,73.340 82.800,73.895 82.800 C 74.594 82.800,74.800 82.572,74.800 81.800 C 74.800 81.000,75.000 80.800,75.800 80.800 C 76.600 80.800,76.800 80.600,76.800 79.800 C 76.800 78.867,76.933 78.800,78.800 78.800 C 80.667 78.800,80.800 78.733,80.800 77.800 C 80.800 77.000,81.000 76.800,81.800 76.800 C 82.600 76.800,82.800 76.600,82.800 75.800 C 82.800 74.867,82.933 74.800,84.800 74.800 C 86.667 74.800,86.800 74.733,86.800 73.800 C 86.800 72.867,86.933 72.800,88.800 72.800 C 90.667 72.800,90.800 72.733,90.800 71.800 C 90.800 70.867,90.933 70.800,92.800 70.800 C 94.667 70.800,94.800 70.733,94.800 69.800 C 94.800 68.867,94.933 68.800,96.800 68.800 C 98.667 68.800,98.800 68.733,98.800 67.800 C 98.800 66.822,98.867 66.800,101.800 66.800 C 104.719 66.800,104.800 66.773,104.800 65.818 C 104.800 64.875,104.919 64.830,107.700 64.718 C 110.361 64.610,110.611 64.526,110.728 63.700 C 110.847 62.859,111.050 62.800,113.828 62.800 C 116.722 62.800,116.800 62.774,116.800 61.812 L 116.800 60.825 121.700 60.712 C 126.426 60.604,126.605 60.568,126.727 59.707 L 126.854 58.814 136.727 58.707 L 146.600 58.600 146.738 57.619 C 146.870 56.690,146.900 56.679,147.304 57.419 C 147.539 57.848,147.927 58.332,148.166 58.494 M198.700 69.076 C 198.315 69.176,197.685 69.176,197.300 69.076 C 196.915 68.975,197.230 68.893,198.000 68.893 C 198.770 68.893,199.085 68.975,198.700 69.076 M202.700 71.076 C 202.315 71.176,201.685 71.176,201.300 71.076 C 200.915 70.975,201.230 70.893,202.000 70.893 C 202.770 70.893,203.085 70.975,202.700 71.076 M249.076 132.700 C 248.975 133.085,248.893 132.770,248.893 132.000 C 248.893 131.230,248.975 130.915,249.076 131.300 C 249.176 131.685,249.176 132.315,249.076 132.700 M251.076 136.700 C 250.975 137.085,250.893 136.770,250.893 136.000 C 250.893 135.230,250.975 134.915,251.076 135.300 C 251.176 135.685,251.176 136.315,251.076 136.700 M254.227 140.800 C 255.063 140.800,255.200 140.988,255.200 142.131 C 255.200 143.382,255.128 143.451,254.000 143.285 C 252.821 143.112,252.801 143.070,252.860 140.855 C 252.893 139.615,252.995 139.095,253.087 139.700 C 253.216 140.553,253.472 140.800,254.227 140.800 M379.246 215.651 C 379.221 216.009,379.470 216.526,379.800 216.800 C 380.215 217.144,380.400 217.159,380.400 216.849 C 380.400 216.602,380.233 216.400,380.029 216.400 C 379.825 216.400,379.576 216.085,379.476 215.700 C 379.321 215.109,379.286 215.102,379.246 215.651 M37.076 228.700 C 36.975 229.085,36.893 228.770,36.893 228.000 C 36.893 227.230,36.975 226.915,37.076 227.300 C 37.176 227.685,37.176 228.315,37.076 228.700 M287.569 251.367 C 286.977 252.012,287.397 252.746,288.030 252.173 C 288.454 251.789,288.800 251.444,288.800 251.405 C 288.800 251.336,287.631 251.299,287.569 251.367 M211.206 258.100 C 211.211 258.763,211.304 258.856,211.559 258.453 C 211.750 258.152,212.152 257.750,212.453 257.559 C 212.856 257.304,212.763 257.211,212.100 257.206 C 211.430 257.202,211.202 257.430,211.206 258.100 M102.700 277.076 C 102.315 277.176,101.685 277.176,101.300 277.076 C 100.915 276.975,101.230 276.893,102.000 276.893 C 102.770 276.893,103.085 276.975,102.700 277.076 M237.481 281.517 C 235.852 283.185,235.626 284.459,236.463 287.254 C 237.358 290.240,239.782 287.406,239.793 283.361 C 239.802 279.986,239.338 279.616,237.481 281.517 M229.333 305.789 C 229.333 306.106,229.573 306.458,229.867 306.570 C 230.160 306.683,230.400 306.623,230.400 306.436 C 230.400 306.250,230.160 305.899,229.867 305.655 C 229.464 305.321,229.333 305.354,229.333 305.789 " stroke="none" fill="#3c3c3c" fill-rule="evenodd"></path><path id="path4" d="" stroke="none" fill="#1009cd0" fill-rule="evenodd"></path></g></svg>