<svg id="svg" version="1.1" width="400" height="227.64227642276424" viewBox="0 0 400 227.64227642276424" xmlns="http://www.w3.org/2000/svg" xmlns:xlink="http://www.w3.org/1999/xlink" ><g id="svgg"><path id="path0" d="M19.806 107.652 L 19.237 107.818 19.176 112.686 C 19.128 116.428,19.181 117.597,19.403 117.738 C 19.563 117.839,28.989 117.923,40.351 117.925 C 60.751 117.928,61.013 117.934,61.293 118.383 C 61.484 118.689,61.931 118.885,62.661 118.981 C 63.257 119.061,63.745 119.232,63.745 119.362 C 63.745 119.491,63.807 119.535,63.884 119.459 C 63.960 119.383,64.394 119.519,64.848 119.763 C 65.302 120.006,65.995 120.205,66.389 120.205 C 66.856 120.205,67.213 120.367,67.417 120.670 C 67.666 121.042,68.066 121.164,69.410 121.275 C 70.748 121.386,71.113 121.496,71.196 121.813 C 71.307 122.238,71.904 122.473,72.884 122.478 C 73.217 122.480,73.547 122.640,73.622 122.837 C 73.697 123.033,73.862 123.130,73.988 123.052 C 74.114 122.974,74.217 122.996,74.217 123.102 C 74.217 123.208,74.397 123.309,74.616 123.326 C 76.039 123.437,77.110 123.733,77.405 124.097 C 77.650 124.400,78.194 124.562,79.333 124.671 C 80.623 124.795,80.998 124.924,81.341 125.360 C 81.653 125.756,81.991 125.896,82.633 125.896 C 83.156 125.896,83.550 126.020,83.622 126.206 C 83.754 126.552,85.430 127.035,86.498 127.035 C 86.952 127.035,87.194 127.149,87.194 127.363 C 87.194 127.815,87.471 127.948,88.728 128.101 C 90.267 128.288,90.239 128.282,90.552 128.477 C 90.709 128.575,90.837 128.578,90.837 128.484 C 90.837 128.391,90.970 128.495,91.132 128.717 C 91.294 128.940,91.830 129.176,92.323 129.242 C 92.815 129.308,93.374 129.530,93.564 129.735 C 93.961 130.163,94.128 130.211,95.821 130.377 C 96.693 130.463,97.176 130.637,97.438 130.961 C 97.766 131.366,98.155 131.436,100.641 131.539 C 102.696 131.623,103.535 131.742,103.704 131.974 C 103.832 132.149,104.344 132.364,104.843 132.452 C 106.712 132.783,295.400 132.640,295.800 132.308 C 296.002 132.141,296.274 132.070,296.404 132.151 C 296.535 132.232,296.642 132.138,296.642 131.943 C 296.642 131.650,296.973 131.588,298.545 131.588 C 301.360 131.588,302.600 131.375,302.732 130.870 C 302.816 130.550,303.067 130.446,303.783 130.434 C 305.491 130.406,306.313 130.221,306.659 129.784 C 306.895 129.486,307.423 129.308,308.367 129.208 C 309.159 129.124,309.992 128.876,310.349 128.618 C 310.689 128.373,311.150 128.172,311.374 128.170 C 312.188 128.164,312.766 127.894,312.877 127.469 C 312.963 127.141,313.205 127.030,313.866 127.017 C 314.347 127.008,314.946 126.957,315.196 126.906 C 315.447 126.854,315.882 126.788,316.164 126.760 C 316.446 126.731,316.735 126.525,316.806 126.302 C 316.894 126.025,317.183 125.887,317.716 125.868 C 318.707 125.832,318.732 125.826,319.379 125.467 C 319.698 125.290,319.855 125.270,319.764 125.418 C 319.530 125.796,319.734 125.721,320.319 125.213 C 320.607 124.963,321.007 124.750,321.207 124.741 C 322.378 124.687,322.856 124.450,323.104 123.803 C 323.137 123.716,323.736 123.623,324.434 123.595 C 325.981 123.534,326.693 123.293,326.693 122.830 C 326.693 122.604,326.912 122.478,327.319 122.473 C 328.688 122.454,329.787 122.185,330.174 121.775 C 330.398 121.537,330.880 121.343,331.245 121.343 C 332.100 121.343,333.068 120.901,333.068 120.510 C 333.068 120.303,333.379 120.204,334.035 120.204 C 335.311 120.202,336.704 119.803,336.861 119.394 C 336.939 119.190,337.308 119.067,337.839 119.067 C 338.876 119.067,340.174 118.648,340.421 118.233 C 340.571 117.982,344.133 117.928,360.569 117.925 C 372.781 117.923,380.668 117.837,380.876 117.705 C 381.550 117.278,381.364 108.444,380.669 107.882 C 379.871 107.236,310.037 107.333,308.154 107.982 C 307.537 108.195,306.000 108.427,304.739 108.496 C 303.479 108.566,301.730 108.766,300.854 108.942 C 294.361 110.239,271.277 110.243,264.314 108.947 C 263.375 108.772,261.716 108.570,260.627 108.498 C 259.539 108.425,257.951 108.189,257.099 107.974 C 255.699 107.620,253.820 107.581,237.678 107.576 C 218.538 107.569,218.241 107.585,214.115 108.824 C 211.652 109.564,208.486 109.674,205.421 109.127 C 203.562 108.795,203.185 108.788,202.335 109.070 C 201.672 109.290,200.389 109.383,198.272 109.365 C 195.175 109.340,195.025 109.316,189.414 107.977 C 187.027 107.408,153.217 107.350,150.598 107.911 C 148.596 108.340,131.745 108.357,129.880 107.932 C 129.174 107.771,124.757 107.619,118.240 107.531 L 107.737 107.389 106.629 107.935 C 105.179 108.649,96.821 108.697,93.113 108.013 C 90.831 107.592,21.193 107.249,19.806 107.652 M303.017 118.143 C 303.017 118.260,302.898 118.430,302.754 118.519 C 302.581 118.626,302.548 118.572,302.657 118.362 C 302.748 118.186,302.684 118.211,302.513 118.417 C 302.326 118.643,301.714 118.840,300.962 118.914 C 300.080 119.002,299.609 119.175,299.337 119.512 C 298.976 119.957,298.251 120.135,296.594 120.186 C 296.254 120.196,295.791 120.404,295.564 120.648 C 295.337 120.892,294.795 121.151,294.360 121.225 C 293.925 121.298,293.291 121.560,292.952 121.806 C 292.125 122.406,110.791 122.527,110.327 121.928 C 110.042 121.561,109.290 121.413,106.659 121.206 C 105.657 121.127,104.784 120.978,104.719 120.875 C 104.525 120.570,103.402 120.213,102.264 120.095 C 101.677 120.035,101.161 119.875,101.116 119.739 C 100.991 119.366,99.692 118.908,98.416 118.789 C 98.265 118.775,98.192 118.682,98.254 118.582 C 98.315 118.482,98.029 118.304,97.618 118.185 C 97.144 118.048,134.615 117.962,199.943 117.949 C 264.212 117.936,303.017 118.009,303.017 118.143 " stroke="none" fill="#b3b3b3" fill-rule="evenodd"></path><path id="path1" d="M137.735 74.709 C 137.735 74.814,137.402 74.902,136.995 74.904 C 136.433 74.907,136.337 74.961,136.596 75.128 C 136.900 75.324,136.900 75.353,136.596 75.387 C 136.041 75.449,135.822 75.504,135.401 75.687 C 135.182 75.782,134.848 75.800,134.659 75.728 C 134.131 75.525,133.238 75.957,133.067 76.497 C 132.973 76.791,132.786 76.934,132.592 76.859 C 132.415 76.791,132.271 76.835,132.271 76.956 C 132.271 77.078,132.140 77.177,131.980 77.177 C 131.626 77.177,130.889 77.996,131.075 78.182 C 131.149 78.255,131.083 78.315,130.929 78.315 C 130.776 78.315,130.721 78.429,130.806 78.567 C 130.912 78.739,130.799 78.768,130.450 78.657 C 130.101 78.546,129.987 78.575,130.093 78.746 C 130.179 78.885,130.140 79.011,130.008 79.027 C 129.875 79.042,129.639 79.068,129.482 79.084 C 129.305 79.101,129.172 79.553,129.130 80.279 C 129.068 81.333,129.010 81.446,128.526 81.446 C 127.991 81.446,127.123 81.919,127.065 82.242 C 127.048 82.336,127.035 82.925,127.035 83.552 C 127.035 84.178,126.958 84.678,126.864 84.663 C 126.285 84.571,125.435 84.723,125.543 84.898 C 125.614 85.013,125.559 85.144,125.421 85.190 C 125.284 85.236,125.160 85.654,125.147 86.119 C 125.124 86.944,124.622 87.418,124.108 87.100 C 123.880 86.960,123.304 87.565,123.088 88.172 C 123.008 88.397,122.808 88.551,122.643 88.514 C 122.478 88.477,122.038 88.702,121.665 89.015 C 120.952 89.615,120.888 89.719,120.888 90.268 C 120.888 90.455,120.811 90.597,120.717 90.582 C 119.933 90.458,119.339 90.672,119.118 91.155 C 118.981 91.456,118.735 91.696,118.570 91.689 C 117.780 91.654,117.490 91.788,117.329 92.260 C 117.089 92.963,117.078 93.019,117.046 93.812 C 117.023 94.380,116.940 94.485,116.599 94.377 C 115.560 94.047,114.256 99.704,115.233 100.307 C 115.327 100.365,115.354 100.544,115.292 100.705 C 115.108 101.186,116.032 101.882,116.424 101.557 C 116.852 101.202,116.997 101.473,117.071 102.762 C 117.104 103.340,117.201 103.813,117.287 103.813 C 117.372 103.813,117.508 104.020,117.588 104.272 C 117.668 104.524,117.828 104.672,117.945 104.600 C 118.061 104.528,118.156 104.595,118.156 104.748 C 118.156 104.902,118.221 104.962,118.301 104.882 C 118.381 104.803,118.725 104.936,119.067 105.179 C 119.408 105.422,119.752 105.556,119.832 105.476 C 119.912 105.396,119.979 105.476,119.981 105.654 C 119.984 105.919,120.024 105.916,120.208 105.635 C 120.433 105.292,120.710 105.493,120.949 106.169 C 120.986 106.275,121.500 106.417,122.091 106.483 C 122.681 106.550,123.166 106.668,123.168 106.746 C 123.185 107.418,123.710 107.575,126.400 107.714 C 127.939 107.794,131.144 107.983,133.523 108.136 C 138.218 108.436,149.031 108.301,150.598 107.922 C 151.098 107.801,152.305 107.684,153.278 107.663 C 154.251 107.641,155.107 107.527,155.179 107.410 C 155.251 107.293,155.434 107.244,155.584 107.302 C 155.921 107.431,156.824 106.970,156.841 106.659 C 156.848 106.534,157.279 106.414,157.798 106.394 C 158.682 106.358,159.240 105.989,159.000 105.600 C 158.942 105.507,159.252 105.363,159.690 105.281 C 160.166 105.191,160.538 104.967,160.616 104.721 C 160.687 104.495,160.902 104.251,161.093 104.177 C 161.286 104.103,161.368 103.927,161.277 103.780 C 161.175 103.615,161.213 103.577,161.376 103.678 C 161.521 103.767,161.639 103.735,161.639 103.606 C 161.639 103.478,161.782 103.427,161.958 103.494 C 162.133 103.562,162.353 103.491,162.448 103.338 C 162.565 103.148,162.519 103.114,162.300 103.229 C 162.125 103.322,162.206 103.209,162.481 102.979 C 163.303 102.291,163.168 95.268,162.322 94.767 C 161.790 94.452,161.782 94.453,162.195 94.796 C 162.438 94.997,162.516 95.162,162.368 95.162 C 162.219 95.162,161.970 94.957,161.814 94.707 C 161.658 94.456,161.401 94.252,161.243 94.252 C 161.085 94.252,160.968 94.175,160.983 94.081 C 161.058 93.610,160.902 93.174,160.476 92.658 C 160.218 92.345,160.072 92.217,160.153 92.373 C 160.332 92.720,160.158 92.734,159.575 92.422 C 159.272 92.260,159.135 91.945,159.135 91.411 C 159.135 90.985,159.025 90.568,158.892 90.486 C 158.758 90.403,158.701 90.198,158.766 90.030 C 158.845 89.823,158.655 89.703,158.170 89.655 C 157.273 89.566,157.177 89.239,157.006 85.676 C 156.935 84.195,156.872 82.957,156.867 82.925 C 156.862 82.894,156.548 82.869,156.168 82.869 C 155.397 82.869,155.285 82.697,155.206 81.389 C 155.176 80.888,155.100 80.427,155.037 80.364 C 154.974 80.302,154.810 80.046,154.673 79.795 C 154.523 79.523,154.134 79.311,153.705 79.268 C 153.063 79.205,152.988 79.120,152.988 78.460 C 152.988 78.055,152.860 77.585,152.703 77.417 C 152.473 77.169,152.480 77.145,152.739 77.293 C 152.946 77.411,153.004 77.388,152.905 77.227 C 152.820 77.090,152.574 76.973,152.357 76.967 C 151.349 76.937,151.114 76.839,150.936 76.373 C 150.639 75.592,150.606 75.588,146.485 75.912 C 144.036 76.104,143.803 76.030,143.183 74.871 C 142.929 74.397,137.735 74.242,137.735 74.709 M191.910 83.185 C 191.687 83.397,190.726 83.547,189.001 83.640 C 186.520 83.773,185.789 83.957,185.134 84.612 C 184.966 84.780,184.535 84.917,184.178 84.917 C 183.820 84.917,183.381 85.064,183.203 85.242 C 183.024 85.421,182.504 85.723,182.048 85.913 C 181.591 86.104,181.218 86.415,181.218 86.605 C 181.218 86.795,181.001 87.067,180.735 87.209 C 180.458 87.357,180.313 87.369,180.394 87.238 C 180.476 87.105,180.296 87.119,179.963 87.272 C 179.445 87.510,178.939 88.867,179.122 89.528 C 179.163 89.676,178.810 89.744,178.340 89.678 C 177.295 89.532,176.662 96.558,177.632 97.528 C 177.851 97.747,178.031 98.028,178.031 98.151 C 178.031 98.275,178.138 98.310,178.268 98.229 C 178.784 97.911,179.169 98.631,179.170 99.914 C 179.171 101.416,179.797 102.675,180.543 102.675 C 180.861 102.675,181.091 102.896,181.250 103.352 C 181.380 103.724,181.810 104.233,182.206 104.482 C 182.602 104.731,183.167 105.246,183.463 105.626 C 183.838 106.107,184.198 106.318,184.647 106.318 C 185.022 106.318,185.391 106.485,185.525 106.716 C 185.653 106.935,185.760 107.034,185.764 106.935 C 185.768 106.836,185.914 106.887,186.089 107.049 C 186.263 107.210,186.360 107.419,186.303 107.513 C 186.246 107.607,186.620 107.684,187.134 107.684 C 188.045 107.684,188.618 107.795,193.036 108.835 C 195.677 109.457,200.779 109.586,202.335 109.070 C 203.185 108.788,203.562 108.795,205.421 109.127 C 208.006 109.588,210.151 109.595,212.408 109.149 C 213.347 108.964,214.576 108.721,215.139 108.610 C 215.703 108.498,216.862 108.245,217.715 108.046 C 218.568 107.846,219.555 107.684,219.910 107.684 C 220.405 107.684,220.587 107.553,220.695 107.123 C 220.799 106.706,221.071 106.498,221.754 106.314 C 222.372 106.148,222.738 105.894,222.873 105.538 C 222.984 105.247,223.448 104.778,223.904 104.496 C 224.361 104.214,224.827 103.740,224.940 103.443 C 225.065 103.114,225.330 102.903,225.617 102.903 C 226.153 102.903,227.266 101.819,227.065 101.493 C 226.724 100.941,227.230 99.699,227.846 99.576 C 228.859 99.373,229.004 98.703,228.991 94.288 C 228.977 89.828,228.776 88.905,227.765 88.651 C 227.373 88.553,227.144 88.307,227.062 87.899 C 226.894 87.061,226.273 86.297,225.665 86.180 C 224.968 86.046,224.701 85.857,224.701 85.498 C 224.701 85.142,224.207 84.917,223.423 84.917 C 223.117 84.917,222.810 84.772,222.741 84.594 C 222.338 83.543,208.897 83.150,207.259 84.141 C 206.931 84.340,206.703 84.358,206.545 84.200 C 206.386 84.041,206.256 84.057,206.137 84.250 C 206.017 84.444,206.063 84.480,206.282 84.367 C 206.458 84.275,206.403 84.362,206.160 84.559 C 205.917 84.756,205.596 84.917,205.446 84.917 C 205.296 84.917,205.178 85.046,205.184 85.202 C 205.305 88.477,205.179 88.665,202.651 88.967 C 200.168 89.263,199.659 88.970,199.659 87.246 C 199.659 86.511,199.499 85.441,199.304 84.868 C 198.903 83.691,198.820 83.656,196.242 83.573 C 195.171 83.538,194.470 83.404,194.260 83.194 C 193.844 82.778,192.345 82.772,191.910 83.185 M257.257 108.013 C 257.945 108.195,259.431 108.407,260.558 108.486 C 261.685 108.564,263.375 108.772,264.314 108.947 C 271.269 110.243,294.360 110.240,300.854 108.942 C 301.730 108.766,303.472 108.566,304.724 108.497 C 305.976 108.428,307.462 108.218,308.025 108.030 C 308.763 107.784,308.852 107.716,308.346 107.787 C 307.959 107.841,306.576 107.950,305.272 108.029 C 303.969 108.109,300.941 108.429,298.543 108.741 C 293.080 109.452,270.771 109.464,266.591 108.758 C 265.401 108.557,263.096 108.285,261.468 108.154 C 259.841 108.023,257.945 107.863,257.257 107.799 L 256.005 107.683 257.257 108.013 " stroke="none" fill="#90b73f" fill-rule="evenodd"></path><path id="path2" d="M347.646 53.948 C 346.681 54.891,346.703 55.977,347.717 57.487 C 351.128 62.572,349.998 73.778,345.453 79.940 C 345.152 80.347,344.906 80.794,344.906 80.933 C 344.906 81.072,344.540 81.539,344.091 81.970 C 343.643 82.402,343.147 83.062,342.988 83.438 C 342.830 83.813,342.420 84.270,342.079 84.453 C 341.737 84.635,341.319 85.116,341.150 85.521 C 340.952 85.994,340.511 86.426,339.915 86.730 C 339.306 87.040,338.987 87.357,338.987 87.649 C 338.987 87.938,338.676 88.254,338.104 88.546 C 337.619 88.793,337.163 89.149,337.091 89.337 C 337.019 89.524,336.545 89.889,336.038 90.148 C 335.445 90.451,335.117 90.774,335.117 91.055 C 335.117 91.397,334.898 91.524,334.113 91.642 C 333.394 91.750,333.077 91.916,332.995 92.227 C 332.926 92.492,332.601 92.717,332.163 92.805 C 331.767 92.884,331.285 93.191,331.091 93.486 C 330.897 93.782,330.551 94.024,330.321 94.024 C 330.092 94.024,329.628 94.280,329.290 94.593 C 328.952 94.906,328.440 95.162,328.153 95.162 C 327.865 95.162,327.489 95.363,327.317 95.608 C 327.135 95.868,326.608 96.117,326.052 96.206 C 325.327 96.322,325.100 96.461,325.100 96.785 C 325.100 97.109,324.932 97.211,324.402 97.211 C 323.675 97.211,322.936 97.521,322.413 98.044 C 322.245 98.212,321.980 98.349,321.824 98.349 C 321.209 98.349,319.174 99.065,319.283 99.242 C 319.347 99.346,318.966 99.499,318.436 99.582 C 317.843 99.675,317.322 99.927,317.080 100.237 C 316.863 100.513,316.684 100.608,316.681 100.447 C 316.677 100.231,316.564 100.215,316.245 100.386 C 316.008 100.513,315.225 100.686,314.507 100.770 C 313.506 100.888,313.175 101.022,313.090 101.344 C 313.012 101.644,312.769 101.764,312.242 101.764 C 310.618 101.764,309.331 102.058,309.228 102.451 C 309.142 102.780,308.698 102.864,306.356 102.994 C 303.988 103.126,303.530 103.214,303.204 103.599 C 302.970 103.876,302.573 104.037,302.179 104.015 C 299.912 103.890,295.871 104.357,295.434 104.794 C 294.693 105.534,271.727 105.545,270.347 104.805 C 269.587 104.398,268.899 104.293,266.193 104.176 C 263.682 104.066,262.757 103.938,262.095 103.607 C 261.535 103.326,260.505 103.131,259.105 103.041 C 257.607 102.945,256.758 102.775,256.260 102.474 C 255.862 102.233,254.848 101.972,253.957 101.880 C 253.041 101.786,252.122 101.546,251.794 101.315 C 251.475 101.090,250.551 100.842,249.696 100.752 C 248.729 100.651,247.963 100.430,247.609 100.152 C 247.301 99.910,246.580 99.648,246.006 99.569 C 245.432 99.490,244.963 99.307,244.963 99.163 C 244.963 98.908,243.295 98.349,242.537 98.349 C 242.334 98.349,242.020 98.170,241.839 97.951 C 241.527 97.572,241.517 97.572,241.636 97.951 C 241.717 98.206,241.641 98.349,241.427 98.349 C 241.243 98.349,241.093 98.193,241.093 98.002 C 241.093 97.069,235.923 96.872,235.259 97.780 C 234.624 98.648,235.203 99.705,236.315 99.712 C 236.688 99.714,236.965 99.894,237.112 100.228 C 237.267 100.582,237.569 100.762,238.088 100.812 C 238.623 100.864,238.913 101.044,239.092 101.438 C 239.281 101.852,239.524 101.992,240.051 101.992 C 240.565 101.992,240.818 102.131,240.982 102.504 C 241.155 102.898,241.427 103.033,242.160 103.086 C 242.942 103.143,243.126 103.245,243.184 103.655 C 243.243 104.066,243.427 104.167,244.223 104.225 C 244.870 104.272,245.191 104.401,245.191 104.615 C 245.191 105.059,245.922 105.407,246.855 105.407 C 248.205 105.407,249.014 105.658,249.133 106.114 C 249.221 106.451,249.455 106.545,250.199 106.545 C 250.961 106.545,251.176 106.637,251.272 107.001 C 251.342 107.270,251.588 107.461,251.876 107.468 C 255.093 107.548,264.102 108.338,266.591 108.758 C 270.774 109.465,293.040 109.451,298.650 108.739 C 302.768 108.216,306.107 107.925,312.299 107.548 C 314.202 107.433,314.678 107.332,314.852 107.007 C 315.014 106.704,315.453 106.580,316.678 106.492 C 317.904 106.405,318.415 106.260,318.807 105.892 C 319.091 105.625,319.624 105.404,319.992 105.402 C 321.080 105.393,322.450 105.003,322.728 104.623 C 322.890 104.401,323.340 104.269,323.929 104.269 C 324.448 104.269,324.872 104.174,324.872 104.057 C 324.872 103.611,325.618 103.130,326.311 103.129 C 327.433 103.127,328.742 102.693,328.742 102.323 C 328.742 102.097,328.993 101.992,329.530 101.992 C 330.070 101.992,330.481 101.818,330.839 101.438 C 331.153 101.103,331.676 100.855,332.157 100.812 C 332.783 100.755,332.969 100.630,333.027 100.228 C 333.088 99.795,333.239 99.715,334.001 99.715 C 334.653 99.715,334.944 99.605,335.050 99.317 C 335.251 98.774,335.573 98.585,336.308 98.581 C 336.776 98.578,336.964 98.440,337.069 98.020 C 337.181 97.576,337.376 97.450,338.041 97.394 C 338.698 97.340,338.888 97.220,338.944 96.825 C 339.003 96.415,339.186 96.313,339.969 96.256 C 340.701 96.203,340.974 96.068,341.147 95.674 C 341.301 95.323,341.567 95.162,341.995 95.162 C 342.409 95.162,342.744 94.971,342.992 94.593 C 343.212 94.257,343.581 94.024,343.892 94.024 C 344.482 94.024,345.134 93.478,345.134 92.983 C 345.134 92.804,345.242 92.658,345.374 92.658 C 345.815 92.658,347.183 91.411,347.183 91.007 C 347.183 90.723,347.365 90.609,347.820 90.609 C 348.546 90.609,349.004 90.245,349.004 89.668 C 349.004 89.451,349.234 89.204,349.516 89.118 C 350.292 88.883,351.053 88.088,351.053 87.511 C 351.053 87.176,351.231 86.943,351.565 86.841 C 352.449 86.572,352.831 86.056,352.987 84.926 C 353.133 83.864,353.164 83.827,354.026 83.690 C 354.941 83.543,355.040 83.398,355.201 81.958 C 355.245 81.561,355.424 81.366,355.791 81.314 C 356.775 81.175,357.198 80.053,357.199 77.575 C 357.200 75.388,357.208 75.356,357.743 75.356 C 358.819 75.356,359.124 74.443,359.213 70.950 C 359.329 66.405,359.219 65.872,358.097 65.535 L 357.200 65.267 357.200 63.610 C 357.200 61.534,356.959 60.897,355.951 60.302 C 355.260 59.894,355.151 59.712,355.151 58.970 C 355.151 58.000,354.857 57.665,353.828 57.459 C 353.214 57.336,353.093 57.190,352.933 56.376 C 352.767 55.533,352.660 55.413,351.900 55.225 C 351.380 55.095,351.053 54.878,351.053 54.663 C 351.053 53.354,348.748 52.871,347.646 53.948 M333.146 59.088 C 332.941 59.622,333.163 59.684,333.477 59.181 C 333.653 58.900,333.668 58.736,333.518 58.736 C 333.388 58.736,333.220 58.895,333.146 59.088 M152.109 67.782 C 151.593 67.845,151.306 68.019,151.228 68.315 C 151.155 68.597,150.915 68.754,150.556 68.754 C 149.830 68.754,149.118 69.142,149.118 69.538 C 149.118 69.728,148.748 69.914,148.179 70.010 C 147.554 70.116,147.205 70.305,147.134 70.578 C 147.068 70.829,146.724 71.044,146.241 71.135 C 145.689 71.238,145.391 71.450,145.241 71.845 C 145.123 72.155,144.846 72.475,144.625 72.557 C 143.097 73.126,142.678 73.992,143.367 75.159 C 144.043 76.303,148.915 76.325,149.077 75.185 C 149.137 74.759,149.292 74.673,149.990 74.673 C 150.644 74.673,150.881 74.559,151.056 74.161 C 151.209 73.812,151.536 73.612,152.077 73.534 C 152.672 73.450,152.892 73.297,152.943 72.936 C 153.002 72.526,153.200 72.435,154.207 72.351 C 155.069 72.280,155.696 72.050,156.456 71.527 C 157.035 71.129,157.630 70.803,157.778 70.803 C 158.831 70.803,159.711 68.113,158.775 67.753 C 158.388 67.605,153.377 67.627,152.109 67.782 M174.482 72.380 C 173.508 72.617,173.250 72.811,173.250 73.302 C 173.250 74.049,173.514 74.445,174.014 74.449 C 174.752 74.454,174.990 74.703,175.165 75.652 C 175.252 76.128,175.446 76.555,175.596 76.601 C 175.746 76.646,176.150 76.745,176.494 76.821 C 176.838 76.896,177.120 77.106,177.120 77.287 C 177.120 77.703,177.824 78.088,178.585 78.088 C 178.957 78.088,179.169 78.214,179.169 78.435 C 179.169 78.926,180.118 79.226,181.672 79.226 C 182.884 79.226,183.014 79.273,183.080 79.738 C 183.147 80.210,183.312 80.264,185.140 80.416 C 186.684 80.545,187.229 80.684,187.587 81.042 C 188.024 81.479,188.331 81.503,193.512 81.503 L 198.976 81.503 198.976 82.511 C 198.976 83.376,198.903 83.534,198.463 83.619 C 197.963 83.715,197.962 83.718,198.442 83.748 C 199.089 83.789,199.659 85.425,199.659 87.246 C 199.659 88.970,200.168 89.263,202.651 88.967 C 204.981 88.688,205.116 88.580,205.157 86.958 C 205.175 86.212,205.201 85.472,205.213 85.316 C 205.232 85.088,206.158 84.499,206.716 84.360 C 206.779 84.345,207.035 84.225,207.285 84.095 C 207.536 83.964,208.201 83.831,208.765 83.798 C 209.328 83.765,209.841 83.683,209.903 83.615 C 209.966 83.548,209.253 83.545,208.319 83.609 C 207.384 83.673,206.584 83.834,206.540 83.967 C 206.495 84.100,206.297 84.147,206.099 84.071 C 205.887 83.989,205.613 84.106,205.431 84.355 C 205.136 84.758,205.122 84.755,205.122 84.288 C 205.122 83.914,205.302 83.766,205.892 83.655 C 206.697 83.504,207.168 82.855,207.174 81.890 C 207.181 80.782,207.427 80.391,208.162 80.320 C 208.646 80.273,208.952 80.084,209.104 79.738 C 209.257 79.389,209.524 79.226,209.944 79.226 C 210.323 79.226,210.697 79.031,210.916 78.719 C 211.237 78.260,211.516 78.200,213.831 78.088 C 217.077 77.931,216.961 78.021,216.961 75.678 C 216.961 73.819,216.940 73.743,216.377 73.529 C 215.101 73.044,211.864 73.407,211.364 74.091 C 211.177 74.347,210.701 74.446,209.650 74.448 C 207.811 74.452,207.221 74.612,207.050 75.153 C 206.951 75.463,206.698 75.583,206.145 75.583 C 205.723 75.583,205.314 75.686,205.236 75.811 C 205.159 75.936,204.912 76.039,204.688 76.039 C 204.465 76.039,204.045 76.244,203.756 76.494 C 203.468 76.744,203.160 76.949,203.073 76.949 C 202.987 76.949,202.679 76.744,202.390 76.494 C 202.102 76.244,201.676 76.039,201.445 76.039 C 201.192 76.039,201.024 75.876,201.024 75.629 C 201.024 75.070,200.583 74.673,199.963 74.673 C 199.680 74.673,199.250 74.459,199.007 74.198 C 198.527 73.683,197.292 73.321,195.987 73.312 C 195.387 73.308,195.068 73.167,194.821 72.795 L 194.481 72.282 184.833 72.245 C 179.527 72.225,174.869 72.285,174.482 72.380 M295.747 72.947 C 295.531 73.207,295.557 73.259,295.877 73.212 C 296.096 73.179,296.316 73.034,296.364 72.888 C 296.488 72.518,296.070 72.558,295.747 72.947 M136.012 75.153 C 135.793 75.508,136.060 75.651,136.490 75.411 C 136.833 75.219,136.836 75.181,136.515 75.058 C 136.317 74.982,136.091 75.025,136.012 75.153 M131.645 76.956 C 131.363 77.070,131.136 77.345,131.140 77.568 C 131.146 77.953,131.159 77.953,131.379 77.575 C 131.506 77.356,131.759 77.177,131.941 77.177 C 132.122 77.177,132.271 77.075,132.271 76.949 C 132.271 76.824,132.245 76.728,132.214 76.736 C 132.183 76.744,131.927 76.843,131.645 76.956 M154.660 79.793 C 154.805 80.105,155.000 80.362,155.094 80.362 C 155.325 80.365,155.309 80.189,155.029 79.666 C 154.681 79.017,154.352 79.130,154.660 79.793 M155.378 82.641 C 155.456 82.766,155.795 82.861,156.132 82.853 C 156.679 82.838,156.696 82.816,156.289 82.641 C 155.657 82.369,155.211 82.369,155.378 82.641 M191.919 82.617 C 191.607 82.704,191.318 82.949,191.276 83.163 C 191.184 83.643,191.537 83.669,191.918 83.210 C 192.079 83.016,192.575 82.869,193.068 82.869 C 193.545 82.869,194.088 83.022,194.276 83.210 C 194.710 83.644,194.878 83.642,194.878 83.204 C 194.878 82.555,193.280 82.238,191.919 82.617 M185.600 83.786 C 185.319 83.900,185.088 84.156,185.088 84.357 C 185.088 84.689,185.121 84.690,185.446 84.365 C 185.791 84.020,186.157 83.893,187.365 83.703 C 187.699 83.651,187.558 83.607,187.023 83.597 C 186.522 83.588,185.882 83.673,185.600 83.786 M219.484 83.639 C 219.536 83.687,220.107 83.789,220.752 83.865 C 222.195 84.036,222.582 84.178,222.741 84.594 C 222.810 84.772,223.117 84.917,223.423 84.917 C 224.207 84.917,224.701 85.142,224.701 85.498 C 224.701 85.857,224.968 86.046,225.665 86.180 C 226.273 86.297,226.894 87.061,227.062 87.899 C 227.144 88.307,227.373 88.553,227.765 88.651 C 228.126 88.742,228.468 89.075,228.668 89.532 L 228.990 90.268 229.008 89.555 C 229.029 88.765,228.762 88.468,227.832 88.246 C 227.352 88.131,227.205 87.961,227.205 87.516 C 227.205 86.594,226.805 86.087,225.951 85.926 C 225.508 85.843,225.157 85.641,225.157 85.469 C 225.157 85.075,224.439 84.690,223.707 84.690 C 223.351 84.690,223.088 84.530,223.003 84.263 C 222.915 83.987,222.568 83.787,222.020 83.697 C 221.082 83.542,219.335 83.502,219.484 83.639 M125.815 84.164 C 125.485 84.494,125.709 84.694,126.352 84.645 C 126.727 84.616,127.035 84.483,127.035 84.350 C 127.035 84.081,126.048 83.931,125.815 84.164 M182.388 85.001 C 181.543 85.307,180.990 85.922,180.990 86.555 C 180.990 86.931,180.733 87.076,180.227 86.986 C 179.696 86.890,179.171 87.265,179.195 87.722 C 179.216 88.107,179.245 88.129,179.326 87.820 C 179.411 87.496,179.881 87.287,180.137 87.460 C 180.330 87.591,181.218 86.890,181.218 86.605 C 181.218 86.415,181.602 86.100,182.072 85.905 C 182.541 85.709,182.992 85.444,183.072 85.315 C 183.153 85.186,183.614 85.005,184.097 84.912 L 184.974 84.742 184.064 84.733 C 183.563 84.728,182.809 84.849,182.388 85.001 M63.574 86.063 C 63.293 86.176,63.062 86.426,63.062 86.618 C 63.062 86.840,62.851 86.966,62.478 86.966 C 61.183 86.966,61.013 87.256,61.013 89.467 L 61.013 91.496 61.774 92.077 C 62.193 92.397,62.617 92.658,62.716 92.658 C 62.815 92.658,63.133 92.914,63.423 93.227 C 63.714 93.540,64.161 93.796,64.417 93.796 C 64.808 93.796,64.889 93.952,64.918 94.764 L 64.952 95.731 65.088 94.707 C 65.222 93.700,65.242 93.680,66.198 93.553 C 68.612 93.230,69.899 90.381,67.630 90.381 C 66.612 90.381,66.980 88.375,68.014 88.289 C 68.941 88.212,69.467 86.504,68.711 86.025 C 68.312 85.772,64.223 85.802,63.574 86.063 M157.143 87.536 C 157.146 88.036,157.193 88.215,157.247 87.931 C 157.301 87.648,157.299 87.238,157.242 87.021 C 157.185 86.803,157.141 87.035,157.143 87.536 M121.473 88.690 C 120.877 89.287,121.074 89.590,121.685 89.015 C 121.998 88.721,122.254 88.447,122.254 88.407 C 122.254 88.205,121.790 88.373,121.473 88.690 M178.875 89.015 C 178.804 89.288,178.565 89.471,178.280 89.471 C 177.984 89.471,177.796 89.622,177.785 89.869 C 177.774 90.109,177.721 90.154,177.652 89.982 C 177.404 89.367,177.121 90.011,177.146 91.135 C 177.171 92.233,177.184 92.259,177.331 91.505 C 177.485 90.719,178.154 89.526,178.377 89.641 C 178.757 89.839,179.076 89.619,179.117 89.129 C 179.173 88.446,179.041 88.383,178.875 89.015 M157.427 89.471 C 157.505 89.596,157.793 89.697,158.067 89.695 C 158.472 89.692,158.502 89.650,158.224 89.471 C 157.776 89.181,157.248 89.181,157.427 89.471 M159.463 92.324 C 159.996 92.727,160.195 92.742,160.409 92.395 C 160.509 92.232,160.471 92.194,160.308 92.295 C 160.164 92.384,160.046 92.349,160.046 92.216 C 160.046 92.083,159.815 91.978,159.533 91.982 C 159.034 91.989,159.032 91.998,159.463 92.324 M86.518 95.227 C 86.506 95.523,87.231 96.528,87.457 96.528 C 87.573 96.528,87.557 96.400,87.423 96.244 C 87.289 96.087,87.032 95.754,86.852 95.504 C 86.672 95.253,86.522 95.129,86.518 95.227 M115.034 96.870 C 115.036 97.496,115.080 97.725,115.132 97.379 C 115.184 97.033,115.183 96.520,115.129 96.240 C 115.075 95.960,115.032 96.244,115.034 96.870 M177.157 97.032 C 177.118 98.174,177.460 98.577,178.471 98.577 C 178.881 98.577,178.947 98.729,178.982 99.772 L 179.023 100.968 179.109 99.868 C 179.199 98.722,178.872 98.012,178.347 98.214 C 178.186 98.276,177.991 98.127,177.913 97.883 C 177.836 97.638,177.683 97.439,177.574 97.439 C 177.466 97.439,177.335 97.106,177.285 96.699 C 177.214 96.125,177.185 96.201,177.157 97.032 M89.465 97.897 C 89.237 98.039,89.333 98.133,89.824 98.250 C 90.193 98.338,90.700 98.589,90.950 98.808 C 91.544 99.329,92.430 99.601,92.430 99.262 C 92.430 99.121,92.328 99.069,92.203 99.146 C 92.077 99.224,91.975 99.178,91.975 99.046 C 91.975 98.913,91.845 98.805,91.686 98.805 C 91.528 98.805,91.033 98.557,90.588 98.254 C 90.062 97.897,89.669 97.772,89.465 97.897 M228.689 98.951 C 228.594 99.246,228.273 99.490,227.880 99.569 C 227.212 99.703,227.232 99.659,226.837 101.878 C 226.740 102.422,226.142 102.903,225.563 102.903 C 225.333 102.903,225.053 103.145,224.940 103.443 C 224.827 103.740,224.361 104.214,223.904 104.496 C 223.448 104.778,222.984 105.247,222.873 105.538 C 222.739 105.891,222.374 106.147,221.775 106.309 C 220.982 106.522,220.404 107.105,220.697 107.397 C 220.874 107.575,221.286 107.218,221.286 106.888 C 221.286 106.700,221.584 106.545,222.026 106.503 C 222.530 106.454,222.837 106.270,222.988 105.926 C 223.110 105.648,223.496 105.358,223.846 105.281 C 224.477 105.142,225.157 104.210,225.157 103.483 C 225.157 103.232,225.385 103.130,225.945 103.130 C 226.731 103.130,227.275 102.606,227.188 101.933 C 227.079 101.085,227.249 100.598,227.718 100.419 C 228.460 100.135,229.084 99.359,228.957 98.879 C 228.858 98.505,228.832 98.512,228.689 98.951 M66.292 99.047 C 66.347 99.211,66.526 99.390,66.690 99.445 C 66.861 99.502,66.946 99.417,66.890 99.246 C 66.835 99.082,66.656 98.902,66.491 98.847 C 66.320 98.791,66.235 98.876,66.292 99.047 M93.113 100.256 C 93.113 100.406,93.325 100.545,93.583 100.565 C 93.842 100.584,94.015 100.487,93.969 100.348 C 93.853 100.000,93.113 99.921,93.113 100.256 M179.170 101.927 C 179.169 102.695,179.646 103.130,180.491 103.130 C 180.829 103.130,180.966 103.341,181.076 104.032 C 181.206 104.844,181.311 104.961,182.130 105.207 C 182.736 105.388,183.039 105.611,183.039 105.874 C 183.039 106.327,183.481 106.545,184.397 106.545 C 184.844 106.545,185.071 106.682,185.154 107.001 C 185.235 107.310,185.465 107.456,185.873 107.456 C 186.374 107.456,186.424 107.404,186.179 107.138 C 186.017 106.964,185.819 106.861,185.738 106.909 C 185.657 106.958,185.533 106.845,185.461 106.658 C 185.386 106.463,185.045 106.318,184.666 106.318 C 184.195 106.318,183.844 106.115,183.463 105.626 C 183.167 105.246,182.602 104.731,182.206 104.482 C 181.810 104.233,181.380 103.724,181.250 103.352 C 181.091 102.896,180.861 102.675,180.543 102.675 C 180.257 102.675,179.897 102.386,179.622 101.935 L 179.171 101.195 179.170 101.927 M97.666 102.447 C 97.479 102.569,97.427 102.677,97.553 102.689 C 97.678 102.700,97.965 102.745,98.191 102.788 C 98.523 102.851,98.551 102.804,98.334 102.543 C 98.019 102.163,98.090 102.173,97.666 102.447 M161.639 103.586 C 161.639 103.726,161.511 103.768,161.355 103.680 C 161.127 103.551,161.127 103.580,161.355 103.825 C 161.560 104.046,161.708 104.063,161.887 103.885 C 162.065 103.706,162.065 103.594,161.887 103.484 C 161.751 103.400,161.639 103.446,161.639 103.586 M160.634 104.643 C 160.417 105.208,160.656 105.285,160.946 104.743 C 161.086 104.482,161.105 104.269,160.989 104.269 C 160.872 104.269,160.713 104.437,160.634 104.643 M105.093 105.679 C 105.228 105.897,106.587 106.545,106.910 106.545 C 106.994 106.545,106.818 106.357,106.519 106.126 C 105.896 105.645,104.874 105.325,105.093 105.679 M120.205 105.686 C 120.205 106.101,120.608 106.445,120.833 106.221 C 120.911 106.143,120.801 105.906,120.590 105.694 C 120.235 105.339,120.205 105.339,120.205 105.686 M301.958 118.154 C 301.414 118.374,301.038 118.839,301.404 118.839 C 301.534 118.839,301.975 118.634,302.385 118.384 C 303.134 117.928,302.871 117.786,301.958 118.154 M63.713 119.524 C 64.009 119.773,64.410 119.977,64.605 119.977 C 65.045 119.977,64.970 119.914,63.973 119.446 L 63.176 119.071 63.713 119.524 M66.932 120.397 C 66.932 120.503,67.153 120.785,67.423 121.023 L 67.913 121.457 67.510 120.831 C 67.095 120.185,66.932 120.063,66.932 120.397 M292.943 121.411 C 292.598 121.547,292.316 121.741,292.316 121.842 C 292.316 122.091,292.324 122.089,293.341 121.571 C 294.278 121.093,294.015 120.988,292.943 121.411 M109.619 121.507 C 109.869 121.568,110.253 121.777,110.472 121.971 C 110.834 122.292,110.871 122.289,110.871 121.934 C 110.871 121.720,110.768 121.607,110.643 121.685 C 110.518 121.762,110.415 121.717,110.415 121.584 C 110.415 121.452,110.134 121.355,109.789 121.370 C 109.314 121.390,109.273 121.423,109.619 121.507 M330.367 121.806 C 329.662 122.394,329.980 122.387,330.729 121.799 C 331.047 121.548,331.217 121.347,331.106 121.351 C 330.996 121.355,330.663 121.560,330.367 121.806 M326.854 122.783 C 326.771 122.999,326.471 123.269,326.186 123.383 C 325.868 123.511,325.806 123.597,326.024 123.605 C 326.546 123.627,327.227 123.059,327.108 122.701 C 327.030 122.469,326.967 122.489,326.854 122.783 M320.350 125.221 C 319.952 125.553,319.906 125.669,320.172 125.669 C 320.369 125.669,320.640 125.464,320.774 125.213 C 321.073 124.654,321.030 124.655,320.350 125.221 M310.551 128.489 C 310.364 128.713,310.355 128.862,310.520 128.964 C 310.652 129.046,310.823 128.948,310.901 128.747 C 311.093 128.246,310.881 128.090,310.551 128.489 M306.820 129.613 C 306.737 129.829,306.436 130.099,306.152 130.213 C 305.834 130.341,305.771 130.426,305.989 130.435 C 306.512 130.456,307.193 129.888,307.074 129.531 C 306.996 129.298,306.932 129.319,306.820 129.613 M103.282 131.947 C 103.358 132.144,103.669 132.400,103.973 132.516 C 104.851 132.850,105.143 132.742,104.326 132.387 C 103.919 132.210,103.586 131.958,103.586 131.827 C 103.586 131.695,103.486 131.588,103.365 131.588 C 103.244 131.588,103.207 131.749,103.282 131.947 M296.581 132.043 C 296.282 132.392,296.264 132.499,296.504 132.499 C 296.676 132.499,296.870 132.294,296.936 132.043 C 297.001 131.793,297.036 131.588,297.013 131.588 C 296.990 131.588,296.795 131.793,296.581 132.043 " stroke="none" fill="#26560c" fill-rule="evenodd"></path><path id="path3" d="M343.410 55.260 C 343.275 55.357,343.099 55.615,343.018 55.834 C 342.916 56.112,342.611 56.238,342.011 56.251 C 340.188 56.291,339.215 56.567,339.215 57.044 C 339.215 57.272,338.944 57.371,338.317 57.371 C 337.824 57.371,337.357 57.473,337.279 57.598 C 337.202 57.723,336.947 57.826,336.713 57.826 C 336.479 57.826,336.125 57.988,335.927 58.186 C 335.729 58.385,335.190 58.577,334.729 58.614 C 334.209 58.655,333.743 58.863,333.500 59.164 C 333.248 59.476,332.848 59.647,332.375 59.647 C 331.480 59.647,329.890 60.082,329.425 60.454 C 329.237 60.605,328.688 60.799,328.205 60.885 C 327.609 60.992,327.289 61.185,327.211 61.483 C 327.131 61.787,326.897 61.924,326.456 61.924 C 325.333 61.924,323.506 62.441,323.506 62.760 C 323.506 62.942,323.242 63.062,322.838 63.062 C 321.910 63.062,321.002 63.443,321.002 63.831 C 321.002 64.056,320.631 64.196,319.806 64.284 C 319.149 64.354,318.458 64.431,318.270 64.455 C 318.082 64.480,317.763 64.688,317.560 64.919 C 317.358 65.150,316.915 65.339,316.578 65.339 C 315.787 65.339,315.083 65.718,315.083 66.143 C 315.083 66.389,314.798 66.477,314.001 66.478 C 312.564 66.480,311.212 66.871,311.212 67.284 C 311.212 67.498,310.977 67.615,310.548 67.615 C 309.587 67.615,309.163 67.832,309.163 68.323 C 309.163 68.687,308.991 68.754,308.054 68.754 C 306.376 68.754,305.475 68.993,305.350 69.471 C 305.278 69.745,305.030 69.893,304.640 69.895 C 303.594 69.900,303.017 70.151,303.017 70.601 C 303.017 71.014,301.987 71.194,300.475 71.045 C 300.267 71.025,300.030 71.117,299.948 71.251 C 299.865 71.384,299.696 71.430,299.571 71.352 C 299.446 71.275,299.287 71.427,299.218 71.690 C 299.123 72.055,298.914 72.168,298.336 72.168 C 297.920 72.168,297.516 72.271,297.439 72.396 C 297.361 72.521,297.108 72.624,296.875 72.624 C 296.643 72.624,296.413 72.743,296.364 72.888 C 296.266 73.181,295.772 73.309,294.638 73.335 C 294.165 73.346,293.683 73.554,293.342 73.895 C 292.958 74.279,292.429 74.481,291.534 74.587 C 290.837 74.668,290.268 74.835,290.268 74.956 C 290.268 75.077,290.117 75.119,289.932 75.048 C 289.748 74.977,289.516 75.064,289.417 75.240 C 289.318 75.416,288.871 75.601,288.422 75.651 C 287.451 75.758,287.080 75.957,287.080 76.371 C 287.080 76.577,286.616 76.730,285.657 76.839 C 284.176 77.008,283.349 77.304,283.532 77.600 C 283.590 77.695,283.218 77.797,282.705 77.828 C 281.619 77.892,280.933 78.204,280.933 78.635 C 280.933 78.905,279.903 79.166,278.106 79.350 C 277.866 79.375,277.555 79.551,277.416 79.741 C 277.278 79.930,276.793 80.136,276.341 80.197 C 275.340 80.332,275.014 80.516,275.014 80.947 C 275.014 81.167,274.764 81.275,274.249 81.275 C 272.562 81.275,271.313 81.564,271.204 81.981 C 271.131 82.260,270.836 82.410,270.267 82.458 C 269.676 82.507,269.375 82.668,269.222 83.017 C 269.040 83.429,268.745 83.531,267.343 83.662 C 266.124 83.776,265.602 83.927,265.393 84.226 C 265.222 84.470,264.694 84.687,264.084 84.765 C 263.522 84.836,263.044 84.900,263.021 84.906 C 262.999 84.912,262.807 85.091,262.595 85.303 C 262.383 85.515,262.042 85.713,261.839 85.742 C 260.461 85.939,259.968 86.065,259.551 86.325 C 259.291 86.488,259.078 86.698,259.078 86.794 C 259.078 86.889,258.674 86.966,258.181 86.966 C 257.687 86.966,257.225 87.061,257.154 87.177 C 257.082 87.292,256.718 87.454,256.343 87.536 C 255.969 87.618,255.663 87.780,255.663 87.895 C 255.663 88.010,255.249 88.105,254.742 88.105 C 254.063 88.105,253.671 88.254,253.252 88.674 C 252.929 88.997,252.417 89.245,252.067 89.246 C 251.361 89.250,249.944 89.707,249.486 90.078 C 249.315 90.217,248.744 90.401,248.217 90.488 C 247.559 90.596,247.215 90.783,247.120 91.083 C 247.025 91.383,246.772 91.520,246.314 91.520 C 245.519 91.520,245.664 91.493,244.457 91.860 C 243.922 92.023,243.509 92.269,243.540 92.407 C 243.575 92.560,243.211 92.658,242.608 92.658 C 241.647 92.658,240.649 93.276,241.016 93.644 C 241.141 93.768,240.024 93.903,239.467 93.831 C 239.010 93.772,238.782 95.175,239.095 96.118 C 239.396 97.024,239.504 97.118,240.541 97.378 C 241.158 97.533,241.776 97.814,241.915 98.004 C 242.054 98.194,242.334 98.349,242.537 98.349 C 243.295 98.349,244.963 98.908,244.963 99.163 C 244.963 99.307,245.432 99.490,246.006 99.569 C 246.580 99.648,247.301 99.910,247.609 100.152 C 247.963 100.430,248.729 100.651,249.696 100.752 C 250.551 100.842,251.475 101.090,251.794 101.315 C 252.122 101.546,253.041 101.786,253.957 101.880 C 254.848 101.972,255.862 102.233,256.260 102.474 C 256.758 102.775,257.607 102.945,259.105 103.041 C 260.505 103.131,261.535 103.326,262.095 103.607 C 262.757 103.938,263.682 104.066,266.193 104.176 C 268.897 104.293,269.588 104.398,270.347 104.804 C 271.461 105.400,292.293 105.591,292.488 105.007 C 292.540 104.850,292.677 104.779,292.791 104.850 C 292.906 104.921,292.999 104.835,292.999 104.659 C 292.999 104.401,293.830 104.307,297.268 104.178 C 299.616 104.090,301.690 104.009,301.878 103.999 C 302.066 103.989,302.401 103.823,302.623 103.630 C 302.895 103.393,303.917 103.200,305.770 103.034 C 307.917 102.842,308.560 102.707,308.725 102.411 C 308.883 102.128,309.421 101.992,310.871 101.872 C 312.236 101.758,312.806 101.622,312.806 101.411 C 312.806 101.072,313.137 100.956,314.714 100.741 C 315.891 100.580,316.904 100.207,316.904 99.933 C 316.904 99.842,317.469 99.697,318.159 99.611 C 318.849 99.525,319.359 99.364,319.291 99.254 C 319.176 99.068,321.188 98.349,321.824 98.349 C 321.980 98.349,322.245 98.212,322.413 98.044 C 322.916 97.541,323.666 97.211,324.309 97.211 C 324.711 97.211,324.952 97.067,325.027 96.782 C 325.104 96.485,325.427 96.306,326.072 96.203 C 326.611 96.117,327.137 95.865,327.317 95.608 C 327.489 95.363,327.865 95.162,328.153 95.162 C 328.440 95.162,328.952 94.906,329.290 94.593 C 329.628 94.280,330.092 94.024,330.321 94.024 C 330.551 94.024,330.897 93.782,331.091 93.486 C 331.285 93.191,331.767 92.884,332.163 92.805 C 332.601 92.717,332.926 92.492,332.995 92.227 C 333.077 91.916,333.394 91.750,334.113 91.642 C 334.898 91.524,335.117 91.397,335.117 91.055 C 335.117 90.774,335.445 90.451,336.038 90.148 C 336.545 89.889,337.019 89.524,337.091 89.337 C 337.163 89.149,337.619 88.793,338.104 88.546 C 338.676 88.254,338.987 87.938,338.987 87.649 C 338.987 87.357,339.306 87.040,339.915 86.730 C 340.511 86.426,340.952 85.994,341.150 85.521 C 341.319 85.116,341.737 84.635,342.079 84.453 C 342.420 84.270,342.830 83.813,342.988 83.438 C 343.147 83.062,343.643 82.402,344.091 81.970 C 344.540 81.539,344.906 81.096,344.906 80.987 C 344.906 80.877,345.344 80.052,345.879 79.153 C 347.195 76.944,348.612 73.620,349.246 71.258 C 350.301 67.327,349.504 60.161,347.715 57.487 C 347.297 56.863,346.955 56.131,346.955 55.861 C 346.955 55.591,346.827 55.324,346.670 55.268 C 346.163 55.086,343.661 55.080,343.410 55.260 M71.680 90.541 C 71.473 90.592,71.252 90.833,71.189 91.077 C 71.097 91.428,70.872 91.520,70.108 91.520 C 69.278 91.520,68.989 91.663,68.047 92.544 C 67.183 93.353,66.785 93.569,66.159 93.569 C 65.130 93.569,65.086 93.666,65.038 96.037 C 64.999 97.952,65.383 99.140,65.881 98.642 C 65.958 98.565,66.022 98.618,66.022 98.760 C 66.022 98.902,66.165 98.963,66.340 98.896 C 66.718 98.751,66.868 98.954,67.026 99.827 C 67.169 100.613,67.497 100.846,68.469 100.850 C 69.056 100.853,69.209 100.948,69.209 101.309 C 69.209 101.559,69.311 101.777,69.437 101.793 C 69.562 101.808,69.767 101.847,69.892 101.878 C 70.017 101.910,70.376 101.948,70.689 101.964 C 71.010 101.980,71.258 102.130,71.258 102.309 C 71.258 102.742,71.785 102.913,73.591 103.066 C 74.889 103.176,75.128 103.262,75.128 103.619 C 75.128 103.851,75.231 104.054,75.356 104.069 C 75.481 104.085,75.686 104.124,75.811 104.155 C 75.936 104.186,76.474 104.226,77.006 104.244 C 77.643 104.265,77.868 104.343,77.665 104.471 C 77.450 104.608,77.432 104.714,77.608 104.823 C 77.747 104.908,77.860 104.919,77.860 104.845 C 77.860 104.772,78.162 104.869,78.532 105.060 C 78.901 105.251,79.526 105.407,79.919 105.407 C 80.313 105.407,80.944 105.626,81.320 105.894 C 82.051 106.415,82.309 106.471,84.191 106.516 C 84.856 106.532,85.353 106.622,85.296 106.716 C 85.177 106.913,85.581 107.296,86.065 107.444 C 86.248 107.500,87.678 107.615,89.243 107.699 C 90.808 107.784,92.908 107.986,93.910 108.147 C 96.408 108.550,105.018 108.578,106.123 108.186 C 107.349 107.751,107.388 106.318,106.174 106.318 C 105.976 106.318,105.903 106.208,105.998 106.055 C 106.102 105.886,106.060 105.854,105.881 105.965 C 105.720 106.064,105.389 105.953,105.106 105.706 C 104.833 105.469,104.303 105.247,103.927 105.213 C 103.552 105.180,103.073 104.952,102.865 104.709 C 102.643 104.450,102.055 104.206,101.452 104.123 C 100.883 104.046,100.439 103.869,100.465 103.732 C 100.491 103.595,100.256 103.445,99.943 103.399 C 99.630 103.352,99.268 103.228,99.139 103.122 C 99.010 103.016,98.613 102.877,98.258 102.812 C 97.902 102.748,97.546 102.623,97.468 102.535 C 97.389 102.447,97.510 102.441,97.735 102.522 C 97.998 102.617,98.091 102.582,97.994 102.425 C 97.911 102.290,97.649 102.231,97.413 102.292 C 97.142 102.363,96.983 102.286,96.983 102.085 C 96.983 101.785,96.874 101.733,96.120 101.671 C 95.958 101.657,95.754 101.545,95.665 101.421 C 95.410 101.063,94.182 100.499,93.682 100.510 C 93.413 100.516,93.177 100.332,93.104 100.061 C 93.036 99.808,92.753 99.569,92.474 99.528 C 92.196 99.488,92.026 99.361,92.097 99.246 C 92.168 99.132,92.062 99.101,91.861 99.178 C 91.652 99.258,91.283 99.124,90.996 98.863 C 90.720 98.614,90.193 98.338,89.824 98.250 C 89.348 98.137,89.241 98.036,89.456 97.903 C 89.684 97.762,89.640 97.679,89.273 97.562 C 89.006 97.477,88.788 97.255,88.788 97.069 C 88.788 96.882,88.685 96.792,88.560 96.870 C 88.435 96.947,88.332 96.902,88.332 96.769 C 88.332 96.637,88.086 96.528,87.786 96.528 C 87.422 96.528,87.089 96.292,86.793 95.825 C 86.548 95.438,86.282 95.131,86.202 95.142 C 85.257 95.274,84.917 95.129,84.917 94.593 C 84.917 94.252,84.781 94.013,84.576 93.995 C 84.388 93.980,84.132 93.941,84.007 93.910 C 83.882 93.879,83.625 93.840,83.438 93.825 C 83.250 93.809,83.096 93.679,83.096 93.537 C 83.096 93.126,82.357 92.673,81.673 92.665 C 81.201 92.660,81.047 92.546,81.047 92.203 C 81.047 91.952,80.970 91.739,80.876 91.729 C 79.241 91.549,78.703 91.359,78.905 91.031 C 79.007 90.866,78.969 90.828,78.806 90.929 C 78.661 91.018,78.543 91.000,78.543 90.888 C 78.543 90.587,72.690 90.291,71.680 90.541 " stroke="none" fill="#e84646" fill-rule="evenodd"></path><path id="path4" d="M33.409 142.989 C 32.875 143.300,32.797 151.389,33.324 151.826 C 33.544 152.009,35.313 152.067,39.300 152.025 L 44.963 151.964 45.032 150.882 L 45.102 149.801 48.049 149.801 L 50.996 149.801 50.996 158.883 L 50.996 167.964 50.370 168.121 C 50.026 168.206,49.590 168.409,49.402 168.570 C 49.215 168.732,48.349 168.926,47.480 169.003 C 45.530 169.176,45.249 169.433,45.124 171.164 C 45.014 172.676,45.425 173.829,46.272 174.390 C 46.926 174.823,69.798 175.032,70.582 174.612 C 71.012 174.382,71.040 174.180,70.980 171.701 L 70.916 169.038 69.116 168.980 C 67.627 168.932,67.261 168.844,67.003 168.477 C 66.832 168.232,66.336 167.965,65.901 167.884 L 65.111 167.735 65.111 158.768 L 65.111 149.801 68.184 149.801 C 70.727 149.801,71.258 149.858,71.258 150.133 C 71.258 150.323,71.643 150.581,72.157 150.735 C 72.788 150.924,73.076 151.147,73.124 151.484 C 73.191 151.948,73.323 151.966,77.120 152.026 L 81.047 152.088 81.047 153.421 C 81.047 154.896,81.240 155.178,82.408 155.412 C 82.841 155.498,83.201 155.728,83.261 155.958 C 83.378 156.408,84.236 156.631,85.857 156.631 L 86.966 156.631 86.966 162.436 C 86.966 167.963,86.946 168.241,86.539 168.241 C 86.304 168.241,85.988 168.390,85.837 168.572 C 85.680 168.761,85.063 168.931,84.387 168.970 L 83.210 169.038 83.135 171.695 C 83.035 175.196,81.765 174.869,95.151 174.793 C 108.360 174.718,107.114 175.046,107.114 171.640 C 107.114 168.939,107.109 168.933,104.789 168.928 C 103.420 168.925,103.108 168.853,102.919 168.499 C 102.794 168.265,102.380 168.012,102.000 167.936 L 101.309 167.797 101.309 163.352 L 101.309 158.907 102.127 158.907 C 102.732 158.907,102.974 158.797,103.055 158.486 C 103.169 158.050,105.975 157.769,110.209 157.769 C 111.057 157.769,112.015 157.669,112.336 157.547 L 112.920 157.325 112.920 153.573 L 112.920 149.821 112.132 149.674 C 109.827 149.241,103.130 149.759,103.130 150.370 C 103.130 150.986,101.259 150.906,100.709 150.267 L 100.210 149.687 91.653 149.687 L 83.096 149.687 83.096 146.353 C 83.096 143.524,83.042 142.999,82.736 142.882 C 82.086 142.632,33.842 142.737,33.409 142.989 M275.176 145.162 C 275.087 145.251,275.014 146.269,275.014 147.424 L 275.014 149.525 272.294 149.606 C 268.891 149.707,269.068 149.496,269.145 153.348 L 269.209 156.517 272.112 156.581 L 275.014 156.644 275.014 163.866 L 275.014 171.089 275.677 171.714 C 276.041 172.058,276.480 172.339,276.651 172.339 C 276.823 172.339,277.079 172.647,277.221 173.022 C 277.442 173.607,277.597 173.705,278.300 173.705 C 278.751 173.705,279.625 173.969,280.241 174.291 L 281.362 174.877 288.766 174.803 C 297.173 174.720,296.864 174.792,297.025 172.868 C 297.140 171.487,296.745 170.711,295.785 170.436 C 295.088 170.236,295.048 170.167,295.048 169.143 C 295.048 167.795,295.027 167.786,291.729 167.786 L 289.129 167.786 289.129 162.208 L 289.129 156.631 291.729 156.631 C 295.323 156.631,295.048 156.904,295.048 153.333 C 295.048 149.596,295.184 149.748,291.729 149.615 L 289.129 149.516 289.126 147.666 C 289.124 146.649,289.025 145.663,288.907 145.475 C 288.676 145.110,275.528 144.810,275.176 145.162 M124.901 149.779 C 124.278 149.870,123.667 150.111,123.509 150.327 C 123.290 150.626,122.865 150.711,121.588 150.711 C 119.882 150.711,119.067 150.964,119.067 151.491 C 119.067 151.715,118.608 151.823,117.391 151.885 C 114.935 152.009,114.944 151.994,115.019 155.696 L 115.083 158.793 120.811 158.854 C 127.198 158.922,127.262 158.908,127.262 157.411 L 127.262 156.631 130.222 156.631 C 131.891 156.631,133.182 156.723,133.182 156.842 C 133.182 157.275,133.919 157.769,134.564 157.769 C 135.202 157.769,135.231 157.812,135.231 158.793 L 135.231 159.818 128.727 159.818 C 122.208 159.818,121.492 159.895,121.047 160.648 C 120.922 160.860,120.375 160.956,119.299 160.956 C 117.785 160.956,117.018 161.268,117.018 161.883 C 117.018 161.999,116.755 162.094,116.434 162.094 C 115.698 162.094,114.969 162.475,114.969 162.859 C 114.969 163.020,114.585 163.247,114.115 163.363 L 113.261 163.574 113.057 165.550 C 112.938 166.713,112.938 168.306,113.057 169.420 L 113.261 171.315 114.115 171.385 C 114.774 171.440,114.969 171.554,114.969 171.885 C 114.969 172.786,115.904 173.464,117.359 173.617 C 118.390 173.726,118.856 173.898,119.260 174.317 L 119.795 174.872 127.078 174.801 C 134.146 174.732,134.372 174.716,134.745 174.254 C 135.357 173.498,136.975 173.368,137.149 174.061 C 137.343 174.834,137.873 174.880,145.655 174.800 C 153.708 174.718,152.980 175.034,152.985 171.624 C 152.989 168.820,153.077 168.924,150.693 168.924 L 149.118 168.924 149.097 162.948 C 149.085 159.661,149.093 156.531,149.115 155.993 C 149.161 154.817,148.872 154.414,147.843 154.221 C 147.307 154.120,147.069 153.951,147.069 153.670 C 147.069 153.221,146.635 152.988,145.798 152.988 C 145.495 152.988,145.248 152.893,145.248 152.777 C 145.248 152.366,144.524 151.850,143.948 151.850 C 143.618 151.850,143.136 151.603,142.837 151.281 C 142.364 150.770,142.132 150.711,140.591 150.711 C 139.274 150.711,138.873 150.637,138.873 150.394 C 138.873 149.732,128.365 149.269,124.901 149.779 M168.405 149.739 C 167.871 149.795,167.440 149.997,167.269 150.270 C 167.037 150.643,166.726 150.712,165.284 150.715 C 163.552 150.718,161.734 151.111,161.452 151.543 C 161.367 151.673,160.890 151.844,160.393 151.922 C 159.895 152.001,159.331 152.266,159.140 152.511 C 158.950 152.757,158.486 152.990,158.110 153.030 C 157.592 153.084,157.349 153.280,157.102 153.842 C 156.923 154.249,156.688 154.582,156.580 154.582 C 156.099 154.582,155.037 155.617,155.037 156.086 C 155.037 156.469,154.863 156.633,154.333 156.749 C 153.183 157.002,152.988 157.821,152.988 162.395 C 152.988 167.034,153.136 167.678,154.255 167.888 C 154.963 168.020,155.037 168.107,155.037 168.805 C 155.037 169.704,155.531 170.290,156.290 170.290 C 156.628 170.290,156.881 170.460,156.972 170.746 C 157.222 171.532,158.601 172.399,159.784 172.512 C 160.617 172.592,160.919 172.730,161.084 173.104 C 161.244 173.468,161.561 173.622,162.342 173.712 C 162.916 173.778,163.684 174.034,164.049 174.281 C 165.157 175.030,180.046 175.105,180.786 174.365 C 181.165 173.986,181.669 173.824,182.792 173.720 C 184.429 173.567,184.861 173.395,184.861 172.895 C 184.861 172.681,185.103 172.567,185.559 172.567 C 186.406 172.567,187.137 172.206,187.137 171.787 C 187.137 171.617,187.484 171.414,187.914 171.334 C 188.702 171.186,189.186 170.427,189.186 169.339 C 189.186 169.103,189.365 168.847,189.585 168.769 C 190.615 168.406,191.007 167.749,191.007 166.388 C 191.007 164.485,191.053 164.499,184.519 164.413 C 178.030 164.327,177.279 164.462,177.158 165.735 C 177.075 166.611,176.819 166.867,176.017 166.872 C 175.677 166.874,175.441 167.040,175.365 167.331 C 175.029 168.616,169.407 167.694,169.056 166.297 C 168.969 165.948,168.753 165.737,168.483 165.737 C 167.371 165.737,167.331 165.628,167.331 162.639 C 167.331 160.004,167.360 159.818,167.770 159.818 C 168.357 159.818,168.918 159.225,169.075 158.437 C 169.179 157.917,169.340 157.781,169.918 157.724 C 170.399 157.678,170.705 157.488,170.856 157.143 C 171.172 156.423,175.171 156.345,175.357 157.055 C 175.428 157.328,175.763 157.535,176.294 157.635 C 177.109 157.787,177.120 157.805,177.120 158.892 C 177.120 161.011,177.233 161.057,182.698 161.151 C 191.009 161.293,191.007 161.294,191.007 156.743 C 191.007 153.446,190.919 153.216,189.651 153.216 C 189.360 153.216,189.095 153.007,188.971 152.679 C 188.753 152.107,187.888 151.857,186.110 151.852 C 185.382 151.850,185.150 151.746,184.971 151.338 C 184.758 150.850,184.606 150.822,181.844 150.762 C 179.449 150.709,178.941 150.638,178.941 150.358 C 178.941 149.654,172.725 149.289,168.405 149.739 M206.652 149.739 C 206.118 149.795,205.687 149.997,205.516 150.270 C 205.280 150.649,204.974 150.711,203.365 150.711 C 201.617 150.711,201.465 150.750,201.117 151.281 C 200.888 151.631,200.530 151.850,200.188 151.850 C 199.036 151.850,197.628 152.356,197.273 152.899 C 197.077 153.198,196.779 153.443,196.611 153.443 C 196.109 153.443,195.141 154.327,195.064 154.855 C 195.016 155.181,194.761 155.409,194.309 155.529 C 193.266 155.807,193.056 156.280,193.056 158.353 C 193.056 160.203,193.052 160.217,192.430 160.342 C 190.511 160.729,190.562 164.599,192.487 164.599 C 193.051 164.599,193.056 164.617,193.056 166.602 C 193.056 168.797,193.222 169.152,194.247 169.152 C 194.602 169.152,194.926 169.280,194.968 169.437 C 195.364 170.929,195.468 171.075,196.274 171.266 C 196.809 171.392,197.183 171.653,197.348 172.013 C 197.544 172.443,197.774 172.567,198.383 172.567 C 198.813 172.567,199.676 172.823,200.299 173.136 C 200.922 173.449,201.811 173.705,202.274 173.705 C 202.915 173.705,203.144 173.810,203.231 174.145 C 203.477 175.085,221.854 175.187,222.787 174.254 C 223.125 173.915,223.685 173.735,224.722 173.629 C 225.781 173.521,226.285 173.355,226.559 173.024 C 226.784 172.751,227.214 172.567,227.622 172.567 C 228.842 172.567,229.027 172.387,229.027 171.195 C 229.027 169.694,228.877 169.415,227.980 169.247 C 227.291 169.117,227.205 169.021,227.205 168.373 C 227.205 166.981,226.833 166.771,224.208 166.681 C 221.678 166.595,219.513 166.941,219.312 167.464 C 219.212 167.725,218.405 167.786,215.036 167.786 C 210.629 167.786,210.253 167.712,208.651 166.537 C 208.275 166.261,207.814 165.976,207.627 165.904 C 207.439 165.832,212.054 165.765,217.883 165.755 C 225.801 165.742,228.549 165.668,228.754 165.464 C 228.948 165.269,229.027 163.837,229.027 160.463 C 229.027 155.336,229.009 155.265,227.701 155.265 C 227.375 155.265,227.217 155.057,227.111 154.491 C 226.946 153.610,226.682 153.344,225.759 153.123 C 225.400 153.037,225.058 152.775,224.996 152.539 C 224.919 152.242,224.592 152.062,223.939 151.954 C 223.419 151.868,222.854 151.685,222.683 151.547 C 222.031 151.019,220.650 150.718,218.865 150.715 C 217.258 150.712,216.999 150.656,216.904 150.291 C 216.733 149.638,210.722 149.315,206.652 149.739 M243.855 149.737 C 243.559 149.793,243.265 150.036,243.203 150.275 C 243.102 150.659,242.870 150.711,241.281 150.711 C 239.730 150.711,239.278 150.808,238.097 151.394 C 237.340 151.770,236.500 152.079,236.232 152.081 C 235.585 152.086,235.268 152.314,235.082 152.908 C 234.998 153.180,234.661 153.466,234.326 153.550 C 232.499 154.008,232.561 161.882,234.391 161.865 C 234.509 161.864,234.876 162.193,235.207 162.596 C 235.763 163.272,235.934 163.336,237.407 163.419 C 238.711 163.493,239.023 163.585,239.111 163.922 C 239.210 164.299,238.995 164.340,236.548 164.410 C 232.946 164.511,233.125 164.294,233.125 168.565 C 233.125 172.639,233.086 172.567,235.279 172.567 C 236.728 172.567,236.909 172.617,237.112 173.079 C 237.277 173.455,237.563 173.610,238.187 173.662 C 238.749 173.708,239.155 173.901,239.386 174.231 C 239.935 175.016,257.860 175.151,258.635 174.376 C 258.998 174.013,259.489 173.858,260.525 173.781 C 262.559 173.630,262.902 173.528,263.062 173.022 C 263.159 172.717,263.409 172.566,263.817 172.563 C 264.541 172.559,264.864 172.368,265.064 171.827 C 265.144 171.608,265.425 171.429,265.688 171.429 C 266.995 171.429,267.046 171.270,267.046 167.212 L 267.046 163.466 266.180 163.327 C 265.447 163.210,265.255 163.055,264.937 162.321 C 264.545 161.415,263.413 160.956,261.571 160.956 C 261.051 160.956,260.899 160.853,260.899 160.501 C 260.899 160.072,261.051 160.046,263.532 160.046 C 267.255 160.046,267.046 160.281,267.046 156.081 C 267.046 151.843,267.133 151.951,263.628 151.859 C 263.439 151.854,263.183 151.619,263.059 151.338 C 262.846 150.851,262.693 150.822,259.989 150.764 C 257.669 150.714,257.091 150.634,256.864 150.330 C 256.390 149.696,246.459 149.244,243.855 149.737 M311.725 149.734 C 311.404 149.795,311.212 149.997,311.212 150.272 C 311.212 150.675,311.035 150.711,309.078 150.711 C 306.394 150.711,305.492 150.885,305.350 151.429 C 305.274 151.718,305.030 151.850,304.569 151.850 C 303.727 151.850,303.017 152.218,303.017 152.655 C 303.017 152.880,302.773 152.988,302.265 152.988 C 301.383 152.988,300.968 153.331,300.968 154.058 C 300.968 154.346,300.855 154.582,300.718 154.582 C 300.165 154.582,299.146 155.539,299.146 156.059 C 299.146 156.469,298.986 156.630,298.464 156.744 C 297.186 157.025,297.097 157.398,297.097 162.468 C 297.097 167.779,297.090 167.743,298.260 167.930 C 299.111 168.066,299.146 168.106,299.146 168.945 C 299.146 169.871,299.567 170.290,300.497 170.290 C 300.803 170.290,300.968 170.438,300.968 170.712 C 300.968 171.558,302.639 172.502,304.212 172.544 C 304.799 172.560,305.065 172.671,305.065 172.900 C 305.065 173.351,305.783 173.705,306.701 173.708 C 308.005 173.712,309.163 173.981,309.163 174.280 C 309.163 175.085,326.140 175.174,326.887 174.373 C 327.227 174.007,327.708 173.873,329.036 173.772 C 330.535 173.659,330.776 173.578,330.985 173.119 C 331.162 172.731,331.447 172.577,332.089 172.524 L 332.954 172.453 333.021 170.661 C 333.095 168.677,332.784 168.014,331.780 168.014 C 331.485 168.014,331.246 167.877,331.246 167.707 C 331.246 166.920,330.464 166.648,328.197 166.648 C 325.929 166.648,325.100 166.863,325.100 167.453 C 325.100 167.735,324.353 167.786,320.215 167.786 L 315.331 167.786 314.762 167.217 C 314.449 166.904,313.932 166.648,313.613 166.648 C 313.189 166.648,313.034 166.528,313.034 166.201 C 313.034 165.764,313.276 165.753,323.640 165.689 L 334.247 165.623 334.682 165.086 C 335.060 164.618,335.117 164.163,335.117 161.599 C 335.117 158.262,334.996 157.882,333.871 157.671 L 333.068 157.521 333.068 156.193 C 333.068 154.795,332.900 154.512,331.929 154.281 C 331.547 154.190,331.234 153.854,330.976 153.256 C 330.570 152.316,329.531 151.850,327.845 151.850 C 327.385 151.850,327.149 151.736,327.149 151.516 C 327.149 150.960,326.353 150.711,324.570 150.711 C 323.334 150.711,322.839 150.626,322.751 150.396 C 322.502 149.747,314.236 149.250,311.725 149.734 M337.678 149.808 C 337.182 150.007,337.166 150.113,337.166 153.081 C 337.166 156.575,337.032 156.359,339.309 156.551 L 341.036 156.697 341.036 162.811 L 341.036 168.924 339.499 168.951 C 338.654 168.965,337.809 168.991,337.621 169.007 C 337.342 169.033,337.268 169.543,337.216 171.815 L 337.152 174.593 337.899 174.729 C 339.687 175.054,360.623 174.744,360.847 174.388 C 360.966 174.200,361.065 172.956,361.067 171.624 C 361.071 168.822,361.157 168.924,358.789 168.924 L 357.228 168.924 357.084 167.957 C 356.917 166.832,357.026 158.321,357.210 158.138 C 357.278 158.070,359.413 157.943,361.954 157.856 C 365.464 157.735,366.651 157.620,366.895 157.375 C 367.389 156.881,367.358 150.430,366.859 149.931 C 366.126 149.198,357.988 149.527,357.360 150.315 C 356.866 150.934,355.241 150.977,354.968 150.377 C 354.826 150.066,354.449 149.808,354.004 149.719 C 352.882 149.495,338.259 149.574,337.678 149.808 M213.207 157.143 C 213.372 157.519,213.658 157.674,214.286 157.726 C 214.955 157.781,215.139 157.892,215.139 158.238 C 215.139 158.657,214.949 158.680,211.370 158.680 C 208.914 158.680,207.649 158.600,207.740 158.452 C 207.818 158.327,207.995 158.224,208.134 158.224 C 208.551 158.224,209.220 157.501,209.220 157.051 C 209.220 156.342,212.893 156.427,213.207 157.143 M255.246 158.225 C 255.332 160.039,255.272 160.084,253.792 159.306 C 253.056 158.919,252.344 158.775,250.882 158.719 C 248.395 158.622,247.240 158.163,247.240 157.270 L 247.240 156.631 251.205 156.631 L 255.170 156.631 255.246 158.225 M317.669 156.972 C 317.741 157.160,318.048 157.314,318.351 157.314 C 318.788 157.314,318.922 157.454,319.001 157.997 L 319.102 158.680 316.068 158.680 C 313.217 158.680,313.034 158.653,313.034 158.238 C 313.034 157.892,313.218 157.781,313.887 157.726 C 314.515 157.674,314.801 157.519,314.966 157.143 C 315.245 156.507,317.438 156.369,317.669 156.972 M135.231 165.727 C 135.231 166.579,135.187 166.635,134.418 166.779 C 133.971 166.863,133.485 167.124,133.339 167.359 C 133.101 167.740,132.761 167.786,130.167 167.786 L 127.262 167.786 127.265 167.160 C 127.269 166.315,128.434 165.799,130.640 165.667 C 131.773 165.600,132.430 165.448,132.681 165.197 C 132.920 164.958,133.438 164.826,134.141 164.826 L 135.231 164.826 135.231 165.727 M245.365 165.282 C 245.624 165.695,245.896 165.737,248.326 165.737 C 250.883 165.737,251.012 165.760,251.227 166.249 C 251.381 166.601,251.684 166.784,252.191 166.833 C 253.708 166.979,253.124 167.665,251.210 167.986 C 250.145 168.165,249.441 168.399,249.364 168.600 C 249.147 169.166,247.572 169.008,246.919 168.355 C 246.566 168.002,246.091 167.786,245.669 167.786 C 245.033 167.786,244.985 167.725,244.919 166.825 C 244.853 165.919,244.797 165.849,243.952 165.613 C 242.629 165.243,242.643 164.826,243.979 164.826 C 244.835 164.826,245.145 164.928,245.365 165.282 " stroke="none" fill="#fcfcfc" fill-rule="evenodd"></path></g></svg>