<svg id="svg" version="1.1" width="400" height="400" viewBox="0 0 400 400" xmlns="http://www.w3.org/2000/svg" xmlns:xlink="http://www.w3.org/1999/xlink" ><g id="svgg"><path id="path0" d="M343.200 98.200 C 343.200 99.133,343.067 99.200,341.200 99.200 C 339.333 99.200,339.200 99.267,339.200 100.200 C 339.200 101.000,339.000 101.200,338.200 101.200 C 337.400 101.200,337.200 101.400,337.200 102.200 C 337.200 103.133,337.067 103.200,335.200 103.200 C 333.333 103.200,333.200 103.267,333.200 104.200 C 333.200 105.048,333.015 105.200,331.981 105.200 C 331.194 105.200,330.433 105.555,329.835 106.200 C 329.325 106.750,328.524 107.200,328.054 107.200 C 327.410 107.200,327.200 107.446,327.200 108.200 C 327.200 109.181,326.923 109.286,324.592 109.192 C 324.192 109.175,323.277 110.204,323.338 110.600 C 323.372 110.820,322.905 111.057,322.300 111.127 C 321.436 111.226,321.200 111.462,321.200 112.227 C 321.200 113.041,321.005 113.200,320.000 113.200 C 318.206 113.200,317.204 113.727,317.338 114.600 C 317.372 114.820,316.905 115.057,316.300 115.127 C 315.444 115.225,315.200 115.464,315.200 116.205 C 315.200 117.056,315.000 117.169,313.300 117.278 C 311.679 117.382,311.381 117.532,311.272 118.300 C 311.180 118.951,310.876 119.200,310.172 119.200 C 309.402 119.200,309.200 119.408,309.200 120.200 C 309.200 121.133,309.067 121.200,307.200 121.200 C 305.333 121.200,305.200 121.267,305.200 122.200 C 305.200 123.000,305.000 123.200,304.200 123.200 C 303.400 123.200,303.200 123.400,303.200 124.200 C 303.200 125.133,303.067 125.200,301.200 125.200 C 299.333 125.200,299.200 125.267,299.200 126.200 C 299.200 127.048,299.015 127.200,297.981 127.200 C 297.194 127.200,296.433 127.555,295.835 128.200 C 295.325 128.750,294.524 129.200,294.054 129.200 C 293.410 129.200,293.200 129.446,293.200 130.200 C 293.200 131.048,293.015 131.200,291.981 131.200 C 291.194 131.200,290.433 131.555,289.835 132.200 C 289.325 132.750,288.524 133.200,288.054 133.200 C 287.410 133.200,287.200 133.446,287.200 134.200 C 287.200 135.156,286.607 135.386,284.400 135.286 C 284.048 135.270,283.179 136.373,283.292 136.692 C 283.351 136.861,282.905 137.057,282.300 137.127 C 281.444 137.225,281.200 137.464,281.200 138.205 C 281.200 139.056,281.000 139.169,279.300 139.278 C 277.679 139.382,277.381 139.532,277.272 140.300 C 277.180 140.951,276.876 141.200,276.172 141.200 C 275.408 141.200,275.200 141.409,275.200 142.178 C 275.200 143.061,275.015 143.168,273.300 143.278 C 271.679 143.382,271.381 143.532,271.272 144.300 C 271.180 144.951,270.876 145.200,270.172 145.200 C 269.402 145.200,269.200 145.408,269.200 146.200 C 269.200 147.133,269.067 147.200,267.200 147.200 C 265.333 147.200,265.200 147.267,265.200 148.200 C 265.200 149.000,265.000 149.200,264.200 149.200 C 263.400 149.200,263.200 149.400,263.200 150.200 C 263.200 151.133,263.067 151.200,261.200 151.200 C 259.333 151.200,259.200 151.267,259.200 152.200 C 259.200 153.048,259.015 153.200,257.981 153.200 C 257.194 153.200,256.433 153.555,255.835 154.200 C 255.325 154.750,254.524 155.200,254.054 155.200 C 253.410 155.200,253.200 155.446,253.200 156.200 C 253.200 157.044,253.013 157.200,252.000 157.200 C 250.206 157.200,249.204 157.727,249.338 158.600 C 249.372 158.820,248.905 159.057,248.300 159.127 C 247.436 159.226,247.200 159.462,247.200 160.227 C 247.200 161.078,245.367 161.716,244.690 161.100 C 244.466 160.896,243.279 162.214,243.338 162.600 C 243.372 162.820,242.905 163.057,242.300 163.127 C 241.436 163.226,241.200 163.462,241.200 164.227 C 241.200 164.998,240.993 165.200,240.200 165.200 C 239.229 165.200,239.200 165.280,239.200 168.000 C 239.200 170.699,239.235 170.800,240.172 170.800 C 240.862 170.800,241.181 171.051,241.272 171.664 C 241.342 172.139,241.724 172.574,242.121 172.631 C 243.073 172.769,244.800 173.915,244.800 174.409 C 244.800 174.624,245.320 174.800,245.957 174.800 C 246.857 174.800,247.169 175.022,247.364 175.800 C 247.583 176.670,247.836 176.800,249.313 176.800 C 250.690 176.800,251.085 176.970,251.405 177.700 C 251.700 178.372,252.197 178.632,253.364 178.728 C 254.445 178.816,255.165 179.157,255.693 179.828 C 256.339 180.648,256.804 180.800,258.671 180.800 C 260.556 180.800,261.002 180.949,261.671 181.800 C 262.397 182.722,262.714 182.800,265.759 182.800 C 268.769 182.800,269.144 182.889,270.006 183.806 L 270.951 184.812 281.976 184.706 L 293.000 184.600 293.128 183.700 C 293.252 182.824,293.384 182.800,298.020 182.800 C 302.769 182.800,302.786 182.797,303.036 181.800 C 303.273 180.854,303.437 180.800,306.043 180.800 C 308.717 180.800,308.800 180.770,308.800 179.800 C 308.800 178.867,308.933 178.800,310.800 178.800 C 312.667 178.800,312.800 178.733,312.800 177.800 C 312.800 176.867,312.933 176.800,314.800 176.800 C 316.667 176.800,316.800 176.733,316.800 175.800 C 316.800 174.928,316.975 174.800,318.171 174.800 C 319.157 174.800,319.763 174.519,320.329 173.800 C 320.761 173.250,321.494 172.800,321.958 172.800 C 322.589 172.800,322.800 172.550,322.800 171.800 C 322.800 171.000,323.000 170.800,323.800 170.800 C 324.600 170.800,324.800 170.600,324.800 169.800 C 324.800 168.956,324.987 168.800,326.000 168.800 C 326.811 168.800,327.200 168.601,327.200 168.187 C 327.200 167.851,327.511 167.456,327.891 167.310 C 328.930 166.911,331.200 164.513,331.200 163.813 C 331.200 163.467,331.548 163.200,332.000 163.200 C 332.622 163.200,332.800 162.933,332.800 162.000 C 332.800 160.987,332.956 160.800,333.800 160.800 C 334.587 160.800,334.800 160.597,334.800 159.847 C 334.800 159.247,335.081 158.820,335.558 158.695 C 335.975 158.586,336.634 157.828,337.021 157.012 C 337.409 156.195,337.968 155.434,338.263 155.320 C 338.558 155.207,338.800 154.606,338.800 153.984 C 338.800 153.236,339.050 152.775,339.539 152.619 C 340.274 152.386,341.200 150.838,341.200 149.843 C 341.200 149.558,341.541 149.015,341.959 148.637 C 342.376 148.260,342.912 147.177,343.150 146.231 C 343.389 145.286,343.857 144.285,344.192 144.007 C 344.526 143.729,344.800 143.278,344.800 143.004 C 344.800 142.730,345.346 140.850,346.013 138.826 C 350.062 126.539,350.870 109.256,347.767 101.332 C 347.235 99.974,346.800 98.489,346.800 98.032 C 346.800 97.313,346.556 97.200,345.000 97.200 C 343.347 97.200,343.200 97.281,343.200 98.200 M71.467 159.467 C 71.320 159.613,71.200 160.063,71.200 160.467 C 71.200 161.014,70.897 161.200,70.008 161.200 C 69.024 161.200,68.677 161.474,68.015 162.771 C 67.497 163.786,66.892 164.388,66.306 164.471 C 65.273 164.618,64.607 172.800,65.629 172.800 C 65.880 172.800,65.984 173.064,65.860 173.387 C 65.736 173.710,65.835 174.098,66.079 174.249 C 66.364 174.425,66.419 174.322,66.232 173.962 C 66.072 173.653,66.224 173.749,66.570 174.176 C 66.917 174.604,67.200 175.369,67.200 175.876 C 67.200 176.595,67.422 176.800,68.200 176.800 C 69.000 176.800,69.200 177.000,69.200 177.800 C 69.200 178.600,69.400 178.800,70.200 178.800 C 70.914 178.800,71.200 179.016,71.200 179.557 C 71.200 180.447,71.948 180.800,73.833 180.800 C 75.024 180.800,75.200 180.928,75.200 181.800 C 75.200 182.600,75.400 182.800,76.200 182.800 C 76.914 182.800,77.200 183.016,77.200 183.557 C 77.200 184.443,77.947 184.800,79.805 184.800 C 80.889 184.800,81.169 184.971,81.272 185.700 C 81.381 186.468,81.679 186.618,83.300 186.722 C 85.015 186.832,85.200 186.939,85.200 187.822 C 85.200 188.772,85.286 188.800,88.176 188.800 C 89.813 188.800,91.250 188.958,91.370 189.151 C 92.121 190.366,104.333 191.598,105.840 190.611 C 107.261 189.680,107.232 187.200,105.800 187.200 C 105.000 187.200,104.800 187.000,104.800 186.200 C 104.800 185.400,104.600 185.200,103.800 185.200 C 103.000 185.200,102.800 185.000,102.800 184.200 C 102.800 183.422,102.595 183.200,101.876 183.200 C 101.369 183.200,100.604 182.917,100.176 182.570 C 99.749 182.224,99.653 182.072,99.962 182.232 C 100.322 182.419,100.425 182.364,100.249 182.079 C 100.098 181.835,99.710 181.736,99.387 181.860 C 99.064 181.984,98.800 181.861,98.800 181.587 C 98.800 181.313,98.485 180.830,98.100 180.514 C 97.715 180.199,97.653 180.072,97.962 180.232 C 98.322 180.419,98.425 180.364,98.249 180.079 C 98.098 179.835,97.710 179.736,97.387 179.860 C 97.064 179.984,96.800 179.886,96.800 179.643 C 96.800 179.399,96.350 179.200,95.800 179.200 C 95.000 179.200,94.800 179.000,94.800 178.200 C 94.800 177.400,94.600 177.200,93.800 177.200 C 92.986 177.200,92.800 177.004,92.800 176.144 C 92.800 175.563,92.485 174.830,92.100 174.514 C 91.715 174.199,91.653 174.072,91.962 174.232 C 92.322 174.419,92.425 174.364,92.249 174.079 C 92.098 173.835,91.710 173.736,91.387 173.860 C 91.064 173.984,90.800 173.861,90.800 173.587 C 90.800 173.313,90.485 172.830,90.100 172.514 C 89.715 172.199,89.653 172.072,89.962 172.232 C 90.322 172.419,90.425 172.364,90.249 172.079 C 90.098 171.835,89.710 171.736,89.387 171.860 C 88.854 172.065,88.550 171.094,88.763 169.870 C 88.794 169.689,88.635 169.655,88.410 169.794 C 88.184 169.933,88.000 169.857,88.000 169.624 C 88.000 169.391,87.775 169.245,87.500 169.300 C 87.219 169.356,86.945 168.919,86.873 168.300 C 86.774 167.436,86.538 167.200,85.773 167.200 C 85.002 167.200,84.800 166.993,84.800 166.200 C 84.800 165.400,84.600 165.200,83.800 165.200 C 83.000 165.200,82.800 165.000,82.800 164.200 C 82.800 163.400,82.600 163.200,81.800 163.200 C 81.000 163.200,80.800 163.000,80.800 162.200 C 80.800 161.412,80.597 161.200,79.843 161.200 C 79.157 161.200,78.816 160.918,78.636 160.200 C 78.387 159.210,72.342 158.591,71.467 159.467 " stroke="none" fill="#e94747" fill-rule="evenodd"></path><path id="path1" d="M137.467 131.467 C 137.320 131.613,137.200 132.053,137.200 132.445 C 137.200 133.010,136.809 133.181,135.300 133.278 C 133.696 133.381,133.381 133.536,133.275 134.275 C 133.198 134.821,132.821 135.198,132.275 135.275 C 131.654 135.364,131.342 135.749,131.200 136.600 C 131.081 137.311,130.756 137.800,130.400 137.800 C 130.070 137.800,129.825 138.115,129.856 138.500 C 129.886 138.885,129.751 139.200,129.556 139.200 C 129.360 139.200,129.200 140.087,129.200 141.172 C 129.200 142.913,129.094 143.159,128.300 143.272 C 127.521 143.383,127.373 143.696,127.200 145.600 C 127.055 147.200,126.836 147.800,126.400 147.800 C 126.070 147.800,125.798 148.102,125.795 148.472 C 125.792 148.841,125.657 149.276,125.495 149.438 C 125.333 149.601,125.200 150.501,125.200 151.439 C 125.200 152.901,125.072 153.163,124.304 153.272 C 123.775 153.348,123.356 153.728,123.281 154.200 C 123.043 155.691,122.774 156.205,122.478 155.733 C 122.282 155.420,122.048 155.453,121.684 155.844 C 121.284 156.276,121.279 156.400,121.664 156.400 C 122.050 156.400,122.053 156.507,121.680 156.880 C 121.416 157.144,121.200 157.774,121.200 158.280 C 121.200 158.995,120.977 159.200,120.200 159.200 C 119.400 159.200,119.200 159.400,119.200 160.200 C 119.200 161.000,119.000 161.200,118.200 161.200 C 117.256 161.200,117.200 161.322,117.200 163.376 C 117.200 164.573,117.020 165.664,116.800 165.800 C 116.580 165.936,116.400 165.849,116.400 165.608 C 116.400 165.325,116.202 165.353,115.844 165.684 C 115.500 166.003,115.440 166.295,115.687 166.450 C 115.939 166.608,115.912 166.807,115.613 166.992 C 114.602 167.617,115.201 177.872,116.277 178.362 C 117.160 178.764,117.427 180.092,117.309 183.491 C 117.300 183.761,117.906 184.204,118.656 184.475 C 119.467 184.768,119.943 185.173,119.828 185.471 C 119.722 185.748,119.835 186.098,120.079 186.249 C 120.364 186.425,120.419 186.322,120.232 185.962 C 120.072 185.653,120.199 185.715,120.514 186.100 C 120.830 186.485,121.563 186.800,122.144 186.800 C 123.004 186.800,123.200 186.986,123.200 187.800 C 123.200 188.704,123.357 188.800,124.842 188.800 C 125.746 188.800,127.591 189.097,128.942 189.461 C 132.594 190.442,147.627 190.462,150.984 189.490 C 152.295 189.111,154.140 188.800,155.084 188.800 C 156.648 188.800,156.800 188.711,156.800 187.800 C 156.800 187.000,157.000 186.800,157.800 186.800 C 158.600 186.800,158.800 186.600,158.800 185.800 C 158.800 185.000,159.000 184.800,159.800 184.800 C 160.554 184.800,160.800 184.590,160.800 183.946 C 160.800 183.476,161.250 182.675,161.800 182.165 C 163.133 180.930,163.389 167.571,162.100 166.514 C 161.715 166.199,161.653 166.072,161.962 166.232 C 162.322 166.419,162.425 166.364,162.249 166.079 C 162.098 165.835,161.710 165.736,161.387 165.860 C 160.935 166.034,160.800 165.740,160.800 164.587 C 160.800 163.645,160.540 162.875,160.100 162.514 C 159.715 162.199,159.653 162.072,159.962 162.232 C 160.322 162.419,160.425 162.364,160.249 162.079 C 160.098 161.835,159.710 161.736,159.387 161.860 C 158.910 162.043,158.800 161.626,158.800 159.643 C 158.800 158.299,158.665 157.221,158.500 157.247 C 156.816 157.513,156.800 157.457,156.800 151.200 L 156.800 145.200 155.818 145.200 C 154.875 145.200,154.830 145.081,154.718 142.300 C 154.611 139.660,154.521 139.389,153.721 139.275 C 152.979 139.169,152.823 138.856,152.721 137.275 C 152.618 135.679,152.466 135.381,151.700 135.272 C 151.049 135.180,150.800 134.876,150.800 134.172 C 150.800 133.054,148.190 132.766,146.215 133.666 C 144.843 134.291,143.200 133.456,143.200 132.132 C 143.200 131.204,138.299 130.635,137.467 131.467 M185.680 147.680 C 185.416 147.944,185.200 148.394,185.200 148.680 C 185.200 148.966,184.763 149.200,184.228 149.200 C 183.524 149.200,183.220 149.449,183.128 150.100 C 183.046 150.678,182.678 151.046,182.100 151.128 C 181.457 151.219,181.200 151.525,181.200 152.200 C 181.200 152.875,180.943 153.181,180.300 153.272 C 179.544 153.380,179.380 153.685,179.273 155.179 C 179.183 156.442,178.864 157.220,178.173 157.860 C 176.663 159.259,176.688 172.800,178.200 172.800 C 178.917 172.800,179.070 173.396,179.164 176.570 C 179.253 179.548,179.682 180.800,180.614 180.800 C 180.985 180.800,181.202 181.203,181.206 181.900 C 181.209 182.505,181.380 183.265,181.585 183.589 C 181.831 183.978,181.794 184.291,181.479 184.506 C 181.137 184.740,181.171 184.815,181.600 184.769 C 182.820 184.639,183.147 184.821,183.272 185.700 C 183.351 186.258,183.721 186.646,184.245 186.721 C 184.710 186.787,185.291 187.282,185.537 187.821 C 185.782 188.359,186.282 188.800,186.648 188.800 C 187.013 188.800,188.052 189.138,188.956 189.551 C 194.829 192.233,199.033 192.984,201.770 191.839 C 203.227 191.230,203.484 191.230,205.325 191.841 C 208.594 192.927,218.800 190.867,218.800 189.121 C 218.800 188.945,219.250 188.800,219.800 188.800 C 220.600 188.800,220.800 188.600,220.800 187.800 C 220.800 187.000,221.000 186.800,221.800 186.800 C 222.554 186.800,222.800 186.590,222.800 185.946 C 222.800 185.476,223.250 184.675,223.800 184.165 C 224.435 183.576,224.800 182.804,224.800 182.047 C 224.800 181.116,224.997 180.828,225.700 180.728 C 226.454 180.621,226.620 180.315,226.726 178.837 C 226.819 177.539,227.109 176.872,227.826 176.308 L 228.800 175.542 228.800 165.762 L 228.800 155.983 227.800 155.527 C 226.985 155.156,226.800 154.786,226.800 153.527 C 226.800 152.277,226.614 151.898,225.821 151.537 C 225.282 151.291,224.787 150.712,224.721 150.249 C 224.654 149.783,224.244 149.341,223.800 149.258 C 222.882 149.085,222.333 148.408,222.574 147.746 C 222.694 147.418,220.586 147.273,215.008 147.226 L 207.276 147.160 206.238 148.198 C 205.307 149.129,205.200 149.543,205.200 152.209 C 205.200 155.516,204.703 156.209,202.150 156.459 C 200.274 156.642,199.601 155.849,199.597 153.451 C 199.595 152.323,199.480 150.455,199.341 149.300 L 199.089 147.200 192.624 147.200 C 188.130 147.200,186.014 147.346,185.680 147.680 M181.784 150.027 C 181.639 150.261,181.616 150.549,181.733 150.667 C 182.020 150.953,182.800 150.448,182.800 149.976 C 182.800 149.465,182.109 149.499,181.784 150.027 M228.400 175.151 C 228.400 175.663,227.224 176.557,226.933 176.267 C 226.643 175.976,227.537 174.800,228.049 174.800 C 228.242 174.800,228.400 174.958,228.400 175.151 M257.338 189.813 C 257.964 190.172,259.494 190.563,260.738 190.682 C 261.982 190.800,263.990 191.216,265.200 191.606 C 271.675 193.691,296.517 193.572,300.758 191.436 C 301.331 191.147,303.094 190.807,304.676 190.681 C 306.258 190.554,308.058 190.159,308.676 189.802 C 309.758 189.178,309.763 189.163,308.800 189.384 C 308.250 189.510,306.380 189.799,304.645 190.026 C 302.910 190.253,300.480 190.705,299.245 191.030 C 293.438 192.559,273.963 192.786,267.800 191.396 C 266.260 191.048,263.560 190.505,261.800 190.187 C 260.040 189.870,258.060 189.509,257.400 189.385 L 256.200 189.160 257.338 189.813 " stroke="none" fill="#8fb840" fill-rule="evenodd"></path><path id="path2" d="M19.200 198.000 L 19.200 206.800 40.200 206.800 L 61.200 206.800 61.200 207.800 C 61.200 208.652,61.384 208.800,62.443 208.800 C 63.333 208.800,63.626 208.956,63.474 209.350 C 63.231 209.985,64.757 210.800,66.191 210.800 C 66.875 210.800,67.180 211.054,67.272 211.700 C 67.381 212.468,67.679 212.618,69.300 212.722 C 71.015 212.832,71.200 212.939,71.200 213.822 C 71.200 214.599,71.406 214.800,72.200 214.800 C 73.095 214.800,73.280 215.002,73.166 215.855 C 73.097 216.367,74.235 216.788,75.700 216.794 C 77.032 216.799,77.200 216.912,77.200 217.800 C 77.200 218.682,77.370 218.800,78.643 218.800 C 79.747 218.800,80.033 218.938,79.860 219.387 C 79.736 219.710,79.835 220.098,80.079 220.249 C 80.364 220.425,80.419 220.322,80.232 219.962 C 80.072 219.653,80.199 219.715,80.514 220.100 C 80.830 220.485,81.563 220.800,82.144 220.800 C 83.004 220.800,83.200 220.986,83.200 221.800 C 83.200 222.733,83.333 222.800,85.200 222.800 C 87.067 222.800,87.200 222.867,87.200 223.800 C 87.200 224.652,87.384 224.800,88.443 224.800 C 89.333 224.800,89.626 224.956,89.474 225.350 C 89.231 225.985,90.757 226.800,92.191 226.800 C 92.875 226.800,93.180 227.054,93.272 227.700 C 93.381 228.468,93.679 228.618,95.300 228.722 C 97.015 228.832,97.200 228.939,97.200 229.822 C 97.200 230.772,97.286 230.800,100.172 230.800 C 102.950 230.800,103.153 230.859,103.272 231.700 L 103.400 232.600 200.199 232.600 C 296.732 232.600,296.999 232.598,296.999 231.800 C 297.000 231.089,297.334 230.978,300.000 230.800 C 301.987 230.668,303.017 230.431,303.050 230.100 C 303.078 229.825,303.123 229.420,303.150 229.200 C 303.178 228.980,304.010 228.800,305.000 228.800 C 306.653 228.800,306.800 228.719,306.800 227.800 C 306.800 226.859,308.367 226.416,310.500 226.753 C 310.665 226.779,310.779 226.665,310.753 226.500 C 310.545 225.188,310.869 224.800,312.171 224.800 C 313.157 224.800,313.763 224.519,314.329 223.800 C 314.761 223.250,315.494 222.800,315.958 222.800 C 316.589 222.800,316.800 222.550,316.800 221.800 C 316.800 220.859,318.367 220.416,320.500 220.753 C 320.665 220.779,320.779 220.665,320.753 220.500 C 320.545 219.188,320.869 218.800,322.171 218.800 C 323.157 218.800,323.763 218.519,324.329 217.800 C 324.761 217.250,325.494 216.800,325.958 216.800 C 326.589 216.800,326.800 216.550,326.800 215.800 C 326.800 214.859,328.367 214.416,330.500 214.753 C 330.665 214.779,330.779 214.665,330.753 214.500 C 330.545 213.188,330.869 212.800,332.171 212.800 C 333.157 212.800,333.763 212.519,334.329 211.800 C 334.761 211.250,335.494 210.800,335.958 210.800 C 336.589 210.800,336.800 210.550,336.800 209.800 C 336.800 208.859,338.367 208.416,340.500 208.753 C 340.665 208.779,340.779 208.665,340.753 208.500 C 340.470 206.711,339.422 206.800,360.800 206.800 L 380.800 206.800 380.800 198.000 L 380.800 189.200 345.380 189.200 C 314.029 189.200,309.821 189.272,308.750 189.826 C 308.085 190.170,306.248 190.555,304.670 190.681 C 303.091 190.807,301.331 191.147,300.758 191.436 C 296.517 193.572,271.675 193.691,265.200 191.606 C 263.990 191.216,261.985 190.801,260.745 190.682 C 259.505 190.564,257.939 190.182,257.265 189.834 C 256.199 189.282,253.647 189.200,237.652 189.200 L 219.263 189.200 215.932 190.619 C 211.766 192.394,208.221 192.804,205.332 191.844 C 203.483 191.230,203.227 191.229,201.770 191.839 C 199.131 192.943,194.197 192.110,189.468 189.762 C 187.919 188.993,151.879 188.927,150.126 189.690 C 148.623 190.345,132.059 190.329,129.800 189.671 C 127.780 189.082,106.800 189.009,106.800 189.591 C 106.800 191.299,98.293 191.422,92.918 189.791 C 91.301 189.300,85.361 189.208,55.100 189.204 L 19.200 189.200 19.200 198.000 M304.300 207.087 C 303.695 207.178,303.200 207.401,303.200 207.582 C 303.200 207.763,302.885 207.886,302.500 207.856 C 302.061 207.821,301.821 208.061,301.856 208.500 C 301.898 209.040,301.601 209.200,300.556 209.200 C 299.376 209.200,299.200 209.330,299.200 210.200 C 299.200 211.133,299.067 211.200,297.200 211.200 C 295.333 211.200,295.200 211.267,295.200 212.200 C 295.200 213.000,295.000 213.200,294.200 213.200 C 293.400 213.200,293.200 213.400,293.200 214.200 L 293.200 215.200 201.000 215.200 L 108.800 215.200 108.800 214.200 C 108.800 213.271,108.662 213.200,106.864 213.200 C 105.188 213.200,104.867 213.066,104.473 212.200 C 104.097 211.375,103.736 211.200,102.409 211.200 C 100.959 211.200,100.800 211.101,100.800 210.200 C 100.800 209.422,100.595 209.200,99.876 209.200 C 99.369 209.200,98.604 208.917,98.176 208.570 C 97.749 208.224,97.653 208.072,97.962 208.232 C 98.322 208.419,98.425 208.364,98.249 208.079 C 98.098 207.835,97.710 207.736,97.387 207.860 C 97.064 207.984,96.800 207.898,96.800 207.669 C 96.800 207.440,96.305 207.178,95.700 207.087 C 95.095 206.995,142.030 206.920,200.000 206.920 C 257.970 206.920,304.905 206.995,304.300 207.087 " stroke="none" fill="#b4b4b4" fill-rule="evenodd"></path><path id="path3" d="M348.029 94.654 C 346.953 96.022,346.915 99.534,347.952 101.816 C 350.888 108.281,349.907 127.008,346.013 138.826 C 345.346 140.850,344.800 142.730,344.800 143.004 C 344.800 143.278,344.526 143.729,344.192 144.007 C 343.857 144.285,343.389 145.286,343.150 146.231 C 342.912 147.177,342.376 148.260,341.959 148.637 C 341.541 149.015,341.200 149.722,341.200 150.207 C 341.200 150.693,340.743 151.548,340.185 152.106 C 339.626 152.665,339.088 153.544,338.989 154.060 C 338.889 154.575,338.621 155.060,338.393 155.136 C 338.165 155.212,337.615 155.986,337.171 156.856 C 336.727 157.727,336.102 158.539,335.782 158.662 C 335.462 158.785,335.200 159.394,335.200 160.015 C 335.200 160.882,334.991 161.174,334.300 161.272 C 333.722 161.354,333.354 161.722,333.272 162.300 C 333.180 162.951,332.876 163.200,332.172 163.200 C 331.415 163.200,331.200 163.410,331.200 164.153 C 331.200 164.782,330.917 165.181,330.370 165.324 C 329.914 165.443,329.446 165.904,329.330 166.348 C 329.213 166.792,328.732 167.210,328.259 167.278 C 327.730 167.353,327.352 167.736,327.275 168.275 C 327.198 168.821,326.821 169.198,326.275 169.275 C 325.730 169.353,325.353 169.730,325.275 170.275 C 325.198 170.821,324.821 171.198,324.275 171.275 C 323.721 171.354,323.353 171.730,323.272 172.300 C 323.179 172.957,322.876 173.200,322.154 173.200 C 321.609 173.200,320.714 173.650,320.164 174.200 C 319.614 174.750,318.722 175.200,318.182 175.200 C 317.407 175.200,317.200 175.406,317.200 176.177 C 317.200 177.040,317.002 177.168,315.500 177.277 C 314.187 177.372,313.710 177.605,313.405 178.300 C 313.120 178.949,312.647 179.214,311.705 179.250 C 309.569 179.332,309.402 179.378,309.350 179.900 C 309.322 180.175,309.278 180.580,309.250 180.800 C 309.223 181.020,308.292 181.200,307.182 181.200 C 305.572 181.200,304.965 181.399,304.182 182.182 C 303.367 182.997,302.742 183.184,300.500 183.282 C 298.143 183.385,297.750 183.514,297.405 184.300 L 297.010 185.200 284.063 185.200 L 271.115 185.200 270.329 184.200 C 269.603 183.278,269.286 183.200,266.241 183.200 C 263.237 183.200,262.855 183.110,262.000 182.200 C 261.234 181.384,260.681 181.200,259.000 181.200 C 257.319 181.200,256.766 181.016,256.000 180.200 C 255.440 179.604,254.617 179.200,253.961 179.200 C 253.356 179.200,252.327 178.750,251.673 178.200 C 250.920 177.566,249.991 177.200,249.137 177.200 C 248.123 177.200,247.692 176.977,247.395 176.300 C 247.159 175.762,246.580 175.351,245.954 175.279 C 245.320 175.205,244.741 174.788,244.481 174.219 C 244.246 173.702,243.817 173.290,243.527 173.303 C 241.380 173.397,240.800 173.176,240.800 172.266 C 240.800 171.094,236.533 170.676,235.634 171.759 C 234.914 172.627,235.261 174.139,236.284 174.588 C 236.770 174.801,237.220 175.341,237.284 175.788 C 237.354 176.279,237.756 176.651,238.300 176.728 C 238.951 176.820,239.200 177.124,239.200 177.828 C 239.200 178.598,239.408 178.800,240.200 178.800 C 241.000 178.800,241.200 179.000,241.200 179.800 C 241.200 180.592,241.402 180.800,242.172 180.800 C 242.876 180.800,243.180 181.049,243.272 181.700 C 243.351 182.258,243.721 182.646,244.245 182.721 C 244.710 182.787,245.291 183.282,245.537 183.821 C 245.902 184.623,246.273 184.800,247.591 184.800 C 249.041 184.800,249.200 184.899,249.200 185.800 C 249.200 186.583,249.404 186.800,250.139 186.800 C 250.726 186.800,251.228 187.136,251.479 187.698 C 251.815 188.452,252.388 188.671,255.040 189.057 C 259.356 189.686,264.404 190.625,268.000 191.468 C 272.243 192.463,292.673 192.457,297.200 191.459 C 298.850 191.095,301.370 190.609,302.800 190.379 C 304.230 190.148,306.750 189.701,308.400 189.385 C 310.050 189.069,312.153 188.774,313.074 188.729 C 313.995 188.684,314.739 188.546,314.727 188.423 C 314.600 187.119,314.883 186.800,316.171 186.800 C 317.442 186.800,318.800 185.982,318.800 185.217 C 318.800 184.938,320.174 184.541,321.878 184.327 C 322.141 184.294,322.344 184.162,322.330 184.033 C 322.231 183.111,322.551 182.800,323.600 182.800 C 324.598 182.800,324.800 182.639,324.800 181.845 C 324.800 180.923,325.372 180.641,327.878 180.327 C 328.141 180.294,328.344 180.162,328.330 180.033 C 328.237 179.171,328.536 178.838,329.500 178.727 C 330.288 178.636,330.636 178.344,330.728 177.700 C 330.820 177.049,331.124 176.800,331.828 176.800 C 332.598 176.800,332.800 176.592,332.800 175.800 C 332.800 175.013,333.003 174.800,333.753 174.800 C 334.382 174.800,334.781 174.517,334.924 173.970 C 335.043 173.514,335.514 173.043,335.970 172.924 C 336.517 172.781,336.800 172.382,336.800 171.753 C 336.800 171.003,337.013 170.800,337.800 170.800 C 338.600 170.800,338.800 170.600,338.800 169.800 C 338.800 169.000,339.000 168.800,339.800 168.800 C 340.600 168.800,340.800 168.600,340.800 167.800 C 340.800 167.000,341.000 166.800,341.800 166.800 C 342.592 166.800,342.800 166.598,342.800 165.828 C 342.800 165.124,343.049 164.820,343.700 164.728 C 344.420 164.626,344.640 164.280,344.800 163.000 C 344.945 161.837,345.246 161.292,345.900 161.005 C 346.440 160.768,346.800 160.259,346.800 159.733 C 346.800 159.128,347.079 158.816,347.700 158.728 C 348.420 158.626,348.640 158.280,348.800 157.000 C 348.944 155.849,349.247 155.291,349.881 155.013 C 350.544 154.722,350.792 154.226,350.881 153.013 C 350.971 151.789,351.217 151.305,351.900 151.005 C 352.652 150.675,352.800 150.297,352.800 148.705 C 352.800 146.852,353.022 146.583,354.430 146.729 C 354.556 146.742,354.702 145.823,354.754 144.685 C 354.839 142.809,355.353 141.800,356.014 142.209 C 356.394 142.444,356.464 141.830,356.664 136.494 C 356.838 131.830,356.895 131.556,357.824 130.948 C 358.799 130.309,358.800 130.298,358.800 123.145 L 358.800 115.983 357.800 115.527 C 356.839 115.089,356.800 114.929,356.800 111.382 C 356.800 107.890,356.747 107.657,355.803 107.038 C 355.254 106.679,354.825 106.253,354.850 106.092 C 355.179 103.947,354.719 101.946,353.800 101.527 C 352.985 101.156,352.800 100.786,352.800 99.527 C 352.800 98.268,352.615 97.899,351.800 97.527 C 351.250 97.277,350.800 96.761,350.800 96.382 C 350.800 96.002,350.344 95.393,349.787 95.028 C 349.230 94.663,348.881 94.193,349.011 93.982 C 349.508 93.178,348.820 93.648,348.029 94.654 M174.539 127.788 C 173.252 128.689,173.122 129.836,174.248 130.349 C 175.127 130.749,175.377 131.491,175.309 133.488 C 175.300 133.756,175.634 134.084,176.051 134.216 C 176.468 134.348,177.081 134.984,177.415 135.628 C 177.748 136.273,178.257 136.800,178.546 136.800 C 178.835 136.800,179.277 137.250,179.527 137.800 C 179.901 138.621,180.266 138.800,181.564 138.800 C 182.898 138.800,183.164 138.940,183.272 139.700 C 183.381 140.468,183.679 140.618,185.298 140.722 C 187.064 140.835,188.433 141.834,187.753 142.514 C 187.633 142.634,190.719 142.754,194.612 142.781 C 203.017 142.840,202.768 142.973,202.787 138.395 C 202.799 135.656,202.720 135.355,201.900 134.995 C 201.405 134.778,200.978 134.375,200.950 134.100 C 200.923 133.825,200.878 133.245,200.850 132.810 C 200.822 132.373,200.277 131.750,199.628 131.415 C 198.984 131.081,198.348 130.468,198.216 130.051 C 198.084 129.634,197.756 129.300,197.488 129.309 C 195.700 129.370,194.800 129.137,194.800 128.614 C 194.800 127.096,176.587 126.353,174.539 127.788 M143.200 132.132 C 143.200 133.456,144.843 134.291,146.215 133.666 C 146.778 133.410,147.604 133.200,148.052 133.200 C 149.657 133.200,148.515 132.198,146.769 132.075 C 145.796 132.006,144.829 131.781,144.620 131.575 C 143.932 130.896,143.200 131.184,143.200 132.132 M199.445 151.206 C 199.758 156.235,200.097 156.821,202.444 156.392 C 205.048 155.916,205.334 155.200,202.921 155.200 L 200.882 155.200 200.741 151.814 C 200.634 149.242,200.430 148.258,199.892 147.720 C 199.214 147.043,199.195 147.194,199.445 151.206 M205.829 147.829 C 205.462 148.195,205.265 148.598,205.390 148.724 C 205.516 148.850,205.919 148.652,206.286 148.286 C 206.652 147.919,206.850 147.516,206.724 147.390 C 206.598 147.265,206.195 147.462,205.829 147.829 M182.800 149.957 C 182.800 150.227,182.592 150.319,182.338 150.162 C 182.065 149.993,181.984 150.051,182.141 150.304 C 182.286 150.539,182.179 150.823,181.902 150.934 C 181.604 151.055,181.689 151.150,182.113 151.168 C 182.838 151.201,183.503 150.170,183.049 149.716 C 182.912 149.579,182.800 149.687,182.800 149.957 M177.338 157.817 C 176.991 158.721,177.302 158.769,178.100 157.933 C 178.692 157.313,178.706 157.200,178.187 157.200 C 177.851 157.200,177.468 157.478,177.338 157.817 M177.232 172.256 C 177.189 172.875,178.670 174.661,178.975 174.357 C 179.361 173.973,178.769 172.800,178.191 172.800 C 177.902 172.800,177.576 172.575,177.465 172.300 C 177.335 171.977,177.252 171.961,177.232 172.256 M227.192 175.410 C 226.914 175.745,226.797 176.131,226.933 176.267 C 227.224 176.557,228.400 175.663,228.400 175.151 C 228.400 174.600,227.748 174.740,227.192 175.410 M223.900 184.067 C 223.308 184.687,223.294 184.800,223.813 184.800 C 224.149 184.800,224.532 184.522,224.662 184.183 C 225.009 183.279,224.698 183.231,223.900 184.067 " stroke="none" fill="#245c0c" fill-rule="evenodd"></path><path id="path4" d="M348.000 94.000 C 347.560 94.440,347.203 95.025,347.206 95.300 C 347.211 95.674,347.298 95.665,347.551 95.266 C 347.737 94.972,348.049 94.747,348.245 94.766 C 348.440 94.785,348.600 94.635,348.600 94.433 C 348.600 94.232,348.750 93.917,348.933 93.733 C 349.117 93.550,349.207 93.639,349.133 93.932 C 349.060 94.225,349.405 94.742,349.900 95.081 C 351.016 95.846,351.225 94.882,350.171 93.829 C 349.348 93.005,348.965 93.035,348.000 94.000 M354.970 105.874 C 355.111 106.833,356.800 107.944,356.800 107.077 C 356.800 106.417,355.767 105.200,355.207 105.200 C 355.022 105.200,354.915 105.503,354.970 105.874 M151.200 120.200 C 151.200 121.000,151.000 121.200,150.200 121.200 C 149.400 121.200,149.200 121.400,149.200 122.200 C 149.200 123.000,149.000 123.200,148.200 123.200 C 147.400 123.200,147.200 123.400,147.200 124.200 C 147.200 125.000,147.000 125.200,146.200 125.200 C 145.446 125.200,145.200 125.410,145.200 126.054 C 145.200 126.524,144.750 127.325,144.200 127.835 C 142.078 129.802,143.390 132.000,146.685 132.000 C 147.414 132.000,148.354 132.214,148.773 132.476 C 149.593 132.988,150.800 132.375,150.800 131.446 C 150.800 131.195,151.205 130.812,151.700 130.595 C 152.392 130.291,152.628 129.812,152.722 128.522 C 152.843 126.860,152.860 126.843,154.522 126.722 C 155.802 126.629,156.292 126.390,156.588 125.716 C 156.801 125.230,157.341 124.780,157.788 124.716 C 158.498 124.615,158.615 124.262,158.718 121.900 L 158.837 119.200 155.018 119.200 C 151.212 119.200,151.200 119.203,151.200 120.200 M173.467 127.467 C 173.320 127.613,173.211 128.198,173.225 128.767 C 173.250 129.754,173.266 129.762,173.600 128.934 C 173.792 128.458,174.275 127.878,174.674 127.646 C 175.351 127.253,175.344 127.224,174.567 127.212 C 174.108 127.205,173.613 127.320,173.467 127.467 M198.006 129.500 C 198.024 130.377,198.788 130.959,198.794 130.100 C 198.797 129.605,198.620 129.200,198.400 129.200 C 198.180 129.200,198.003 129.335,198.006 129.500 M211.467 129.467 C 211.320 129.613,211.200 130.063,211.200 130.467 C 211.200 131.080,210.873 131.200,209.200 131.200 C 207.333 131.200,207.200 131.267,207.200 132.200 C 207.200 133.029,207.008 133.200,206.076 133.200 C 203.814 133.200,202.881 135.025,202.805 139.600 C 202.767 141.862,202.079 142.800,200.456 142.800 C 198.926 142.800,198.540 146.208,199.900 147.710 C 200.419 148.284,200.636 149.350,200.741 151.842 L 200.882 155.200 202.841 155.200 L 204.800 155.200 204.800 151.000 L 204.800 146.800 205.800 146.800 C 206.727 146.800,206.800 146.660,206.800 144.895 C 206.800 143.303,206.948 142.925,207.700 142.595 C 208.395 142.290,208.628 141.813,208.723 140.500 C 208.832 138.998,208.960 138.800,209.823 138.800 C 210.598 138.800,210.800 138.594,210.800 137.800 C 210.800 136.822,210.867 136.800,213.800 136.800 L 216.800 136.800 216.800 133.000 L 216.800 129.200 214.267 129.200 C 212.873 129.200,211.613 129.320,211.467 129.467 M173.200 130.400 C 173.200 130.620,173.605 130.797,174.100 130.794 C 174.828 130.789,174.885 130.714,174.400 130.400 C 173.624 129.899,173.200 129.899,173.200 130.400 M357.700 131.012 C 356.703 131.713,356.491 132.800,357.351 132.800 C 358.105 132.800,358.895 131.776,358.733 131.008 C 358.612 130.435,358.518 130.436,357.700 131.012 M200.947 133.700 C 201.077 134.558,201.623 135.200,202.224 135.200 C 202.979 135.200,202.956 134.613,202.171 133.829 C 201.416 133.073,200.842 133.013,200.947 133.700 M175.200 134.400 C 175.200 134.620,175.605 134.797,176.100 134.794 C 176.828 134.789,176.885 134.714,176.400 134.400 C 175.624 133.899,175.200 133.899,175.200 134.400 M355.714 141.900 C 354.858 142.770,354.855 142.800,355.627 142.800 C 356.066 142.800,356.526 142.536,356.650 142.213 C 357.062 141.140,356.611 140.989,355.714 141.900 M187.200 141.867 C 187.200 142.307,187.467 142.667,187.794 142.667 C 188.271 142.667,188.293 142.542,187.907 142.033 C 187.643 141.685,187.375 141.325,187.313 141.233 C 187.251 141.142,187.200 141.427,187.200 141.867 M351.280 151.280 C 350.644 151.916,350.668 152.800,351.320 152.800 C 351.989 152.800,352.800 151.989,352.800 151.320 C 352.800 150.668,351.916 150.644,351.280 151.280 M63.200 152.200 C 63.200 153.003,63.001 153.200,62.187 153.200 L 61.175 153.200 61.287 157.900 C 61.396 162.430,61.433 162.605,62.300 162.728 C 62.867 162.808,63.200 163.132,63.200 163.604 C 63.200 165.641,66.872 165.011,68.011 162.779 C 69.150 160.547,69.070 159.200,67.800 159.200 C 66.855 159.200,66.800 159.080,66.800 157.000 C 66.800 154.920,66.855 154.800,67.800 154.800 C 68.719 154.800,68.800 154.653,68.800 153.000 L 68.800 151.200 66.000 151.200 C 63.280 151.200,63.200 151.229,63.200 152.200 M349.280 155.280 C 348.644 155.916,348.668 156.800,349.320 156.800 C 349.989 156.800,350.800 155.989,350.800 155.320 C 350.800 154.668,349.916 154.644,349.280 155.280 M345.280 161.280 C 344.644 161.916,344.668 162.800,345.320 162.800 C 345.989 162.800,346.800 161.989,346.800 161.320 C 346.800 160.668,345.916 160.644,345.280 161.280 M88.800 171.504 C 88.800 171.937,90.433 172.900,90.706 172.628 C 90.831 172.502,90.713 172.400,90.443 172.400 C 90.173 172.400,90.081 172.192,90.238 171.938 C 90.415 171.652,90.348 171.585,90.062 171.762 C 89.808 171.919,89.600 171.857,89.600 171.624 C 89.600 171.391,89.420 171.200,89.200 171.200 C 88.980 171.200,88.800 171.337,88.800 171.504 M65.200 173.200 C 65.200 173.420,65.391 173.600,65.624 173.600 C 65.857 173.600,65.919 173.808,65.762 174.062 C 65.585 174.348,65.652 174.415,65.938 174.238 C 66.192 174.081,66.400 174.173,66.400 174.443 C 66.400 174.713,66.502 174.831,66.628 174.706 C 66.900 174.433,65.937 172.800,65.504 172.800 C 65.337 172.800,65.200 172.980,65.200 173.200 M335.280 173.280 C 334.644 173.916,334.668 174.800,335.320 174.800 C 335.989 174.800,336.800 173.989,336.800 173.320 C 336.800 172.668,335.916 172.644,335.280 173.280 M90.800 173.504 C 90.800 173.937,92.433 174.900,92.706 174.628 C 92.831 174.502,92.713 174.400,92.443 174.400 C 92.173 174.400,92.081 174.192,92.238 173.938 C 92.415 173.652,92.348 173.585,92.062 173.762 C 91.808 173.919,91.600 173.857,91.600 173.624 C 91.600 173.391,91.420 173.200,91.200 173.200 C 90.980 173.200,90.800 173.337,90.800 173.504 M327.714 179.900 C 326.858 180.770,326.855 180.800,327.627 180.800 C 328.066 180.800,328.526 180.536,328.650 180.213 C 329.062 179.140,328.611 178.989,327.714 179.900 M96.800 179.504 C 96.800 179.937,98.433 180.900,98.706 180.628 C 98.831 180.502,98.713 180.400,98.443 180.400 C 98.173 180.400,98.081 180.192,98.238 179.938 C 98.415 179.652,98.348 179.585,98.062 179.762 C 97.808 179.919,97.600 179.857,97.600 179.624 C 97.600 179.391,97.420 179.200,97.200 179.200 C 96.980 179.200,96.800 179.337,96.800 179.504 M98.800 181.504 C 98.800 181.937,100.433 182.900,100.706 182.628 C 100.831 182.502,100.713 182.400,100.443 182.400 C 100.173 182.400,100.081 182.192,100.238 181.938 C 100.415 181.652,100.348 181.585,100.062 181.762 C 99.808 181.919,99.600 181.857,99.600 181.624 C 99.600 181.391,99.420 181.200,99.200 181.200 C 98.980 181.200,98.800 181.337,98.800 181.504 M303.350 181.787 C 302.938 182.860,303.389 183.011,304.286 182.100 C 305.142 181.230,305.145 181.200,304.373 181.200 C 303.934 181.200,303.474 181.464,303.350 181.787 M321.714 183.900 C 320.858 184.770,320.855 184.800,321.627 184.800 C 322.066 184.800,322.526 184.536,322.650 184.213 C 323.062 183.140,322.611 182.989,321.714 183.900 M33.200 259.000 L 33.200 266.800 39.000 266.800 L 44.800 266.800 44.800 263.800 L 44.800 260.800 48.000 260.800 L 51.200 260.800 51.200 278.000 L 51.200 295.200 50.200 295.200 C 49.400 295.200,49.200 295.400,49.200 296.200 C 49.200 297.133,49.067 297.200,47.200 297.200 L 45.200 297.200 45.200 302.000 L 45.200 306.800 58.000 306.800 L 70.800 306.800 70.800 302.000 L 70.800 297.200 68.800 297.200 C 66.933 297.200,66.800 297.133,66.800 296.200 C 66.800 295.400,66.600 295.200,65.800 295.200 L 64.800 295.200 64.800 278.000 L 64.800 260.800 68.000 260.800 L 71.200 260.800 71.200 263.800 L 71.200 266.800 76.200 266.800 L 81.200 266.800 81.200 269.800 C 81.200 272.733,81.222 272.800,82.200 272.800 C 83.000 272.800,83.200 273.000,83.200 273.800 C 83.200 274.733,83.333 274.800,85.200 274.800 L 87.200 274.800 87.200 285.000 L 87.200 295.200 86.200 295.200 C 85.400 295.200,85.200 295.400,85.200 296.200 C 85.200 297.133,85.067 297.200,83.200 297.200 L 81.200 297.200 81.200 302.000 L 81.200 306.800 93.000 306.800 L 104.800 306.800 104.800 302.000 L 104.800 297.200 103.800 297.200 C 103.000 297.200,102.800 297.000,102.800 296.200 C 102.800 295.400,102.600 295.200,101.800 295.200 L 100.800 295.200 100.800 287.000 L 100.800 278.800 101.800 278.800 C 102.600 278.800,102.800 278.600,102.800 277.800 L 102.800 276.800 106.800 276.800 L 110.800 276.800 110.800 273.800 C 110.800 270.855,110.819 270.800,111.815 270.800 L 112.830 270.800 112.715 267.100 L 112.600 263.400 107.900 263.287 L 103.200 263.175 103.200 264.187 C 103.200 265.046,103.017 265.200,102.000 265.200 C 101.340 265.200,100.800 265.033,100.800 264.829 C 100.800 263.391,99.674 263.200,91.171 263.200 L 82.800 263.200 82.800 257.200 L 82.800 251.200 58.000 251.200 L 33.200 251.200 33.200 259.000 M273.200 259.182 L 273.200 263.165 270.300 263.282 L 267.400 263.400 267.289 269.100 L 267.178 274.800 270.183 274.800 L 273.189 274.800 273.294 287.700 L 273.400 300.600 274.300 300.728 C 275.029 300.831,275.200 301.110,275.200 302.199 C 275.200 303.916,276.094 304.800,277.829 304.800 C 279.028 304.800,279.200 304.927,279.200 305.808 L 279.200 306.817 287.100 306.708 L 295.000 306.600 295.000 301.000 L 295.000 295.400 292.103 295.283 C 289.404 295.173,289.190 295.098,288.960 294.183 C 288.807 293.572,288.427 293.200,287.957 293.200 C 287.236 293.200,287.200 292.758,287.200 284.000 L 287.200 274.800 290.776 274.800 C 295.002 274.800,294.896 274.904,295.125 270.538 C 295.467 264.034,294.927 263.200,290.371 263.200 L 287.200 263.200 287.200 259.200 L 287.200 255.200 280.200 255.200 L 273.200 255.200 273.200 259.182 M123.467 263.467 C 123.320 263.613,123.200 264.055,123.200 264.449 C 123.200 265.060,122.776 265.182,120.300 265.282 C 117.660 265.389,117.389 265.479,117.275 266.279 C 117.169 267.021,116.856 267.177,115.275 267.279 L 113.400 267.400 113.289 273.100 L 113.178 278.800 118.989 278.800 L 124.800 278.800 124.800 277.847 C 124.800 277.218,125.083 276.819,125.630 276.676 C 126.086 276.557,126.557 276.086,126.676 275.630 C 126.873 274.879,127.192 274.800,130.025 274.800 L 133.156 274.800 133.278 276.700 C 133.382 278.321,133.532 278.619,134.300 278.728 C 135.000 278.827,135.200 279.117,135.200 280.028 L 135.200 281.200 127.981 281.200 C 120.847 281.200,120.751 281.212,119.860 282.173 C 119.220 282.863,118.441 283.183,117.182 283.273 C 115.780 283.373,115.375 283.568,115.255 284.199 C 115.172 284.638,114.675 285.395,114.152 285.880 C 113.605 286.386,113.200 287.219,113.200 287.835 C 113.200 288.466,112.788 289.290,112.200 289.835 C 110.380 291.522,110.891 298.800,112.829 298.800 C 113.033 298.800,113.200 299.700,113.200 300.800 C 113.200 302.667,113.267 302.800,114.200 302.800 C 115.000 302.800,115.200 303.000,115.200 303.800 C 115.200 304.733,115.333 304.800,117.200 304.800 C 119.067 304.800,119.200 304.867,119.200 305.800 L 119.200 306.800 126.000 306.800 L 132.800 306.800 132.800 305.800 C 132.800 304.956,132.987 304.800,134.000 304.800 C 134.660 304.800,135.200 304.967,135.200 305.171 C 135.200 306.570,136.388 306.800,143.629 306.800 L 150.800 306.800 150.800 302.000 L 150.800 297.200 149.800 297.200 L 148.800 297.200 148.800 285.829 C 148.800 274.157,148.677 273.200,147.171 273.200 C 146.967 273.200,146.800 272.300,146.800 271.200 C 146.800 269.333,146.733 269.200,145.800 269.200 C 145.000 269.200,144.800 269.000,144.800 268.200 C 144.800 267.400,144.600 267.200,143.800 267.200 C 143.000 267.200,142.800 267.000,142.800 266.200 C 142.800 265.267,142.667 265.200,140.800 265.200 C 138.933 265.200,138.800 265.133,138.800 264.200 L 138.800 263.200 131.267 263.200 C 127.123 263.200,123.613 263.320,123.467 263.467 M165.467 263.467 C 165.320 263.613,165.200 264.063,165.200 264.467 C 165.200 265.080,164.873 265.200,163.200 265.200 C 161.333 265.200,161.200 265.267,161.200 266.200 C 161.200 267.044,161.013 267.200,160.000 267.200 C 158.460 267.200,157.200 268.460,157.200 270.000 C 157.200 271.013,157.044 271.200,156.200 271.200 C 155.408 271.200,155.200 271.402,155.200 272.172 C 155.200 272.876,154.951 273.180,154.300 273.272 C 153.430 273.396,153.396 273.562,153.288 278.300 L 153.175 283.200 152.188 283.200 C 151.259 283.200,151.200 283.329,151.200 285.371 C 151.200 287.448,151.842 288.800,152.829 288.800 C 153.033 288.800,153.200 290.600,153.200 292.800 L 153.200 296.800 154.200 296.800 C 155.133 296.800,155.200 296.933,155.200 298.800 C 155.200 300.667,155.267 300.800,156.200 300.800 C 157.000 300.800,157.200 301.000,157.200 301.800 C 157.200 302.600,157.400 302.800,158.200 302.800 C 158.750 302.800,159.200 302.967,159.200 303.171 C 159.200 303.978,160.527 304.800,161.829 304.800 C 163.025 304.800,163.200 304.928,163.200 305.800 L 163.200 306.800 172.000 306.800 L 180.800 306.800 180.800 305.800 C 180.800 305.000,181.000 304.800,181.800 304.800 C 182.600 304.800,182.800 304.600,182.800 303.800 C 182.800 302.909,182.965 302.800,184.320 302.800 C 186.236 302.800,186.800 302.236,186.800 300.320 C 186.800 298.965,186.909 298.800,187.800 298.800 L 188.800 298.800 188.800 294.000 L 188.800 289.200 183.000 289.200 L 177.200 289.200 177.200 290.172 C 177.200 290.876,176.951 291.180,176.300 291.272 C 175.532 291.381,175.382 291.679,175.278 293.300 L 175.156 295.200 171.978 295.200 C 168.855 295.200,168.800 295.183,168.800 294.200 C 168.800 293.400,168.600 293.200,167.800 293.200 L 166.800 293.200 166.800 285.023 L 166.800 276.846 168.500 276.723 C 169.813 276.628,170.290 276.395,170.595 275.700 C 170.932 274.931,171.295 274.800,173.095 274.800 L 175.200 274.800 175.200 276.800 C 175.200 278.667,175.267 278.800,176.200 278.800 C 177.133 278.800,177.200 278.933,177.200 280.800 L 177.200 282.800 183.009 282.800 L 188.817 282.800 188.709 275.100 L 188.600 267.400 186.700 267.278 C 184.985 267.168,184.800 267.061,184.800 266.178 C 184.800 265.228,184.715 265.200,181.800 265.200 C 178.867 265.200,178.800 265.178,178.800 264.200 L 178.800 263.200 172.267 263.200 C 168.673 263.200,165.613 263.320,165.467 263.467 M203.835 264.200 C 203.103 264.990,202.518 265.200,201.054 265.200 C 199.343 265.200,199.200 265.277,199.200 266.200 C 199.200 267.000,199.000 267.200,198.200 267.200 C 197.400 267.200,197.200 267.400,197.200 268.200 C 197.200 269.000,197.000 269.200,196.200 269.200 C 195.446 269.200,195.200 269.410,195.200 270.054 C 195.200 270.524,194.750 271.325,194.200 271.835 C 193.565 272.424,193.200 273.196,193.200 273.953 C 193.200 274.884,193.003 275.172,192.300 275.272 L 191.400 275.400 191.400 285.000 L 191.400 294.600 192.300 294.728 C 193.094 294.841,193.200 295.087,193.200 296.828 C 193.200 298.665,193.269 298.800,194.200 298.800 C 195.000 298.800,195.200 299.000,195.200 299.800 C 195.200 300.600,195.400 300.800,196.200 300.800 C 197.000 300.800,197.200 301.000,197.200 301.800 C 197.200 302.600,197.400 302.800,198.200 302.800 C 199.000 302.800,199.200 303.000,199.200 303.800 C 199.200 304.733,199.333 304.800,201.200 304.800 C 203.067 304.800,203.200 304.867,203.200 305.800 L 203.200 306.800 212.000 306.800 L 220.800 306.800 220.800 305.800 C 220.800 304.867,220.933 304.800,222.800 304.800 C 224.667 304.800,224.800 304.733,224.800 303.800 C 224.800 303.000,225.000 302.800,225.800 302.800 C 226.796 302.800,226.800 302.787,226.800 299.000 C 226.800 295.213,226.796 295.200,225.800 295.200 C 225.000 295.200,224.800 295.000,224.800 294.200 C 224.800 293.229,224.720 293.200,222.000 293.200 C 219.280 293.200,219.200 293.229,219.200 294.200 L 219.200 295.200 214.000 295.200 L 208.800 295.200 208.800 294.200 C 208.800 293.406,208.599 293.200,207.822 293.200 C 206.940 293.200,206.832 293.014,206.722 291.316 C 206.617 289.695,206.460 289.394,205.600 289.156 C 205.050 289.004,210.049 288.862,216.710 288.840 L 228.819 288.800 228.710 282.100 C 228.602 275.494,228.587 275.398,227.700 275.272 C 226.906 275.159,226.800 274.913,226.800 273.172 C 226.800 271.335,226.731 271.200,225.800 271.200 C 224.867 271.200,224.800 271.067,224.800 269.200 L 224.800 267.200 222.800 267.200 C 220.933 267.200,220.800 267.133,220.800 266.200 C 220.800 265.267,220.667 265.200,218.800 265.200 C 216.933 265.200,216.800 265.133,216.800 264.200 L 216.800 263.200 210.781 263.200 C 204.874 263.200,204.744 263.219,203.835 264.200 M241.200 264.191 C 241.200 265.135,241.072 265.200,239.200 265.200 C 237.333 265.200,237.200 265.267,237.200 266.200 C 237.200 267.000,237.000 267.200,236.200 267.200 C 235.400 267.200,235.200 267.400,235.200 268.200 C 235.200 269.000,235.000 269.200,234.200 269.200 C 233.446 269.200,233.200 269.410,233.200 270.054 C 233.200 270.524,232.750 271.325,232.200 271.835 C 230.323 273.574,230.852 282.800,232.829 282.800 C 233.033 282.800,233.200 283.250,233.200 283.800 C 233.200 284.600,233.400 284.800,234.200 284.800 C 235.000 284.800,235.200 285.000,235.200 285.800 C 235.200 286.600,235.400 286.800,236.200 286.800 C 236.750 286.800,237.200 286.967,237.200 287.171 C 237.200 288.194,238.551 288.800,240.829 288.800 C 243.091 288.800,243.200 288.846,243.200 289.800 L 243.200 290.800 247.200 290.800 L 251.200 290.800 251.200 291.800 C 251.200 292.600,251.400 292.800,252.200 292.800 C 253.044 292.800,253.200 292.987,253.200 294.000 C 253.200 295.173,253.156 295.200,251.200 295.200 C 249.333 295.200,249.200 295.267,249.200 296.200 C 249.200 297.044,249.013 297.200,248.000 297.200 C 246.987 297.200,246.800 297.044,246.800 296.200 C 246.800 295.407,246.598 295.200,245.827 295.200 C 245.214 295.200,244.762 294.912,244.606 294.420 C 244.470 293.992,244.008 293.530,243.580 293.394 C 242.946 293.192,242.800 292.778,242.800 291.173 L 242.800 289.200 237.800 289.200 C 231.037 289.200,231.200 289.028,231.200 296.171 C 231.200 302.212,231.433 302.800,233.829 302.800 C 235.025 302.800,235.200 302.928,235.200 303.800 C 235.200 304.733,235.333 304.800,237.200 304.800 C 239.070 304.800,239.200 304.865,239.200 305.807 L 239.200 306.814 248.700 306.707 C 258.061 306.602,258.206 306.587,258.587 305.718 C 258.890 305.027,259.366 304.811,260.787 304.718 C 262.303 304.619,262.620 304.457,262.725 303.725 C 262.802 303.179,263.179 302.802,263.725 302.725 C 264.419 302.626,264.675 302.211,264.963 300.720 C 265.245 299.261,265.515 298.812,266.163 298.720 C 267.765 298.491,267.598 287.200,265.992 287.200 C 265.414 287.200,265.200 286.930,265.200 286.200 C 265.200 285.408,264.998 285.200,264.228 285.200 C 263.524 285.200,263.220 284.951,263.128 284.300 C 263.036 283.656,262.688 283.364,261.900 283.273 C 261.295 283.204,260.800 282.992,260.800 282.802 C 260.800 281.671,259.439 281.200,256.171 281.200 C 252.842 281.200,252.800 281.188,252.800 280.200 C 252.800 279.222,252.733 279.200,249.800 279.200 C 246.867 279.200,246.800 279.178,246.800 278.200 C 246.800 277.400,246.600 277.200,245.800 277.200 C 244.956 277.200,244.800 277.013,244.800 276.000 L 244.800 274.800 248.972 274.800 C 252.994 274.800,253.149 274.832,253.272 275.700 C 253.354 276.278,253.722 276.646,254.300 276.728 C 255.094 276.841,255.200 277.087,255.200 278.828 L 255.200 280.800 260.200 280.800 L 265.200 280.800 265.200 274.000 L 265.200 267.200 264.028 267.200 C 263.117 267.200,262.827 267.000,262.728 266.300 C 262.607 265.451,262.391 265.393,258.926 265.285 C 255.479 265.178,255.244 265.116,255.126 264.285 C 255.002 263.416,254.879 263.398,248.100 263.291 L 241.200 263.181 241.200 264.191 M309.200 264.200 C 309.200 265.133,309.067 265.200,307.200 265.200 C 305.345 265.200,305.200 265.271,305.200 266.178 C 305.200 267.061,305.015 267.168,303.304 267.278 C 301.778 267.376,301.377 267.556,301.255 268.199 C 301.172 268.638,300.675 269.395,300.152 269.880 C 299.560 270.428,299.200 271.212,299.200 271.953 C 299.200 272.884,299.003 273.172,298.300 273.272 C 297.430 273.396,297.396 273.562,297.288 278.300 L 297.175 283.200 296.169 283.200 C 294.692 283.200,294.817 288.517,296.300 288.728 C 297.164 288.851,297.200 289.013,297.200 292.828 C 297.200 296.798,297.200 296.800,298.200 296.800 C 299.072 296.800,299.200 296.975,299.200 298.171 C 299.200 299.473,300.022 300.800,300.829 300.800 C 301.033 300.800,301.200 301.250,301.200 301.800 C 301.200 302.733,301.333 302.800,303.200 302.800 C 305.067 302.800,305.200 302.867,305.200 303.800 C 305.200 304.600,305.400 304.800,306.200 304.800 C 307.000 304.800,307.200 305.000,307.200 305.800 L 307.200 306.800 316.000 306.800 L 324.800 306.800 324.800 305.818 C 324.800 304.875,324.919 304.830,327.700 304.718 C 330.361 304.610,330.611 304.526,330.728 303.700 C 330.820 303.049,331.124 302.800,331.828 302.800 C 332.765 302.800,332.800 302.699,332.800 300.000 C 332.800 297.280,332.771 297.200,331.800 297.200 C 330.866 297.200,330.800 297.068,330.800 295.185 L 330.800 293.170 327.100 293.285 C 323.608 293.394,323.393 293.451,323.272 294.300 C 323.149 295.167,322.993 295.200,319.000 295.200 C 315.007 295.200,314.851 295.167,314.728 294.300 C 314.647 293.730,314.279 293.354,313.725 293.275 C 313.179 293.198,312.802 292.821,312.725 292.275 C 312.646 291.721,312.270 291.353,311.700 291.272 C 311.000 291.173,310.800 290.883,310.800 289.972 L 310.800 288.800 321.800 288.800 L 332.800 288.800 332.800 281.000 L 332.800 273.200 331.800 273.200 C 330.867 273.200,330.800 273.067,330.800 271.200 C 330.800 269.333,330.733 269.200,329.800 269.200 C 329.000 269.200,328.800 269.000,328.800 268.200 C 328.800 267.400,328.600 267.200,327.800 267.200 C 327.000 267.200,326.800 267.000,326.800 266.200 C 326.800 265.267,326.667 265.200,324.800 265.200 C 323.700 265.200,322.800 265.033,322.800 264.829 C 322.800 263.471,321.564 263.200,315.371 263.200 L 309.200 263.200 309.200 264.200 M335.467 263.467 C 335.320 263.613,335.200 265.773,335.200 268.267 L 335.200 272.800 336.200 272.800 C 337.000 272.800,337.200 273.000,337.200 273.800 C 337.200 274.733,337.333 274.800,339.200 274.800 L 341.200 274.800 341.200 285.000 L 341.200 295.200 340.200 295.200 C 339.406 295.200,339.200 295.401,339.200 296.178 C 339.200 297.061,339.015 297.168,337.300 297.278 L 335.400 297.400 335.286 301.458 C 335.125 307.240,334.064 306.800,348.149 306.800 C 361.945 306.800,360.800 307.278,360.800 301.520 L 360.800 297.200 358.800 297.200 C 356.933 297.200,356.800 297.133,356.800 296.200 C 356.800 295.400,356.600 295.200,355.800 295.200 L 354.800 295.200 354.800 287.000 L 354.800 278.800 355.800 278.800 C 356.600 278.800,356.800 278.600,356.800 277.800 L 356.800 276.800 360.800 276.800 L 364.800 276.800 364.800 274.800 C 364.800 272.933,364.867 272.800,365.800 272.800 L 366.800 272.800 366.800 268.000 L 366.800 263.200 362.000 263.200 L 357.200 263.200 357.200 264.200 C 357.200 265.044,357.013 265.200,356.000 265.200 C 354.987 265.200,354.800 265.044,354.800 264.200 L 354.800 263.200 345.267 263.200 C 340.023 263.200,335.613 263.320,335.467 263.467 M213.200 276.773 C 213.200 278.619,213.271 278.758,214.300 278.913 C 214.905 279.005,213.465 279.107,211.100 279.140 L 206.800 279.200 206.800 278.000 C 206.800 276.987,206.956 276.800,207.800 276.800 C 208.600 276.800,208.800 276.600,208.800 275.800 C 208.800 274.855,208.920 274.800,211.000 274.800 L 213.200 274.800 213.200 276.773 M317.200 275.800 C 317.200 276.600,317.400 276.800,318.200 276.800 C 319.044 276.800,319.200 276.987,319.200 278.000 L 319.200 279.200 314.900 279.140 C 312.535 279.107,311.095 279.005,311.700 278.913 C 312.729 278.758,312.800 278.619,312.800 276.773 L 312.800 274.800 315.000 274.800 C 317.080 274.800,317.200 274.855,317.200 275.800 M135.200 291.000 C 135.200 293.080,135.145 293.200,134.200 293.200 C 133.400 293.200,133.200 293.400,133.200 294.200 C 133.200 295.183,133.147 295.200,130.000 295.200 L 126.800 295.200 126.800 293.000 L 126.800 290.800 128.800 290.800 C 130.667 290.800,130.800 290.733,130.800 289.800 C 130.800 288.855,130.920 288.800,133.000 288.800 L 135.200 288.800 135.200 291.000 " stroke="none" fill="#050404" fill-rule="evenodd"></path></g></svg>