<svg id="svg" version="1.1" width="400" height="256" viewBox="0 0 400 256" xmlns="http://www.w3.org/2000/svg" xmlns:xlink="http://www.w3.org/1999/xlink" ><g id="svgg"><path id="path0" d="M348.271 60.743 C 348.271 60.872,348.173 60.917,348.053 60.843 C 347.090 60.247,347.076 63.276,348.035 64.951 C 351.052 70.225,350.007 82.483,345.975 89.117 C 345.590 89.750,345.127 90.647,344.946 91.110 C 344.765 91.572,344.373 92.149,344.075 92.390 C 343.778 92.632,343.337 93.256,343.096 93.777 C 342.855 94.299,342.374 94.911,342.027 95.139 C 341.680 95.366,341.278 95.891,341.133 96.305 C 340.986 96.726,340.471 97.293,339.962 97.593 C 339.434 97.905,339.052 98.332,339.052 98.610 C 339.052 98.874,338.736 99.258,338.348 99.463 C 337.961 99.668,337.417 100.183,337.139 100.609 C 336.861 101.034,336.373 101.447,336.055 101.527 C 335.737 101.607,335.307 102.001,335.099 102.402 C 334.860 102.865,334.448 103.187,333.975 103.282 C 333.515 103.374,333.177 103.632,333.092 103.956 C 333.013 104.259,332.743 104.481,332.456 104.481 C 332.182 104.481,331.602 104.798,331.167 105.186 C 329.790 106.411,328.869 107.042,328.459 107.042 C 328.240 107.042,327.855 107.263,327.603 107.534 C 327.351 107.804,326.825 108.105,326.434 108.203 C 326.044 108.301,325.560 108.616,325.359 108.902 C 325.155 109.194,324.567 109.496,324.021 109.588 C 323.310 109.708,323.057 109.872,323.084 110.195 C 323.104 110.438,322.989 110.607,322.828 110.570 C 322.399 110.472,320.286 111.198,319.892 111.580 C 319.707 111.760,319.246 111.974,318.868 112.055 C 317.910 112.263,317.025 112.718,317.160 112.936 C 317.222 113.036,316.621 113.185,315.824 113.267 C 315.024 113.350,314.081 113.632,313.718 113.898 C 313.356 114.162,312.329 114.532,311.436 114.720 C 310.543 114.907,309.758 115.201,309.693 115.373 C 309.621 115.558,308.771 115.757,307.603 115.861 C 306.520 115.958,305.191 116.079,304.650 116.132 C 304.109 116.184,303.533 116.400,303.370 116.610 C 303.162 116.879,302.342 117.044,300.640 117.161 C 299.302 117.253,297.862 117.385,297.439 117.453 C 297.017 117.522,296.440 117.613,296.159 117.655 C 295.877 117.697,295.671 117.849,295.701 117.993 C 295.879 118.839,271.695 118.683,269.987 117.827 C 269.258 117.462,268.238 117.304,265.916 117.199 C 263.506 117.090,262.626 116.948,261.947 116.562 C 261.369 116.232,260.351 116.013,258.925 115.912 C 257.501 115.811,256.622 115.622,256.326 115.354 C 255.962 115.025,253.571 114.496,252.344 114.474 C 252.189 114.471,251.797 114.238,251.472 113.956 C 251.148 113.675,250.525 113.435,250.089 113.423 C 248.617 113.384,247.762 113.170,247.065 112.666 C 246.684 112.390,246.211 112.164,246.015 112.164 C 245.387 112.164,244.042 111.609,244.170 111.402 C 244.299 111.194,243.287 110.908,241.741 110.715 C 241.248 110.653,240.806 110.490,240.758 110.353 C 240.298 109.040,236.483 109.044,235.438 110.359 C 234.951 110.972,235.991 112.069,236.935 111.937 C 237.038 111.923,237.195 112.197,237.283 112.548 C 237.371 112.898,237.538 113.126,237.654 113.054 C 237.770 112.982,237.942 113.049,238.036 113.202 C 238.131 113.354,238.373 113.416,238.574 113.339 C 238.804 113.250,239.031 113.435,239.182 113.833 C 239.315 114.183,239.571 114.482,239.750 114.498 C 239.930 114.514,240.192 114.554,240.333 114.587 C 240.474 114.620,240.733 114.664,240.909 114.686 C 241.085 114.707,241.229 114.955,241.229 115.237 C 241.229 115.783,241.245 115.792,242.304 115.858 C 242.716 115.883,243.216 116.183,243.546 116.602 C 243.919 117.077,244.248 117.256,244.564 117.156 C 244.858 117.062,245.227 117.219,245.563 117.580 C 245.856 117.895,246.298 118.193,246.544 118.244 C 247.311 118.401,247.995 118.499,248.550 118.533 C 248.858 118.552,249.214 118.848,249.389 119.231 C 249.583 119.659,249.828 119.844,250.072 119.751 C 250.479 119.594,251.138 119.830,252.369 120.572 C 252.834 120.853,253.742 121.059,254.673 121.097 C 255.519 121.131,256.844 121.316,257.618 121.508 C 258.393 121.700,259.834 121.933,260.819 122.024 C 261.805 122.116,263.497 122.350,264.578 122.546 C 271.660 123.827,295.410 123.894,299.872 122.646 C 300.365 122.508,302.416 122.226,304.431 122.019 C 306.445 121.812,308.310 121.527,308.575 121.385 C 308.840 121.243,309.922 121.127,310.980 121.127 C 312.037 121.127,312.973 121.012,313.060 120.871 C 313.147 120.730,313.500 120.615,313.844 120.615 C 314.228 120.615,314.469 120.467,314.469 120.230 C 314.469 119.900,315.411 119.685,316.307 119.810 C 316.403 119.823,316.798 119.670,317.185 119.469 C 317.572 119.269,317.984 119.163,318.099 119.234 C 318.215 119.306,318.310 119.185,318.310 118.965 C 318.310 118.706,318.556 118.558,319.014 118.545 C 320.395 118.503,320.920 118.388,321.107 118.086 C 321.211 117.917,321.515 117.852,321.787 117.941 C 322.149 118.060,322.187 118.036,321.932 117.854 C 321.455 117.514,321.854 117.318,323.200 117.231 C 323.969 117.181,324.465 116.989,324.759 116.627 C 325.155 116.139,327.121 115.330,327.612 115.453 C 327.728 115.482,327.750 115.388,327.661 115.243 C 327.572 115.099,327.621 114.966,327.770 114.949 C 328.159 114.903,328.338 114.846,329.151 114.509 C 329.550 114.344,329.982 114.274,330.111 114.354 C 330.240 114.434,330.346 114.370,330.346 114.213 C 330.346 114.055,330.479 114.008,330.641 114.109 C 330.834 114.228,330.867 114.179,330.737 113.967 C 330.487 113.563,331.087 113.152,331.664 113.331 C 331.921 113.411,332.288 113.207,332.598 112.812 C 332.880 112.454,333.464 112.091,333.897 112.004 C 334.349 111.914,334.749 111.642,334.837 111.365 C 334.968 110.953,335.585 110.738,336.304 110.855 C 336.413 110.872,336.633 110.598,336.794 110.245 C 336.954 109.892,337.212 109.586,337.365 109.564 C 338.372 109.423,339.083 109.092,338.926 108.837 C 338.749 108.552,339.492 107.991,339.797 108.180 C 339.936 108.266,340.311 107.985,340.629 107.555 C 340.952 107.118,341.360 106.831,341.553 106.905 C 341.743 106.978,342.164 106.779,342.489 106.463 C 343.258 105.717,344.064 105.250,344.582 105.250 C 344.842 105.250,344.943 105.109,344.853 104.874 C 344.774 104.667,344.819 104.430,344.954 104.346 C 345.088 104.263,345.198 103.971,345.198 103.698 C 345.198 103.425,345.285 103.224,345.391 103.252 C 345.841 103.371,346.721 102.881,346.863 102.431 C 346.949 102.163,347.409 101.803,347.887 101.630 C 348.365 101.457,348.698 101.221,348.627 101.106 C 348.556 100.991,348.619 100.896,348.768 100.896 C 348.918 100.896,349.017 100.810,348.989 100.704 C 348.868 100.247,349.348 99.396,349.660 99.516 C 350.100 99.684,350.832 98.945,350.832 98.332 C 350.832 98.069,350.955 97.777,351.106 97.684 C 351.256 97.591,351.320 97.360,351.247 97.170 C 351.165 96.957,351.246 96.876,351.460 96.958 C 351.649 97.030,351.882 96.965,351.976 96.812 C 352.071 96.660,352.250 96.597,352.374 96.674 C 352.636 96.836,353.108 96.054,353.077 95.508 C 353.013 94.361,353.174 94.019,353.896 93.768 C 354.639 93.509,354.820 93.162,354.986 91.677 C 355.036 91.227,355.192 91.060,355.510 91.113 C 355.772 91.157,355.933 91.050,355.894 90.857 C 355.856 90.674,355.956 90.549,356.114 90.578 C 356.451 90.641,357.351 87.975,357.119 87.600 C 356.773 87.040,357.280 84.028,357.694 84.187 C 357.969 84.293,358.025 84.239,357.881 84.005 C 357.743 83.781,357.792 83.712,358.031 83.792 C 358.729 84.026,359.027 82.524,359.027 78.773 C 359.027 74.926,358.783 74.008,357.761 74.008 C 357.286 74.008,356.737 71.532,357.087 70.966 C 357.166 70.838,357.058 70.318,356.846 69.811 C 356.634 69.304,356.433 68.802,356.399 68.695 C 356.366 68.589,356.252 68.531,356.146 68.566 C 356.040 68.601,355.954 68.507,355.954 68.357 C 355.954 68.206,355.752 68.147,355.506 68.225 C 355.129 68.345,355.045 68.177,354.981 67.178 C 354.901 65.945,354.250 64.802,353.728 64.976 C 353.367 65.096,352.897 64.286,352.825 63.418 C 352.785 62.930,352.556 62.724,351.803 62.498 C 351.269 62.338,350.828 62.068,350.824 61.898 C 350.799 60.993,348.271 59.850,348.271 60.743 M175.544 81.414 C 175.262 81.531,174.946 81.576,174.840 81.515 C 174.734 81.454,174.648 81.538,174.648 81.702 C 174.648 81.867,174.475 81.935,174.264 81.854 C 173.967 81.740,173.880 81.912,173.880 82.610 C 173.880 83.106,173.967 83.459,174.075 83.392 C 174.413 83.183,175.068 83.840,175.251 84.571 C 175.347 84.958,175.539 85.275,175.677 85.275 C 175.815 85.275,175.928 85.397,175.928 85.546 C 175.928 85.696,175.795 85.735,175.633 85.635 C 175.454 85.524,175.406 85.564,175.513 85.737 C 175.610 85.893,175.855 85.957,176.059 85.879 C 176.270 85.798,176.762 86.070,177.201 86.508 C 177.625 86.933,178.290 87.386,178.679 87.515 C 179.067 87.645,179.385 87.885,179.385 88.050 C 179.385 88.214,179.472 88.347,179.579 88.345 C 179.685 88.344,180.177 88.512,180.672 88.718 C 181.691 89.144,181.555 89.117,182.629 89.117 C 183.075 89.117,183.367 89.189,183.278 89.279 C 182.879 89.678,184.331 90.304,185.774 90.355 C 186.612 90.385,187.476 90.555,187.695 90.734 C 189.055 91.846,200.108 92.093,201.287 91.037 C 202.001 90.397,202.817 88.546,202.817 87.565 C 202.817 86.780,201.803 85.849,201.292 86.165 C 201.143 86.256,201.024 86.121,201.024 85.860 C 201.024 85.151,200.293 84.251,199.718 84.251 C 199.438 84.251,198.949 83.992,198.632 83.675 C 198.315 83.358,197.946 83.076,197.812 83.048 C 197.677 83.020,197.337 82.923,197.055 82.834 C 196.773 82.744,196.147 82.617,195.662 82.552 C 195.178 82.487,194.627 82.214,194.439 81.945 C 194.250 81.676,193.938 81.516,193.745 81.590 C 193.552 81.664,193.324 81.613,193.240 81.476 C 193.050 81.169,176.281 81.110,175.544 81.414 M137.388 83.995 C 137.301 84.136,137.055 84.251,136.842 84.251 C 136.629 84.251,136.282 84.424,136.071 84.635 C 135.860 84.846,135.342 85.019,134.920 85.019 C 133.911 85.019,133.086 85.475,133.263 85.935 C 133.361 86.191,133.210 86.300,132.754 86.300 C 131.758 86.300,131.114 86.756,131.114 87.461 C 131.114 87.808,130.970 88.096,130.794 88.101 C 129.819 88.127,129.221 89.178,129.088 91.101 C 129.075 91.277,128.806 91.423,128.489 91.425 C 127.521 91.432,127.208 91.823,127.077 93.187 C 127.008 93.906,126.855 94.494,126.737 94.494 C 126.110 94.494,124.968 96.059,124.968 96.918 C 124.968 97.663,124.874 97.823,124.438 97.823 C 123.810 97.823,123.312 98.270,123.063 99.055 C 122.964 99.368,122.774 99.557,122.643 99.475 C 122.053 99.111,121.380 99.671,121.222 100.657 C 121.067 101.628,120.887 101.774,119.893 101.730 C 119.708 101.722,119.430 101.992,119.276 102.330 C 119.092 102.734,118.782 102.945,118.373 102.945 C 117.966 102.945,117.703 103.122,117.617 103.454 C 117.543 103.734,117.378 103.899,117.250 103.819 C 117.122 103.740,117.033 103.770,117.053 103.886 C 117.246 104.993,116.985 105.763,116.365 105.919 C 115.871 106.043,115.789 106.143,116.045 106.308 C 116.399 106.537,115.853 107.137,115.493 106.914 C 115.409 106.863,115.312 107.533,115.277 108.404 C 115.242 109.275,115.200 110.160,115.185 110.371 C 115.094 111.604,115.273 113.528,115.452 113.246 C 115.610 112.997,115.769 113.042,116.128 113.438 C 116.583 113.941,116.582 113.957,116.109 113.977 C 115.753 113.991,115.811 114.066,116.325 114.254 C 116.958 114.485,117.029 114.634,117.029 115.721 C 117.029 116.846,117.472 117.895,117.969 117.949 C 118.505 118.007,120.102 118.855,120.102 119.082 C 120.102 119.220,120.314 119.334,120.572 119.334 C 120.830 119.334,121.128 119.421,121.233 119.526 C 121.443 119.736,121.581 119.767,122.535 119.814 C 122.976 119.836,123.175 119.994,123.175 120.321 C 123.175 120.844,122.500 120.772,133.419 121.408 C 138.638 121.712,148.296 121.564,151.472 121.132 C 152.458 120.997,153.861 120.884,154.589 120.879 C 156.125 120.869,156.722 120.689,156.722 120.236 C 156.722 120.056,157.177 119.839,157.746 119.748 C 158.695 119.596,158.903 119.362,158.815 118.545 C 158.807 118.462,159.128 118.395,159.529 118.395 C 160.329 118.395,161.076 117.807,161.076 117.176 C 161.076 116.954,161.192 116.773,161.334 116.773 C 161.476 116.773,161.932 116.449,162.346 116.053 L 163.100 115.332 163.096 111.343 L 163.091 107.354 162.342 106.686 C 161.929 106.318,161.476 106.018,161.334 106.018 C 161.192 106.018,161.076 105.734,161.076 105.388 C 161.076 105.041,160.897 104.609,160.679 104.428 C 159.418 103.377,159.027 102.858,159.023 102.229 C 159.019 101.503,158.675 100.773,158.332 100.762 C 157.380 100.730,157.233 100.255,157.169 96.993 C 157.109 93.926,156.938 93.181,156.261 93.051 C 155.020 92.813,154.930 92.674,154.930 91.016 C 154.930 89.322,154.431 88.604,153.501 88.961 C 153.225 89.067,153.137 88.859,153.137 88.099 C 153.137 87.058,152.483 86.300,151.585 86.300 C 151.357 86.300,151.035 86.002,150.870 85.639 C 150.569 84.980,150.567 84.979,147.681 85.053 C 144.882 85.124,144.765 85.105,143.883 84.433 C 142.919 83.697,137.786 83.351,137.388 83.995 M191.997 92.999 C 191.610 93.141,191.293 93.416,191.293 93.611 C 191.293 93.887,190.660 93.981,188.412 94.038 C 185.704 94.106,185.516 94.145,185.279 94.686 C 185.094 95.106,184.810 95.262,184.228 95.262 C 182.429 95.262,181.074 96.111,181.058 97.247 C 181.052 97.684,180.900 97.823,180.428 97.823 C 179.569 97.823,179.001 98.472,179.001 99.455 C 179.001 100.356,178.607 100.926,178.115 100.737 C 177.328 100.435,177.180 101.331,177.259 105.933 L 177.337 110.499 178.169 110.744 C 178.994 110.987,179.001 111.003,179.027 112.665 C 179.063 115.053,179.257 115.565,180.228 115.843 C 180.786 116.004,181.050 116.237,181.050 116.571 C 181.050 117.379,181.504 117.983,182.325 118.270 C 182.750 118.418,183.099 118.714,183.099 118.928 C 183.099 119.368,183.858 119.846,184.557 119.846 C 184.814 119.846,185.158 120.061,185.322 120.323 C 185.523 120.646,186.059 120.853,186.984 120.967 C 187.734 121.058,189.040 121.299,189.885 121.502 C 190.730 121.705,192.405 122.106,193.606 122.395 C 196.334 123.050,200.773 123.118,202.248 122.528 C 203.126 122.177,203.418 122.177,205.087 122.528 C 208.730 123.294,212.551 122.916,218.230 121.228 C 218.890 121.031,219.794 120.871,220.239 120.871 C 220.823 120.871,221.083 120.733,221.177 120.373 C 221.256 120.069,221.571 119.845,221.983 119.797 C 222.424 119.746,222.776 119.473,222.995 119.014 C 223.180 118.627,223.498 118.310,223.702 118.310 C 224.288 118.310,225.096 117.346,225.096 116.645 C 225.096 116.153,225.229 116.004,225.672 116.001 C 226.620 115.995,226.894 115.650,227.059 114.257 C 227.145 113.528,227.303 112.932,227.409 112.932 C 227.516 112.932,227.961 112.598,228.398 112.189 L 229.193 111.446 229.190 106.107 C 229.186 99.902,229.157 99.728,228.054 99.330 C 227.378 99.085,227.185 98.840,226.994 97.979 C 226.801 97.111,226.623 96.886,225.971 96.694 C 225.537 96.566,225.076 96.220,224.947 95.926 C 224.791 95.570,224.429 95.363,223.865 95.309 C 223.359 95.261,222.954 95.054,222.859 94.797 C 222.575 94.024,222.235 93.990,214.827 93.986 C 205.260 93.981,205.144 94.020,205.130 97.219 C 205.121 99.283,205.251 99.168,202.547 99.492 C 200.769 99.705,200.376 99.357,200.590 97.761 C 200.921 95.297,199.642 94.003,196.863 93.991 C 195.259 93.984,194.878 93.907,194.878 93.592 C 194.878 92.845,193.305 92.522,191.997 92.999 M63.647 134.169 C 63.472 134.452,63.876 134.758,64.113 134.521 C 64.356 134.278,64.311 133.931,64.036 133.931 C 63.903 133.931,63.728 134.038,63.647 134.169 M292.666 137.018 C 292.093 137.517,292.091 137.531,292.623 137.273 C 292.932 137.123,293.256 136.886,293.343 136.746 C 293.594 136.339,293.318 136.450,292.666 137.018 M90.301 144.613 C 90.548 144.794,90.873 144.933,91.022 144.922 C 91.171 144.911,91.148 144.844,90.972 144.772 C 90.795 144.701,90.700 144.562,90.761 144.463 C 90.822 144.365,90.642 144.284,90.361 144.284 C 89.882 144.284,89.878 144.304,90.301 144.613 " stroke="none" fill="#76a033" fill-rule="evenodd"></path><path id="path1" d="M343.854 62.321 C 343.608 62.512,343.406 62.789,343.406 62.935 C 343.406 63.082,342.725 63.281,341.894 63.377 C 340.948 63.487,340.183 63.738,339.851 64.047 C 339.559 64.319,338.989 64.580,338.583 64.627 C 337.664 64.734,337.260 64.975,337.260 65.417 C 337.260 65.625,336.832 65.819,336.172 65.912 C 334.375 66.165,334.225 66.211,333.728 66.661 C 333.465 66.899,332.957 67.093,332.598 67.093 C 331.992 67.093,330.742 67.550,329.834 68.103 C 329.399 68.367,328.603 68.672,328.060 68.781 C 327.859 68.821,327.594 69.034,327.471 69.254 C 327.348 69.474,326.987 69.654,326.669 69.654 C 326.351 69.654,325.876 69.811,325.613 70.003 C 325.351 70.195,324.906 70.291,324.625 70.218 C 324.228 70.114,324.150 70.180,324.277 70.509 C 324.434 70.921,323.963 71.082,322.979 70.953 C 322.583 70.901,321.127 71.736,321.127 72.014 C 321.127 72.125,320.867 72.218,320.551 72.221 C 320.234 72.224,319.288 72.562,318.448 72.971 C 317.609 73.381,316.826 73.656,316.709 73.584 C 316.591 73.511,316.309 73.605,316.083 73.794 C 315.856 73.982,315.602 74.107,315.518 74.072 C 315.434 74.036,315.365 74.142,315.365 74.305 C 315.365 74.469,314.643 74.750,313.760 74.930 C 312.877 75.110,311.854 75.495,311.485 75.785 C 311.116 76.075,310.556 76.312,310.240 76.312 C 309.924 76.312,309.507 76.539,309.314 76.816 C 309.075 77.158,308.554 77.363,307.682 77.458 C 306.843 77.550,306.256 77.773,305.977 78.107 C 305.743 78.388,305.318 78.617,305.033 78.617 C 304.176 78.617,303.201 79.091,303.201 79.507 C 303.201 79.847,302.229 80.068,301.344 79.928 C 301.239 79.911,301.152 80.009,301.152 80.146 C 301.152 80.282,301.005 80.337,300.825 80.268 C 300.646 80.199,300.110 80.429,299.635 80.780 C 299.160 81.130,298.668 81.353,298.542 81.275 C 298.416 81.198,298.145 81.273,297.940 81.443 C 297.735 81.614,297.560 81.652,297.551 81.529 C 297.542 81.407,297.431 81.565,297.303 81.882 C 297.125 82.325,296.865 82.458,296.182 82.458 C 295.693 82.458,295.219 82.578,295.128 82.725 C 295.037 82.871,294.743 82.921,294.473 82.836 C 294.187 82.745,293.982 82.801,293.982 82.968 C 293.982 83.127,293.849 83.175,293.686 83.074 C 293.503 82.961,293.460 83.004,293.575 83.189 C 293.773 83.510,293.395 83.722,292.421 83.835 C 291.721 83.916,290.959 84.177,290.397 84.527 C 290.186 84.659,289.898 84.812,289.757 84.868 C 288.984 85.176,288.435 85.361,288.099 85.428 C 287.892 85.469,287.604 85.664,287.459 85.860 C 287.212 86.196,286.657 86.387,284.940 86.731 C 284.535 86.811,284.271 87.006,284.335 87.174 C 284.401 87.347,284.176 87.496,283.801 87.527 C 282.493 87.635,281.178 88.116,281.178 88.486 C 281.178 88.692,280.948 88.875,280.666 88.892 C 279.944 88.938,279.838 88.968,279.212 89.317 C 278.905 89.487,278.444 89.559,278.188 89.476 C 277.831 89.360,277.804 89.384,278.075 89.577 C 278.475 89.862,277.951 90.100,276.527 90.281 C 276.089 90.336,275.567 90.615,275.367 90.901 C 275.167 91.187,274.735 91.421,274.409 91.421 C 273.828 91.421,272.735 91.851,271.447 92.585 C 271.095 92.786,270.498 92.952,270.120 92.954 C 269.660 92.956,269.379 93.127,269.270 93.470 C 269.181 93.752,268.914 93.991,268.677 94.002 C 268.440 94.012,268.015 94.078,267.734 94.148 C 267.452 94.218,267.030 94.275,266.797 94.274 C 266.564 94.274,266.171 94.496,265.925 94.768 C 265.679 95.040,265.270 95.262,265.017 95.262 C 264.301 95.262,263.252 95.820,263.252 96.200 C 263.252 96.389,262.993 96.556,262.676 96.572 C 261.329 96.641,260.009 97.027,259.653 97.456 C 259.486 97.658,259.081 97.823,258.755 97.823 C 258.428 97.823,258.088 97.940,258.000 98.084 C 257.912 98.227,257.732 98.278,257.601 98.196 C 257.395 98.069,257.265 98.378,257.318 98.869 C 257.327 98.951,257.196 99.033,257.028 99.051 C 256.860 99.068,256.290 99.126,255.761 99.179 C 255.232 99.233,254.731 99.345,254.648 99.428 C 254.564 99.512,254.341 99.521,254.152 99.449 C 253.963 99.376,253.658 99.557,253.475 99.851 C 253.292 100.144,253.004 100.384,252.836 100.384 C 252.668 100.384,252.206 100.517,251.809 100.680 C 251.413 100.843,250.973 100.988,250.832 101.001 C 250.691 101.015,250.288 101.193,249.936 101.397 C 249.584 101.601,249.123 101.807,248.912 101.854 C 248.700 101.901,248.355 101.984,248.143 102.038 C 247.932 102.093,247.673 102.146,247.567 102.157 C 247.462 102.168,247.375 102.350,247.375 102.561 C 247.375 102.807,247.123 102.948,246.671 102.953 C 246.284 102.958,245.754 103.123,245.494 103.320 C 245.234 103.517,244.859 103.616,244.661 103.540 C 244.456 103.461,244.302 103.560,244.302 103.771 C 244.302 103.974,244.158 104.150,243.982 104.162 C 242.852 104.241,241.357 104.670,241.357 104.915 C 241.357 105.336,241.181 105.458,240.360 105.607 C 239.958 105.680,239.603 105.773,239.571 105.815 C 239.124 106.387,239.026 106.952,239.254 107.652 C 239.397 108.091,239.551 108.595,239.595 108.771 C 239.640 108.947,239.929 109.091,240.237 109.091 C 240.545 109.091,241.153 109.362,241.589 109.693 C 242.025 110.024,242.987 110.449,243.726 110.637 C 244.477 110.829,245.070 111.126,245.070 111.311 C 245.070 111.493,245.387 111.708,245.775 111.789 C 246.162 111.870,247.067 112.218,247.785 112.562 C 248.503 112.906,249.484 113.188,249.964 113.188 C 250.444 113.188,251.354 113.460,251.987 113.792 C 252.619 114.124,253.768 114.467,254.540 114.555 C 255.311 114.643,256.240 114.934,256.604 115.203 C 257.100 115.570,257.806 115.716,259.426 115.785 C 261.109 115.857,261.758 115.997,262.356 116.417 C 263.010 116.877,263.624 116.979,266.480 117.101 C 269.226 117.219,270.018 117.343,270.834 117.785 C 272.501 118.688,293.163 118.496,292.599 117.583 C 292.524 117.462,294.303 117.285,296.551 117.189 C 300.669 117.012,301.512 116.892,301.278 116.513 C 301.116 116.251,302.487 116.020,307.554 115.453 C 307.766 115.429,308.054 115.261,308.195 115.080 C 308.335 114.898,309.085 114.683,309.859 114.601 C 310.634 114.519,311.556 114.243,311.908 113.989 C 312.260 113.734,313.318 113.380,314.259 113.203 C 315.200 113.026,316.026 112.734,316.095 112.554 C 316.164 112.375,316.763 112.147,317.426 112.047 C 318.905 111.826,319.368 111.658,319.210 111.401 C 319.143 111.293,319.777 111.011,320.619 110.775 C 321.462 110.538,322.151 110.250,322.151 110.133 C 322.151 109.903,323.149 109.478,324.262 109.235 C 324.649 109.151,324.937 108.944,324.902 108.776 C 324.868 108.607,325.330 108.310,325.928 108.116 C 326.527 107.921,326.957 107.666,326.885 107.548 C 326.718 107.279,327.176 106.987,327.884 106.910 C 328.181 106.878,328.561 106.837,328.728 106.819 C 328.895 106.801,329.101 106.564,329.188 106.292 C 329.275 106.017,329.675 105.725,330.090 105.634 C 330.511 105.541,330.904 105.251,330.995 104.965 C 331.090 104.666,331.473 104.397,331.937 104.304 C 332.394 104.213,332.770 103.952,332.842 103.676 C 332.917 103.391,333.357 103.100,333.957 102.938 C 334.503 102.791,334.937 102.588,334.922 102.488 C 334.845 101.971,335.002 101.684,335.438 101.546 C 335.996 101.369,337.516 99.976,337.516 99.641 C 337.516 99.517,337.791 99.346,338.128 99.262 C 338.499 99.169,338.803 98.855,338.901 98.466 C 338.990 98.112,339.519 97.522,340.082 97.150 C 340.642 96.778,341.101 96.281,341.101 96.045 C 341.101 95.808,341.456 95.276,341.890 94.862 C 342.324 94.449,342.842 93.724,343.040 93.253 C 343.239 92.781,343.683 92.173,344.027 91.902 C 344.372 91.631,344.881 90.807,345.159 90.071 C 345.696 88.649,346.096 87.847,346.786 86.812 C 347.021 86.460,347.394 85.386,347.615 84.426 C 347.835 83.465,348.241 82.140,348.516 81.481 C 349.918 78.121,349.715 69.200,348.166 66.101 C 347.699 65.168,347.181 63.983,347.014 63.467 C 346.847 62.951,346.514 62.449,346.274 62.351 C 345.403 61.995,344.292 61.982,343.854 62.321 M89.757 121.118 C 91.165 121.232,92.938 121.453,93.697 121.610 C 96.331 122.154,105.858 121.983,106.566 121.379 L 107.170 120.863 106.402 121.059 C 105.454 121.301,96.814 121.314,91.293 121.083 C 88.527 120.967,88.028 120.978,89.757 121.118 " stroke="none" fill="#eb4c4c" fill-rule="evenodd"></path><path id="path2" d="M19.649 121.178 C 19.236 121.482,19.202 121.998,19.265 127.017 L 19.334 132.522 40.239 132.588 C 60.881 132.653,61.146 132.660,61.278 133.164 C 61.352 133.445,61.624 133.684,61.884 133.694 C 62.813 133.733,63.305 133.899,63.788 134.337 C 64.059 134.581,64.352 134.709,64.440 134.621 C 64.528 134.533,64.844 134.596,65.143 134.762 C 65.441 134.927,66.019 135.104,66.427 135.155 C 66.835 135.207,67.354 135.471,67.580 135.744 C 67.869 136.093,68.460 136.287,69.584 136.401 C 70.815 136.526,71.213 136.670,71.327 137.031 C 71.420 137.321,71.834 137.564,72.422 137.672 C 72.942 137.768,73.446 137.967,73.541 138.114 C 73.758 138.450,75.703 139.043,76.603 139.049 C 77.041 139.051,77.320 139.218,77.401 139.526 C 77.535 140.040,78.547 140.333,80.186 140.333 C 80.886 140.333,81.178 140.443,81.178 140.708 C 81.178 141.180,81.967 141.613,82.826 141.613 C 83.187 141.613,83.483 141.706,83.483 141.819 C 83.483 142.110,85.776 142.897,86.620 142.895 C 87.059 142.894,87.324 143.031,87.324 143.258 C 87.324 143.675,88.553 144.137,89.927 144.235 C 90.443 144.272,90.823 144.345,90.771 144.397 C 90.516 144.654,91.553 145.265,92.447 145.385 C 93.004 145.459,93.402 145.613,93.332 145.726 C 93.093 146.113,93.928 146.400,96.031 146.655 C 96.745 146.742,97.336 146.987,97.587 147.301 C 97.926 147.728,98.411 147.830,100.660 147.950 C 102.665 148.057,103.413 148.195,103.668 148.502 C 103.925 148.813,103.960 148.819,103.811 148.528 C 103.644 148.201,103.678 148.194,104.035 148.484 C 104.858 149.151,107.214 149.168,200.128 149.165 C 292.852 149.163,296.161 149.138,296.674 148.438 C 296.846 148.203,297.710 148.036,299.235 147.941 C 302.060 147.767,302.350 147.705,302.753 147.198 C 302.941 146.962,303.672 146.730,304.524 146.638 C 306.288 146.445,306.786 146.269,306.786 145.838 C 306.786 145.650,307.199 145.454,307.746 145.383 C 309.498 145.154,310.240 144.925,310.550 144.517 C 310.718 144.295,311.194 144.085,311.608 144.050 C 312.543 143.970,312.932 143.739,312.932 143.263 C 312.932 143.012,313.241 142.884,313.892 142.864 C 314.421 142.848,314.968 142.808,315.109 142.775 C 315.250 142.742,315.558 142.698,315.795 142.677 C 316.031 142.655,316.425 142.436,316.671 142.190 C 317.044 141.814,318.038 141.469,320.059 141.014 C 320.246 140.972,320.477 140.812,320.571 140.660 C 320.665 140.508,321.110 140.326,321.559 140.255 C 322.586 140.093,322.919 139.889,322.919 139.422 C 322.919 139.177,323.221 139.042,323.816 139.020 C 324.309 139.003,324.827 138.960,324.968 138.924 C 325.109 138.889,325.504 138.846,325.847 138.828 C 326.227 138.809,326.533 138.597,326.633 138.284 C 326.728 137.984,327.026 137.767,327.354 137.761 C 328.256 137.743,330.371 137.122,330.558 136.820 C 330.652 136.667,331.097 136.484,331.546 136.414 C 332.573 136.252,332.907 136.048,332.907 135.580 C 332.907 135.339,333.194 135.205,333.739 135.192 C 334.197 135.181,334.802 135.115,335.083 135.045 C 335.365 134.975,335.809 134.920,336.071 134.923 C 336.333 134.925,336.606 134.703,336.677 134.429 C 336.763 134.102,337.039 133.924,337.482 133.912 C 338.933 133.871,340.589 133.338,340.589 132.913 C 340.589 132.736,347.090 132.650,360.545 132.650 C 378.535 132.650,380.542 132.610,380.913 132.239 C 381.263 131.889,381.320 131.138,381.294 127.222 C 381.261 122.294,381.068 121.205,380.185 120.984 C 378.905 120.662,309.233 120.991,308.656 121.321 C 308.346 121.498,306.445 121.812,304.431 122.019 C 302.416 122.226,300.365 122.508,299.872 122.646 C 295.405 123.895,271.628 123.826,264.578 122.544 C 263.497 122.347,261.769 122.108,260.738 122.013 C 259.708 121.918,258.267 121.661,257.537 121.442 C 255.570 120.853,220.282 120.640,218.326 121.205 C 212.309 122.944,208.755 123.299,205.087 122.528 C 203.418 122.177,203.126 122.177,202.248 122.528 C 200.049 123.408,195.355 122.994,189.885 121.436 C 187.772 120.835,157.159 120.620,151.472 121.166 C 147.105 121.586,133.031 121.586,128.809 121.166 C 123.301 120.617,107.375 120.773,106.600 121.383 C 105.719 122.076,96.007 122.135,93.086 121.465 C 90.625 120.901,20.400 120.627,19.649 121.178 M302.922 133.063 C 302.710 133.317,302.544 133.367,302.486 133.193 C 302.425 133.010,302.257 133.045,302.010 133.293 C 301.800 133.503,301.297 133.675,300.893 133.675 C 300.489 133.675,300.086 133.792,299.997 133.935 C 299.909 134.078,299.742 134.137,299.627 134.066 C 299.512 133.995,299.363 134.148,299.295 134.407 C 299.197 134.780,298.834 134.909,297.542 135.026 C 296.335 135.135,295.804 135.308,295.493 135.691 C 295.263 135.976,294.793 136.247,294.450 136.293 C 294.106 136.339,293.499 136.633,293.101 136.946 L 292.377 137.516 201.529 137.516 C 120.764 137.516,110.666 137.473,110.534 137.130 C 110.452 136.917,110.296 136.763,110.186 136.787 C 110.077 136.812,109.699 136.750,109.347 136.651 C 108.462 136.400,107.386 136.274,105.954 136.253 C 105.093 136.241,104.738 136.131,104.738 135.879 C 104.738 135.434,104.333 135.276,102.628 135.055 C 101.723 134.938,101.080 134.682,100.669 134.278 C 100.216 133.830,99.770 133.675,98.941 133.675 C 98.144 133.675,97.823 133.570,97.823 133.309 C 97.823 133.108,97.622 132.891,97.375 132.827 C 97.129 132.763,143.353 132.696,200.095 132.680 C 294.897 132.653,303.236 132.684,302.922 133.063 " stroke="none" fill="#b3b4b3" fill-rule="evenodd"></path><path id="path3" d="M19.055 127.273 C 19.055 129.738,19.094 130.746,19.141 129.513 C 19.188 128.281,19.188 126.264,19.141 125.032 C 19.094 123.800,19.055 124.808,19.055 127.273 M33.300 161.059 C 33.147 161.343,33.035 163.367,33.035 165.813 C 33.035 171.592,32.419 171.063,39.138 171.063 C 45.297 171.063,45.327 171.055,45.327 169.475 L 45.327 168.502 48.274 168.502 L 51.222 168.502 51.155 178.672 L 51.088 188.841 50.256 189.080 C 49.798 189.211,49.424 189.475,49.424 189.666 C 49.424 189.911,49.053 190.013,48.160 190.013 C 45.561 190.013,45.080 190.466,45.074 192.918 C 45.066 196.613,44.551 196.475,58.779 196.590 C 72.228 196.699,71.026 197.013,71.151 193.354 C 71.261 190.116,71.190 190.013,68.855 190.013 C 67.886 190.013,67.093 189.906,67.093 189.775 C 67.093 189.322,66.286 188.732,65.667 188.732 L 65.045 188.732 65.045 178.617 L 65.045 168.502 68.109 168.502 C 70.838 168.502,71.201 168.554,71.429 168.980 C 71.570 169.243,72.035 169.529,72.462 169.614 C 73.082 169.738,73.239 169.901,73.239 170.416 L 73.239 171.063 77.197 171.063 L 81.155 171.063 81.230 172.783 L 81.306 174.502 82.266 174.729 C 82.821 174.859,83.227 175.109,83.227 175.320 C 83.227 175.824,84.300 176.184,85.804 176.184 L 87.068 176.184 87.068 182.594 C 87.068 188.464,87.030 189.019,86.620 189.174 C 86.373 189.268,86.019 189.494,85.833 189.678 C 85.647 189.862,85.056 190.013,84.520 190.013 C 83.063 190.013,82.895 190.381,83.013 193.310 C 83.162 197.019,81.950 196.672,94.718 196.667 C 108.089 196.663,106.914 197.008,106.914 193.078 L 106.914 190.141 104.957 190.067 C 103.260 190.002,102.982 189.925,102.868 189.489 C 102.786 189.178,102.433 188.924,101.944 188.827 L 101.152 188.668 101.152 183.723 L 101.152 178.778 101.985 178.697 C 102.548 178.643,102.897 178.436,103.063 178.057 C 103.301 177.515,103.461 177.493,107.852 177.416 C 111.148 177.359,112.487 177.245,112.728 177.004 C 113.246 176.486,113.199 168.828,112.676 168.497 C 111.531 167.772,103.201 168.310,103.201 169.109 C 103.201 169.772,101.140 169.784,100.889 169.122 C 100.774 168.820,100.488 168.498,100.255 168.409 C 99.420 168.089,83.608 168.223,83.278 168.553 C 83.039 168.792,82.971 167.939,82.971 164.712 L 82.971 160.563 58.268 160.563 C 34.107 160.563,33.559 160.574,33.300 161.059 M275.203 163.295 C 275.109 163.389,275.032 164.541,275.032 165.856 L 275.032 168.246 272.375 168.246 C 270.217 168.246,269.651 168.325,269.366 168.669 C 268.919 169.207,268.724 174.471,269.114 175.480 L 269.386 176.184 272.209 176.184 L 275.032 176.184 275.032 184.286 L 275.032 192.387 275.685 192.992 C 276.045 193.325,276.506 193.598,276.710 193.598 C 276.933 193.598,277.081 193.849,277.081 194.229 C 277.081 194.958,277.730 195.391,278.825 195.391 C 279.240 195.391,279.722 195.563,279.898 195.775 C 280.073 195.986,280.426 196.159,280.682 196.159 C 280.938 196.159,281.219 196.274,281.306 196.415 C 281.523 196.766,294.322 196.751,295.595 196.398 C 297.436 195.887,297.689 192.103,295.912 191.657 C 295.407 191.530,295.262 191.331,295.262 190.765 C 295.262 188.914,294.961 188.732,291.892 188.732 L 289.117 188.732 289.117 182.458 L 289.117 176.184 291.774 176.184 C 295.025 176.184,295.099 176.124,295.226 173.318 C 295.437 168.675,295.135 168.246,291.659 168.246 L 289.117 168.246 289.117 166.180 C 289.117 162.884,289.679 163.124,281.980 163.124 C 278.346 163.124,275.297 163.201,275.203 163.295 M124.584 168.513 C 124.162 168.642,123.692 168.917,123.540 169.125 C 123.351 169.384,122.672 169.526,121.363 169.578 C 119.675 169.646,119.434 169.719,119.209 170.230 C 118.988 170.735,118.766 170.807,117.417 170.811 C 115.119 170.816,115.122 170.811,115.023 174.405 C 114.976 176.113,115.007 177.789,115.092 178.128 L 115.247 178.745 120.824 178.745 C 126.779 178.745,127.013 178.697,127.021 177.478 C 127.027 176.350,127.284 176.221,129.582 176.184 C 132.961 176.130,133.163 176.151,133.163 176.552 C 133.163 176.754,133.566 177.065,134.059 177.244 C 134.893 177.545,134.955 177.643,134.955 178.664 L 134.955 179.761 128.233 179.829 C 121.574 179.897,121.509 179.903,121.262 180.464 C 121.045 180.959,120.788 181.039,119.214 181.104 C 117.629 181.169,117.383 181.247,117.161 181.754 C 116.986 182.153,116.689 182.330,116.195 182.330 C 115.683 182.330,115.400 182.511,115.190 182.971 C 115.007 183.373,114.688 183.611,114.331 183.611 C 113.274 183.611,113.171 184.074,113.246 188.510 L 113.316 192.702 114.131 192.781 C 114.791 192.845,114.977 192.998,115.106 193.586 C 115.345 194.672,116.046 195.149,117.643 195.314 C 118.589 195.412,119.078 195.578,119.078 195.801 C 119.078 196.940,133.886 197.097,134.635 195.967 C 134.869 195.615,135.280 195.389,135.691 195.387 C 136.541 195.382,136.911 195.143,137.073 194.494 C 137.143 194.213,137.214 194.527,137.230 195.194 C 137.269 196.769,136.937 196.711,145.413 196.619 C 153.741 196.528,153.137 196.804,153.137 193.088 C 153.137 190.136,153.048 190.013,150.909 190.013 L 149.296 190.013 149.296 182.202 C 149.296 173.606,149.251 173.367,147.649 173.367 C 147.199 173.367,147.004 173.208,146.945 172.791 C 146.883 172.354,146.668 172.196,146.055 172.137 C 145.444 172.077,145.208 171.905,145.090 171.432 C 144.966 170.938,144.767 170.807,144.142 170.807 C 143.604 170.807,143.191 170.602,142.848 170.166 C 142.410 169.610,142.142 169.526,140.804 169.526 C 139.514 169.526,139.186 169.432,138.796 168.950 C 138.287 168.321,126.404 167.955,124.584 168.513 M167.601 168.867 C 167.074 169.395,166.704 169.505,165.367 169.532 C 163.317 169.574,161.332 170.036,161.332 170.471 C 161.332 170.684,161.003 170.807,160.430 170.807 C 159.716 170.807,159.467 170.940,159.236 171.447 C 159.032 171.894,158.741 172.087,158.269 172.087 C 157.437 172.087,156.978 172.515,156.978 173.291 C 156.978 173.658,156.825 173.880,156.571 173.880 C 156.028 173.880,155.205 174.896,155.194 175.580 C 155.188 175.997,154.979 176.166,154.318 176.290 C 153.164 176.507,153.145 176.617,153.141 182.875 C 153.137 188.523,153.138 188.530,154.469 188.864 C 155.061 189.013,155.170 189.188,155.236 190.101 C 155.306 191.055,155.400 191.191,156.146 191.410 C 156.640 191.556,156.978 191.823,156.978 192.068 C 156.978 192.556,158.103 193.598,158.630 193.598 C 158.831 193.598,159.068 193.713,159.155 193.854 C 159.242 193.995,159.682 194.110,160.134 194.110 C 160.739 194.110,161.020 194.261,161.207 194.686 C 161.397 195.119,161.713 195.283,162.481 195.346 C 163.042 195.391,163.581 195.557,163.679 195.715 C 164.516 197.070,181.050 197.147,181.050 195.795 C 181.050 195.552,181.546 195.419,182.739 195.343 C 184.081 195.257,184.516 195.123,184.852 194.690 C 185.085 194.390,185.621 194.108,186.044 194.063 C 186.607 194.004,186.833 193.833,186.891 193.423 C 186.946 193.042,187.211 192.811,187.723 192.698 C 188.663 192.492,189.245 191.688,189.245 190.596 C 189.245 189.961,189.356 189.757,189.702 189.757 C 190.851 189.757,191.491 186.268,190.519 185.295 C 190.174 184.948,179.446 184.762,178.208 185.081 C 177.411 185.286,177.330 185.396,177.258 186.379 C 177.194 187.253,177.085 187.452,176.670 187.452 C 176.390 187.452,175.873 187.740,175.521 188.092 C 174.732 188.881,170.485 189.085,170.202 188.348 C 170.121 188.137,169.820 187.964,169.534 187.964 C 169.162 187.964,169.014 187.796,169.014 187.375 C 169.014 186.625,168.561 186.172,167.810 186.172 C 167.227 186.172,167.222 186.140,167.222 182.971 C 167.222 180.296,167.285 179.770,167.606 179.770 C 168.195 179.770,169.014 178.818,169.014 178.133 C 169.014 177.634,169.183 177.490,169.939 177.348 C 170.547 177.234,170.908 177.005,170.993 176.680 C 171.184 175.948,175.008 175.933,175.398 176.663 C 175.539 176.926,176.004 177.211,176.431 177.297 C 177.179 177.446,177.209 177.504,177.213 178.803 C 177.219 181.100,177.767 181.303,183.977 181.305 C 190.808 181.307,190.796 181.316,190.713 176.200 L 190.653 172.503 189.821 172.288 C 189.363 172.169,188.988 171.907,188.988 171.705 C 188.988 171.135,188.128 170.807,186.633 170.807 C 185.464 170.807,185.233 170.724,185.016 170.230 C 184.779 169.690,184.588 169.650,181.940 169.582 C 179.303 169.515,179.099 169.473,178.867 168.942 C 178.622 168.386,178.511 168.372,173.425 168.305 L 168.233 168.235 167.601 168.867 M206.209 168.427 C 205.892 168.488,205.514 168.760,205.368 169.032 C 205.146 169.448,204.820 169.526,203.314 169.526 C 201.640 169.526,201.508 169.568,201.280 170.166 C 201.056 170.757,200.648 170.937,199.793 170.822 C 199.095 170.728,197.662 171.388,197.273 171.982 C 197.050 172.321,196.664 172.599,196.415 172.599 C 195.921 172.599,195.134 173.621,195.134 174.261 C 195.134 174.502,194.822 174.723,194.346 174.818 C 193.327 175.022,193.086 175.678,193.086 178.250 C 193.086 180.054,193.033 180.282,192.613 180.282 C 190.777 180.282,190.392 184.699,192.199 185.038 L 193.086 185.204 193.086 187.471 C 193.086 189.895,193.289 190.269,194.605 190.269 C 195.020 190.269,195.134 190.432,195.134 191.019 C 195.134 191.809,195.701 192.574,196.288 192.574 C 196.479 192.574,196.882 192.919,197.183 193.342 C 197.602 193.931,197.928 194.110,198.578 194.110 C 199.044 194.110,199.569 194.283,199.744 194.494 C 199.919 194.706,200.337 194.878,200.672 194.878 C 201.006 194.878,201.280 194.994,201.280 195.134 C 201.280 195.275,201.741 195.391,202.305 195.391 C 203.013 195.391,203.329 195.501,203.329 195.750 C 203.329 196.521,204.897 196.671,212.938 196.671 C 221.584 196.671,222.537 196.592,222.727 195.864 C 222.820 195.510,223.093 195.391,223.807 195.391 C 224.971 195.391,226.431 194.919,226.709 194.453 C 226.822 194.264,227.246 194.110,227.651 194.110 C 229.089 194.110,229.560 192.923,228.822 191.157 C 228.575 190.565,228.281 190.269,227.941 190.269 C 227.311 190.269,227.136 190.000,226.987 188.800 C 226.829 187.525,226.998 187.580,223.249 187.580 C 220.069 187.580,219.890 187.608,219.526 188.156 C 219.033 188.899,210.686 189.075,210.407 188.348 C 210.326 188.137,210.042 187.964,209.777 187.964 C 209.511 187.964,208.993 187.685,208.625 187.344 C 208.257 187.004,207.751 186.671,207.499 186.606 C 207.248 186.541,211.836 186.474,217.694 186.457 C 230.676 186.421,229.193 187.193,229.193 180.472 C 229.193 175.053,229.097 174.648,227.803 174.648 C 227.322 174.648,227.177 174.456,226.989 173.569 C 226.798 172.668,226.631 172.453,225.979 172.266 C 225.550 172.143,225.089 171.793,224.955 171.488 C 224.786 171.103,224.439 170.909,223.816 170.850 C 223.323 170.804,222.830 170.607,222.720 170.412 C 222.432 169.901,220.861 169.529,218.979 169.528 C 217.565 169.526,217.264 169.440,216.751 168.886 L 216.158 168.246 211.472 168.281 C 208.895 168.300,206.527 168.366,206.209 168.427 M243.324 168.886 C 242.890 169.437,242.614 169.526,241.339 169.526 C 239.817 169.526,238.225 169.942,237.772 170.458 C 237.631 170.618,237.071 170.828,236.527 170.923 C 235.743 171.061,235.479 171.253,235.255 171.848 C 235.093 172.275,234.782 172.599,234.534 172.599 C 233.374 172.599,233.017 173.750,233.050 177.377 C 233.084 181.037,233.424 182.074,234.590 182.074 C 234.861 182.074,235.083 182.225,235.083 182.409 C 235.083 183.254,235.779 183.682,237.407 183.838 C 240.390 184.123,239.866 184.891,236.687 184.891 C 233.033 184.891,233.163 184.718,233.163 189.617 C 233.163 194.210,233.107 194.100,235.410 194.106 C 236.750 194.110,236.911 194.170,237.132 194.750 C 237.326 195.260,237.553 195.391,238.247 195.391 C 238.866 195.391,239.229 195.557,239.500 195.967 L 239.883 196.543 248.872 196.619 C 257.972 196.697,258.899 196.618,258.899 195.766 C 258.899 195.477,259.259 195.391,260.452 195.391 C 262.128 195.391,262.996 195.081,262.996 194.485 C 262.996 194.259,263.242 194.110,263.615 194.110 C 264.570 194.110,265.045 193.846,265.045 193.314 C 265.045 192.995,265.226 192.830,265.574 192.830 C 267.022 192.830,267.093 192.619,267.093 188.360 C 267.093 183.723,267.066 183.611,265.914 183.611 C 265.206 183.611,265.045 183.512,265.045 183.082 C 265.045 181.800,263.846 181.055,261.780 181.051 C 261.211 181.050,260.948 180.928,260.948 180.666 C 260.948 180.455,260.803 180.261,260.627 180.236 C 260.451 180.211,261.723 180.125,263.454 180.044 C 267.300 179.865,267.085 180.135,267.090 175.480 C 267.094 171.084,266.952 170.807,264.690 170.807 C 263.502 170.807,263.253 170.718,262.892 170.166 C 262.486 169.548,262.377 169.526,259.661 169.526 C 257.420 169.526,256.850 169.453,256.850 169.167 C 256.850 168.444,255.273 168.246,249.532 168.246 L 243.827 168.246 243.324 168.886 M311.290 168.886 C 310.752 169.467,310.506 169.526,308.630 169.526 C 306.357 169.526,305.250 169.818,305.250 170.416 C 305.250 170.692,304.985 170.807,304.348 170.807 C 303.640 170.807,303.385 170.941,303.161 171.433 C 302.962 171.868,302.631 172.084,302.078 172.137 C 301.427 172.201,301.235 172.368,301.035 173.047 C 300.901 173.505,300.631 173.880,300.436 173.880 C 299.935 173.880,299.122 174.928,299.112 175.588 C 299.106 175.993,298.897 176.189,298.340 176.311 C 296.237 176.773,296.465 188.988,298.577 188.988 C 298.979 188.988,299.089 189.197,299.153 190.077 C 299.224 191.058,299.314 191.189,300.064 191.410 C 300.522 191.545,300.896 191.787,300.896 191.949 C 300.896 192.389,302.097 193.598,302.533 193.598 C 302.743 193.598,302.986 193.713,303.073 193.854 C 303.160 193.995,303.685 194.110,304.240 194.110 C 305.060 194.110,305.250 194.201,305.250 194.595 C 305.250 195.226,305.730 195.391,307.575 195.391 C 308.736 195.391,309.091 195.478,309.091 195.766 C 309.091 196.592,310.037 196.679,318.364 196.610 L 326.633 196.543 326.885 195.967 C 327.108 195.458,327.325 195.391,328.724 195.391 C 330.237 195.391,331.114 195.014,331.114 194.363 C 331.114 194.241,331.546 194.105,332.074 194.062 L 333.035 193.982 333.110 192.098 C 333.194 190.013,332.783 188.988,331.863 188.988 C 331.515 188.988,331.254 188.732,331.073 188.212 L 330.802 187.435 328.077 187.508 C 325.531 187.575,325.336 187.618,325.099 188.156 C 324.850 188.725,324.781 188.732,319.974 188.732 C 315.167 188.732,315.099 188.725,314.849 188.156 C 314.707 187.831,314.318 187.541,313.956 187.490 C 313.355 187.406,312.945 187.056,312.936 186.620 C 312.934 186.514,317.534 186.428,323.159 186.428 C 328.832 186.428,333.664 186.322,334.011 186.190 C 335.772 185.520,335.714 177.655,333.944 177.301 C 333.252 177.163,333.214 177.081,333.113 175.500 C 333.003 173.770,332.746 173.379,331.713 173.371 C 331.271 173.368,331.125 173.168,330.993 172.388 C 330.835 171.452,329.297 170.607,328.145 170.824 C 327.515 170.942,327.115 170.754,326.885 170.230 C 326.663 169.723,326.417 169.646,324.840 169.582 C 323.703 169.536,322.951 169.382,322.783 169.161 C 321.907 168.006,312.318 167.777,311.290 168.886 M337.580 168.415 C 337.213 168.564,337.118 175.052,337.474 175.614 C 337.588 175.793,338.450 176.011,339.391 176.099 L 341.101 176.258 341.101 183.136 L 341.101 190.013 339.181 190.013 L 337.260 190.013 337.260 193.186 C 337.260 195.844,337.326 196.385,337.665 196.515 C 337.888 196.601,343.056 196.671,349.149 196.671 C 362.372 196.671,361.129 197.063,361.021 192.928 L 360.948 190.141 359.121 190.066 C 357.306 189.992,357.293 189.986,357.136 189.202 C 356.931 188.177,356.936 179.674,357.143 178.425 L 357.301 177.465 361.700 177.465 C 367.466 177.465,367.070 177.794,367.180 172.917 C 367.293 167.952,367.579 168.246,362.632 168.246 C 358.828 168.246,357.234 168.513,357.234 169.152 C 357.234 169.363,356.869 169.526,356.284 169.575 C 355.521 169.639,355.299 169.780,355.157 170.294 C 355.022 170.786,354.975 170.659,354.955 169.748 C 354.934 168.745,354.841 168.538,354.353 168.407 C 353.664 168.222,338.039 168.230,337.580 168.415 M213.135 176.698 C 213.219 177.020,213.566 177.271,214.061 177.370 C 214.608 177.480,214.853 177.677,214.853 178.009 C 214.853 178.459,214.606 178.487,210.948 178.459 C 208.800 178.443,207.254 178.375,207.514 178.308 C 208.126 178.150,208.867 177.401,209.083 176.722 C 209.336 175.923,212.927 175.902,213.135 176.698 M254.927 177.145 C 255.009 177.673,255.177 178.480,255.299 178.937 C 255.535 179.817,254.842 180.196,254.366 179.448 C 254.002 178.877,252.381 178.489,250.358 178.489 C 248.839 178.489,248.349 178.400,248.236 178.105 C 248.155 177.894,247.870 177.721,247.604 177.721 C 247.236 177.721,247.119 177.536,247.119 176.953 L 247.119 176.184 250.949 176.184 L 254.778 176.184 254.927 177.145 M317.721 176.540 C 317.834 176.736,318.148 176.937,318.419 176.988 C 318.700 177.041,318.994 177.384,319.102 177.785 L 319.290 178.489 316.135 178.489 C 313.158 178.489,312.987 178.462,313.108 178.001 C 313.189 177.690,313.552 177.454,314.108 177.349 C 314.747 177.229,314.981 177.052,314.981 176.685 C 314.981 176.059,317.371 175.933,317.721 176.540 M134.955 186.248 C 134.955 187.274,134.894 187.371,134.059 187.673 C 133.566 187.851,133.163 188.163,133.163 188.365 C 133.163 188.663,132.606 188.732,130.218 188.732 L 127.273 188.732 127.273 187.964 C 127.273 187.381,127.390 187.196,127.757 187.196 C 128.024 187.196,128.302 187.039,128.376 186.848 C 128.464 186.617,129.139 186.455,130.380 186.366 C 131.883 186.258,132.327 186.127,132.642 185.699 C 132.915 185.328,133.326 185.163,133.995 185.157 L 134.955 185.147 134.955 186.248 M245.070 185.522 C 245.070 186.188,246.007 186.428,248.609 186.428 C 250.944 186.428,251.168 186.471,251.291 186.942 C 251.375 187.263,251.722 187.515,252.217 187.614 C 253.130 187.796,253.374 188.732,252.509 188.732 C 251.339 188.732,249.424 189.302,249.424 189.650 C 249.424 190.360,247.250 190.121,246.910 189.373 C 246.715 188.945,246.411 188.732,245.995 188.732 C 245.467 188.732,245.345 188.575,245.198 187.705 C 245.021 186.655,244.511 186.172,243.581 186.172 C 243.297 186.172,243.024 185.951,242.948 185.659 C 242.829 185.204,242.940 185.147,243.942 185.147 C 244.762 185.147,245.070 185.250,245.070 185.522 " stroke="none" fill="#fcfcfc" fill-rule="evenodd"></path><path id="path4" d="M347.702 60.450 C 347.459 60.717,347.192 61.208,347.108 61.542 C 346.986 62.027,346.817 62.131,346.269 62.056 C 345.605 61.965,345.601 61.972,346.150 62.258 C 346.475 62.428,346.890 63.059,347.123 63.736 C 347.666 65.317,349.012 67.842,349.028 67.307 C 349.034 67.072,348.636 66.120,348.143 65.190 C 347.650 64.261,347.247 63.162,347.247 62.748 C 347.247 61.841,347.749 60.655,348.053 60.843 C 348.173 60.917,348.271 60.872,348.271 60.743 C 348.271 59.850,350.799 60.993,350.824 61.898 C 350.828 62.068,351.269 62.338,351.803 62.498 C 352.572 62.729,352.785 62.925,352.828 63.448 C 352.907 64.410,353.137 64.497,353.137 63.566 C 353.137 62.747,352.402 61.979,351.608 61.965 C 351.392 61.962,351.005 61.501,350.747 60.941 C 350.198 59.749,348.579 59.488,347.702 60.450 M343.159 62.467 C 342.827 63.087,342.825 63.252,343.150 63.252 C 343.291 63.252,343.406 63.121,343.406 62.960 C 343.406 62.800,343.608 62.515,343.854 62.328 C 344.273 62.010,344.274 61.988,343.863 61.980 C 343.622 61.975,343.305 62.195,343.159 62.467 M339.352 63.789 C 338.901 64.512,339.136 64.677,339.801 64.103 C 340.098 63.846,340.714 63.565,341.169 63.478 C 341.926 63.333,341.897 63.317,340.843 63.286 C 339.925 63.259,339.619 63.363,339.352 63.789 M337.260 64.789 C 337.260 64.930,337.058 65.048,336.812 65.053 C 336.565 65.057,336.140 65.230,335.867 65.437 C 335.593 65.644,334.995 65.813,334.537 65.813 C 333.970 65.813,333.578 65.992,333.311 66.374 C 332.797 67.108,333.018 67.304,333.683 66.702 C 334.225 66.211,334.364 66.167,336.172 65.912 C 336.837 65.819,337.260 65.625,337.260 65.415 C 337.260 65.225,337.462 64.953,337.708 64.809 C 338.135 64.561,338.135 64.548,337.708 64.540 C 337.462 64.536,337.260 64.648,337.260 64.789 M353.273 64.802 C 353.365 64.951,353.571 65.028,353.732 64.975 C 353.892 64.921,354.223 65.117,354.468 65.409 L 354.913 65.941 354.921 65.395 C 354.927 65.041,354.727 64.794,354.353 64.694 C 353.486 64.462,353.088 64.502,353.273 64.802 M330.282 67.427 C 329.754 67.575,329.321 67.848,329.321 68.035 C 329.321 68.437,329.735 68.485,329.966 68.111 C 330.056 67.966,330.495 67.687,330.941 67.491 C 331.894 67.074,331.633 67.049,330.282 67.427 M355.087 68.007 C 354.969 68.314,355.051 68.370,355.443 68.245 C 355.736 68.153,355.954 68.200,355.954 68.357 C 355.954 68.507,356.082 68.601,356.239 68.566 C 356.396 68.531,356.570 68.773,356.626 69.105 C 356.801 70.147,357.217 70.674,357.227 69.866 C 357.241 68.576,355.462 67.030,355.087 68.007 M349.176 69.654 C 349.235 70.570,349.352 72.202,349.437 73.282 C 349.633 75.770,349.167 79.922,348.516 81.481 C 348.241 82.140,347.835 83.465,347.615 84.426 C 347.394 85.386,347.022 86.460,346.788 86.812 C 345.539 88.694,344.659 90.975,345.823 89.311 C 348.824 85.025,350.565 75.578,349.423 69.782 L 349.070 67.990 349.176 69.654 M327.282 68.869 C 326.859 69.660,326.973 69.797,327.544 69.185 C 327.834 68.873,328.172 68.681,328.295 68.757 C 328.417 68.832,328.590 68.777,328.679 68.634 C 328.771 68.484,328.566 68.374,328.193 68.374 C 327.816 68.374,327.436 68.580,327.282 68.869 M324.302 70.020 C 323.298 70.457,322.951 71.163,323.821 70.996 C 324.237 70.917,324.373 70.760,324.266 70.483 C 324.151 70.182,324.239 70.117,324.625 70.218 C 324.906 70.291,325.351 70.195,325.613 70.003 C 326.280 69.516,325.436 69.527,324.302 70.020 M321.244 71.208 C 320.946 71.691,321.332 71.767,321.935 71.345 L 322.521 70.935 321.967 70.935 C 321.662 70.935,321.337 71.058,321.244 71.208 M357.038 71.703 C 357.038 72.196,357.090 72.398,357.155 72.151 C 357.219 71.905,357.219 71.501,357.155 71.255 C 357.090 71.008,357.038 71.210,357.038 71.703 M318.243 72.392 C 317.995 72.457,317.856 72.615,317.936 72.744 C 318.015 72.872,317.902 72.909,317.683 72.825 C 317.425 72.726,317.286 72.818,317.286 73.087 C 317.286 73.467,317.366 73.469,318.246 73.101 C 319.885 72.417,319.883 71.964,318.243 72.392 M357.234 73.752 C 357.234 73.892,357.458 74.008,357.732 74.008 C 358.006 74.008,358.409 74.264,358.628 74.577 L 359.027 75.146 359.027 74.586 C 359.027 74.016,358.362 73.496,357.635 73.496 C 357.415 73.496,357.234 73.611,357.234 73.752 M311.709 75.175 C 311.396 75.394,311.140 75.700,311.140 75.854 C 311.140 76.013,311.336 75.960,311.588 75.734 C 311.834 75.513,312.439 75.217,312.932 75.077 L 313.828 74.822 313.053 74.799 C 312.627 74.786,312.022 74.955,311.709 75.175 M151.819 76.228 C 151.587 76.289,151.340 76.556,151.271 76.820 C 151.186 77.145,150.868 77.327,150.285 77.382 C 149.685 77.440,149.347 77.640,149.171 78.041 C 149.019 78.388,148.694 78.617,148.353 78.617 C 148.043 78.617,147.611 78.870,147.395 79.179 C 147.179 79.488,146.625 79.862,146.164 80.011 C 145.524 80.218,145.307 80.448,145.245 80.986 C 145.191 81.461,145.016 81.690,144.707 81.690 C 144.083 81.690,142.839 82.884,142.940 83.386 C 143.254 84.944,149.296 86.000,149.296 84.496 C 149.296 84.154,149.521 84.006,150.128 83.947 C 150.759 83.886,150.980 83.731,151.040 83.305 C 151.103 82.861,151.317 82.727,152.065 82.665 C 152.820 82.602,153.025 82.471,153.091 82.010 C 153.157 81.541,153.335 81.434,154.051 81.434 C 154.534 81.434,154.930 81.319,154.930 81.178 C 154.930 81.037,155.110 80.922,155.331 80.922 C 155.551 80.922,156.110 80.634,156.571 80.282 C 157.033 79.930,157.573 79.638,157.771 79.633 C 158.611 79.615,159.427 77.749,159.040 76.730 L 158.783 76.056 155.512 76.086 C 153.713 76.102,152.051 76.166,151.819 76.228 M309.262 76.227 C 309.168 76.321,309.091 76.573,309.091 76.788 C 309.091 77.125,309.135 77.121,309.411 76.764 C 309.587 76.535,310.019 76.299,310.371 76.237 C 310.932 76.140,310.913 76.122,310.222 76.091 C 309.788 76.072,309.356 76.133,309.262 76.227 M305.698 77.613 C 305.451 77.757,305.250 78.041,305.250 78.246 C 305.250 78.766,305.582 78.708,305.947 78.124 C 306.116 77.853,306.518 77.580,306.840 77.519 C 307.401 77.411,307.399 77.405,306.786 77.379 C 306.434 77.365,305.944 77.470,305.698 77.613 M303.208 78.993 C 303.037 79.199,302.956 79.516,303.029 79.697 C 303.110 79.900,303.168 79.852,303.181 79.569 C 303.192 79.318,303.460 79.009,303.777 78.881 C 304.167 78.724,304.219 78.644,303.937 78.633 C 303.707 78.624,303.380 78.786,303.208 78.993 M299.411 80.205 C 298.754 80.862,299.093 81.202,299.848 80.643 C 300.257 80.341,300.718 80.171,300.872 80.267 C 301.026 80.362,301.152 80.318,301.152 80.169 C 301.152 79.797,299.791 79.825,299.411 80.205 M174.083 81.472 C 172.857 81.920,172.930 83.602,174.184 83.785 C 174.573 83.842,174.812 84.123,174.960 84.699 C 175.078 85.157,175.287 85.531,175.423 85.531 C 175.560 85.531,175.643 85.663,175.608 85.824 C 175.573 85.986,175.919 86.219,176.376 86.344 C 176.954 86.501,177.209 86.723,177.209 87.070 C 177.209 87.548,177.482 87.683,178.873 87.894 C 179.155 87.936,179.385 88.118,179.385 88.297 C 179.385 88.748,180.030 89.112,180.794 89.092 L 181.434 89.075 180.753 88.772 C 180.378 88.606,179.860 88.283,179.601 88.055 C 179.341 87.827,178.872 87.562,178.557 87.466 C 178.242 87.370,177.634 86.942,177.207 86.514 C 176.736 86.043,176.275 85.796,176.037 85.887 C 175.812 85.974,175.713 85.929,175.803 85.783 C 175.890 85.642,175.781 85.347,175.561 85.127 C 175.340 84.907,175.160 84.517,175.160 84.260 C 175.160 83.829,174.519 83.347,174.072 83.442 C 173.966 83.464,173.880 83.083,173.880 82.594 C 173.880 81.910,173.968 81.740,174.264 81.854 C 174.475 81.935,174.648 81.867,174.648 81.702 C 174.648 81.538,174.734 81.454,174.840 81.515 C 174.946 81.576,175.262 81.533,175.544 81.420 C 176.342 81.099,174.969 81.148,174.083 81.472 M193.225 81.452 C 193.318 81.602,193.552 81.664,193.745 81.590 C 193.938 81.516,194.272 81.707,194.487 82.014 L 194.878 82.572 194.878 82.033 C 194.878 81.690,194.668 81.438,194.302 81.339 C 193.432 81.106,193.037 81.147,193.225 81.452 M297.183 81.434 C 297.096 81.575,296.815 81.690,296.559 81.690 C 296.303 81.690,295.950 81.863,295.775 82.074 C 295.503 82.402,295.576 82.458,296.279 82.458 C 296.886 82.458,297.138 82.324,297.236 81.949 C 297.309 81.669,297.464 81.498,297.579 81.569 C 297.694 81.640,297.860 81.581,297.949 81.438 C 298.037 81.295,297.937 81.178,297.725 81.178 C 297.514 81.178,297.270 81.293,297.183 81.434 M196.799 82.659 C 196.940 82.807,197.276 82.966,197.546 83.013 C 197.816 83.060,198.300 83.358,198.622 83.675 C 198.945 83.992,199.438 84.251,199.718 84.251 C 199.998 84.251,200.406 84.507,200.626 84.820 C 200.937 85.265,201.024 85.297,201.024 84.966 C 201.024 84.360,200.318 83.739,199.629 83.739 C 199.304 83.739,198.880 83.509,198.687 83.227 C 198.494 82.946,197.932 82.643,197.439 82.553 C 196.818 82.441,196.621 82.473,196.799 82.659 M211.972 82.756 C 211.585 82.897,211.268 83.172,211.268 83.365 C 211.268 83.627,210.760 83.736,209.283 83.792 C 207.507 83.859,207.272 83.927,207.046 84.443 C 206.858 84.871,206.578 85.019,205.957 85.019 C 205.498 85.019,205.122 85.134,205.122 85.275 C 205.122 85.416,204.909 85.531,204.649 85.531 C 204.389 85.531,203.968 85.762,203.713 86.044 C 203.458 86.325,203.151 86.556,203.031 86.556 C 202.910 86.556,202.615 86.325,202.373 86.044 C 201.852 85.435,201.024 85.366,201.024 85.931 C 201.024 86.150,201.145 86.255,201.292 86.165 C 201.799 85.851,202.817 86.779,202.817 87.555 C 202.817 89.215,201.415 91.421,200.360 91.421 C 199.196 91.421,198.976 91.668,198.976 92.971 C 198.976 93.867,199.103 94.302,199.436 94.544 C 200.230 95.122,200.750 96.571,200.590 97.761 C 200.376 99.357,200.769 99.705,202.547 99.492 C 205.259 99.167,205.122 99.291,205.122 97.170 C 205.122 96.138,205.232 95.225,205.367 95.141 C 205.501 95.058,205.539 94.802,205.451 94.573 C 205.324 94.241,205.410 94.187,205.872 94.308 C 206.191 94.391,206.383 94.390,206.299 94.306 C 206.214 94.221,206.337 93.939,206.573 93.679 C 206.819 93.406,207.050 92.610,207.117 91.801 C 207.229 90.449,207.261 90.397,207.977 90.397 C 208.533 90.397,208.780 90.237,208.963 89.757 C 209.107 89.377,209.409 89.117,209.704 89.117 C 210.529 89.117,211.012 88.832,211.012 88.344 C 211.012 87.935,211.313 87.873,213.688 87.795 C 216.888 87.691,216.981 87.623,217.113 85.298 C 217.263 82.633,215.159 81.592,211.972 82.756 M293.340 82.972 C 293.085 83.255,292.962 83.572,293.067 83.676 C 293.172 83.781,293.468 83.607,293.726 83.290 C 293.994 82.958,294.355 82.775,294.574 82.859 C 294.783 82.940,295.031 82.882,295.124 82.732 C 295.438 82.223,293.822 82.440,293.340 82.972 M358.632 83.307 C 358.517 83.766,358.348 83.915,358.065 83.806 C 357.776 83.695,357.722 83.748,357.875 83.995 C 358.029 84.246,357.972 84.294,357.660 84.174 C 357.382 84.068,357.234 84.141,357.234 84.387 C 357.234 84.594,357.447 84.763,357.706 84.763 C 358.201 84.763,359.264 83.123,358.964 82.822 C 358.871 82.730,358.722 82.948,358.632 83.307 M290.333 84.047 C 289.802 84.188,289.373 84.462,289.373 84.661 C 289.373 85.130,289.740 85.118,290.141 84.635 C 290.316 84.424,290.669 84.251,290.925 84.251 C 291.181 84.251,291.462 84.136,291.549 83.995 C 291.733 83.698,291.629 83.703,290.333 84.047 M287.333 85.515 C 286.930 86.268,287.013 86.354,287.589 85.778 C 287.876 85.491,288.214 85.320,288.340 85.398 C 288.466 85.476,288.641 85.423,288.730 85.279 C 288.823 85.129,288.617 85.019,288.244 85.019 C 287.867 85.019,287.488 85.226,287.333 85.515 M357.038 86.812 C 357.038 87.305,357.090 87.506,357.155 87.260 C 357.219 87.013,357.219 86.610,357.155 86.364 C 357.090 86.117,357.038 86.319,357.038 86.812 M284.315 86.681 C 283.405 87.077,283.198 87.570,283.967 87.512 C 284.250 87.490,284.398 87.337,284.323 87.144 C 284.242 86.930,284.412 86.810,284.800 86.808 C 285.132 86.806,285.576 86.692,285.787 86.556 C 286.405 86.156,285.307 86.250,284.315 86.681 M281.300 87.846 C 281.192 88.021,281.385 88.053,281.861 87.938 C 282.842 87.703,282.935 87.580,282.132 87.580 C 281.765 87.580,281.390 87.700,281.300 87.846 M356.760 89.450 C 356.570 90.102,356.282 90.611,356.120 90.580 C 355.958 90.550,355.859 90.683,355.900 90.876 C 355.947 91.097,355.831 91.173,355.588 91.080 C 355.376 90.998,355.134 91.042,355.051 91.176 C 354.874 91.462,355.954 91.502,356.353 91.225 C 356.775 90.931,357.285 89.483,357.191 88.843 C 357.128 88.412,357.018 88.567,356.760 89.450 M278.102 89.138 C 277.748 89.268,277.317 89.601,277.144 89.879 C 276.793 90.441,277.247 90.341,278.875 89.500 C 280.100 88.866,279.544 88.607,278.102 89.138 M183.355 90.013 C 183.530 90.224,183.789 90.397,183.930 90.397 C 184.072 90.397,184.045 90.227,183.867 90.013 C 183.692 89.802,183.433 89.629,183.292 89.629 C 183.149 89.629,183.177 89.799,183.355 90.013 M275.339 90.448 C 275.170 90.617,275.036 90.876,275.040 91.024 C 275.045 91.172,275.189 91.110,275.360 90.887 C 275.532 90.663,275.845 90.413,276.056 90.331 C 276.390 90.201,276.388 90.179,276.044 90.161 C 275.825 90.150,275.508 90.279,275.339 90.448 M187.200 90.549 C 187.209 91.102,187.690 91.449,188.625 91.580 C 189.378 91.685,189.533 91.652,189.245 91.446 C 189.033 91.296,188.697 91.171,188.496 91.169 C 188.296 91.167,187.922 90.974,187.664 90.741 C 187.407 90.508,187.198 90.422,187.200 90.549 M344.823 90.883 C 344.731 91.172,344.374 91.630,344.028 91.902 C 343.683 92.173,343.239 92.781,343.040 93.253 C 342.842 93.724,342.324 94.449,341.890 94.862 C 341.456 95.276,341.101 95.713,341.101 95.832 C 341.101 96.245,343.081 94.090,343.280 93.460 C 343.390 93.113,343.694 92.679,343.956 92.494 C 344.479 92.126,345.310 90.679,345.113 90.482 C 345.045 90.414,344.914 90.594,344.823 90.883 M271.767 91.685 C 271.450 91.813,271.191 92.093,271.191 92.309 C 271.191 92.755,271.591 92.835,271.835 92.438 C 271.925 92.293,272.364 92.015,272.811 91.819 C 273.793 91.389,272.816 91.264,271.767 91.685 M269.130 93.236 C 268.973 93.530,268.901 93.826,268.970 93.895 C 269.039 93.964,269.169 93.788,269.259 93.505 C 269.367 93.164,269.702 92.954,270.243 92.886 L 271.063 92.784 270.239 92.743 C 269.641 92.713,269.338 92.847,269.130 93.236 M354.703 93.149 C 354.687 93.325,354.299 93.643,353.841 93.856 L 353.009 94.243 353.887 94.110 C 354.945 93.949,355.008 93.896,354.854 93.298 C 354.787 93.040,354.720 92.973,354.703 93.149 M265.749 94.259 C 265.503 94.402,265.301 94.707,265.301 94.936 C 265.301 95.274,265.418 95.242,265.922 94.768 C 266.264 94.447,266.644 94.247,266.767 94.322 C 266.889 94.398,267.157 94.355,267.362 94.225 C 267.897 93.887,266.332 93.919,265.749 94.259 M125.672 94.997 C 125.020 95.632,125.122 95.890,125.782 95.275 C 126.088 94.989,126.290 94.712,126.230 94.658 C 126.170 94.604,125.919 94.757,125.672 94.997 M263.124 95.519 C 263.037 95.659,262.755 95.775,262.496 95.775 C 262.053 95.775,261.615 96.357,261.867 96.609 C 262.100 96.842,263.252 96.475,263.252 96.168 C 263.252 95.995,263.512 95.728,263.828 95.575 L 264.405 95.297 263.844 95.280 C 263.535 95.270,263.211 95.378,263.124 95.519 M352.786 96.420 C 352.699 96.646,352.520 96.765,352.388 96.683 C 352.256 96.601,352.071 96.660,351.976 96.812 C 351.882 96.965,351.649 97.030,351.460 96.958 C 351.238 96.872,351.165 96.957,351.257 97.196 C 351.335 97.400,351.507 97.567,351.639 97.567 C 351.991 97.567,353.266 96.330,353.092 96.157 C 353.011 96.075,352.873 96.194,352.786 96.420 M63.206 97.183 C 63.019 97.592,62.704 97.823,62.333 97.823 C 61.260 97.823,60.948 98.454,60.948 100.621 C 60.948 102.682,61.567 103.969,62.559 103.969 C 62.754 103.969,63.046 104.260,63.208 104.615 C 63.394 105.022,63.788 105.318,64.274 105.416 L 65.045 105.570 65.045 107.936 C 65.045 110.495,65.529 111.652,66.600 111.652 C 66.944 111.652,67.093 111.830,67.093 112.241 C 67.093 113.028,67.554 113.444,68.425 113.444 C 68.958 113.444,69.142 113.569,69.142 113.929 C 69.142 114.455,69.616 114.725,70.540 114.725 C 70.864 114.725,71.287 114.964,71.481 115.255 C 71.750 115.662,72.197 115.819,73.385 115.927 C 74.647 116.041,74.982 116.170,75.177 116.613 C 75.342 116.988,75.694 117.184,76.312 117.242 C 76.805 117.288,77.298 117.486,77.408 117.680 C 77.640 118.091,79.172 118.562,80.285 118.565 C 80.839 118.566,81.128 118.729,81.309 119.142 C 81.528 119.640,81.786 119.729,83.212 119.796 C 84.458 119.854,84.942 119.988,85.189 120.340 C 85.472 120.744,86.042 120.828,89.429 120.964 C 104.534 121.570,107.042 121.479,107.042 120.326 C 107.042 119.728,106.104 118.843,105.457 118.831 C 105.219 118.826,104.953 118.707,104.866 118.566 C 104.779 118.425,104.382 118.310,103.984 118.310 C 103.494 118.310,103.124 118.103,102.840 117.670 C 102.547 117.222,102.190 117.029,101.651 117.029 C 101.199 117.029,100.819 116.869,100.731 116.642 C 100.650 116.429,100.085 116.129,99.476 115.976 C 98.868 115.822,98.308 115.536,98.233 115.339 C 98.157 115.142,97.903 114.981,97.669 114.981 C 97.434 114.981,96.975 114.693,96.649 114.341 C 96.322 113.988,95.894 113.700,95.696 113.700 C 95.499 113.700,95.026 113.412,94.646 113.060 C 94.267 112.708,93.828 112.420,93.673 112.420 C 93.517 112.420,93.013 112.132,92.551 111.780 C 92.089 111.428,91.558 111.140,91.371 111.140 C 91.184 111.140,90.814 110.851,90.550 110.499 C 90.285 110.147,89.873 109.859,89.634 109.859 C 89.395 109.859,89.066 109.568,88.904 109.213 C 88.727 108.824,88.325 108.510,87.896 108.424 C 87.468 108.339,87.009 107.981,86.753 107.534 C 86.517 107.123,86.133 106.786,85.900 106.786 C 85.667 106.786,85.250 106.498,84.973 106.146 C 84.646 105.730,84.214 105.506,83.738 105.506 C 83.174 105.506,82.987 105.374,82.924 104.930 C 82.863 104.498,82.647 104.334,82.066 104.277 C 81.557 104.227,81.204 104.007,81.041 103.637 C 80.875 103.259,80.526 103.047,79.981 102.994 C 79.460 102.944,79.022 102.692,78.759 102.290 C 78.111 101.301,71.596 101.314,71.144 102.305 C 70.748 103.174,69.382 103.215,69.011 102.369 C 68.837 101.974,68.497 101.767,67.926 101.712 C 66.717 101.596,66.608 99.360,67.810 99.360 C 68.741 99.360,69.142 98.935,69.142 97.951 C 69.142 96.702,68.789 96.543,66.012 96.543 C 63.578 96.543,63.488 96.563,63.206 97.183 M259.462 96.850 C 258.932 97.380,259.061 97.984,259.603 97.512 C 259.850 97.298,260.397 97.001,260.819 96.853 L 261.588 96.583 260.679 96.563 C 260.179 96.552,259.631 96.681,259.462 96.850 M340.008 97.192 C 339.483 97.550,339.052 97.898,339.052 97.967 C 339.052 98.186,340.484 97.362,340.831 96.944 C 341.294 96.386,341.115 96.440,340.008 97.192 M257.234 98.079 C 257.147 98.220,256.899 98.335,256.683 98.335 C 256.467 98.335,255.991 98.572,255.624 98.860 L 254.957 99.385 255.839 99.215 C 256.325 99.122,256.860 99.040,257.028 99.032 C 257.196 99.025,257.327 98.951,257.318 98.869 C 257.265 98.378,257.395 98.069,257.601 98.196 C 257.732 98.278,257.912 98.227,258.000 98.084 C 258.088 97.940,257.988 97.823,257.777 97.823 C 257.565 97.823,257.321 97.939,257.234 98.079 M350.867 98.253 C 350.824 98.946,350.113 99.689,349.660 99.516 C 349.348 99.396,348.868 100.247,348.989 100.704 C 349.017 100.810,348.905 100.896,348.741 100.896 C 348.577 100.896,348.522 100.976,348.619 101.073 C 348.716 101.170,348.476 101.391,348.085 101.564 C 347.604 101.778,347.519 101.886,347.823 101.900 C 348.364 101.925,349.296 101.047,349.296 100.512 C 349.296 100.301,349.497 100.124,349.744 100.120 C 350.360 100.109,351.146 98.958,351.012 98.265 L 350.902 97.695 350.867 98.253 M338.796 98.715 C 338.796 98.923,338.508 99.166,338.156 99.255 C 337.804 99.343,337.516 99.517,337.516 99.641 C 337.516 99.968,336.001 101.367,335.461 101.538 C 335.209 101.619,334.938 101.852,334.859 102.058 C 334.662 102.573,334.860 102.527,335.467 101.921 C 335.749 101.639,336.124 101.408,336.300 101.408 C 336.476 101.407,336.850 101.053,337.132 100.621 C 337.414 100.189,337.961 99.668,338.348 99.463 C 338.937 99.152,339.354 98.335,338.924 98.335 C 338.854 98.335,338.796 98.506,338.796 98.715 M253.457 99.460 C 253.211 99.647,253.009 99.957,253.009 100.149 C 253.009 100.345,253.189 100.241,253.420 99.912 C 253.646 99.589,253.988 99.386,254.180 99.459 C 254.372 99.533,254.597 99.483,254.680 99.349 C 254.906 98.983,253.973 99.068,253.457 99.460 M250.409 100.686 C 249.834 100.839,249.424 101.125,249.344 101.428 C 249.220 101.906,249.238 101.905,249.943 101.403 C 250.343 101.118,250.765 100.906,250.880 100.931 C 250.994 100.956,251.376 100.850,251.729 100.696 C 252.568 100.329,251.772 100.323,250.409 100.686 M247.382 102.040 C 247.211 102.247,247.130 102.563,247.203 102.744 C 247.286 102.951,247.342 102.907,247.355 102.625 C 247.366 102.378,247.462 102.168,247.567 102.157 C 248.734 102.038,249.325 101.665,248.345 101.665 C 247.987 101.665,247.554 101.834,247.382 102.040 M346.755 102.608 C 346.736 102.902,345.777 103.354,345.391 103.252 C 345.285 103.224,345.198 103.374,345.198 103.585 C 345.198 103.796,345.403 103.969,345.654 103.969 C 346.205 103.969,347.068 103.022,346.898 102.605 C 346.805 102.377,346.770 102.378,346.755 102.608 M333.769 102.968 C 333.328 103.095,332.911 103.413,332.843 103.674 C 332.770 103.952,332.395 104.212,331.937 104.304 C 331.473 104.397,331.090 104.666,330.995 104.965 C 330.904 105.251,330.511 105.541,330.090 105.634 C 329.675 105.725,329.275 106.017,329.188 106.292 C 329.101 106.564,328.837 106.795,328.600 106.806 C 328.336 106.819,328.292 106.876,328.488 106.955 C 328.807 107.084,329.686 106.503,331.167 105.186 C 331.602 104.798,332.182 104.481,332.456 104.481 C 332.743 104.481,333.013 104.259,333.092 103.956 C 333.176 103.633,333.514 103.374,333.969 103.283 C 334.377 103.201,334.772 103.035,334.848 102.912 C 335.011 102.648,334.841 102.657,333.769 102.968 M244.321 103.279 C 243.329 103.625,242.959 104.218,243.774 104.156 C 244.064 104.134,244.302 103.956,244.302 103.759 C 244.302 103.558,244.459 103.462,244.661 103.540 C 244.859 103.616,245.234 103.517,245.494 103.320 C 246.099 102.861,245.573 102.843,244.321 103.279 M241.390 104.428 C 241.321 104.539,241.660 104.584,242.143 104.528 C 242.627 104.472,243.022 104.380,243.022 104.325 C 243.022 104.133,241.514 104.227,241.390 104.428 M343.790 105.506 C 343.703 105.647,343.805 105.762,344.016 105.762 C 344.227 105.762,344.471 105.647,344.558 105.506 C 344.645 105.365,344.544 105.250,344.332 105.250 C 344.121 105.250,343.877 105.365,343.790 105.506 M239.046 106.037 C 238.954 106.330,238.946 106.637,239.029 106.720 C 239.112 106.803,239.181 106.745,239.181 106.591 C 239.181 106.437,239.362 106.130,239.583 105.908 C 239.933 105.558,239.936 105.506,239.600 105.506 C 239.388 105.506,239.139 105.745,239.046 106.037 M342.455 106.466 C 342.090 106.837,342.010 107.042,342.231 107.042 C 342.631 107.042,343.239 106.384,343.110 106.091 C 343.061 105.980,342.767 106.149,342.455 106.466 M115.349 106.555 C 115.128 106.914,115.687 107.042,115.972 106.698 C 116.184 106.442,116.157 106.359,115.862 106.359 C 115.647 106.359,115.416 106.447,115.349 106.555 M327.198 107.079 C 326.951 107.217,326.810 107.427,326.883 107.546 C 326.957 107.665,326.527 107.921,325.928 108.116 C 325.330 108.310,324.868 108.607,324.902 108.776 C 324.937 108.944,324.649 109.152,324.262 109.237 C 323.084 109.497,323.012 109.562,323.881 109.583 C 324.461 109.597,324.879 109.414,325.254 108.984 C 325.550 108.643,326.097 108.288,326.469 108.195 C 327.202 108.011,328.157 107.144,327.841 106.949 C 327.734 106.883,327.444 106.941,327.198 107.079 M340.629 107.554 C 340.317 107.977,340.172 108.323,340.308 108.323 C 340.443 108.323,340.800 107.977,341.101 107.554 C 341.402 107.132,341.547 106.786,341.423 106.786 C 341.299 106.786,340.942 107.132,340.629 107.554 M238.928 107.346 C 238.926 107.583,239.058 108.102,239.222 108.498 C 239.385 108.895,239.501 109.305,239.478 109.411 C 239.455 109.517,239.552 109.603,239.693 109.603 C 239.834 109.603,240.197 109.852,240.501 110.156 L 241.054 110.708 240.909 110.156 C 240.747 109.535,241.164 109.390,241.393 109.987 C 241.474 110.198,241.707 110.371,241.912 110.371 C 242.116 110.371,242.208 110.494,242.115 110.645 C 242.022 110.795,242.102 110.895,242.292 110.866 C 242.871 110.781,244.302 111.189,244.170 111.402 C 244.039 111.614,245.394 112.164,246.049 112.164 C 246.263 112.164,246.633 112.340,246.872 112.556 C 247.350 112.989,248.914 113.510,248.908 113.234 C 248.902 113.006,246.676 111.980,245.775 111.790 C 245.387 111.709,245.070 111.493,245.070 111.311 C 245.070 111.126,244.477 110.829,243.726 110.637 C 242.987 110.449,242.025 110.024,241.589 109.693 C 241.153 109.362,240.542 109.091,240.230 109.091 C 239.866 109.091,239.728 108.985,239.845 108.795 C 239.958 108.612,239.915 108.569,239.732 108.682 C 239.542 108.800,239.435 108.655,239.433 108.274 C 239.431 107.949,239.317 107.510,239.181 107.298 C 238.966 106.967,238.932 106.974,238.928 107.346 M115.058 109.091 C 115.058 109.866,115.106 110.182,115.164 109.795 C 115.223 109.408,115.223 108.774,115.164 108.387 C 115.106 107.999,115.058 108.316,115.058 109.091 M235.391 109.654 C 235.222 109.823,235.087 110.140,235.091 110.359 C 235.098 110.693,235.153 110.684,235.440 110.307 C 235.627 110.061,235.904 109.859,236.057 109.859 C 236.209 109.859,236.405 109.744,236.492 109.603 C 236.716 109.240,235.761 109.284,235.391 109.654 M322.353 109.980 C 322.172 110.187,321.363 110.548,320.555 110.781 C 319.748 111.014,319.143 111.293,319.210 111.401 C 319.368 111.658,318.905 111.826,317.426 112.047 C 316.763 112.147,316.163 112.378,316.093 112.561 C 316.022 112.744,315.484 112.973,314.897 113.070 C 313.804 113.250,313.188 113.583,313.188 113.994 C 313.188 114.121,313.448 114.055,313.764 113.847 C 314.081 113.640,314.840 113.390,315.451 113.293 C 316.062 113.195,316.621 112.960,316.694 112.769 C 316.767 112.579,316.926 112.484,317.046 112.558 C 317.166 112.633,317.471 112.581,317.723 112.444 C 317.975 112.307,318.491 112.130,318.868 112.051 C 319.246 111.972,319.707 111.760,319.892 111.580 C 320.288 111.196,322.400 110.472,322.833 110.571 C 323.015 110.613,323.078 110.439,322.995 110.121 C 322.833 109.503,322.781 109.491,322.353 109.980 M235.091 111.172 C 235.080 111.735,235.722 112.231,236.287 112.097 C 236.711 111.996,236.706 111.970,236.236 111.771 C 235.954 111.653,235.583 111.375,235.411 111.155 C 235.130 110.795,235.099 110.796,235.091 111.172 M334.855 111.315 C 334.756 111.623,334.421 111.925,334.111 111.985 C 333.557 112.092,333.557 112.095,334.092 112.129 C 334.713 112.169,335.314 111.573,335.148 111.084 C 335.080 110.887,334.963 110.979,334.855 111.315 M228.169 112.420 C 227.817 112.695,227.655 112.923,227.809 112.926 C 227.963 112.930,228.298 112.702,228.553 112.420 C 229.137 111.775,228.994 111.775,228.169 112.420 M332.574 112.828 C 332.321 113.167,332.221 113.444,332.351 113.444 C 332.683 113.444,333.229 112.743,333.123 112.452 C 333.074 112.320,332.828 112.489,332.574 112.828 M238.839 113.623 C 239.077 114.289,239.456 114.726,239.788 114.717 C 239.947 114.713,239.875 114.592,239.629 114.448 C 239.382 114.305,239.181 114.027,239.181 113.831 C 239.181 113.635,239.067 113.404,238.927 113.318 C 238.777 113.225,238.741 113.348,238.839 113.623 M250.095 113.405 C 250.676 113.511,251.347 113.794,251.586 114.033 C 251.825 114.273,252.272 114.468,252.579 114.468 C 253.641 114.466,251.429 113.376,250.192 113.291 L 249.040 113.212 250.095 113.405 M330.748 113.591 C 330.285 114.054,330.223 114.469,330.617 114.469 C 330.766 114.469,330.822 114.361,330.741 114.230 C 330.660 114.099,330.851 113.811,331.167 113.590 C 331.482 113.369,331.607 113.188,331.445 113.188 C 331.283 113.188,330.969 113.369,330.748 113.591 M115.365 113.700 C 115.452 113.841,115.696 113.956,115.907 113.956 C 116.119 113.956,116.220 113.841,116.133 113.700 C 116.046 113.560,115.802 113.444,115.591 113.444 C 115.380 113.444,115.278 113.560,115.365 113.700 M311.908 113.970 C 311.556 114.244,310.876 114.499,310.396 114.537 C 309.533 114.605,308.798 115.286,309.178 115.665 C 309.286 115.774,309.477 115.697,309.602 115.494 C 309.728 115.292,310.498 114.949,311.314 114.733 C 312.323 114.465,312.825 114.197,312.883 113.892 C 312.993 113.322,312.714 113.344,311.908 113.970 M329.065 114.523 C 328.713 114.676,328.310 114.832,328.169 114.871 C 327.547 115.041,325.921 116.005,326.258 116.004 C 327.074 116.001,328.589 115.441,328.723 115.093 C 328.800 114.890,329.140 114.725,329.477 114.725 C 329.814 114.725,330.090 114.609,330.090 114.469 C 330.090 114.154,329.890 114.165,329.065 114.523 M253.716 114.650 C 254.035 114.711,254.496 114.709,254.741 114.645 C 254.985 114.580,254.725 114.530,254.161 114.533 C 253.598 114.536,253.398 114.588,253.716 114.650 M255.736 114.979 C 256.038 115.101,256.362 115.324,256.455 115.475 C 256.548 115.626,256.762 115.745,256.929 115.741 C 257.097 115.736,256.962 115.505,256.630 115.228 C 256.297 114.951,255.836 114.732,255.605 114.741 C 255.304 114.753,255.341 114.820,255.736 114.979 M308.166 115.091 C 308.089 115.293,307.833 115.467,307.598 115.477 C 304.907 115.597,303.198 116.032,303.205 116.596 C 303.208 116.810,303.273 116.801,303.421 116.567 C 303.537 116.384,304.198 116.184,304.889 116.124 C 308.110 115.845,308.816 115.629,308.831 114.917 C 308.838 114.575,308.311 114.713,308.166 115.091 M259.680 115.965 C 260.615 116.059,261.673 116.341,262.071 116.602 C 262.463 116.860,262.836 117.019,262.898 116.957 C 263.293 116.562,261.417 115.891,259.795 115.847 L 258.003 115.797 259.680 115.965 M243.022 116.330 C 243.022 116.713,243.716 117.445,243.902 117.258 C 243.957 117.203,243.781 116.885,243.512 116.553 C 243.178 116.141,243.022 116.070,243.022 116.330 M301.665 116.261 C 301.312 116.374,301.140 116.487,301.280 116.513 C 301.421 116.538,301.191 116.725,300.768 116.928 L 300.000 117.298 300.896 117.145 C 302.376 116.891,302.689 116.756,302.689 116.372 C 302.689 115.969,302.605 115.960,301.665 116.261 M324.712 116.645 C 324.531 116.863,324.440 117.099,324.511 117.170 C 324.581 117.240,324.787 117.119,324.968 116.901 C 325.149 116.683,325.239 116.447,325.169 116.377 C 325.099 116.306,324.893 116.427,324.712 116.645 M245.239 117.798 C 245.654 118.264,246.175 118.566,246.564 118.566 C 247.239 118.566,247.196 118.313,246.503 118.212 C 246.279 118.179,245.861 117.899,245.573 117.591 C 244.772 116.731,244.460 116.924,245.239 117.798 M265.365 117.216 C 265.893 117.271,266.757 117.271,267.286 117.216 C 267.814 117.161,267.382 117.116,266.325 117.116 C 265.269 117.116,264.837 117.161,265.365 117.216 M297.459 117.254 C 297.331 117.460,299.609 117.336,299.851 117.123 C 299.909 117.072,299.426 117.029,298.777 117.029 C 298.128 117.029,297.535 117.130,297.459 117.254 M117.435 117.507 C 117.348 117.648,117.394 117.835,117.537 117.923 C 117.681 118.012,117.799 117.991,117.802 117.877 C 117.804 117.763,117.913 117.839,118.044 118.046 C 118.175 118.254,118.347 118.358,118.426 118.280 C 118.504 118.201,118.349 117.937,118.081 117.694 C 117.787 117.428,117.530 117.354,117.435 117.507 M269.977 117.798 C 270.503 118.079,271.133 118.310,271.378 118.310 C 271.631 118.310,271.411 118.089,270.868 117.798 C 270.342 117.516,269.712 117.286,269.467 117.286 C 269.214 117.286,269.435 117.507,269.977 117.798 M292.575 117.544 C 292.663 117.686,292.468 117.909,292.142 118.040 C 291.816 118.170,291.684 118.285,291.848 118.294 C 292.407 118.324,292.958 118.000,292.958 117.642 C 292.958 117.446,292.836 117.286,292.687 117.286 C 292.537 117.286,292.487 117.402,292.575 117.544 M295.583 117.455 C 295.203 117.608,295.150 118.310,295.519 118.310 C 295.659 118.310,295.746 118.180,295.711 118.021 C 295.675 117.862,295.906 117.708,296.223 117.679 C 296.539 117.651,296.876 117.550,296.970 117.456 C 297.165 117.261,296.066 117.260,295.583 117.455 M321.575 117.642 C 321.020 118.063,321.002 118.310,321.526 118.310 C 321.753 118.310,321.850 118.187,321.750 118.026 C 321.634 117.838,321.747 117.798,322.089 117.906 C 322.427 118.013,322.654 117.935,322.753 117.677 C 322.942 117.185,322.206 117.163,321.575 117.642 M282.971 118.316 L 276.184 118.451 283.419 118.508 C 287.398 118.540,290.653 118.475,290.653 118.365 C 290.653 118.254,290.451 118.168,290.205 118.173 C 289.958 118.178,286.703 118.242,282.971 118.316 M318.310 118.896 C 318.310 119.077,318.062 119.244,317.760 119.267 C 317.457 119.289,317.082 119.441,316.927 119.604 C 316.658 119.887,318.101 119.728,318.630 119.417 C 318.914 119.250,318.863 118.566,318.566 118.566 C 318.425 118.566,318.310 118.714,318.310 118.896 M251.253 120.230 C 251.320 120.590,251.577 120.759,252.115 120.798 C 252.536 120.829,252.708 120.785,252.497 120.701 C 252.286 120.617,251.898 120.361,251.635 120.133 C 251.188 119.746,251.163 119.752,251.253 120.230 M314.469 120.213 C 314.469 120.415,314.152 120.633,313.764 120.698 C 313.236 120.785,313.284 120.806,313.954 120.779 C 314.774 120.746,315.535 119.846,314.743 119.846 C 314.592 119.846,314.469 120.012,314.469 120.213 " stroke="none" fill="#a91711" fill-rule="evenodd"></path></g></svg>